G04 MADE WITH FRITZING*
G04 WWW.FRITZING.ORG*
G04 DOUBLE SIDED*
G04 HOLES PLATED*
G04 CONTOUR ON CENTER OF CONTOUR VECTOR*
%ASAXBY*%
%FSLAX23Y23*%
%MOIN*%
%OFA0B0*%
%SFA1.0B1.0*%
%ADD10C,0.075000*%
%ADD11C,0.075833*%
%ADD12C,0.078000*%
%ADD13C,0.082000*%
%ADD14C,0.070000*%
%ADD15C,0.039370*%
%ADD16R,0.078000X0.078000*%
%ADD17R,0.082000X0.082000*%
%ADD18R,0.075000X0.075000*%
%ADD19C,0.024000*%
%ADD20C,0.048000*%
%ADD21C,0.032000*%
%ADD22C,0.020000*%
%LNCOPPER0*%
G90*
G70*
G54D10*
X3814Y3817D03*
G54D11*
X1790Y1961D03*
X1790Y2062D03*
X1790Y2169D03*
X1790Y2269D03*
X1790Y2369D03*
X1790Y2469D03*
X1790Y2569D03*
X1790Y2669D03*
X1790Y2769D03*
X1790Y2869D03*
X1790Y3039D03*
X1790Y3139D03*
X1790Y3239D03*
X1790Y3339D03*
X1790Y3439D03*
X1790Y3539D03*
X1790Y3639D03*
X1790Y3739D03*
X3690Y2339D03*
X3690Y2439D03*
X3690Y2539D03*
X3690Y2639D03*
X3690Y2739D03*
X3690Y2839D03*
X3690Y2939D03*
X3690Y3039D03*
X3690Y3239D03*
X3690Y3339D03*
X3690Y3439D03*
X3690Y3539D03*
X3690Y3639D03*
X3690Y3739D03*
G54D12*
X990Y1938D03*
X990Y2038D03*
X234Y3738D03*
X134Y3738D03*
X1390Y3738D03*
X1490Y3738D03*
X490Y3138D03*
X390Y3138D03*
X990Y3338D03*
X890Y3338D03*
X990Y3538D03*
X890Y3538D03*
X990Y3738D03*
X890Y3738D03*
X990Y3138D03*
X890Y3138D03*
X490Y3338D03*
X390Y3338D03*
X490Y3538D03*
X390Y3538D03*
X390Y3738D03*
X490Y3738D03*
G54D13*
X390Y1338D03*
X490Y1338D03*
X590Y1338D03*
X3590Y1338D03*
X3490Y1338D03*
X3390Y1338D03*
X1390Y2739D03*
X1390Y2639D03*
X1390Y2539D03*
X190Y2539D03*
X190Y2639D03*
X190Y2739D03*
G54D12*
X2890Y438D03*
X2890Y538D03*
X2890Y638D03*
X2890Y1038D03*
X2890Y1138D03*
X2890Y1238D03*
X1290Y438D03*
X1290Y538D03*
X1290Y638D03*
X1290Y1038D03*
X1290Y1138D03*
X1290Y1238D03*
G54D14*
X1490Y538D03*
X1490Y438D03*
X1490Y1138D03*
X1490Y1038D03*
X2690Y538D03*
X2690Y438D03*
X2690Y1138D03*
X2690Y1038D03*
X390Y2739D03*
X390Y2638D03*
X1190Y2639D03*
X1190Y2538D03*
G54D10*
X590Y2639D03*
X590Y2739D03*
X990Y2539D03*
X990Y2639D03*
X2390Y1038D03*
X2390Y1138D03*
X2390Y438D03*
X2390Y538D03*
X1690Y438D03*
X1690Y538D03*
X1690Y1038D03*
X1690Y1138D03*
X490Y938D03*
X590Y938D03*
X190Y1938D03*
X190Y2038D03*
X590Y1938D03*
X590Y2038D03*
X3490Y938D03*
X3390Y938D03*
G54D15*
X396Y2028D03*
X1041Y427D03*
X3489Y774D03*
X2190Y1322D03*
X870Y3030D03*
X1131Y3395D03*
X1292Y3216D03*
G54D16*
X990Y1938D03*
G54D17*
X390Y1338D03*
X3590Y1338D03*
X1390Y2739D03*
X190Y2539D03*
G54D16*
X2890Y438D03*
X2890Y1038D03*
X1290Y438D03*
X1290Y1038D03*
G54D18*
X590Y2639D03*
X2390Y1038D03*
X2390Y438D03*
X1690Y438D03*
X1690Y1038D03*
X490Y938D03*
X190Y1938D03*
X590Y1938D03*
X3490Y938D03*
G54D19*
X492Y2638D02*
X562Y2638D01*
D02*
X416Y2638D02*
X492Y2638D01*
D02*
X292Y2638D02*
X364Y2638D01*
D02*
X222Y2638D02*
X292Y2638D01*
D02*
X792Y2638D02*
X619Y2638D01*
D02*
X962Y2638D02*
X792Y2638D01*
D02*
X1291Y2638D02*
X1216Y2638D01*
D02*
X1358Y2638D02*
X1291Y2638D01*
D02*
X1092Y2638D02*
X1019Y2638D01*
D02*
X1164Y2638D02*
X1092Y2638D01*
G54D20*
D02*
X54Y2616D02*
X159Y2633D01*
D02*
X48Y3742D02*
X54Y2616D01*
D02*
X104Y3740D02*
X48Y3742D01*
G54D19*
D02*
X140Y2897D02*
X181Y2769D01*
D02*
X134Y3621D02*
X140Y2897D01*
D02*
X214Y3715D02*
X134Y3621D01*
D02*
X314Y2737D02*
X364Y2738D01*
D02*
X222Y2738D02*
X314Y2737D01*
D02*
X462Y2737D02*
X416Y2738D01*
D02*
X562Y2738D02*
X462Y2737D01*
D02*
X1258Y2533D02*
X1216Y2536D01*
D02*
X1358Y2537D02*
X1258Y2533D01*
D02*
X1092Y2536D02*
X1164Y2538D01*
D02*
X1019Y2538D02*
X1092Y2536D01*
G54D20*
D02*
X562Y1938D02*
X219Y1938D01*
D02*
X960Y1938D02*
X619Y1938D01*
G54D21*
D02*
X190Y2506D02*
X190Y2067D01*
D02*
X415Y2029D02*
X562Y2037D01*
D02*
X219Y2037D02*
X377Y2029D01*
D02*
X960Y2038D02*
X619Y2038D01*
G54D20*
D02*
X55Y2624D02*
X52Y1928D01*
D02*
X158Y2635D02*
X55Y2624D01*
D02*
X52Y1928D02*
X162Y1936D01*
D02*
X2072Y3897D02*
X3884Y3893D01*
D02*
X3884Y3893D02*
X3887Y2935D01*
D02*
X1492Y3900D02*
X2072Y3897D01*
D02*
X3887Y2935D02*
X3719Y2938D01*
D02*
X128Y3910D02*
X1492Y3900D01*
D02*
X1492Y3900D02*
X1491Y3769D01*
D02*
X133Y3768D02*
X128Y3910D01*
G54D19*
D02*
X490Y1140D02*
X490Y967D01*
D02*
X490Y1306D02*
X490Y1140D01*
G54D20*
D02*
X52Y1928D02*
X62Y937D01*
D02*
X62Y937D02*
X462Y938D01*
D02*
X1287Y60D02*
X1290Y408D01*
D02*
X62Y937D02*
X65Y70D01*
D02*
X65Y70D02*
X1287Y60D01*
G54D19*
D02*
X1464Y438D02*
X1320Y438D01*
D02*
X1662Y438D02*
X1516Y438D01*
D02*
X1662Y538D02*
X1516Y538D01*
D02*
X1464Y538D02*
X1320Y538D01*
D02*
X590Y1306D02*
X590Y967D01*
D02*
X1261Y1130D02*
X618Y946D01*
D02*
X595Y529D02*
X1260Y538D01*
D02*
X591Y910D02*
X595Y529D01*
D02*
X1662Y1138D02*
X1516Y1138D01*
D02*
X1464Y1138D02*
X1320Y1138D01*
D02*
X1662Y1038D02*
X1516Y1038D01*
D02*
X1464Y1038D02*
X1320Y1038D01*
D02*
X1060Y428D02*
X1260Y437D01*
G54D20*
D02*
X1287Y60D02*
X2368Y60D01*
D02*
X2387Y79D02*
X2390Y410D01*
G54D19*
D02*
X2664Y438D02*
X2419Y438D01*
D02*
X2860Y438D02*
X2716Y438D01*
D02*
X2860Y538D02*
X2716Y538D01*
D02*
X2419Y538D02*
X2664Y538D01*
D02*
X2419Y1038D02*
X2664Y1038D01*
D02*
X2716Y1038D02*
X2860Y1038D01*
D02*
X2419Y1138D02*
X2664Y1138D01*
D02*
X2716Y1138D02*
X2860Y1138D01*
G54D20*
D02*
X3489Y804D02*
X3490Y899D01*
D02*
X3495Y57D02*
X3489Y744D01*
D02*
X2406Y60D02*
X3495Y57D01*
G54D19*
D02*
X3490Y1306D02*
X3490Y967D01*
D02*
X3390Y1306D02*
X3390Y967D01*
D02*
X3472Y781D02*
X2918Y1026D01*
D02*
X3364Y949D02*
X2918Y1127D01*
D02*
X1907Y3139D02*
X2877Y1265D01*
D02*
X1819Y3139D02*
X1907Y3139D01*
D02*
X2188Y650D02*
X2860Y639D01*
D02*
X1941Y2664D02*
X2188Y650D01*
D02*
X1819Y2668D02*
X1941Y2664D01*
D02*
X1879Y2567D02*
X2087Y646D01*
D02*
X2087Y646D02*
X1320Y639D01*
D02*
X1819Y2568D02*
X1879Y2567D01*
D02*
X1997Y2751D02*
X2188Y1341D01*
D02*
X1818Y2766D02*
X1997Y2751D01*
D02*
X639Y3247D02*
X516Y3323D01*
D02*
X851Y3031D02*
X747Y3036D01*
D02*
X747Y3036D02*
X639Y3247D01*
D02*
X1274Y3211D02*
X1020Y3146D01*
D02*
X1113Y3399D02*
X520Y3532D01*
D02*
X1629Y2538D02*
X1422Y2538D01*
D02*
X1396Y3709D02*
X1629Y2538D01*
G36*
X44Y3897D02*
X44Y3809D01*
X3704Y3809D01*
X3704Y3807D01*
X3712Y3807D01*
X3712Y3805D01*
X3718Y3805D01*
X3718Y3803D01*
X3722Y3803D01*
X3722Y3801D01*
X3724Y3801D01*
X3724Y3799D01*
X3728Y3799D01*
X3728Y3797D01*
X3730Y3797D01*
X3730Y3795D01*
X3734Y3795D01*
X3734Y3793D01*
X3736Y3793D01*
X3736Y3791D01*
X3738Y3791D01*
X3738Y3789D01*
X3740Y3789D01*
X3740Y3787D01*
X3742Y3787D01*
X3742Y3785D01*
X3744Y3785D01*
X3744Y3783D01*
X3746Y3783D01*
X3746Y3781D01*
X3748Y3781D01*
X3748Y3777D01*
X3750Y3777D01*
X3750Y3775D01*
X3752Y3775D01*
X3752Y3771D01*
X3754Y3771D01*
X3754Y3767D01*
X3756Y3767D01*
X3756Y3763D01*
X3758Y3763D01*
X3758Y3755D01*
X3760Y3755D01*
X3760Y3721D01*
X3758Y3721D01*
X3758Y3715D01*
X3756Y3715D01*
X3756Y3709D01*
X3754Y3709D01*
X3754Y3705D01*
X3752Y3705D01*
X3752Y3703D01*
X3750Y3703D01*
X3750Y3699D01*
X3748Y3699D01*
X3748Y3677D01*
X3750Y3677D01*
X3750Y3675D01*
X3752Y3675D01*
X3752Y3671D01*
X3754Y3671D01*
X3754Y3667D01*
X3756Y3667D01*
X3756Y3663D01*
X3758Y3663D01*
X3758Y3655D01*
X3760Y3655D01*
X3760Y3621D01*
X3758Y3621D01*
X3758Y3615D01*
X3756Y3615D01*
X3756Y3609D01*
X3754Y3609D01*
X3754Y3605D01*
X3752Y3605D01*
X3752Y3603D01*
X3750Y3603D01*
X3750Y3599D01*
X3748Y3599D01*
X3748Y3577D01*
X3750Y3577D01*
X3750Y3575D01*
X3752Y3575D01*
X3752Y3571D01*
X3754Y3571D01*
X3754Y3567D01*
X3756Y3567D01*
X3756Y3563D01*
X3758Y3563D01*
X3758Y3555D01*
X3760Y3555D01*
X3760Y3521D01*
X3758Y3521D01*
X3758Y3515D01*
X3756Y3515D01*
X3756Y3509D01*
X3754Y3509D01*
X3754Y3505D01*
X3752Y3505D01*
X3752Y3503D01*
X3750Y3503D01*
X3750Y3499D01*
X3748Y3499D01*
X3748Y3477D01*
X3750Y3477D01*
X3750Y3475D01*
X3752Y3475D01*
X3752Y3471D01*
X3754Y3471D01*
X3754Y3467D01*
X3756Y3467D01*
X3756Y3463D01*
X3758Y3463D01*
X3758Y3455D01*
X3760Y3455D01*
X3760Y3421D01*
X3758Y3421D01*
X3758Y3415D01*
X3756Y3415D01*
X3756Y3409D01*
X3754Y3409D01*
X3754Y3405D01*
X3752Y3405D01*
X3752Y3403D01*
X3750Y3403D01*
X3750Y3399D01*
X3748Y3399D01*
X3748Y3377D01*
X3750Y3377D01*
X3750Y3375D01*
X3752Y3375D01*
X3752Y3371D01*
X3754Y3371D01*
X3754Y3367D01*
X3756Y3367D01*
X3756Y3363D01*
X3758Y3363D01*
X3758Y3355D01*
X3760Y3355D01*
X3760Y3321D01*
X3758Y3321D01*
X3758Y3315D01*
X3756Y3315D01*
X3756Y3309D01*
X3754Y3309D01*
X3754Y3305D01*
X3752Y3305D01*
X3752Y3303D01*
X3750Y3303D01*
X3750Y3299D01*
X3748Y3299D01*
X3748Y3277D01*
X3750Y3277D01*
X3750Y3275D01*
X3752Y3275D01*
X3752Y3271D01*
X3754Y3271D01*
X3754Y3267D01*
X3756Y3267D01*
X3756Y3263D01*
X3758Y3263D01*
X3758Y3255D01*
X3760Y3255D01*
X3760Y3221D01*
X3758Y3221D01*
X3758Y3215D01*
X3756Y3215D01*
X3756Y3209D01*
X3754Y3209D01*
X3754Y3205D01*
X3752Y3205D01*
X3752Y3203D01*
X3750Y3203D01*
X3750Y3199D01*
X3748Y3199D01*
X3748Y3197D01*
X3746Y3197D01*
X3746Y3195D01*
X3744Y3195D01*
X3744Y3193D01*
X3742Y3193D01*
X3742Y3189D01*
X3740Y3189D01*
X3740Y3187D01*
X3736Y3187D01*
X3736Y3185D01*
X3734Y3185D01*
X3734Y3183D01*
X3732Y3183D01*
X3732Y3181D01*
X3730Y3181D01*
X3730Y3179D01*
X3726Y3179D01*
X3726Y3177D01*
X3724Y3177D01*
X3724Y3175D01*
X3720Y3175D01*
X3720Y3173D01*
X3714Y3173D01*
X3714Y3171D01*
X3708Y3171D01*
X3708Y3169D01*
X3896Y3169D01*
X3896Y3897D01*
X44Y3897D01*
G37*
D02*
G36*
X44Y3809D02*
X44Y3749D01*
X64Y3749D01*
X64Y3759D01*
X66Y3759D01*
X66Y3765D01*
X68Y3765D01*
X68Y3769D01*
X70Y3769D01*
X70Y3773D01*
X72Y3773D01*
X72Y3777D01*
X74Y3777D01*
X74Y3779D01*
X76Y3779D01*
X76Y3781D01*
X78Y3781D01*
X78Y3785D01*
X80Y3785D01*
X80Y3787D01*
X82Y3787D01*
X82Y3789D01*
X84Y3789D01*
X84Y3791D01*
X86Y3791D01*
X86Y3793D01*
X88Y3793D01*
X88Y3795D01*
X92Y3795D01*
X92Y3797D01*
X94Y3797D01*
X94Y3799D01*
X98Y3799D01*
X98Y3801D01*
X100Y3801D01*
X100Y3803D01*
X104Y3803D01*
X104Y3805D01*
X110Y3805D01*
X110Y3807D01*
X116Y3807D01*
X116Y3809D01*
X44Y3809D01*
G37*
D02*
G36*
X152Y3809D02*
X152Y3807D01*
X158Y3807D01*
X158Y3805D01*
X164Y3805D01*
X164Y3803D01*
X166Y3803D01*
X166Y3801D01*
X170Y3801D01*
X170Y3799D01*
X174Y3799D01*
X174Y3797D01*
X194Y3797D01*
X194Y3799D01*
X198Y3799D01*
X198Y3801D01*
X200Y3801D01*
X200Y3803D01*
X204Y3803D01*
X204Y3805D01*
X210Y3805D01*
X210Y3807D01*
X216Y3807D01*
X216Y3809D01*
X152Y3809D01*
G37*
D02*
G36*
X252Y3809D02*
X252Y3807D01*
X258Y3807D01*
X258Y3805D01*
X264Y3805D01*
X264Y3803D01*
X266Y3803D01*
X266Y3801D01*
X270Y3801D01*
X270Y3799D01*
X274Y3799D01*
X274Y3797D01*
X276Y3797D01*
X276Y3795D01*
X278Y3795D01*
X278Y3793D01*
X280Y3793D01*
X280Y3791D01*
X284Y3791D01*
X284Y3789D01*
X286Y3789D01*
X286Y3785D01*
X288Y3785D01*
X288Y3783D01*
X290Y3783D01*
X290Y3781D01*
X292Y3781D01*
X292Y3779D01*
X294Y3779D01*
X294Y3775D01*
X296Y3775D01*
X296Y3773D01*
X298Y3773D01*
X298Y3769D01*
X300Y3769D01*
X300Y3763D01*
X302Y3763D01*
X302Y3757D01*
X322Y3757D01*
X322Y3763D01*
X324Y3763D01*
X324Y3769D01*
X326Y3769D01*
X326Y3773D01*
X328Y3773D01*
X328Y3775D01*
X330Y3775D01*
X330Y3779D01*
X332Y3779D01*
X332Y3781D01*
X334Y3781D01*
X334Y3783D01*
X336Y3783D01*
X336Y3785D01*
X338Y3785D01*
X338Y3789D01*
X340Y3789D01*
X340Y3791D01*
X344Y3791D01*
X344Y3793D01*
X346Y3793D01*
X346Y3795D01*
X348Y3795D01*
X348Y3797D01*
X350Y3797D01*
X350Y3799D01*
X354Y3799D01*
X354Y3801D01*
X358Y3801D01*
X358Y3803D01*
X360Y3803D01*
X360Y3805D01*
X366Y3805D01*
X366Y3807D01*
X372Y3807D01*
X372Y3809D01*
X252Y3809D01*
G37*
D02*
G36*
X408Y3809D02*
X408Y3807D01*
X416Y3807D01*
X416Y3805D01*
X420Y3805D01*
X420Y3803D01*
X424Y3803D01*
X424Y3801D01*
X428Y3801D01*
X428Y3799D01*
X430Y3799D01*
X430Y3797D01*
X450Y3797D01*
X450Y3799D01*
X454Y3799D01*
X454Y3801D01*
X458Y3801D01*
X458Y3803D01*
X460Y3803D01*
X460Y3805D01*
X466Y3805D01*
X466Y3807D01*
X472Y3807D01*
X472Y3809D01*
X408Y3809D01*
G37*
D02*
G36*
X508Y3809D02*
X508Y3807D01*
X516Y3807D01*
X516Y3805D01*
X520Y3805D01*
X520Y3803D01*
X524Y3803D01*
X524Y3801D01*
X528Y3801D01*
X528Y3799D01*
X530Y3799D01*
X530Y3797D01*
X532Y3797D01*
X532Y3795D01*
X536Y3795D01*
X536Y3793D01*
X538Y3793D01*
X538Y3791D01*
X540Y3791D01*
X540Y3789D01*
X542Y3789D01*
X542Y3787D01*
X544Y3787D01*
X544Y3785D01*
X546Y3785D01*
X546Y3783D01*
X548Y3783D01*
X548Y3779D01*
X550Y3779D01*
X550Y3777D01*
X552Y3777D01*
X552Y3773D01*
X554Y3773D01*
X554Y3769D01*
X556Y3769D01*
X556Y3765D01*
X558Y3765D01*
X558Y3761D01*
X560Y3761D01*
X560Y3751D01*
X562Y3751D01*
X562Y3725D01*
X560Y3725D01*
X560Y3717D01*
X558Y3717D01*
X558Y3711D01*
X556Y3711D01*
X556Y3707D01*
X554Y3707D01*
X554Y3703D01*
X552Y3703D01*
X552Y3701D01*
X550Y3701D01*
X550Y3697D01*
X548Y3697D01*
X548Y3695D01*
X546Y3695D01*
X546Y3693D01*
X544Y3693D01*
X544Y3691D01*
X542Y3691D01*
X542Y3689D01*
X540Y3689D01*
X540Y3687D01*
X538Y3687D01*
X538Y3685D01*
X536Y3685D01*
X536Y3683D01*
X534Y3683D01*
X534Y3681D01*
X532Y3681D01*
X532Y3679D01*
X528Y3679D01*
X528Y3677D01*
X526Y3677D01*
X526Y3675D01*
X522Y3675D01*
X522Y3673D01*
X518Y3673D01*
X518Y3671D01*
X512Y3671D01*
X512Y3669D01*
X504Y3669D01*
X504Y3667D01*
X876Y3667D01*
X876Y3669D01*
X868Y3669D01*
X868Y3671D01*
X864Y3671D01*
X864Y3673D01*
X858Y3673D01*
X858Y3675D01*
X856Y3675D01*
X856Y3677D01*
X852Y3677D01*
X852Y3679D01*
X850Y3679D01*
X850Y3681D01*
X846Y3681D01*
X846Y3683D01*
X844Y3683D01*
X844Y3685D01*
X842Y3685D01*
X842Y3687D01*
X840Y3687D01*
X840Y3689D01*
X838Y3689D01*
X838Y3691D01*
X836Y3691D01*
X836Y3693D01*
X834Y3693D01*
X834Y3695D01*
X832Y3695D01*
X832Y3699D01*
X830Y3699D01*
X830Y3701D01*
X828Y3701D01*
X828Y3705D01*
X826Y3705D01*
X826Y3709D01*
X824Y3709D01*
X824Y3713D01*
X822Y3713D01*
X822Y3719D01*
X820Y3719D01*
X820Y3757D01*
X822Y3757D01*
X822Y3763D01*
X824Y3763D01*
X824Y3769D01*
X826Y3769D01*
X826Y3773D01*
X828Y3773D01*
X828Y3775D01*
X830Y3775D01*
X830Y3779D01*
X832Y3779D01*
X832Y3781D01*
X834Y3781D01*
X834Y3783D01*
X836Y3783D01*
X836Y3785D01*
X838Y3785D01*
X838Y3789D01*
X840Y3789D01*
X840Y3791D01*
X844Y3791D01*
X844Y3793D01*
X846Y3793D01*
X846Y3795D01*
X848Y3795D01*
X848Y3797D01*
X850Y3797D01*
X850Y3799D01*
X854Y3799D01*
X854Y3801D01*
X858Y3801D01*
X858Y3803D01*
X860Y3803D01*
X860Y3805D01*
X866Y3805D01*
X866Y3807D01*
X872Y3807D01*
X872Y3809D01*
X508Y3809D01*
G37*
D02*
G36*
X908Y3809D02*
X908Y3807D01*
X916Y3807D01*
X916Y3805D01*
X920Y3805D01*
X920Y3803D01*
X924Y3803D01*
X924Y3801D01*
X928Y3801D01*
X928Y3799D01*
X930Y3799D01*
X930Y3797D01*
X950Y3797D01*
X950Y3799D01*
X954Y3799D01*
X954Y3801D01*
X958Y3801D01*
X958Y3803D01*
X960Y3803D01*
X960Y3805D01*
X966Y3805D01*
X966Y3807D01*
X972Y3807D01*
X972Y3809D01*
X908Y3809D01*
G37*
D02*
G36*
X1008Y3809D02*
X1008Y3807D01*
X1016Y3807D01*
X1016Y3805D01*
X1020Y3805D01*
X1020Y3803D01*
X1024Y3803D01*
X1024Y3801D01*
X1028Y3801D01*
X1028Y3799D01*
X1030Y3799D01*
X1030Y3797D01*
X1032Y3797D01*
X1032Y3795D01*
X1036Y3795D01*
X1036Y3793D01*
X1038Y3793D01*
X1038Y3791D01*
X1040Y3791D01*
X1040Y3789D01*
X1042Y3789D01*
X1042Y3787D01*
X1044Y3787D01*
X1044Y3785D01*
X1046Y3785D01*
X1046Y3783D01*
X1048Y3783D01*
X1048Y3779D01*
X1050Y3779D01*
X1050Y3777D01*
X1052Y3777D01*
X1052Y3773D01*
X1054Y3773D01*
X1054Y3769D01*
X1056Y3769D01*
X1056Y3765D01*
X1058Y3765D01*
X1058Y3761D01*
X1060Y3761D01*
X1060Y3751D01*
X1062Y3751D01*
X1062Y3725D01*
X1060Y3725D01*
X1060Y3717D01*
X1058Y3717D01*
X1058Y3711D01*
X1056Y3711D01*
X1056Y3707D01*
X1054Y3707D01*
X1054Y3703D01*
X1052Y3703D01*
X1052Y3701D01*
X1050Y3701D01*
X1050Y3697D01*
X1048Y3697D01*
X1048Y3695D01*
X1046Y3695D01*
X1046Y3693D01*
X1044Y3693D01*
X1044Y3691D01*
X1042Y3691D01*
X1042Y3689D01*
X1040Y3689D01*
X1040Y3687D01*
X1038Y3687D01*
X1038Y3685D01*
X1036Y3685D01*
X1036Y3683D01*
X1034Y3683D01*
X1034Y3681D01*
X1032Y3681D01*
X1032Y3679D01*
X1028Y3679D01*
X1028Y3677D01*
X1026Y3677D01*
X1026Y3675D01*
X1022Y3675D01*
X1022Y3673D01*
X1018Y3673D01*
X1018Y3671D01*
X1012Y3671D01*
X1012Y3669D01*
X1004Y3669D01*
X1004Y3667D01*
X1358Y3667D01*
X1358Y3675D01*
X1356Y3675D01*
X1356Y3677D01*
X1352Y3677D01*
X1352Y3679D01*
X1350Y3679D01*
X1350Y3681D01*
X1346Y3681D01*
X1346Y3683D01*
X1344Y3683D01*
X1344Y3685D01*
X1342Y3685D01*
X1342Y3687D01*
X1340Y3687D01*
X1340Y3689D01*
X1338Y3689D01*
X1338Y3691D01*
X1336Y3691D01*
X1336Y3693D01*
X1334Y3693D01*
X1334Y3695D01*
X1332Y3695D01*
X1332Y3699D01*
X1330Y3699D01*
X1330Y3701D01*
X1328Y3701D01*
X1328Y3705D01*
X1326Y3705D01*
X1326Y3709D01*
X1324Y3709D01*
X1324Y3713D01*
X1322Y3713D01*
X1322Y3719D01*
X1320Y3719D01*
X1320Y3757D01*
X1322Y3757D01*
X1322Y3763D01*
X1324Y3763D01*
X1324Y3769D01*
X1326Y3769D01*
X1326Y3773D01*
X1328Y3773D01*
X1328Y3775D01*
X1330Y3775D01*
X1330Y3779D01*
X1332Y3779D01*
X1332Y3781D01*
X1334Y3781D01*
X1334Y3783D01*
X1336Y3783D01*
X1336Y3785D01*
X1338Y3785D01*
X1338Y3789D01*
X1340Y3789D01*
X1340Y3791D01*
X1344Y3791D01*
X1344Y3793D01*
X1346Y3793D01*
X1346Y3795D01*
X1348Y3795D01*
X1348Y3797D01*
X1350Y3797D01*
X1350Y3799D01*
X1354Y3799D01*
X1354Y3801D01*
X1358Y3801D01*
X1358Y3803D01*
X1360Y3803D01*
X1360Y3805D01*
X1366Y3805D01*
X1366Y3807D01*
X1372Y3807D01*
X1372Y3809D01*
X1008Y3809D01*
G37*
D02*
G36*
X1408Y3809D02*
X1408Y3807D01*
X1416Y3807D01*
X1416Y3805D01*
X1420Y3805D01*
X1420Y3803D01*
X1424Y3803D01*
X1424Y3801D01*
X1428Y3801D01*
X1428Y3799D01*
X1430Y3799D01*
X1430Y3797D01*
X1450Y3797D01*
X1450Y3799D01*
X1454Y3799D01*
X1454Y3801D01*
X1458Y3801D01*
X1458Y3803D01*
X1460Y3803D01*
X1460Y3805D01*
X1466Y3805D01*
X1466Y3807D01*
X1472Y3807D01*
X1472Y3809D01*
X1408Y3809D01*
G37*
D02*
G36*
X1508Y3809D02*
X1508Y3807D01*
X1516Y3807D01*
X1516Y3805D01*
X1520Y3805D01*
X1520Y3803D01*
X1524Y3803D01*
X1524Y3801D01*
X1528Y3801D01*
X1528Y3799D01*
X1530Y3799D01*
X1530Y3797D01*
X1532Y3797D01*
X1532Y3795D01*
X1536Y3795D01*
X1536Y3793D01*
X1538Y3793D01*
X1538Y3791D01*
X1540Y3791D01*
X1540Y3789D01*
X1542Y3789D01*
X1542Y3787D01*
X1544Y3787D01*
X1544Y3785D01*
X1546Y3785D01*
X1546Y3783D01*
X1548Y3783D01*
X1548Y3779D01*
X1550Y3779D01*
X1550Y3777D01*
X1552Y3777D01*
X1552Y3773D01*
X1554Y3773D01*
X1554Y3769D01*
X1556Y3769D01*
X1556Y3765D01*
X1558Y3765D01*
X1558Y3761D01*
X1560Y3761D01*
X1560Y3751D01*
X1562Y3751D01*
X1562Y3725D01*
X1560Y3725D01*
X1560Y3717D01*
X1558Y3717D01*
X1558Y3711D01*
X1556Y3711D01*
X1556Y3707D01*
X1554Y3707D01*
X1554Y3703D01*
X1552Y3703D01*
X1552Y3701D01*
X1550Y3701D01*
X1550Y3697D01*
X1548Y3697D01*
X1548Y3695D01*
X1546Y3695D01*
X1546Y3693D01*
X1544Y3693D01*
X1544Y3691D01*
X1542Y3691D01*
X1542Y3689D01*
X1540Y3689D01*
X1540Y3687D01*
X1538Y3687D01*
X1538Y3685D01*
X1536Y3685D01*
X1536Y3683D01*
X1534Y3683D01*
X1534Y3681D01*
X1532Y3681D01*
X1532Y3679D01*
X1528Y3679D01*
X1528Y3677D01*
X1526Y3677D01*
X1526Y3675D01*
X1522Y3675D01*
X1522Y3673D01*
X1518Y3673D01*
X1518Y3671D01*
X1512Y3671D01*
X1512Y3669D01*
X1504Y3669D01*
X1504Y3667D01*
X1726Y3667D01*
X1726Y3669D01*
X1728Y3669D01*
X1728Y3673D01*
X1730Y3673D01*
X1730Y3677D01*
X1732Y3677D01*
X1732Y3701D01*
X1730Y3701D01*
X1730Y3703D01*
X1728Y3703D01*
X1728Y3707D01*
X1726Y3707D01*
X1726Y3711D01*
X1724Y3711D01*
X1724Y3717D01*
X1722Y3717D01*
X1722Y3725D01*
X1720Y3725D01*
X1720Y3753D01*
X1722Y3753D01*
X1722Y3761D01*
X1724Y3761D01*
X1724Y3765D01*
X1726Y3765D01*
X1726Y3769D01*
X1728Y3769D01*
X1728Y3773D01*
X1730Y3773D01*
X1730Y3777D01*
X1732Y3777D01*
X1732Y3779D01*
X1734Y3779D01*
X1734Y3781D01*
X1736Y3781D01*
X1736Y3785D01*
X1738Y3785D01*
X1738Y3787D01*
X1740Y3787D01*
X1740Y3789D01*
X1742Y3789D01*
X1742Y3791D01*
X1744Y3791D01*
X1744Y3793D01*
X1748Y3793D01*
X1748Y3795D01*
X1750Y3795D01*
X1750Y3797D01*
X1752Y3797D01*
X1752Y3799D01*
X1756Y3799D01*
X1756Y3801D01*
X1760Y3801D01*
X1760Y3803D01*
X1764Y3803D01*
X1764Y3805D01*
X1768Y3805D01*
X1768Y3807D01*
X1778Y3807D01*
X1778Y3809D01*
X1508Y3809D01*
G37*
D02*
G36*
X1804Y3809D02*
X1804Y3807D01*
X1812Y3807D01*
X1812Y3805D01*
X1818Y3805D01*
X1818Y3803D01*
X1822Y3803D01*
X1822Y3801D01*
X1824Y3801D01*
X1824Y3799D01*
X1828Y3799D01*
X1828Y3797D01*
X1830Y3797D01*
X1830Y3795D01*
X1834Y3795D01*
X1834Y3793D01*
X1836Y3793D01*
X1836Y3791D01*
X1838Y3791D01*
X1838Y3789D01*
X1840Y3789D01*
X1840Y3787D01*
X1842Y3787D01*
X1842Y3785D01*
X1844Y3785D01*
X1844Y3783D01*
X1846Y3783D01*
X1846Y3781D01*
X1848Y3781D01*
X1848Y3777D01*
X1850Y3777D01*
X1850Y3775D01*
X1852Y3775D01*
X1852Y3771D01*
X1854Y3771D01*
X1854Y3767D01*
X1856Y3767D01*
X1856Y3763D01*
X1858Y3763D01*
X1858Y3755D01*
X1860Y3755D01*
X1860Y3721D01*
X1858Y3721D01*
X1858Y3715D01*
X1856Y3715D01*
X1856Y3709D01*
X1854Y3709D01*
X1854Y3705D01*
X1852Y3705D01*
X1852Y3703D01*
X1850Y3703D01*
X1850Y3699D01*
X1848Y3699D01*
X1848Y3677D01*
X1850Y3677D01*
X1850Y3675D01*
X1852Y3675D01*
X1852Y3671D01*
X1854Y3671D01*
X1854Y3667D01*
X1856Y3667D01*
X1856Y3663D01*
X1858Y3663D01*
X1858Y3655D01*
X1860Y3655D01*
X1860Y3621D01*
X1858Y3621D01*
X1858Y3615D01*
X1856Y3615D01*
X1856Y3609D01*
X1854Y3609D01*
X1854Y3605D01*
X1852Y3605D01*
X1852Y3603D01*
X1850Y3603D01*
X1850Y3599D01*
X1848Y3599D01*
X1848Y3577D01*
X1850Y3577D01*
X1850Y3575D01*
X1852Y3575D01*
X1852Y3571D01*
X1854Y3571D01*
X1854Y3567D01*
X1856Y3567D01*
X1856Y3563D01*
X1858Y3563D01*
X1858Y3555D01*
X1860Y3555D01*
X1860Y3521D01*
X1858Y3521D01*
X1858Y3515D01*
X1856Y3515D01*
X1856Y3509D01*
X1854Y3509D01*
X1854Y3505D01*
X1852Y3505D01*
X1852Y3503D01*
X1850Y3503D01*
X1850Y3499D01*
X1848Y3499D01*
X1848Y3477D01*
X1850Y3477D01*
X1850Y3475D01*
X1852Y3475D01*
X1852Y3471D01*
X1854Y3471D01*
X1854Y3467D01*
X1856Y3467D01*
X1856Y3463D01*
X1858Y3463D01*
X1858Y3455D01*
X1860Y3455D01*
X1860Y3421D01*
X1858Y3421D01*
X1858Y3415D01*
X1856Y3415D01*
X1856Y3409D01*
X1854Y3409D01*
X1854Y3405D01*
X1852Y3405D01*
X1852Y3403D01*
X1850Y3403D01*
X1850Y3399D01*
X1848Y3399D01*
X1848Y3377D01*
X1850Y3377D01*
X1850Y3375D01*
X1852Y3375D01*
X1852Y3371D01*
X1854Y3371D01*
X1854Y3367D01*
X1856Y3367D01*
X1856Y3363D01*
X1858Y3363D01*
X1858Y3355D01*
X1860Y3355D01*
X1860Y3321D01*
X1858Y3321D01*
X1858Y3315D01*
X1856Y3315D01*
X1856Y3309D01*
X1854Y3309D01*
X1854Y3305D01*
X1852Y3305D01*
X1852Y3303D01*
X1850Y3303D01*
X1850Y3299D01*
X1848Y3299D01*
X1848Y3277D01*
X1850Y3277D01*
X1850Y3275D01*
X1852Y3275D01*
X1852Y3271D01*
X1854Y3271D01*
X1854Y3267D01*
X1856Y3267D01*
X1856Y3263D01*
X1858Y3263D01*
X1858Y3255D01*
X1860Y3255D01*
X1860Y3221D01*
X1858Y3221D01*
X1858Y3215D01*
X1856Y3215D01*
X1856Y3209D01*
X1854Y3209D01*
X1854Y3205D01*
X1852Y3205D01*
X1852Y3203D01*
X1850Y3203D01*
X1850Y3183D01*
X1924Y3183D01*
X1924Y3181D01*
X1930Y3181D01*
X1930Y3179D01*
X1934Y3179D01*
X1934Y3177D01*
X1936Y3177D01*
X1936Y3175D01*
X1938Y3175D01*
X1938Y3173D01*
X1940Y3173D01*
X1940Y3171D01*
X1942Y3171D01*
X1942Y3169D01*
X3672Y3169D01*
X3672Y3171D01*
X3666Y3171D01*
X3666Y3173D01*
X3662Y3173D01*
X3662Y3175D01*
X3658Y3175D01*
X3658Y3177D01*
X3654Y3177D01*
X3654Y3179D01*
X3652Y3179D01*
X3652Y3181D01*
X3648Y3181D01*
X3648Y3183D01*
X3646Y3183D01*
X3646Y3185D01*
X3644Y3185D01*
X3644Y3187D01*
X3642Y3187D01*
X3642Y3189D01*
X3640Y3189D01*
X3640Y3191D01*
X3638Y3191D01*
X3638Y3193D01*
X3636Y3193D01*
X3636Y3195D01*
X3634Y3195D01*
X3634Y3197D01*
X3632Y3197D01*
X3632Y3201D01*
X3630Y3201D01*
X3630Y3203D01*
X3628Y3203D01*
X3628Y3207D01*
X3626Y3207D01*
X3626Y3211D01*
X3624Y3211D01*
X3624Y3217D01*
X3622Y3217D01*
X3622Y3225D01*
X3620Y3225D01*
X3620Y3253D01*
X3622Y3253D01*
X3622Y3261D01*
X3624Y3261D01*
X3624Y3265D01*
X3626Y3265D01*
X3626Y3269D01*
X3628Y3269D01*
X3628Y3273D01*
X3630Y3273D01*
X3630Y3277D01*
X3632Y3277D01*
X3632Y3301D01*
X3630Y3301D01*
X3630Y3303D01*
X3628Y3303D01*
X3628Y3307D01*
X3626Y3307D01*
X3626Y3311D01*
X3624Y3311D01*
X3624Y3317D01*
X3622Y3317D01*
X3622Y3325D01*
X3620Y3325D01*
X3620Y3353D01*
X3622Y3353D01*
X3622Y3361D01*
X3624Y3361D01*
X3624Y3365D01*
X3626Y3365D01*
X3626Y3369D01*
X3628Y3369D01*
X3628Y3373D01*
X3630Y3373D01*
X3630Y3377D01*
X3632Y3377D01*
X3632Y3401D01*
X3630Y3401D01*
X3630Y3403D01*
X3628Y3403D01*
X3628Y3407D01*
X3626Y3407D01*
X3626Y3411D01*
X3624Y3411D01*
X3624Y3417D01*
X3622Y3417D01*
X3622Y3425D01*
X3620Y3425D01*
X3620Y3453D01*
X3622Y3453D01*
X3622Y3461D01*
X3624Y3461D01*
X3624Y3465D01*
X3626Y3465D01*
X3626Y3469D01*
X3628Y3469D01*
X3628Y3473D01*
X3630Y3473D01*
X3630Y3477D01*
X3632Y3477D01*
X3632Y3501D01*
X3630Y3501D01*
X3630Y3503D01*
X3628Y3503D01*
X3628Y3507D01*
X3626Y3507D01*
X3626Y3511D01*
X3624Y3511D01*
X3624Y3517D01*
X3622Y3517D01*
X3622Y3525D01*
X3620Y3525D01*
X3620Y3553D01*
X3622Y3553D01*
X3622Y3561D01*
X3624Y3561D01*
X3624Y3565D01*
X3626Y3565D01*
X3626Y3569D01*
X3628Y3569D01*
X3628Y3573D01*
X3630Y3573D01*
X3630Y3577D01*
X3632Y3577D01*
X3632Y3601D01*
X3630Y3601D01*
X3630Y3603D01*
X3628Y3603D01*
X3628Y3607D01*
X3626Y3607D01*
X3626Y3611D01*
X3624Y3611D01*
X3624Y3617D01*
X3622Y3617D01*
X3622Y3625D01*
X3620Y3625D01*
X3620Y3653D01*
X3622Y3653D01*
X3622Y3661D01*
X3624Y3661D01*
X3624Y3665D01*
X3626Y3665D01*
X3626Y3669D01*
X3628Y3669D01*
X3628Y3673D01*
X3630Y3673D01*
X3630Y3677D01*
X3632Y3677D01*
X3632Y3701D01*
X3630Y3701D01*
X3630Y3703D01*
X3628Y3703D01*
X3628Y3707D01*
X3626Y3707D01*
X3626Y3711D01*
X3624Y3711D01*
X3624Y3717D01*
X3622Y3717D01*
X3622Y3725D01*
X3620Y3725D01*
X3620Y3753D01*
X3622Y3753D01*
X3622Y3761D01*
X3624Y3761D01*
X3624Y3765D01*
X3626Y3765D01*
X3626Y3769D01*
X3628Y3769D01*
X3628Y3773D01*
X3630Y3773D01*
X3630Y3777D01*
X3632Y3777D01*
X3632Y3779D01*
X3634Y3779D01*
X3634Y3781D01*
X3636Y3781D01*
X3636Y3785D01*
X3638Y3785D01*
X3638Y3787D01*
X3640Y3787D01*
X3640Y3789D01*
X3642Y3789D01*
X3642Y3791D01*
X3644Y3791D01*
X3644Y3793D01*
X3648Y3793D01*
X3648Y3795D01*
X3650Y3795D01*
X3650Y3797D01*
X3652Y3797D01*
X3652Y3799D01*
X3656Y3799D01*
X3656Y3801D01*
X3660Y3801D01*
X3660Y3803D01*
X3664Y3803D01*
X3664Y3805D01*
X3668Y3805D01*
X3668Y3807D01*
X3678Y3807D01*
X3678Y3809D01*
X1804Y3809D01*
G37*
D02*
G36*
X44Y3727D02*
X44Y1869D01*
X120Y1869D01*
X120Y2007D01*
X122Y2007D01*
X122Y2029D01*
X120Y2029D01*
X120Y2049D01*
X122Y2049D01*
X122Y2059D01*
X124Y2059D01*
X124Y2065D01*
X126Y2065D01*
X126Y2069D01*
X128Y2069D01*
X128Y2073D01*
X130Y2073D01*
X130Y2075D01*
X132Y2075D01*
X132Y2079D01*
X134Y2079D01*
X134Y2081D01*
X136Y2081D01*
X136Y2083D01*
X138Y2083D01*
X138Y2085D01*
X140Y2085D01*
X140Y2087D01*
X142Y2087D01*
X142Y2465D01*
X118Y2465D01*
X118Y2657D01*
X120Y2657D01*
X120Y2665D01*
X122Y2665D01*
X122Y2669D01*
X124Y2669D01*
X124Y2673D01*
X126Y2673D01*
X126Y2675D01*
X128Y2675D01*
X128Y2679D01*
X130Y2679D01*
X130Y2699D01*
X128Y2699D01*
X128Y2701D01*
X126Y2701D01*
X126Y2705D01*
X124Y2705D01*
X124Y2709D01*
X122Y2709D01*
X122Y2713D01*
X120Y2713D01*
X120Y2719D01*
X118Y2719D01*
X118Y2757D01*
X120Y2757D01*
X120Y2765D01*
X122Y2765D01*
X122Y2769D01*
X124Y2769D01*
X124Y2773D01*
X126Y2773D01*
X126Y2793D01*
X124Y2793D01*
X124Y2799D01*
X122Y2799D01*
X122Y2805D01*
X120Y2805D01*
X120Y2811D01*
X118Y2811D01*
X118Y2819D01*
X116Y2819D01*
X116Y2825D01*
X114Y2825D01*
X114Y2831D01*
X112Y2831D01*
X112Y2837D01*
X110Y2837D01*
X110Y2843D01*
X108Y2843D01*
X108Y2849D01*
X106Y2849D01*
X106Y2855D01*
X104Y2855D01*
X104Y2863D01*
X102Y2863D01*
X102Y2869D01*
X100Y2869D01*
X100Y2875D01*
X98Y2875D01*
X98Y2881D01*
X96Y2881D01*
X96Y3015D01*
X94Y3015D01*
X94Y3261D01*
X92Y3261D01*
X92Y3505D01*
X90Y3505D01*
X90Y3637D01*
X92Y3637D01*
X92Y3643D01*
X94Y3643D01*
X94Y3647D01*
X96Y3647D01*
X96Y3649D01*
X98Y3649D01*
X98Y3653D01*
X100Y3653D01*
X100Y3655D01*
X102Y3655D01*
X102Y3675D01*
X98Y3675D01*
X98Y3677D01*
X96Y3677D01*
X96Y3679D01*
X92Y3679D01*
X92Y3681D01*
X90Y3681D01*
X90Y3683D01*
X88Y3683D01*
X88Y3685D01*
X86Y3685D01*
X86Y3687D01*
X84Y3687D01*
X84Y3689D01*
X82Y3689D01*
X82Y3691D01*
X80Y3691D01*
X80Y3693D01*
X78Y3693D01*
X78Y3695D01*
X76Y3695D01*
X76Y3697D01*
X74Y3697D01*
X74Y3701D01*
X72Y3701D01*
X72Y3703D01*
X70Y3703D01*
X70Y3707D01*
X68Y3707D01*
X68Y3711D01*
X66Y3711D01*
X66Y3717D01*
X64Y3717D01*
X64Y3727D01*
X44Y3727D01*
G37*
D02*
G36*
X302Y3719D02*
X302Y3713D01*
X300Y3713D01*
X300Y3709D01*
X298Y3709D01*
X298Y3705D01*
X296Y3705D01*
X296Y3701D01*
X294Y3701D01*
X294Y3699D01*
X292Y3699D01*
X292Y3695D01*
X290Y3695D01*
X290Y3693D01*
X288Y3693D01*
X288Y3691D01*
X286Y3691D01*
X286Y3689D01*
X284Y3689D01*
X284Y3687D01*
X282Y3687D01*
X282Y3685D01*
X280Y3685D01*
X280Y3683D01*
X278Y3683D01*
X278Y3681D01*
X274Y3681D01*
X274Y3679D01*
X272Y3679D01*
X272Y3677D01*
X268Y3677D01*
X268Y3675D01*
X266Y3675D01*
X266Y3673D01*
X262Y3673D01*
X262Y3671D01*
X256Y3671D01*
X256Y3669D01*
X248Y3669D01*
X248Y3667D01*
X376Y3667D01*
X376Y3669D01*
X368Y3669D01*
X368Y3671D01*
X364Y3671D01*
X364Y3673D01*
X358Y3673D01*
X358Y3675D01*
X356Y3675D01*
X356Y3677D01*
X352Y3677D01*
X352Y3679D01*
X350Y3679D01*
X350Y3681D01*
X346Y3681D01*
X346Y3683D01*
X344Y3683D01*
X344Y3685D01*
X342Y3685D01*
X342Y3687D01*
X340Y3687D01*
X340Y3689D01*
X338Y3689D01*
X338Y3691D01*
X336Y3691D01*
X336Y3693D01*
X334Y3693D01*
X334Y3695D01*
X332Y3695D01*
X332Y3699D01*
X330Y3699D01*
X330Y3701D01*
X328Y3701D01*
X328Y3705D01*
X326Y3705D01*
X326Y3709D01*
X324Y3709D01*
X324Y3713D01*
X322Y3713D01*
X322Y3719D01*
X302Y3719D01*
G37*
D02*
G36*
X428Y3679D02*
X428Y3677D01*
X426Y3677D01*
X426Y3675D01*
X422Y3675D01*
X422Y3673D01*
X418Y3673D01*
X418Y3671D01*
X412Y3671D01*
X412Y3669D01*
X404Y3669D01*
X404Y3667D01*
X476Y3667D01*
X476Y3669D01*
X468Y3669D01*
X468Y3671D01*
X464Y3671D01*
X464Y3673D01*
X458Y3673D01*
X458Y3675D01*
X456Y3675D01*
X456Y3677D01*
X452Y3677D01*
X452Y3679D01*
X428Y3679D01*
G37*
D02*
G36*
X928Y3679D02*
X928Y3677D01*
X926Y3677D01*
X926Y3675D01*
X922Y3675D01*
X922Y3673D01*
X918Y3673D01*
X918Y3671D01*
X912Y3671D01*
X912Y3669D01*
X904Y3669D01*
X904Y3667D01*
X976Y3667D01*
X976Y3669D01*
X968Y3669D01*
X968Y3671D01*
X964Y3671D01*
X964Y3673D01*
X958Y3673D01*
X958Y3675D01*
X956Y3675D01*
X956Y3677D01*
X952Y3677D01*
X952Y3679D01*
X928Y3679D01*
G37*
D02*
G36*
X1452Y3669D02*
X1452Y3667D01*
X1476Y3667D01*
X1476Y3669D01*
X1452Y3669D01*
G37*
D02*
G36*
X234Y3667D02*
X234Y3665D01*
X1358Y3665D01*
X1358Y3667D01*
X234Y3667D01*
G37*
D02*
G36*
X234Y3667D02*
X234Y3665D01*
X1358Y3665D01*
X1358Y3667D01*
X234Y3667D01*
G37*
D02*
G36*
X234Y3667D02*
X234Y3665D01*
X1358Y3665D01*
X1358Y3667D01*
X234Y3667D01*
G37*
D02*
G36*
X234Y3667D02*
X234Y3665D01*
X1358Y3665D01*
X1358Y3667D01*
X234Y3667D01*
G37*
D02*
G36*
X234Y3667D02*
X234Y3665D01*
X1358Y3665D01*
X1358Y3667D01*
X234Y3667D01*
G37*
D02*
G36*
X1452Y3667D02*
X1452Y3665D01*
X1726Y3665D01*
X1726Y3667D01*
X1452Y3667D01*
G37*
D02*
G36*
X1452Y3667D02*
X1452Y3665D01*
X1726Y3665D01*
X1726Y3667D01*
X1452Y3667D01*
G37*
D02*
G36*
X232Y3665D02*
X232Y3663D01*
X230Y3663D01*
X230Y3661D01*
X228Y3661D01*
X228Y3659D01*
X226Y3659D01*
X226Y3655D01*
X224Y3655D01*
X224Y3653D01*
X222Y3653D01*
X222Y3651D01*
X220Y3651D01*
X220Y3649D01*
X218Y3649D01*
X218Y3647D01*
X216Y3647D01*
X216Y3643D01*
X214Y3643D01*
X214Y3641D01*
X212Y3641D01*
X212Y3639D01*
X210Y3639D01*
X210Y3637D01*
X208Y3637D01*
X208Y3635D01*
X206Y3635D01*
X206Y3633D01*
X204Y3633D01*
X204Y3629D01*
X202Y3629D01*
X202Y3627D01*
X200Y3627D01*
X200Y3625D01*
X198Y3625D01*
X198Y3623D01*
X196Y3623D01*
X196Y3621D01*
X194Y3621D01*
X194Y3619D01*
X192Y3619D01*
X192Y3615D01*
X190Y3615D01*
X190Y3613D01*
X188Y3613D01*
X188Y3611D01*
X186Y3611D01*
X186Y3609D01*
X1008Y3609D01*
X1008Y3607D01*
X1016Y3607D01*
X1016Y3605D01*
X1020Y3605D01*
X1020Y3603D01*
X1024Y3603D01*
X1024Y3601D01*
X1028Y3601D01*
X1028Y3599D01*
X1030Y3599D01*
X1030Y3597D01*
X1032Y3597D01*
X1032Y3595D01*
X1036Y3595D01*
X1036Y3593D01*
X1038Y3593D01*
X1038Y3591D01*
X1040Y3591D01*
X1040Y3589D01*
X1042Y3589D01*
X1042Y3587D01*
X1044Y3587D01*
X1044Y3585D01*
X1046Y3585D01*
X1046Y3583D01*
X1048Y3583D01*
X1048Y3579D01*
X1050Y3579D01*
X1050Y3577D01*
X1052Y3577D01*
X1052Y3573D01*
X1054Y3573D01*
X1054Y3569D01*
X1056Y3569D01*
X1056Y3565D01*
X1058Y3565D01*
X1058Y3561D01*
X1060Y3561D01*
X1060Y3551D01*
X1062Y3551D01*
X1062Y3525D01*
X1060Y3525D01*
X1060Y3517D01*
X1058Y3517D01*
X1058Y3511D01*
X1056Y3511D01*
X1056Y3507D01*
X1054Y3507D01*
X1054Y3503D01*
X1052Y3503D01*
X1052Y3501D01*
X1050Y3501D01*
X1050Y3497D01*
X1048Y3497D01*
X1048Y3495D01*
X1046Y3495D01*
X1046Y3493D01*
X1044Y3493D01*
X1044Y3491D01*
X1042Y3491D01*
X1042Y3489D01*
X1040Y3489D01*
X1040Y3487D01*
X1038Y3487D01*
X1038Y3485D01*
X1036Y3485D01*
X1036Y3483D01*
X1034Y3483D01*
X1034Y3463D01*
X1040Y3463D01*
X1040Y3461D01*
X1050Y3461D01*
X1050Y3459D01*
X1058Y3459D01*
X1058Y3457D01*
X1068Y3457D01*
X1068Y3455D01*
X1076Y3455D01*
X1076Y3453D01*
X1086Y3453D01*
X1086Y3451D01*
X1094Y3451D01*
X1094Y3449D01*
X1104Y3449D01*
X1104Y3447D01*
X1146Y3447D01*
X1146Y3445D01*
X1152Y3445D01*
X1152Y3443D01*
X1156Y3443D01*
X1156Y3441D01*
X1158Y3441D01*
X1158Y3439D01*
X1162Y3439D01*
X1162Y3437D01*
X1164Y3437D01*
X1164Y3435D01*
X1166Y3435D01*
X1166Y3433D01*
X1168Y3433D01*
X1168Y3431D01*
X1170Y3431D01*
X1170Y3429D01*
X1172Y3429D01*
X1172Y3427D01*
X1174Y3427D01*
X1174Y3425D01*
X1176Y3425D01*
X1176Y3421D01*
X1178Y3421D01*
X1178Y3417D01*
X1180Y3417D01*
X1180Y3413D01*
X1182Y3413D01*
X1182Y3379D01*
X1180Y3379D01*
X1180Y3373D01*
X1178Y3373D01*
X1178Y3369D01*
X1176Y3369D01*
X1176Y3367D01*
X1174Y3367D01*
X1174Y3363D01*
X1172Y3363D01*
X1172Y3361D01*
X1170Y3361D01*
X1170Y3359D01*
X1168Y3359D01*
X1168Y3357D01*
X1166Y3357D01*
X1166Y3355D01*
X1164Y3355D01*
X1164Y3353D01*
X1160Y3353D01*
X1160Y3351D01*
X1158Y3351D01*
X1158Y3349D01*
X1154Y3349D01*
X1154Y3347D01*
X1150Y3347D01*
X1150Y3345D01*
X1142Y3345D01*
X1142Y3343D01*
X1422Y3343D01*
X1422Y3353D01*
X1420Y3353D01*
X1420Y3363D01*
X1418Y3363D01*
X1418Y3373D01*
X1416Y3373D01*
X1416Y3383D01*
X1414Y3383D01*
X1414Y3393D01*
X1412Y3393D01*
X1412Y3403D01*
X1410Y3403D01*
X1410Y3413D01*
X1408Y3413D01*
X1408Y3423D01*
X1406Y3423D01*
X1406Y3433D01*
X1404Y3433D01*
X1404Y3443D01*
X1402Y3443D01*
X1402Y3453D01*
X1400Y3453D01*
X1400Y3463D01*
X1398Y3463D01*
X1398Y3473D01*
X1396Y3473D01*
X1396Y3483D01*
X1394Y3483D01*
X1394Y3493D01*
X1392Y3493D01*
X1392Y3503D01*
X1390Y3503D01*
X1390Y3513D01*
X1388Y3513D01*
X1388Y3523D01*
X1386Y3523D01*
X1386Y3533D01*
X1384Y3533D01*
X1384Y3543D01*
X1382Y3543D01*
X1382Y3553D01*
X1380Y3553D01*
X1380Y3563D01*
X1378Y3563D01*
X1378Y3573D01*
X1376Y3573D01*
X1376Y3583D01*
X1374Y3583D01*
X1374Y3593D01*
X1372Y3593D01*
X1372Y3603D01*
X1370Y3603D01*
X1370Y3613D01*
X1368Y3613D01*
X1368Y3625D01*
X1366Y3625D01*
X1366Y3635D01*
X1364Y3635D01*
X1364Y3645D01*
X1362Y3645D01*
X1362Y3655D01*
X1360Y3655D01*
X1360Y3665D01*
X232Y3665D01*
G37*
D02*
G36*
X1452Y3665D02*
X1452Y3655D01*
X1454Y3655D01*
X1454Y3645D01*
X1456Y3645D01*
X1456Y3635D01*
X1458Y3635D01*
X1458Y3625D01*
X1460Y3625D01*
X1460Y3615D01*
X1462Y3615D01*
X1462Y3605D01*
X1464Y3605D01*
X1464Y3595D01*
X1466Y3595D01*
X1466Y3585D01*
X1468Y3585D01*
X1468Y3575D01*
X1470Y3575D01*
X1470Y3565D01*
X1472Y3565D01*
X1472Y3555D01*
X1474Y3555D01*
X1474Y3545D01*
X1476Y3545D01*
X1476Y3535D01*
X1478Y3535D01*
X1478Y3525D01*
X1480Y3525D01*
X1480Y3515D01*
X1482Y3515D01*
X1482Y3505D01*
X1484Y3505D01*
X1484Y3495D01*
X1486Y3495D01*
X1486Y3485D01*
X1488Y3485D01*
X1488Y3475D01*
X1490Y3475D01*
X1490Y3465D01*
X1492Y3465D01*
X1492Y3455D01*
X1494Y3455D01*
X1494Y3445D01*
X1496Y3445D01*
X1496Y3435D01*
X1498Y3435D01*
X1498Y3425D01*
X1500Y3425D01*
X1500Y3415D01*
X1502Y3415D01*
X1502Y3405D01*
X1504Y3405D01*
X1504Y3395D01*
X1506Y3395D01*
X1506Y3385D01*
X1508Y3385D01*
X1508Y3375D01*
X1510Y3375D01*
X1510Y3363D01*
X1512Y3363D01*
X1512Y3353D01*
X1514Y3353D01*
X1514Y3343D01*
X1516Y3343D01*
X1516Y3333D01*
X1518Y3333D01*
X1518Y3323D01*
X1520Y3323D01*
X1520Y3313D01*
X1522Y3313D01*
X1522Y3303D01*
X1524Y3303D01*
X1524Y3293D01*
X1526Y3293D01*
X1526Y3283D01*
X1528Y3283D01*
X1528Y3273D01*
X1530Y3273D01*
X1530Y3263D01*
X1532Y3263D01*
X1532Y3253D01*
X1534Y3253D01*
X1534Y3243D01*
X1536Y3243D01*
X1536Y3233D01*
X1538Y3233D01*
X1538Y3223D01*
X1540Y3223D01*
X1540Y3213D01*
X1542Y3213D01*
X1542Y3203D01*
X1544Y3203D01*
X1544Y3193D01*
X1546Y3193D01*
X1546Y3183D01*
X1548Y3183D01*
X1548Y3173D01*
X1550Y3173D01*
X1550Y3163D01*
X1552Y3163D01*
X1552Y3153D01*
X1554Y3153D01*
X1554Y3143D01*
X1556Y3143D01*
X1556Y3133D01*
X1558Y3133D01*
X1558Y3123D01*
X1560Y3123D01*
X1560Y3113D01*
X1562Y3113D01*
X1562Y3103D01*
X1564Y3103D01*
X1564Y3093D01*
X1566Y3093D01*
X1566Y3083D01*
X1568Y3083D01*
X1568Y3073D01*
X1570Y3073D01*
X1570Y3063D01*
X1572Y3063D01*
X1572Y3053D01*
X1574Y3053D01*
X1574Y3043D01*
X1576Y3043D01*
X1576Y3033D01*
X1578Y3033D01*
X1578Y3023D01*
X1580Y3023D01*
X1580Y3013D01*
X1582Y3013D01*
X1582Y3003D01*
X1584Y3003D01*
X1584Y2993D01*
X1586Y2993D01*
X1586Y2981D01*
X1588Y2981D01*
X1588Y2971D01*
X1590Y2971D01*
X1590Y2969D01*
X1772Y2969D01*
X1772Y2971D01*
X1766Y2971D01*
X1766Y2973D01*
X1762Y2973D01*
X1762Y2975D01*
X1758Y2975D01*
X1758Y2977D01*
X1754Y2977D01*
X1754Y2979D01*
X1752Y2979D01*
X1752Y2981D01*
X1748Y2981D01*
X1748Y2983D01*
X1746Y2983D01*
X1746Y2985D01*
X1744Y2985D01*
X1744Y2987D01*
X1742Y2987D01*
X1742Y2989D01*
X1740Y2989D01*
X1740Y2991D01*
X1738Y2991D01*
X1738Y2993D01*
X1736Y2993D01*
X1736Y2995D01*
X1734Y2995D01*
X1734Y2997D01*
X1732Y2997D01*
X1732Y3001D01*
X1730Y3001D01*
X1730Y3003D01*
X1728Y3003D01*
X1728Y3007D01*
X1726Y3007D01*
X1726Y3011D01*
X1724Y3011D01*
X1724Y3017D01*
X1722Y3017D01*
X1722Y3025D01*
X1720Y3025D01*
X1720Y3053D01*
X1722Y3053D01*
X1722Y3061D01*
X1724Y3061D01*
X1724Y3065D01*
X1726Y3065D01*
X1726Y3069D01*
X1728Y3069D01*
X1728Y3073D01*
X1730Y3073D01*
X1730Y3077D01*
X1732Y3077D01*
X1732Y3101D01*
X1730Y3101D01*
X1730Y3103D01*
X1728Y3103D01*
X1728Y3107D01*
X1726Y3107D01*
X1726Y3111D01*
X1724Y3111D01*
X1724Y3117D01*
X1722Y3117D01*
X1722Y3125D01*
X1720Y3125D01*
X1720Y3153D01*
X1722Y3153D01*
X1722Y3161D01*
X1724Y3161D01*
X1724Y3165D01*
X1726Y3165D01*
X1726Y3169D01*
X1728Y3169D01*
X1728Y3173D01*
X1730Y3173D01*
X1730Y3177D01*
X1732Y3177D01*
X1732Y3201D01*
X1730Y3201D01*
X1730Y3203D01*
X1728Y3203D01*
X1728Y3207D01*
X1726Y3207D01*
X1726Y3211D01*
X1724Y3211D01*
X1724Y3217D01*
X1722Y3217D01*
X1722Y3225D01*
X1720Y3225D01*
X1720Y3253D01*
X1722Y3253D01*
X1722Y3261D01*
X1724Y3261D01*
X1724Y3265D01*
X1726Y3265D01*
X1726Y3269D01*
X1728Y3269D01*
X1728Y3273D01*
X1730Y3273D01*
X1730Y3277D01*
X1732Y3277D01*
X1732Y3301D01*
X1730Y3301D01*
X1730Y3303D01*
X1728Y3303D01*
X1728Y3307D01*
X1726Y3307D01*
X1726Y3311D01*
X1724Y3311D01*
X1724Y3317D01*
X1722Y3317D01*
X1722Y3325D01*
X1720Y3325D01*
X1720Y3353D01*
X1722Y3353D01*
X1722Y3361D01*
X1724Y3361D01*
X1724Y3365D01*
X1726Y3365D01*
X1726Y3369D01*
X1728Y3369D01*
X1728Y3373D01*
X1730Y3373D01*
X1730Y3377D01*
X1732Y3377D01*
X1732Y3401D01*
X1730Y3401D01*
X1730Y3403D01*
X1728Y3403D01*
X1728Y3407D01*
X1726Y3407D01*
X1726Y3411D01*
X1724Y3411D01*
X1724Y3417D01*
X1722Y3417D01*
X1722Y3425D01*
X1720Y3425D01*
X1720Y3453D01*
X1722Y3453D01*
X1722Y3461D01*
X1724Y3461D01*
X1724Y3465D01*
X1726Y3465D01*
X1726Y3469D01*
X1728Y3469D01*
X1728Y3473D01*
X1730Y3473D01*
X1730Y3477D01*
X1732Y3477D01*
X1732Y3501D01*
X1730Y3501D01*
X1730Y3503D01*
X1728Y3503D01*
X1728Y3507D01*
X1726Y3507D01*
X1726Y3511D01*
X1724Y3511D01*
X1724Y3517D01*
X1722Y3517D01*
X1722Y3525D01*
X1720Y3525D01*
X1720Y3553D01*
X1722Y3553D01*
X1722Y3561D01*
X1724Y3561D01*
X1724Y3565D01*
X1726Y3565D01*
X1726Y3569D01*
X1728Y3569D01*
X1728Y3573D01*
X1730Y3573D01*
X1730Y3577D01*
X1732Y3577D01*
X1732Y3601D01*
X1730Y3601D01*
X1730Y3603D01*
X1728Y3603D01*
X1728Y3607D01*
X1726Y3607D01*
X1726Y3611D01*
X1724Y3611D01*
X1724Y3617D01*
X1722Y3617D01*
X1722Y3625D01*
X1720Y3625D01*
X1720Y3653D01*
X1722Y3653D01*
X1722Y3661D01*
X1724Y3661D01*
X1724Y3665D01*
X1452Y3665D01*
G37*
D02*
G36*
X184Y3609D02*
X184Y3607D01*
X182Y3607D01*
X182Y3603D01*
X180Y3603D01*
X180Y3601D01*
X178Y3601D01*
X178Y3521D01*
X180Y3521D01*
X180Y3467D01*
X376Y3467D01*
X376Y3469D01*
X368Y3469D01*
X368Y3471D01*
X364Y3471D01*
X364Y3473D01*
X358Y3473D01*
X358Y3475D01*
X356Y3475D01*
X356Y3477D01*
X352Y3477D01*
X352Y3479D01*
X350Y3479D01*
X350Y3481D01*
X346Y3481D01*
X346Y3483D01*
X344Y3483D01*
X344Y3485D01*
X342Y3485D01*
X342Y3487D01*
X340Y3487D01*
X340Y3489D01*
X338Y3489D01*
X338Y3491D01*
X336Y3491D01*
X336Y3493D01*
X334Y3493D01*
X334Y3495D01*
X332Y3495D01*
X332Y3499D01*
X330Y3499D01*
X330Y3501D01*
X328Y3501D01*
X328Y3505D01*
X326Y3505D01*
X326Y3509D01*
X324Y3509D01*
X324Y3513D01*
X322Y3513D01*
X322Y3519D01*
X320Y3519D01*
X320Y3557D01*
X322Y3557D01*
X322Y3563D01*
X324Y3563D01*
X324Y3569D01*
X326Y3569D01*
X326Y3573D01*
X328Y3573D01*
X328Y3575D01*
X330Y3575D01*
X330Y3579D01*
X332Y3579D01*
X332Y3581D01*
X334Y3581D01*
X334Y3583D01*
X336Y3583D01*
X336Y3585D01*
X338Y3585D01*
X338Y3589D01*
X340Y3589D01*
X340Y3591D01*
X344Y3591D01*
X344Y3593D01*
X346Y3593D01*
X346Y3595D01*
X348Y3595D01*
X348Y3597D01*
X350Y3597D01*
X350Y3599D01*
X354Y3599D01*
X354Y3601D01*
X358Y3601D01*
X358Y3603D01*
X360Y3603D01*
X360Y3605D01*
X366Y3605D01*
X366Y3607D01*
X372Y3607D01*
X372Y3609D01*
X184Y3609D01*
G37*
D02*
G36*
X408Y3609D02*
X408Y3607D01*
X416Y3607D01*
X416Y3605D01*
X420Y3605D01*
X420Y3603D01*
X424Y3603D01*
X424Y3601D01*
X428Y3601D01*
X428Y3599D01*
X430Y3599D01*
X430Y3597D01*
X450Y3597D01*
X450Y3599D01*
X454Y3599D01*
X454Y3601D01*
X458Y3601D01*
X458Y3603D01*
X460Y3603D01*
X460Y3605D01*
X466Y3605D01*
X466Y3607D01*
X472Y3607D01*
X472Y3609D01*
X408Y3609D01*
G37*
D02*
G36*
X508Y3609D02*
X508Y3607D01*
X516Y3607D01*
X516Y3605D01*
X520Y3605D01*
X520Y3603D01*
X524Y3603D01*
X524Y3601D01*
X528Y3601D01*
X528Y3599D01*
X530Y3599D01*
X530Y3597D01*
X532Y3597D01*
X532Y3595D01*
X536Y3595D01*
X536Y3593D01*
X538Y3593D01*
X538Y3591D01*
X540Y3591D01*
X540Y3589D01*
X542Y3589D01*
X542Y3587D01*
X544Y3587D01*
X544Y3585D01*
X546Y3585D01*
X546Y3583D01*
X548Y3583D01*
X548Y3579D01*
X550Y3579D01*
X550Y3577D01*
X552Y3577D01*
X552Y3573D01*
X554Y3573D01*
X554Y3571D01*
X558Y3571D01*
X558Y3569D01*
X566Y3569D01*
X566Y3567D01*
X576Y3567D01*
X576Y3565D01*
X584Y3565D01*
X584Y3563D01*
X594Y3563D01*
X594Y3561D01*
X602Y3561D01*
X602Y3559D01*
X612Y3559D01*
X612Y3557D01*
X620Y3557D01*
X620Y3555D01*
X628Y3555D01*
X628Y3553D01*
X638Y3553D01*
X638Y3551D01*
X646Y3551D01*
X646Y3549D01*
X656Y3549D01*
X656Y3547D01*
X664Y3547D01*
X664Y3545D01*
X674Y3545D01*
X674Y3543D01*
X682Y3543D01*
X682Y3541D01*
X692Y3541D01*
X692Y3539D01*
X700Y3539D01*
X700Y3537D01*
X710Y3537D01*
X710Y3535D01*
X718Y3535D01*
X718Y3533D01*
X728Y3533D01*
X728Y3531D01*
X736Y3531D01*
X736Y3529D01*
X746Y3529D01*
X746Y3527D01*
X754Y3527D01*
X754Y3525D01*
X764Y3525D01*
X764Y3523D01*
X772Y3523D01*
X772Y3521D01*
X782Y3521D01*
X782Y3519D01*
X790Y3519D01*
X790Y3517D01*
X800Y3517D01*
X800Y3515D01*
X820Y3515D01*
X820Y3557D01*
X822Y3557D01*
X822Y3563D01*
X824Y3563D01*
X824Y3569D01*
X826Y3569D01*
X826Y3573D01*
X828Y3573D01*
X828Y3575D01*
X830Y3575D01*
X830Y3579D01*
X832Y3579D01*
X832Y3581D01*
X834Y3581D01*
X834Y3583D01*
X836Y3583D01*
X836Y3585D01*
X838Y3585D01*
X838Y3589D01*
X840Y3589D01*
X840Y3591D01*
X844Y3591D01*
X844Y3593D01*
X846Y3593D01*
X846Y3595D01*
X848Y3595D01*
X848Y3597D01*
X850Y3597D01*
X850Y3599D01*
X854Y3599D01*
X854Y3601D01*
X858Y3601D01*
X858Y3603D01*
X860Y3603D01*
X860Y3605D01*
X866Y3605D01*
X866Y3607D01*
X872Y3607D01*
X872Y3609D01*
X508Y3609D01*
G37*
D02*
G36*
X908Y3609D02*
X908Y3607D01*
X916Y3607D01*
X916Y3605D01*
X920Y3605D01*
X920Y3603D01*
X924Y3603D01*
X924Y3601D01*
X928Y3601D01*
X928Y3599D01*
X930Y3599D01*
X930Y3597D01*
X950Y3597D01*
X950Y3599D01*
X954Y3599D01*
X954Y3601D01*
X958Y3601D01*
X958Y3603D01*
X960Y3603D01*
X960Y3605D01*
X966Y3605D01*
X966Y3607D01*
X972Y3607D01*
X972Y3609D01*
X908Y3609D01*
G37*
D02*
G36*
X428Y3479D02*
X428Y3477D01*
X426Y3477D01*
X426Y3475D01*
X422Y3475D01*
X422Y3473D01*
X418Y3473D01*
X418Y3471D01*
X412Y3471D01*
X412Y3469D01*
X404Y3469D01*
X404Y3467D01*
X476Y3467D01*
X476Y3469D01*
X468Y3469D01*
X468Y3471D01*
X464Y3471D01*
X464Y3473D01*
X458Y3473D01*
X458Y3475D01*
X456Y3475D01*
X456Y3477D01*
X452Y3477D01*
X452Y3479D01*
X428Y3479D01*
G37*
D02*
G36*
X528Y3479D02*
X528Y3477D01*
X526Y3477D01*
X526Y3475D01*
X522Y3475D01*
X522Y3473D01*
X518Y3473D01*
X518Y3471D01*
X512Y3471D01*
X512Y3469D01*
X504Y3469D01*
X504Y3467D01*
X598Y3467D01*
X598Y3469D01*
X588Y3469D01*
X588Y3471D01*
X580Y3471D01*
X580Y3473D01*
X570Y3473D01*
X570Y3475D01*
X562Y3475D01*
X562Y3477D01*
X554Y3477D01*
X554Y3479D01*
X528Y3479D01*
G37*
D02*
G36*
X180Y3467D02*
X180Y3465D01*
X606Y3465D01*
X606Y3467D01*
X180Y3467D01*
G37*
D02*
G36*
X180Y3467D02*
X180Y3465D01*
X606Y3465D01*
X606Y3467D01*
X180Y3467D01*
G37*
D02*
G36*
X180Y3467D02*
X180Y3465D01*
X606Y3465D01*
X606Y3467D01*
X180Y3467D01*
G37*
D02*
G36*
X180Y3465D02*
X180Y3409D01*
X508Y3409D01*
X508Y3407D01*
X516Y3407D01*
X516Y3405D01*
X520Y3405D01*
X520Y3403D01*
X524Y3403D01*
X524Y3401D01*
X528Y3401D01*
X528Y3399D01*
X530Y3399D01*
X530Y3397D01*
X532Y3397D01*
X532Y3395D01*
X536Y3395D01*
X536Y3393D01*
X538Y3393D01*
X538Y3391D01*
X540Y3391D01*
X540Y3389D01*
X542Y3389D01*
X542Y3387D01*
X544Y3387D01*
X544Y3385D01*
X546Y3385D01*
X546Y3383D01*
X548Y3383D01*
X548Y3379D01*
X550Y3379D01*
X550Y3377D01*
X552Y3377D01*
X552Y3373D01*
X554Y3373D01*
X554Y3369D01*
X556Y3369D01*
X556Y3365D01*
X558Y3365D01*
X558Y3361D01*
X560Y3361D01*
X560Y3351D01*
X562Y3351D01*
X562Y3349D01*
X564Y3349D01*
X564Y3347D01*
X568Y3347D01*
X568Y3345D01*
X570Y3345D01*
X570Y3343D01*
X574Y3343D01*
X574Y3341D01*
X578Y3341D01*
X578Y3339D01*
X580Y3339D01*
X580Y3337D01*
X584Y3337D01*
X584Y3335D01*
X586Y3335D01*
X586Y3333D01*
X590Y3333D01*
X590Y3331D01*
X594Y3331D01*
X594Y3329D01*
X596Y3329D01*
X596Y3327D01*
X600Y3327D01*
X600Y3325D01*
X604Y3325D01*
X604Y3323D01*
X606Y3323D01*
X606Y3321D01*
X610Y3321D01*
X610Y3319D01*
X614Y3319D01*
X614Y3317D01*
X616Y3317D01*
X616Y3315D01*
X620Y3315D01*
X620Y3313D01*
X622Y3313D01*
X622Y3311D01*
X626Y3311D01*
X626Y3309D01*
X630Y3309D01*
X630Y3307D01*
X632Y3307D01*
X632Y3305D01*
X636Y3305D01*
X636Y3303D01*
X640Y3303D01*
X640Y3301D01*
X642Y3301D01*
X642Y3299D01*
X646Y3299D01*
X646Y3297D01*
X650Y3297D01*
X650Y3295D01*
X652Y3295D01*
X652Y3293D01*
X656Y3293D01*
X656Y3291D01*
X658Y3291D01*
X658Y3289D01*
X662Y3289D01*
X662Y3287D01*
X666Y3287D01*
X666Y3285D01*
X668Y3285D01*
X668Y3283D01*
X670Y3283D01*
X670Y3281D01*
X672Y3281D01*
X672Y3279D01*
X674Y3279D01*
X674Y3277D01*
X676Y3277D01*
X676Y3275D01*
X678Y3275D01*
X678Y3271D01*
X680Y3271D01*
X680Y3267D01*
X876Y3267D01*
X876Y3269D01*
X868Y3269D01*
X868Y3271D01*
X864Y3271D01*
X864Y3273D01*
X858Y3273D01*
X858Y3275D01*
X856Y3275D01*
X856Y3277D01*
X852Y3277D01*
X852Y3279D01*
X850Y3279D01*
X850Y3281D01*
X846Y3281D01*
X846Y3283D01*
X844Y3283D01*
X844Y3285D01*
X842Y3285D01*
X842Y3287D01*
X840Y3287D01*
X840Y3289D01*
X838Y3289D01*
X838Y3291D01*
X836Y3291D01*
X836Y3293D01*
X834Y3293D01*
X834Y3295D01*
X832Y3295D01*
X832Y3299D01*
X830Y3299D01*
X830Y3301D01*
X828Y3301D01*
X828Y3305D01*
X826Y3305D01*
X826Y3309D01*
X824Y3309D01*
X824Y3313D01*
X822Y3313D01*
X822Y3319D01*
X820Y3319D01*
X820Y3357D01*
X822Y3357D01*
X822Y3363D01*
X824Y3363D01*
X824Y3369D01*
X826Y3369D01*
X826Y3373D01*
X828Y3373D01*
X828Y3375D01*
X830Y3375D01*
X830Y3379D01*
X832Y3379D01*
X832Y3381D01*
X834Y3381D01*
X834Y3383D01*
X836Y3383D01*
X836Y3385D01*
X838Y3385D01*
X838Y3389D01*
X840Y3389D01*
X840Y3391D01*
X844Y3391D01*
X844Y3393D01*
X846Y3393D01*
X846Y3413D01*
X840Y3413D01*
X840Y3415D01*
X830Y3415D01*
X830Y3417D01*
X822Y3417D01*
X822Y3419D01*
X812Y3419D01*
X812Y3421D01*
X804Y3421D01*
X804Y3423D01*
X794Y3423D01*
X794Y3425D01*
X786Y3425D01*
X786Y3427D01*
X776Y3427D01*
X776Y3429D01*
X768Y3429D01*
X768Y3431D01*
X758Y3431D01*
X758Y3433D01*
X750Y3433D01*
X750Y3435D01*
X742Y3435D01*
X742Y3437D01*
X732Y3437D01*
X732Y3439D01*
X724Y3439D01*
X724Y3441D01*
X714Y3441D01*
X714Y3443D01*
X706Y3443D01*
X706Y3445D01*
X696Y3445D01*
X696Y3447D01*
X688Y3447D01*
X688Y3449D01*
X678Y3449D01*
X678Y3451D01*
X670Y3451D01*
X670Y3453D01*
X660Y3453D01*
X660Y3455D01*
X652Y3455D01*
X652Y3457D01*
X642Y3457D01*
X642Y3459D01*
X634Y3459D01*
X634Y3461D01*
X624Y3461D01*
X624Y3463D01*
X616Y3463D01*
X616Y3465D01*
X180Y3465D01*
G37*
D02*
G36*
X180Y3409D02*
X180Y3275D01*
X182Y3275D01*
X182Y3267D01*
X376Y3267D01*
X376Y3269D01*
X368Y3269D01*
X368Y3271D01*
X364Y3271D01*
X364Y3273D01*
X358Y3273D01*
X358Y3275D01*
X356Y3275D01*
X356Y3277D01*
X352Y3277D01*
X352Y3279D01*
X350Y3279D01*
X350Y3281D01*
X346Y3281D01*
X346Y3283D01*
X344Y3283D01*
X344Y3285D01*
X342Y3285D01*
X342Y3287D01*
X340Y3287D01*
X340Y3289D01*
X338Y3289D01*
X338Y3291D01*
X336Y3291D01*
X336Y3293D01*
X334Y3293D01*
X334Y3295D01*
X332Y3295D01*
X332Y3299D01*
X330Y3299D01*
X330Y3301D01*
X328Y3301D01*
X328Y3305D01*
X326Y3305D01*
X326Y3309D01*
X324Y3309D01*
X324Y3313D01*
X322Y3313D01*
X322Y3319D01*
X320Y3319D01*
X320Y3357D01*
X322Y3357D01*
X322Y3363D01*
X324Y3363D01*
X324Y3369D01*
X326Y3369D01*
X326Y3373D01*
X328Y3373D01*
X328Y3375D01*
X330Y3375D01*
X330Y3379D01*
X332Y3379D01*
X332Y3381D01*
X334Y3381D01*
X334Y3383D01*
X336Y3383D01*
X336Y3385D01*
X338Y3385D01*
X338Y3389D01*
X340Y3389D01*
X340Y3391D01*
X344Y3391D01*
X344Y3393D01*
X346Y3393D01*
X346Y3395D01*
X348Y3395D01*
X348Y3397D01*
X350Y3397D01*
X350Y3399D01*
X354Y3399D01*
X354Y3401D01*
X358Y3401D01*
X358Y3403D01*
X360Y3403D01*
X360Y3405D01*
X366Y3405D01*
X366Y3407D01*
X372Y3407D01*
X372Y3409D01*
X180Y3409D01*
G37*
D02*
G36*
X408Y3409D02*
X408Y3407D01*
X416Y3407D01*
X416Y3405D01*
X420Y3405D01*
X420Y3403D01*
X424Y3403D01*
X424Y3401D01*
X428Y3401D01*
X428Y3399D01*
X430Y3399D01*
X430Y3397D01*
X450Y3397D01*
X450Y3399D01*
X454Y3399D01*
X454Y3401D01*
X458Y3401D01*
X458Y3403D01*
X460Y3403D01*
X460Y3405D01*
X466Y3405D01*
X466Y3407D01*
X472Y3407D01*
X472Y3409D01*
X408Y3409D01*
G37*
D02*
G36*
X1062Y3361D02*
X1062Y3343D01*
X1120Y3343D01*
X1120Y3345D01*
X1112Y3345D01*
X1112Y3347D01*
X1108Y3347D01*
X1108Y3349D01*
X1104Y3349D01*
X1104Y3351D01*
X1102Y3351D01*
X1102Y3353D01*
X1100Y3353D01*
X1100Y3355D01*
X1096Y3355D01*
X1096Y3357D01*
X1090Y3357D01*
X1090Y3359D01*
X1082Y3359D01*
X1082Y3361D01*
X1062Y3361D01*
G37*
D02*
G36*
X1062Y3343D02*
X1062Y3341D01*
X1424Y3341D01*
X1424Y3343D01*
X1062Y3343D01*
G37*
D02*
G36*
X1062Y3343D02*
X1062Y3341D01*
X1424Y3341D01*
X1424Y3343D01*
X1062Y3343D01*
G37*
D02*
G36*
X1062Y3341D02*
X1062Y3325D01*
X1060Y3325D01*
X1060Y3317D01*
X1058Y3317D01*
X1058Y3311D01*
X1056Y3311D01*
X1056Y3307D01*
X1054Y3307D01*
X1054Y3303D01*
X1052Y3303D01*
X1052Y3301D01*
X1050Y3301D01*
X1050Y3297D01*
X1048Y3297D01*
X1048Y3295D01*
X1046Y3295D01*
X1046Y3293D01*
X1044Y3293D01*
X1044Y3291D01*
X1042Y3291D01*
X1042Y3289D01*
X1040Y3289D01*
X1040Y3287D01*
X1038Y3287D01*
X1038Y3285D01*
X1036Y3285D01*
X1036Y3283D01*
X1034Y3283D01*
X1034Y3281D01*
X1032Y3281D01*
X1032Y3279D01*
X1028Y3279D01*
X1028Y3277D01*
X1026Y3277D01*
X1026Y3275D01*
X1022Y3275D01*
X1022Y3273D01*
X1018Y3273D01*
X1018Y3271D01*
X1012Y3271D01*
X1012Y3269D01*
X1004Y3269D01*
X1004Y3267D01*
X1308Y3267D01*
X1308Y3265D01*
X1312Y3265D01*
X1312Y3263D01*
X1316Y3263D01*
X1316Y3261D01*
X1320Y3261D01*
X1320Y3259D01*
X1322Y3259D01*
X1322Y3257D01*
X1326Y3257D01*
X1326Y3255D01*
X1328Y3255D01*
X1328Y3253D01*
X1330Y3253D01*
X1330Y3251D01*
X1332Y3251D01*
X1332Y3249D01*
X1334Y3249D01*
X1334Y3245D01*
X1336Y3245D01*
X1336Y3243D01*
X1338Y3243D01*
X1338Y3239D01*
X1340Y3239D01*
X1340Y3235D01*
X1342Y3235D01*
X1342Y3229D01*
X1344Y3229D01*
X1344Y3203D01*
X1342Y3203D01*
X1342Y3197D01*
X1340Y3197D01*
X1340Y3193D01*
X1338Y3193D01*
X1338Y3189D01*
X1336Y3189D01*
X1336Y3185D01*
X1334Y3185D01*
X1334Y3183D01*
X1332Y3183D01*
X1332Y3181D01*
X1330Y3181D01*
X1330Y3179D01*
X1328Y3179D01*
X1328Y3177D01*
X1326Y3177D01*
X1326Y3175D01*
X1324Y3175D01*
X1324Y3173D01*
X1320Y3173D01*
X1320Y3171D01*
X1318Y3171D01*
X1318Y3169D01*
X1314Y3169D01*
X1314Y3167D01*
X1310Y3167D01*
X1310Y3165D01*
X1300Y3165D01*
X1300Y3163D01*
X1266Y3163D01*
X1266Y3161D01*
X1258Y3161D01*
X1258Y3159D01*
X1250Y3159D01*
X1250Y3157D01*
X1242Y3157D01*
X1242Y3155D01*
X1234Y3155D01*
X1234Y3153D01*
X1226Y3153D01*
X1226Y3151D01*
X1218Y3151D01*
X1218Y3149D01*
X1212Y3149D01*
X1212Y3147D01*
X1204Y3147D01*
X1204Y3145D01*
X1196Y3145D01*
X1196Y3143D01*
X1188Y3143D01*
X1188Y3141D01*
X1180Y3141D01*
X1180Y3139D01*
X1172Y3139D01*
X1172Y3137D01*
X1164Y3137D01*
X1164Y3135D01*
X1156Y3135D01*
X1156Y3133D01*
X1148Y3133D01*
X1148Y3131D01*
X1140Y3131D01*
X1140Y3129D01*
X1132Y3129D01*
X1132Y3127D01*
X1126Y3127D01*
X1126Y3125D01*
X1118Y3125D01*
X1118Y3123D01*
X1110Y3123D01*
X1110Y3121D01*
X1102Y3121D01*
X1102Y3119D01*
X1094Y3119D01*
X1094Y3117D01*
X1086Y3117D01*
X1086Y3115D01*
X1078Y3115D01*
X1078Y3113D01*
X1070Y3113D01*
X1070Y3111D01*
X1062Y3111D01*
X1062Y3109D01*
X1056Y3109D01*
X1056Y3107D01*
X1054Y3107D01*
X1054Y3103D01*
X1052Y3103D01*
X1052Y3101D01*
X1050Y3101D01*
X1050Y3097D01*
X1048Y3097D01*
X1048Y3095D01*
X1046Y3095D01*
X1046Y3093D01*
X1044Y3093D01*
X1044Y3091D01*
X1042Y3091D01*
X1042Y3089D01*
X1040Y3089D01*
X1040Y3087D01*
X1038Y3087D01*
X1038Y3085D01*
X1036Y3085D01*
X1036Y3083D01*
X1034Y3083D01*
X1034Y3081D01*
X1032Y3081D01*
X1032Y3079D01*
X1028Y3079D01*
X1028Y3077D01*
X1026Y3077D01*
X1026Y3075D01*
X1022Y3075D01*
X1022Y3073D01*
X1018Y3073D01*
X1018Y3071D01*
X1012Y3071D01*
X1012Y3069D01*
X1004Y3069D01*
X1004Y3067D01*
X1478Y3067D01*
X1478Y3071D01*
X1476Y3071D01*
X1476Y3081D01*
X1474Y3081D01*
X1474Y3091D01*
X1472Y3091D01*
X1472Y3101D01*
X1470Y3101D01*
X1470Y3111D01*
X1468Y3111D01*
X1468Y3121D01*
X1466Y3121D01*
X1466Y3131D01*
X1464Y3131D01*
X1464Y3141D01*
X1462Y3141D01*
X1462Y3151D01*
X1460Y3151D01*
X1460Y3161D01*
X1458Y3161D01*
X1458Y3171D01*
X1456Y3171D01*
X1456Y3181D01*
X1454Y3181D01*
X1454Y3191D01*
X1452Y3191D01*
X1452Y3201D01*
X1450Y3201D01*
X1450Y3211D01*
X1448Y3211D01*
X1448Y3221D01*
X1446Y3221D01*
X1446Y3233D01*
X1444Y3233D01*
X1444Y3243D01*
X1442Y3243D01*
X1442Y3253D01*
X1440Y3253D01*
X1440Y3263D01*
X1438Y3263D01*
X1438Y3273D01*
X1436Y3273D01*
X1436Y3283D01*
X1434Y3283D01*
X1434Y3293D01*
X1432Y3293D01*
X1432Y3303D01*
X1430Y3303D01*
X1430Y3313D01*
X1428Y3313D01*
X1428Y3323D01*
X1426Y3323D01*
X1426Y3333D01*
X1424Y3333D01*
X1424Y3341D01*
X1062Y3341D01*
G37*
D02*
G36*
X428Y3279D02*
X428Y3277D01*
X426Y3277D01*
X426Y3275D01*
X422Y3275D01*
X422Y3273D01*
X418Y3273D01*
X418Y3271D01*
X412Y3271D01*
X412Y3269D01*
X404Y3269D01*
X404Y3267D01*
X476Y3267D01*
X476Y3269D01*
X468Y3269D01*
X468Y3271D01*
X464Y3271D01*
X464Y3273D01*
X458Y3273D01*
X458Y3275D01*
X456Y3275D01*
X456Y3277D01*
X452Y3277D01*
X452Y3279D01*
X428Y3279D01*
G37*
D02*
G36*
X928Y3279D02*
X928Y3277D01*
X926Y3277D01*
X926Y3275D01*
X922Y3275D01*
X922Y3273D01*
X918Y3273D01*
X918Y3271D01*
X912Y3271D01*
X912Y3269D01*
X904Y3269D01*
X904Y3267D01*
X976Y3267D01*
X976Y3269D01*
X968Y3269D01*
X968Y3271D01*
X964Y3271D01*
X964Y3273D01*
X958Y3273D01*
X958Y3275D01*
X956Y3275D01*
X956Y3277D01*
X952Y3277D01*
X952Y3279D01*
X928Y3279D01*
G37*
D02*
G36*
X182Y3267D02*
X182Y3265D01*
X520Y3265D01*
X520Y3267D01*
X182Y3267D01*
G37*
D02*
G36*
X182Y3267D02*
X182Y3265D01*
X520Y3265D01*
X520Y3267D01*
X182Y3267D01*
G37*
D02*
G36*
X682Y3267D02*
X682Y3265D01*
X1276Y3265D01*
X1276Y3267D01*
X682Y3267D01*
G37*
D02*
G36*
X682Y3267D02*
X682Y3265D01*
X1276Y3265D01*
X1276Y3267D01*
X682Y3267D01*
G37*
D02*
G36*
X682Y3267D02*
X682Y3265D01*
X1276Y3265D01*
X1276Y3267D01*
X682Y3267D01*
G37*
D02*
G36*
X182Y3265D02*
X182Y3209D01*
X508Y3209D01*
X508Y3207D01*
X516Y3207D01*
X516Y3205D01*
X520Y3205D01*
X520Y3203D01*
X524Y3203D01*
X524Y3201D01*
X528Y3201D01*
X528Y3199D01*
X530Y3199D01*
X530Y3197D01*
X532Y3197D01*
X532Y3195D01*
X536Y3195D01*
X536Y3193D01*
X538Y3193D01*
X538Y3191D01*
X540Y3191D01*
X540Y3189D01*
X542Y3189D01*
X542Y3187D01*
X544Y3187D01*
X544Y3185D01*
X546Y3185D01*
X546Y3183D01*
X548Y3183D01*
X548Y3179D01*
X550Y3179D01*
X550Y3177D01*
X552Y3177D01*
X552Y3173D01*
X554Y3173D01*
X554Y3169D01*
X556Y3169D01*
X556Y3165D01*
X558Y3165D01*
X558Y3161D01*
X560Y3161D01*
X560Y3151D01*
X562Y3151D01*
X562Y3125D01*
X560Y3125D01*
X560Y3117D01*
X558Y3117D01*
X558Y3111D01*
X556Y3111D01*
X556Y3107D01*
X554Y3107D01*
X554Y3103D01*
X552Y3103D01*
X552Y3101D01*
X550Y3101D01*
X550Y3097D01*
X548Y3097D01*
X548Y3095D01*
X546Y3095D01*
X546Y3093D01*
X544Y3093D01*
X544Y3091D01*
X542Y3091D01*
X542Y3089D01*
X540Y3089D01*
X540Y3087D01*
X538Y3087D01*
X538Y3085D01*
X536Y3085D01*
X536Y3083D01*
X534Y3083D01*
X534Y3081D01*
X532Y3081D01*
X532Y3079D01*
X528Y3079D01*
X528Y3077D01*
X526Y3077D01*
X526Y3075D01*
X522Y3075D01*
X522Y3073D01*
X518Y3073D01*
X518Y3071D01*
X512Y3071D01*
X512Y3069D01*
X504Y3069D01*
X504Y3067D01*
X678Y3067D01*
X678Y3071D01*
X676Y3071D01*
X676Y3075D01*
X674Y3075D01*
X674Y3079D01*
X672Y3079D01*
X672Y3083D01*
X670Y3083D01*
X670Y3087D01*
X668Y3087D01*
X668Y3091D01*
X666Y3091D01*
X666Y3095D01*
X664Y3095D01*
X664Y3099D01*
X662Y3099D01*
X662Y3103D01*
X660Y3103D01*
X660Y3107D01*
X658Y3107D01*
X658Y3111D01*
X656Y3111D01*
X656Y3113D01*
X654Y3113D01*
X654Y3117D01*
X652Y3117D01*
X652Y3121D01*
X650Y3121D01*
X650Y3125D01*
X648Y3125D01*
X648Y3129D01*
X646Y3129D01*
X646Y3133D01*
X644Y3133D01*
X644Y3137D01*
X642Y3137D01*
X642Y3141D01*
X640Y3141D01*
X640Y3145D01*
X638Y3145D01*
X638Y3149D01*
X636Y3149D01*
X636Y3153D01*
X634Y3153D01*
X634Y3157D01*
X632Y3157D01*
X632Y3161D01*
X630Y3161D01*
X630Y3165D01*
X628Y3165D01*
X628Y3169D01*
X626Y3169D01*
X626Y3173D01*
X624Y3173D01*
X624Y3177D01*
X622Y3177D01*
X622Y3181D01*
X620Y3181D01*
X620Y3185D01*
X618Y3185D01*
X618Y3189D01*
X616Y3189D01*
X616Y3193D01*
X614Y3193D01*
X614Y3197D01*
X612Y3197D01*
X612Y3201D01*
X610Y3201D01*
X610Y3205D01*
X608Y3205D01*
X608Y3209D01*
X606Y3209D01*
X606Y3213D01*
X604Y3213D01*
X604Y3215D01*
X602Y3215D01*
X602Y3217D01*
X598Y3217D01*
X598Y3219D01*
X594Y3219D01*
X594Y3221D01*
X592Y3221D01*
X592Y3223D01*
X588Y3223D01*
X588Y3225D01*
X584Y3225D01*
X584Y3227D01*
X582Y3227D01*
X582Y3229D01*
X578Y3229D01*
X578Y3231D01*
X574Y3231D01*
X574Y3233D01*
X572Y3233D01*
X572Y3235D01*
X568Y3235D01*
X568Y3237D01*
X566Y3237D01*
X566Y3239D01*
X562Y3239D01*
X562Y3241D01*
X558Y3241D01*
X558Y3243D01*
X556Y3243D01*
X556Y3245D01*
X552Y3245D01*
X552Y3247D01*
X548Y3247D01*
X548Y3249D01*
X546Y3249D01*
X546Y3251D01*
X542Y3251D01*
X542Y3253D01*
X540Y3253D01*
X540Y3255D01*
X536Y3255D01*
X536Y3257D01*
X532Y3257D01*
X532Y3259D01*
X530Y3259D01*
X530Y3261D01*
X526Y3261D01*
X526Y3263D01*
X522Y3263D01*
X522Y3265D01*
X182Y3265D01*
G37*
D02*
G36*
X682Y3265D02*
X682Y3263D01*
X684Y3263D01*
X684Y3259D01*
X686Y3259D01*
X686Y3257D01*
X688Y3257D01*
X688Y3253D01*
X690Y3253D01*
X690Y3249D01*
X692Y3249D01*
X692Y3245D01*
X694Y3245D01*
X694Y3241D01*
X696Y3241D01*
X696Y3237D01*
X698Y3237D01*
X698Y3233D01*
X700Y3233D01*
X700Y3229D01*
X702Y3229D01*
X702Y3225D01*
X704Y3225D01*
X704Y3221D01*
X706Y3221D01*
X706Y3217D01*
X708Y3217D01*
X708Y3213D01*
X710Y3213D01*
X710Y3209D01*
X1008Y3209D01*
X1008Y3207D01*
X1016Y3207D01*
X1016Y3205D01*
X1020Y3205D01*
X1020Y3203D01*
X1024Y3203D01*
X1024Y3201D01*
X1028Y3201D01*
X1028Y3199D01*
X1048Y3199D01*
X1048Y3201D01*
X1054Y3201D01*
X1054Y3203D01*
X1062Y3203D01*
X1062Y3205D01*
X1070Y3205D01*
X1070Y3207D01*
X1078Y3207D01*
X1078Y3209D01*
X1086Y3209D01*
X1086Y3211D01*
X1094Y3211D01*
X1094Y3213D01*
X1102Y3213D01*
X1102Y3215D01*
X1110Y3215D01*
X1110Y3217D01*
X1118Y3217D01*
X1118Y3219D01*
X1126Y3219D01*
X1126Y3221D01*
X1134Y3221D01*
X1134Y3223D01*
X1140Y3223D01*
X1140Y3225D01*
X1148Y3225D01*
X1148Y3227D01*
X1156Y3227D01*
X1156Y3229D01*
X1164Y3229D01*
X1164Y3231D01*
X1172Y3231D01*
X1172Y3233D01*
X1180Y3233D01*
X1180Y3235D01*
X1188Y3235D01*
X1188Y3237D01*
X1196Y3237D01*
X1196Y3239D01*
X1204Y3239D01*
X1204Y3241D01*
X1212Y3241D01*
X1212Y3243D01*
X1220Y3243D01*
X1220Y3245D01*
X1226Y3245D01*
X1226Y3247D01*
X1234Y3247D01*
X1234Y3249D01*
X1242Y3249D01*
X1242Y3251D01*
X1250Y3251D01*
X1250Y3253D01*
X1256Y3253D01*
X1256Y3255D01*
X1258Y3255D01*
X1258Y3257D01*
X1262Y3257D01*
X1262Y3259D01*
X1264Y3259D01*
X1264Y3261D01*
X1268Y3261D01*
X1268Y3263D01*
X1270Y3263D01*
X1270Y3265D01*
X682Y3265D01*
G37*
D02*
G36*
X182Y3209D02*
X182Y3067D01*
X376Y3067D01*
X376Y3069D01*
X368Y3069D01*
X368Y3071D01*
X364Y3071D01*
X364Y3073D01*
X358Y3073D01*
X358Y3075D01*
X356Y3075D01*
X356Y3077D01*
X352Y3077D01*
X352Y3079D01*
X350Y3079D01*
X350Y3081D01*
X346Y3081D01*
X346Y3083D01*
X344Y3083D01*
X344Y3085D01*
X342Y3085D01*
X342Y3087D01*
X340Y3087D01*
X340Y3089D01*
X338Y3089D01*
X338Y3091D01*
X336Y3091D01*
X336Y3093D01*
X334Y3093D01*
X334Y3095D01*
X332Y3095D01*
X332Y3099D01*
X330Y3099D01*
X330Y3101D01*
X328Y3101D01*
X328Y3105D01*
X326Y3105D01*
X326Y3109D01*
X324Y3109D01*
X324Y3113D01*
X322Y3113D01*
X322Y3119D01*
X320Y3119D01*
X320Y3157D01*
X322Y3157D01*
X322Y3163D01*
X324Y3163D01*
X324Y3169D01*
X326Y3169D01*
X326Y3173D01*
X328Y3173D01*
X328Y3175D01*
X330Y3175D01*
X330Y3179D01*
X332Y3179D01*
X332Y3181D01*
X334Y3181D01*
X334Y3183D01*
X336Y3183D01*
X336Y3185D01*
X338Y3185D01*
X338Y3189D01*
X340Y3189D01*
X340Y3191D01*
X344Y3191D01*
X344Y3193D01*
X346Y3193D01*
X346Y3195D01*
X348Y3195D01*
X348Y3197D01*
X350Y3197D01*
X350Y3199D01*
X354Y3199D01*
X354Y3201D01*
X358Y3201D01*
X358Y3203D01*
X360Y3203D01*
X360Y3205D01*
X366Y3205D01*
X366Y3207D01*
X372Y3207D01*
X372Y3209D01*
X182Y3209D01*
G37*
D02*
G36*
X408Y3209D02*
X408Y3207D01*
X416Y3207D01*
X416Y3205D01*
X420Y3205D01*
X420Y3203D01*
X424Y3203D01*
X424Y3201D01*
X428Y3201D01*
X428Y3199D01*
X430Y3199D01*
X430Y3197D01*
X450Y3197D01*
X450Y3199D01*
X454Y3199D01*
X454Y3201D01*
X458Y3201D01*
X458Y3203D01*
X460Y3203D01*
X460Y3205D01*
X466Y3205D01*
X466Y3207D01*
X472Y3207D01*
X472Y3209D01*
X408Y3209D01*
G37*
D02*
G36*
X712Y3209D02*
X712Y3205D01*
X714Y3205D01*
X714Y3201D01*
X716Y3201D01*
X716Y3197D01*
X718Y3197D01*
X718Y3193D01*
X720Y3193D01*
X720Y3189D01*
X722Y3189D01*
X722Y3185D01*
X724Y3185D01*
X724Y3181D01*
X726Y3181D01*
X726Y3177D01*
X728Y3177D01*
X728Y3173D01*
X730Y3173D01*
X730Y3169D01*
X732Y3169D01*
X732Y3165D01*
X734Y3165D01*
X734Y3161D01*
X736Y3161D01*
X736Y3157D01*
X738Y3157D01*
X738Y3153D01*
X740Y3153D01*
X740Y3149D01*
X742Y3149D01*
X742Y3145D01*
X744Y3145D01*
X744Y3141D01*
X746Y3141D01*
X746Y3137D01*
X748Y3137D01*
X748Y3133D01*
X750Y3133D01*
X750Y3129D01*
X752Y3129D01*
X752Y3125D01*
X754Y3125D01*
X754Y3123D01*
X756Y3123D01*
X756Y3119D01*
X758Y3119D01*
X758Y3115D01*
X760Y3115D01*
X760Y3111D01*
X762Y3111D01*
X762Y3107D01*
X764Y3107D01*
X764Y3103D01*
X766Y3103D01*
X766Y3099D01*
X768Y3099D01*
X768Y3095D01*
X770Y3095D01*
X770Y3091D01*
X772Y3091D01*
X772Y3087D01*
X774Y3087D01*
X774Y3083D01*
X776Y3083D01*
X776Y3079D01*
X794Y3079D01*
X794Y3077D01*
X834Y3077D01*
X834Y3095D01*
X832Y3095D01*
X832Y3099D01*
X830Y3099D01*
X830Y3101D01*
X828Y3101D01*
X828Y3105D01*
X826Y3105D01*
X826Y3109D01*
X824Y3109D01*
X824Y3113D01*
X822Y3113D01*
X822Y3119D01*
X820Y3119D01*
X820Y3157D01*
X822Y3157D01*
X822Y3163D01*
X824Y3163D01*
X824Y3169D01*
X826Y3169D01*
X826Y3173D01*
X828Y3173D01*
X828Y3175D01*
X830Y3175D01*
X830Y3179D01*
X832Y3179D01*
X832Y3181D01*
X834Y3181D01*
X834Y3183D01*
X836Y3183D01*
X836Y3185D01*
X838Y3185D01*
X838Y3189D01*
X840Y3189D01*
X840Y3191D01*
X844Y3191D01*
X844Y3193D01*
X846Y3193D01*
X846Y3195D01*
X848Y3195D01*
X848Y3197D01*
X850Y3197D01*
X850Y3199D01*
X854Y3199D01*
X854Y3201D01*
X858Y3201D01*
X858Y3203D01*
X860Y3203D01*
X860Y3205D01*
X866Y3205D01*
X866Y3207D01*
X872Y3207D01*
X872Y3209D01*
X712Y3209D01*
G37*
D02*
G36*
X908Y3209D02*
X908Y3207D01*
X916Y3207D01*
X916Y3205D01*
X920Y3205D01*
X920Y3203D01*
X924Y3203D01*
X924Y3201D01*
X928Y3201D01*
X928Y3199D01*
X930Y3199D01*
X930Y3197D01*
X950Y3197D01*
X950Y3199D01*
X954Y3199D01*
X954Y3201D01*
X958Y3201D01*
X958Y3203D01*
X960Y3203D01*
X960Y3205D01*
X966Y3205D01*
X966Y3207D01*
X972Y3207D01*
X972Y3209D01*
X908Y3209D01*
G37*
D02*
G36*
X1944Y3169D02*
X1944Y3167D01*
X3896Y3167D01*
X3896Y3169D01*
X1944Y3169D01*
G37*
D02*
G36*
X1944Y3169D02*
X1944Y3167D01*
X3896Y3167D01*
X3896Y3169D01*
X1944Y3169D01*
G37*
D02*
G36*
X1946Y3167D02*
X1946Y3163D01*
X1948Y3163D01*
X1948Y3159D01*
X1950Y3159D01*
X1950Y3155D01*
X1952Y3155D01*
X1952Y3151D01*
X1954Y3151D01*
X1954Y3149D01*
X1956Y3149D01*
X1956Y3145D01*
X1958Y3145D01*
X1958Y3141D01*
X1960Y3141D01*
X1960Y3137D01*
X1962Y3137D01*
X1962Y3133D01*
X1964Y3133D01*
X1964Y3129D01*
X1966Y3129D01*
X1966Y3125D01*
X1968Y3125D01*
X1968Y3121D01*
X1970Y3121D01*
X1970Y3117D01*
X1972Y3117D01*
X1972Y3113D01*
X1974Y3113D01*
X1974Y3109D01*
X3704Y3109D01*
X3704Y3107D01*
X3712Y3107D01*
X3712Y3105D01*
X3718Y3105D01*
X3718Y3103D01*
X3722Y3103D01*
X3722Y3101D01*
X3724Y3101D01*
X3724Y3099D01*
X3728Y3099D01*
X3728Y3097D01*
X3730Y3097D01*
X3730Y3095D01*
X3734Y3095D01*
X3734Y3093D01*
X3736Y3093D01*
X3736Y3091D01*
X3738Y3091D01*
X3738Y3089D01*
X3740Y3089D01*
X3740Y3087D01*
X3742Y3087D01*
X3742Y3085D01*
X3744Y3085D01*
X3744Y3083D01*
X3746Y3083D01*
X3746Y3081D01*
X3748Y3081D01*
X3748Y3077D01*
X3750Y3077D01*
X3750Y3075D01*
X3752Y3075D01*
X3752Y3071D01*
X3754Y3071D01*
X3754Y3067D01*
X3756Y3067D01*
X3756Y3063D01*
X3758Y3063D01*
X3758Y3055D01*
X3760Y3055D01*
X3760Y3021D01*
X3758Y3021D01*
X3758Y3015D01*
X3756Y3015D01*
X3756Y3009D01*
X3754Y3009D01*
X3754Y3005D01*
X3752Y3005D01*
X3752Y3003D01*
X3750Y3003D01*
X3750Y2999D01*
X3748Y2999D01*
X3748Y2977D01*
X3750Y2977D01*
X3750Y2975D01*
X3752Y2975D01*
X3752Y2971D01*
X3754Y2971D01*
X3754Y2967D01*
X3756Y2967D01*
X3756Y2963D01*
X3758Y2963D01*
X3758Y2955D01*
X3760Y2955D01*
X3760Y2921D01*
X3758Y2921D01*
X3758Y2915D01*
X3756Y2915D01*
X3756Y2909D01*
X3754Y2909D01*
X3754Y2905D01*
X3752Y2905D01*
X3752Y2903D01*
X3750Y2903D01*
X3750Y2899D01*
X3748Y2899D01*
X3748Y2877D01*
X3750Y2877D01*
X3750Y2875D01*
X3752Y2875D01*
X3752Y2871D01*
X3754Y2871D01*
X3754Y2867D01*
X3756Y2867D01*
X3756Y2863D01*
X3758Y2863D01*
X3758Y2855D01*
X3760Y2855D01*
X3760Y2821D01*
X3758Y2821D01*
X3758Y2815D01*
X3756Y2815D01*
X3756Y2809D01*
X3754Y2809D01*
X3754Y2805D01*
X3752Y2805D01*
X3752Y2803D01*
X3750Y2803D01*
X3750Y2799D01*
X3748Y2799D01*
X3748Y2777D01*
X3750Y2777D01*
X3750Y2775D01*
X3752Y2775D01*
X3752Y2771D01*
X3754Y2771D01*
X3754Y2767D01*
X3756Y2767D01*
X3756Y2763D01*
X3758Y2763D01*
X3758Y2755D01*
X3760Y2755D01*
X3760Y2721D01*
X3758Y2721D01*
X3758Y2715D01*
X3756Y2715D01*
X3756Y2709D01*
X3754Y2709D01*
X3754Y2705D01*
X3752Y2705D01*
X3752Y2703D01*
X3750Y2703D01*
X3750Y2699D01*
X3748Y2699D01*
X3748Y2677D01*
X3750Y2677D01*
X3750Y2675D01*
X3752Y2675D01*
X3752Y2671D01*
X3754Y2671D01*
X3754Y2667D01*
X3756Y2667D01*
X3756Y2663D01*
X3758Y2663D01*
X3758Y2655D01*
X3760Y2655D01*
X3760Y2621D01*
X3758Y2621D01*
X3758Y2615D01*
X3756Y2615D01*
X3756Y2609D01*
X3754Y2609D01*
X3754Y2605D01*
X3752Y2605D01*
X3752Y2603D01*
X3750Y2603D01*
X3750Y2599D01*
X3748Y2599D01*
X3748Y2577D01*
X3750Y2577D01*
X3750Y2575D01*
X3752Y2575D01*
X3752Y2571D01*
X3754Y2571D01*
X3754Y2567D01*
X3756Y2567D01*
X3756Y2563D01*
X3758Y2563D01*
X3758Y2555D01*
X3760Y2555D01*
X3760Y2521D01*
X3758Y2521D01*
X3758Y2515D01*
X3756Y2515D01*
X3756Y2509D01*
X3754Y2509D01*
X3754Y2505D01*
X3752Y2505D01*
X3752Y2503D01*
X3750Y2503D01*
X3750Y2499D01*
X3748Y2499D01*
X3748Y2477D01*
X3750Y2477D01*
X3750Y2475D01*
X3752Y2475D01*
X3752Y2471D01*
X3754Y2471D01*
X3754Y2467D01*
X3756Y2467D01*
X3756Y2463D01*
X3758Y2463D01*
X3758Y2455D01*
X3760Y2455D01*
X3760Y2421D01*
X3758Y2421D01*
X3758Y2415D01*
X3756Y2415D01*
X3756Y2409D01*
X3754Y2409D01*
X3754Y2405D01*
X3752Y2405D01*
X3752Y2403D01*
X3750Y2403D01*
X3750Y2399D01*
X3748Y2399D01*
X3748Y2377D01*
X3750Y2377D01*
X3750Y2375D01*
X3752Y2375D01*
X3752Y2371D01*
X3754Y2371D01*
X3754Y2367D01*
X3756Y2367D01*
X3756Y2363D01*
X3758Y2363D01*
X3758Y2355D01*
X3760Y2355D01*
X3760Y2321D01*
X3758Y2321D01*
X3758Y2315D01*
X3756Y2315D01*
X3756Y2309D01*
X3754Y2309D01*
X3754Y2305D01*
X3752Y2305D01*
X3752Y2303D01*
X3750Y2303D01*
X3750Y2299D01*
X3748Y2299D01*
X3748Y2297D01*
X3746Y2297D01*
X3746Y2295D01*
X3744Y2295D01*
X3744Y2293D01*
X3742Y2293D01*
X3742Y2289D01*
X3740Y2289D01*
X3740Y2287D01*
X3736Y2287D01*
X3736Y2285D01*
X3734Y2285D01*
X3734Y2283D01*
X3732Y2283D01*
X3732Y2281D01*
X3730Y2281D01*
X3730Y2279D01*
X3726Y2279D01*
X3726Y2277D01*
X3724Y2277D01*
X3724Y2275D01*
X3720Y2275D01*
X3720Y2273D01*
X3714Y2273D01*
X3714Y2271D01*
X3708Y2271D01*
X3708Y2269D01*
X3896Y2269D01*
X3896Y3167D01*
X1946Y3167D01*
G37*
D02*
G36*
X1976Y3109D02*
X1976Y3105D01*
X1978Y3105D01*
X1978Y3101D01*
X1980Y3101D01*
X1980Y3097D01*
X1982Y3097D01*
X1982Y3093D01*
X1984Y3093D01*
X1984Y3091D01*
X1986Y3091D01*
X1986Y3087D01*
X1988Y3087D01*
X1988Y3083D01*
X1990Y3083D01*
X1990Y3079D01*
X1992Y3079D01*
X1992Y3075D01*
X1994Y3075D01*
X1994Y3071D01*
X1996Y3071D01*
X1996Y3067D01*
X1998Y3067D01*
X1998Y3063D01*
X2000Y3063D01*
X2000Y3059D01*
X2002Y3059D01*
X2002Y3055D01*
X2004Y3055D01*
X2004Y3051D01*
X2006Y3051D01*
X2006Y3047D01*
X2008Y3047D01*
X2008Y3043D01*
X2010Y3043D01*
X2010Y3039D01*
X2012Y3039D01*
X2012Y3035D01*
X2014Y3035D01*
X2014Y3033D01*
X2016Y3033D01*
X2016Y3029D01*
X2018Y3029D01*
X2018Y3025D01*
X2020Y3025D01*
X2020Y3021D01*
X2022Y3021D01*
X2022Y3017D01*
X2024Y3017D01*
X2024Y3013D01*
X2026Y3013D01*
X2026Y3009D01*
X2028Y3009D01*
X2028Y3005D01*
X2030Y3005D01*
X2030Y3001D01*
X2032Y3001D01*
X2032Y2997D01*
X2034Y2997D01*
X2034Y2993D01*
X2036Y2993D01*
X2036Y2989D01*
X2038Y2989D01*
X2038Y2985D01*
X2040Y2985D01*
X2040Y2981D01*
X2042Y2981D01*
X2042Y2977D01*
X2044Y2977D01*
X2044Y2975D01*
X2046Y2975D01*
X2046Y2971D01*
X2048Y2971D01*
X2048Y2967D01*
X2050Y2967D01*
X2050Y2963D01*
X2052Y2963D01*
X2052Y2959D01*
X2054Y2959D01*
X2054Y2955D01*
X2056Y2955D01*
X2056Y2951D01*
X2058Y2951D01*
X2058Y2947D01*
X2060Y2947D01*
X2060Y2943D01*
X2062Y2943D01*
X2062Y2939D01*
X2064Y2939D01*
X2064Y2935D01*
X2066Y2935D01*
X2066Y2931D01*
X2068Y2931D01*
X2068Y2927D01*
X2070Y2927D01*
X2070Y2923D01*
X2072Y2923D01*
X2072Y2919D01*
X2074Y2919D01*
X2074Y2917D01*
X2076Y2917D01*
X2076Y2913D01*
X2078Y2913D01*
X2078Y2909D01*
X2080Y2909D01*
X2080Y2905D01*
X2082Y2905D01*
X2082Y2901D01*
X2084Y2901D01*
X2084Y2897D01*
X2086Y2897D01*
X2086Y2893D01*
X2088Y2893D01*
X2088Y2889D01*
X2090Y2889D01*
X2090Y2885D01*
X2092Y2885D01*
X2092Y2881D01*
X2094Y2881D01*
X2094Y2877D01*
X2096Y2877D01*
X2096Y2873D01*
X2098Y2873D01*
X2098Y2869D01*
X2100Y2869D01*
X2100Y2865D01*
X2102Y2865D01*
X2102Y2861D01*
X2104Y2861D01*
X2104Y2859D01*
X2106Y2859D01*
X2106Y2855D01*
X2108Y2855D01*
X2108Y2851D01*
X2110Y2851D01*
X2110Y2847D01*
X2112Y2847D01*
X2112Y2843D01*
X2114Y2843D01*
X2114Y2839D01*
X2116Y2839D01*
X2116Y2835D01*
X2118Y2835D01*
X2118Y2831D01*
X2120Y2831D01*
X2120Y2827D01*
X2122Y2827D01*
X2122Y2823D01*
X2124Y2823D01*
X2124Y2819D01*
X2126Y2819D01*
X2126Y2815D01*
X2128Y2815D01*
X2128Y2811D01*
X2130Y2811D01*
X2130Y2807D01*
X2132Y2807D01*
X2132Y2803D01*
X2134Y2803D01*
X2134Y2801D01*
X2136Y2801D01*
X2136Y2797D01*
X2138Y2797D01*
X2138Y2793D01*
X2140Y2793D01*
X2140Y2789D01*
X2142Y2789D01*
X2142Y2785D01*
X2144Y2785D01*
X2144Y2781D01*
X2146Y2781D01*
X2146Y2777D01*
X2148Y2777D01*
X2148Y2773D01*
X2150Y2773D01*
X2150Y2769D01*
X2152Y2769D01*
X2152Y2765D01*
X2154Y2765D01*
X2154Y2761D01*
X2156Y2761D01*
X2156Y2757D01*
X2158Y2757D01*
X2158Y2753D01*
X2160Y2753D01*
X2160Y2749D01*
X2162Y2749D01*
X2162Y2745D01*
X2164Y2745D01*
X2164Y2743D01*
X2166Y2743D01*
X2166Y2739D01*
X2168Y2739D01*
X2168Y2735D01*
X2170Y2735D01*
X2170Y2731D01*
X2172Y2731D01*
X2172Y2727D01*
X2174Y2727D01*
X2174Y2723D01*
X2176Y2723D01*
X2176Y2719D01*
X2178Y2719D01*
X2178Y2715D01*
X2180Y2715D01*
X2180Y2711D01*
X2182Y2711D01*
X2182Y2707D01*
X2184Y2707D01*
X2184Y2703D01*
X2186Y2703D01*
X2186Y2699D01*
X2188Y2699D01*
X2188Y2695D01*
X2190Y2695D01*
X2190Y2691D01*
X2192Y2691D01*
X2192Y2687D01*
X2194Y2687D01*
X2194Y2685D01*
X2196Y2685D01*
X2196Y2681D01*
X2198Y2681D01*
X2198Y2677D01*
X2200Y2677D01*
X2200Y2673D01*
X2202Y2673D01*
X2202Y2669D01*
X2204Y2669D01*
X2204Y2665D01*
X2206Y2665D01*
X2206Y2661D01*
X2208Y2661D01*
X2208Y2657D01*
X2210Y2657D01*
X2210Y2653D01*
X2212Y2653D01*
X2212Y2649D01*
X2214Y2649D01*
X2214Y2645D01*
X2216Y2645D01*
X2216Y2641D01*
X2218Y2641D01*
X2218Y2637D01*
X2220Y2637D01*
X2220Y2633D01*
X2222Y2633D01*
X2222Y2629D01*
X2224Y2629D01*
X2224Y2627D01*
X2226Y2627D01*
X2226Y2623D01*
X2228Y2623D01*
X2228Y2619D01*
X2230Y2619D01*
X2230Y2615D01*
X2232Y2615D01*
X2232Y2611D01*
X2234Y2611D01*
X2234Y2607D01*
X2236Y2607D01*
X2236Y2603D01*
X2238Y2603D01*
X2238Y2599D01*
X2240Y2599D01*
X2240Y2595D01*
X2242Y2595D01*
X2242Y2591D01*
X2244Y2591D01*
X2244Y2587D01*
X2246Y2587D01*
X2246Y2583D01*
X2248Y2583D01*
X2248Y2579D01*
X2250Y2579D01*
X2250Y2575D01*
X2252Y2575D01*
X2252Y2571D01*
X2254Y2571D01*
X2254Y2569D01*
X2256Y2569D01*
X2256Y2565D01*
X2258Y2565D01*
X2258Y2561D01*
X2260Y2561D01*
X2260Y2557D01*
X2262Y2557D01*
X2262Y2553D01*
X2264Y2553D01*
X2264Y2549D01*
X2266Y2549D01*
X2266Y2545D01*
X2268Y2545D01*
X2268Y2541D01*
X2270Y2541D01*
X2270Y2537D01*
X2272Y2537D01*
X2272Y2533D01*
X2274Y2533D01*
X2274Y2529D01*
X2276Y2529D01*
X2276Y2525D01*
X2278Y2525D01*
X2278Y2521D01*
X2280Y2521D01*
X2280Y2517D01*
X2282Y2517D01*
X2282Y2513D01*
X2284Y2513D01*
X2284Y2511D01*
X2286Y2511D01*
X2286Y2507D01*
X2288Y2507D01*
X2288Y2503D01*
X2290Y2503D01*
X2290Y2499D01*
X2292Y2499D01*
X2292Y2495D01*
X2294Y2495D01*
X2294Y2491D01*
X2296Y2491D01*
X2296Y2487D01*
X2298Y2487D01*
X2298Y2483D01*
X2300Y2483D01*
X2300Y2479D01*
X2302Y2479D01*
X2302Y2475D01*
X2304Y2475D01*
X2304Y2471D01*
X2306Y2471D01*
X2306Y2467D01*
X2308Y2467D01*
X2308Y2463D01*
X2310Y2463D01*
X2310Y2459D01*
X2312Y2459D01*
X2312Y2455D01*
X2314Y2455D01*
X2314Y2453D01*
X2316Y2453D01*
X2316Y2449D01*
X2318Y2449D01*
X2318Y2445D01*
X2320Y2445D01*
X2320Y2441D01*
X2322Y2441D01*
X2322Y2437D01*
X2324Y2437D01*
X2324Y2433D01*
X2326Y2433D01*
X2326Y2429D01*
X2328Y2429D01*
X2328Y2425D01*
X2330Y2425D01*
X2330Y2421D01*
X2332Y2421D01*
X2332Y2417D01*
X2334Y2417D01*
X2334Y2413D01*
X2336Y2413D01*
X2336Y2409D01*
X2338Y2409D01*
X2338Y2405D01*
X2340Y2405D01*
X2340Y2401D01*
X2342Y2401D01*
X2342Y2397D01*
X2344Y2397D01*
X2344Y2395D01*
X2346Y2395D01*
X2346Y2391D01*
X2348Y2391D01*
X2348Y2387D01*
X2350Y2387D01*
X2350Y2383D01*
X2352Y2383D01*
X2352Y2379D01*
X2354Y2379D01*
X2354Y2375D01*
X2356Y2375D01*
X2356Y2371D01*
X2358Y2371D01*
X2358Y2367D01*
X2360Y2367D01*
X2360Y2363D01*
X2362Y2363D01*
X2362Y2359D01*
X2364Y2359D01*
X2364Y2355D01*
X2366Y2355D01*
X2366Y2351D01*
X2368Y2351D01*
X2368Y2347D01*
X2370Y2347D01*
X2370Y2343D01*
X2372Y2343D01*
X2372Y2339D01*
X2374Y2339D01*
X2374Y2337D01*
X2376Y2337D01*
X2376Y2333D01*
X2378Y2333D01*
X2378Y2329D01*
X2380Y2329D01*
X2380Y2325D01*
X2382Y2325D01*
X2382Y2321D01*
X2384Y2321D01*
X2384Y2317D01*
X2386Y2317D01*
X2386Y2313D01*
X2388Y2313D01*
X2388Y2309D01*
X2390Y2309D01*
X2390Y2305D01*
X2392Y2305D01*
X2392Y2301D01*
X2394Y2301D01*
X2394Y2297D01*
X2396Y2297D01*
X2396Y2293D01*
X2398Y2293D01*
X2398Y2289D01*
X2400Y2289D01*
X2400Y2285D01*
X2402Y2285D01*
X2402Y2281D01*
X2404Y2281D01*
X2404Y2279D01*
X2406Y2279D01*
X2406Y2275D01*
X2408Y2275D01*
X2408Y2271D01*
X2410Y2271D01*
X2410Y2269D01*
X3672Y2269D01*
X3672Y2271D01*
X3666Y2271D01*
X3666Y2273D01*
X3662Y2273D01*
X3662Y2275D01*
X3658Y2275D01*
X3658Y2277D01*
X3654Y2277D01*
X3654Y2279D01*
X3652Y2279D01*
X3652Y2281D01*
X3648Y2281D01*
X3648Y2283D01*
X3646Y2283D01*
X3646Y2285D01*
X3644Y2285D01*
X3644Y2287D01*
X3642Y2287D01*
X3642Y2289D01*
X3640Y2289D01*
X3640Y2291D01*
X3638Y2291D01*
X3638Y2293D01*
X3636Y2293D01*
X3636Y2295D01*
X3634Y2295D01*
X3634Y2297D01*
X3632Y2297D01*
X3632Y2301D01*
X3630Y2301D01*
X3630Y2303D01*
X3628Y2303D01*
X3628Y2307D01*
X3626Y2307D01*
X3626Y2311D01*
X3624Y2311D01*
X3624Y2317D01*
X3622Y2317D01*
X3622Y2325D01*
X3620Y2325D01*
X3620Y2353D01*
X3622Y2353D01*
X3622Y2361D01*
X3624Y2361D01*
X3624Y2365D01*
X3626Y2365D01*
X3626Y2369D01*
X3628Y2369D01*
X3628Y2373D01*
X3630Y2373D01*
X3630Y2377D01*
X3632Y2377D01*
X3632Y2401D01*
X3630Y2401D01*
X3630Y2403D01*
X3628Y2403D01*
X3628Y2407D01*
X3626Y2407D01*
X3626Y2411D01*
X3624Y2411D01*
X3624Y2417D01*
X3622Y2417D01*
X3622Y2425D01*
X3620Y2425D01*
X3620Y2453D01*
X3622Y2453D01*
X3622Y2461D01*
X3624Y2461D01*
X3624Y2465D01*
X3626Y2465D01*
X3626Y2469D01*
X3628Y2469D01*
X3628Y2473D01*
X3630Y2473D01*
X3630Y2477D01*
X3632Y2477D01*
X3632Y2501D01*
X3630Y2501D01*
X3630Y2503D01*
X3628Y2503D01*
X3628Y2507D01*
X3626Y2507D01*
X3626Y2511D01*
X3624Y2511D01*
X3624Y2517D01*
X3622Y2517D01*
X3622Y2525D01*
X3620Y2525D01*
X3620Y2553D01*
X3622Y2553D01*
X3622Y2561D01*
X3624Y2561D01*
X3624Y2565D01*
X3626Y2565D01*
X3626Y2569D01*
X3628Y2569D01*
X3628Y2573D01*
X3630Y2573D01*
X3630Y2577D01*
X3632Y2577D01*
X3632Y2601D01*
X3630Y2601D01*
X3630Y2603D01*
X3628Y2603D01*
X3628Y2607D01*
X3626Y2607D01*
X3626Y2611D01*
X3624Y2611D01*
X3624Y2617D01*
X3622Y2617D01*
X3622Y2625D01*
X3620Y2625D01*
X3620Y2653D01*
X3622Y2653D01*
X3622Y2661D01*
X3624Y2661D01*
X3624Y2665D01*
X3626Y2665D01*
X3626Y2669D01*
X3628Y2669D01*
X3628Y2673D01*
X3630Y2673D01*
X3630Y2677D01*
X3632Y2677D01*
X3632Y2701D01*
X3630Y2701D01*
X3630Y2703D01*
X3628Y2703D01*
X3628Y2707D01*
X3626Y2707D01*
X3626Y2711D01*
X3624Y2711D01*
X3624Y2717D01*
X3622Y2717D01*
X3622Y2725D01*
X3620Y2725D01*
X3620Y2753D01*
X3622Y2753D01*
X3622Y2761D01*
X3624Y2761D01*
X3624Y2765D01*
X3626Y2765D01*
X3626Y2769D01*
X3628Y2769D01*
X3628Y2773D01*
X3630Y2773D01*
X3630Y2777D01*
X3632Y2777D01*
X3632Y2801D01*
X3630Y2801D01*
X3630Y2803D01*
X3628Y2803D01*
X3628Y2807D01*
X3626Y2807D01*
X3626Y2811D01*
X3624Y2811D01*
X3624Y2817D01*
X3622Y2817D01*
X3622Y2825D01*
X3620Y2825D01*
X3620Y2853D01*
X3622Y2853D01*
X3622Y2861D01*
X3624Y2861D01*
X3624Y2865D01*
X3626Y2865D01*
X3626Y2869D01*
X3628Y2869D01*
X3628Y2873D01*
X3630Y2873D01*
X3630Y2877D01*
X3632Y2877D01*
X3632Y2901D01*
X3630Y2901D01*
X3630Y2903D01*
X3628Y2903D01*
X3628Y2907D01*
X3626Y2907D01*
X3626Y2911D01*
X3624Y2911D01*
X3624Y2917D01*
X3622Y2917D01*
X3622Y2925D01*
X3620Y2925D01*
X3620Y2953D01*
X3622Y2953D01*
X3622Y2961D01*
X3624Y2961D01*
X3624Y2965D01*
X3626Y2965D01*
X3626Y2969D01*
X3628Y2969D01*
X3628Y2973D01*
X3630Y2973D01*
X3630Y2977D01*
X3632Y2977D01*
X3632Y3001D01*
X3630Y3001D01*
X3630Y3003D01*
X3628Y3003D01*
X3628Y3007D01*
X3626Y3007D01*
X3626Y3011D01*
X3624Y3011D01*
X3624Y3017D01*
X3622Y3017D01*
X3622Y3025D01*
X3620Y3025D01*
X3620Y3053D01*
X3622Y3053D01*
X3622Y3061D01*
X3624Y3061D01*
X3624Y3065D01*
X3626Y3065D01*
X3626Y3069D01*
X3628Y3069D01*
X3628Y3073D01*
X3630Y3073D01*
X3630Y3077D01*
X3632Y3077D01*
X3632Y3079D01*
X3634Y3079D01*
X3634Y3081D01*
X3636Y3081D01*
X3636Y3085D01*
X3638Y3085D01*
X3638Y3087D01*
X3640Y3087D01*
X3640Y3089D01*
X3642Y3089D01*
X3642Y3091D01*
X3644Y3091D01*
X3644Y3093D01*
X3648Y3093D01*
X3648Y3095D01*
X3650Y3095D01*
X3650Y3097D01*
X3652Y3097D01*
X3652Y3099D01*
X3656Y3099D01*
X3656Y3101D01*
X3660Y3101D01*
X3660Y3103D01*
X3664Y3103D01*
X3664Y3105D01*
X3668Y3105D01*
X3668Y3107D01*
X3678Y3107D01*
X3678Y3109D01*
X1976Y3109D01*
G37*
D02*
G36*
X1850Y3095D02*
X1850Y3075D01*
X1852Y3075D01*
X1852Y3071D01*
X1854Y3071D01*
X1854Y3067D01*
X1856Y3067D01*
X1856Y3063D01*
X1858Y3063D01*
X1858Y3055D01*
X1860Y3055D01*
X1860Y3021D01*
X1858Y3021D01*
X1858Y3015D01*
X1856Y3015D01*
X1856Y3009D01*
X1854Y3009D01*
X1854Y3005D01*
X1852Y3005D01*
X1852Y3003D01*
X1850Y3003D01*
X1850Y2999D01*
X1848Y2999D01*
X1848Y2997D01*
X1846Y2997D01*
X1846Y2995D01*
X1844Y2995D01*
X1844Y2993D01*
X1842Y2993D01*
X1842Y2989D01*
X1840Y2989D01*
X1840Y2987D01*
X1836Y2987D01*
X1836Y2985D01*
X1834Y2985D01*
X1834Y2983D01*
X1832Y2983D01*
X1832Y2981D01*
X1830Y2981D01*
X1830Y2979D01*
X1826Y2979D01*
X1826Y2977D01*
X1824Y2977D01*
X1824Y2975D01*
X1820Y2975D01*
X1820Y2973D01*
X1814Y2973D01*
X1814Y2971D01*
X1808Y2971D01*
X1808Y2969D01*
X1942Y2969D01*
X1942Y2973D01*
X1940Y2973D01*
X1940Y2977D01*
X1938Y2977D01*
X1938Y2981D01*
X1936Y2981D01*
X1936Y2985D01*
X1934Y2985D01*
X1934Y2989D01*
X1932Y2989D01*
X1932Y2993D01*
X1930Y2993D01*
X1930Y2997D01*
X1928Y2997D01*
X1928Y3001D01*
X1926Y3001D01*
X1926Y3003D01*
X1924Y3003D01*
X1924Y3007D01*
X1922Y3007D01*
X1922Y3011D01*
X1920Y3011D01*
X1920Y3015D01*
X1918Y3015D01*
X1918Y3019D01*
X1916Y3019D01*
X1916Y3023D01*
X1914Y3023D01*
X1914Y3027D01*
X1912Y3027D01*
X1912Y3031D01*
X1910Y3031D01*
X1910Y3035D01*
X1908Y3035D01*
X1908Y3039D01*
X1906Y3039D01*
X1906Y3043D01*
X1904Y3043D01*
X1904Y3047D01*
X1902Y3047D01*
X1902Y3051D01*
X1900Y3051D01*
X1900Y3055D01*
X1898Y3055D01*
X1898Y3059D01*
X1896Y3059D01*
X1896Y3063D01*
X1894Y3063D01*
X1894Y3065D01*
X1892Y3065D01*
X1892Y3069D01*
X1890Y3069D01*
X1890Y3073D01*
X1888Y3073D01*
X1888Y3077D01*
X1886Y3077D01*
X1886Y3081D01*
X1884Y3081D01*
X1884Y3085D01*
X1882Y3085D01*
X1882Y3089D01*
X1880Y3089D01*
X1880Y3093D01*
X1878Y3093D01*
X1878Y3095D01*
X1850Y3095D01*
G37*
D02*
G36*
X428Y3079D02*
X428Y3077D01*
X426Y3077D01*
X426Y3075D01*
X422Y3075D01*
X422Y3073D01*
X418Y3073D01*
X418Y3071D01*
X412Y3071D01*
X412Y3069D01*
X404Y3069D01*
X404Y3067D01*
X476Y3067D01*
X476Y3069D01*
X468Y3069D01*
X468Y3071D01*
X464Y3071D01*
X464Y3073D01*
X458Y3073D01*
X458Y3075D01*
X456Y3075D01*
X456Y3077D01*
X452Y3077D01*
X452Y3079D01*
X428Y3079D01*
G37*
D02*
G36*
X928Y3079D02*
X928Y3077D01*
X926Y3077D01*
X926Y3075D01*
X922Y3075D01*
X922Y3073D01*
X918Y3073D01*
X918Y3067D01*
X976Y3067D01*
X976Y3069D01*
X968Y3069D01*
X968Y3071D01*
X964Y3071D01*
X964Y3073D01*
X958Y3073D01*
X958Y3075D01*
X956Y3075D01*
X956Y3077D01*
X952Y3077D01*
X952Y3079D01*
X928Y3079D01*
G37*
D02*
G36*
X182Y3067D02*
X182Y3065D01*
X680Y3065D01*
X680Y3067D01*
X182Y3067D01*
G37*
D02*
G36*
X182Y3067D02*
X182Y3065D01*
X680Y3065D01*
X680Y3067D01*
X182Y3067D01*
G37*
D02*
G36*
X182Y3067D02*
X182Y3065D01*
X680Y3065D01*
X680Y3067D01*
X182Y3067D01*
G37*
D02*
G36*
X918Y3067D02*
X918Y3065D01*
X1478Y3065D01*
X1478Y3067D01*
X918Y3067D01*
G37*
D02*
G36*
X918Y3067D02*
X918Y3065D01*
X1478Y3065D01*
X1478Y3067D01*
X918Y3067D01*
G37*
D02*
G36*
X182Y3065D02*
X182Y3031D01*
X184Y3031D01*
X184Y2979D01*
X852Y2979D01*
X852Y2981D01*
X848Y2981D01*
X848Y2983D01*
X844Y2983D01*
X844Y2985D01*
X840Y2985D01*
X840Y2987D01*
X816Y2987D01*
X816Y2989D01*
X778Y2989D01*
X778Y2991D01*
X738Y2991D01*
X738Y2993D01*
X728Y2993D01*
X728Y2995D01*
X722Y2995D01*
X722Y2997D01*
X720Y2997D01*
X720Y2999D01*
X716Y2999D01*
X716Y3001D01*
X714Y3001D01*
X714Y3003D01*
X712Y3003D01*
X712Y3005D01*
X710Y3005D01*
X710Y3009D01*
X708Y3009D01*
X708Y3011D01*
X706Y3011D01*
X706Y3015D01*
X704Y3015D01*
X704Y3019D01*
X702Y3019D01*
X702Y3023D01*
X700Y3023D01*
X700Y3027D01*
X698Y3027D01*
X698Y3031D01*
X696Y3031D01*
X696Y3035D01*
X694Y3035D01*
X694Y3039D01*
X692Y3039D01*
X692Y3043D01*
X690Y3043D01*
X690Y3047D01*
X688Y3047D01*
X688Y3051D01*
X686Y3051D01*
X686Y3055D01*
X684Y3055D01*
X684Y3059D01*
X682Y3059D01*
X682Y3063D01*
X680Y3063D01*
X680Y3065D01*
X182Y3065D01*
G37*
D02*
G36*
X918Y3065D02*
X918Y3049D01*
X920Y3049D01*
X920Y3041D01*
X922Y3041D01*
X922Y3019D01*
X920Y3019D01*
X920Y3011D01*
X918Y3011D01*
X918Y3007D01*
X916Y3007D01*
X916Y3003D01*
X914Y3003D01*
X914Y3001D01*
X912Y3001D01*
X912Y2997D01*
X910Y2997D01*
X910Y2995D01*
X908Y2995D01*
X908Y2993D01*
X906Y2993D01*
X906Y2991D01*
X904Y2991D01*
X904Y2989D01*
X902Y2989D01*
X902Y2987D01*
X898Y2987D01*
X898Y2985D01*
X896Y2985D01*
X896Y2983D01*
X892Y2983D01*
X892Y2981D01*
X888Y2981D01*
X888Y2979D01*
X1496Y2979D01*
X1496Y2981D01*
X1494Y2981D01*
X1494Y2991D01*
X1492Y2991D01*
X1492Y3001D01*
X1490Y3001D01*
X1490Y3011D01*
X1488Y3011D01*
X1488Y3021D01*
X1486Y3021D01*
X1486Y3031D01*
X1484Y3031D01*
X1484Y3041D01*
X1482Y3041D01*
X1482Y3051D01*
X1480Y3051D01*
X1480Y3061D01*
X1478Y3061D01*
X1478Y3065D01*
X918Y3065D01*
G37*
D02*
G36*
X184Y2979D02*
X184Y2977D01*
X1496Y2977D01*
X1496Y2979D01*
X184Y2979D01*
G37*
D02*
G36*
X184Y2979D02*
X184Y2977D01*
X1496Y2977D01*
X1496Y2979D01*
X184Y2979D01*
G37*
D02*
G36*
X184Y2977D02*
X184Y2907D01*
X186Y2907D01*
X186Y2901D01*
X188Y2901D01*
X188Y2893D01*
X190Y2893D01*
X190Y2887D01*
X192Y2887D01*
X192Y2881D01*
X194Y2881D01*
X194Y2875D01*
X196Y2875D01*
X196Y2869D01*
X198Y2869D01*
X198Y2863D01*
X200Y2863D01*
X200Y2857D01*
X202Y2857D01*
X202Y2849D01*
X204Y2849D01*
X204Y2843D01*
X206Y2843D01*
X206Y2837D01*
X208Y2837D01*
X208Y2831D01*
X210Y2831D01*
X210Y2825D01*
X212Y2825D01*
X212Y2819D01*
X214Y2819D01*
X214Y2813D01*
X216Y2813D01*
X216Y2811D01*
X1464Y2811D01*
X1464Y2625D01*
X1462Y2625D01*
X1462Y2617D01*
X1460Y2617D01*
X1460Y2611D01*
X1458Y2611D01*
X1458Y2607D01*
X1456Y2607D01*
X1456Y2603D01*
X1454Y2603D01*
X1454Y2583D01*
X1570Y2583D01*
X1570Y2609D01*
X1568Y2609D01*
X1568Y2619D01*
X1566Y2619D01*
X1566Y2629D01*
X1564Y2629D01*
X1564Y2639D01*
X1562Y2639D01*
X1562Y2649D01*
X1560Y2649D01*
X1560Y2659D01*
X1558Y2659D01*
X1558Y2669D01*
X1556Y2669D01*
X1556Y2679D01*
X1554Y2679D01*
X1554Y2689D01*
X1552Y2689D01*
X1552Y2699D01*
X1550Y2699D01*
X1550Y2709D01*
X1548Y2709D01*
X1548Y2719D01*
X1546Y2719D01*
X1546Y2729D01*
X1544Y2729D01*
X1544Y2739D01*
X1542Y2739D01*
X1542Y2749D01*
X1540Y2749D01*
X1540Y2759D01*
X1538Y2759D01*
X1538Y2769D01*
X1536Y2769D01*
X1536Y2779D01*
X1534Y2779D01*
X1534Y2789D01*
X1532Y2789D01*
X1532Y2799D01*
X1530Y2799D01*
X1530Y2809D01*
X1528Y2809D01*
X1528Y2819D01*
X1526Y2819D01*
X1526Y2829D01*
X1524Y2829D01*
X1524Y2841D01*
X1522Y2841D01*
X1522Y2851D01*
X1520Y2851D01*
X1520Y2861D01*
X1518Y2861D01*
X1518Y2871D01*
X1516Y2871D01*
X1516Y2881D01*
X1514Y2881D01*
X1514Y2891D01*
X1512Y2891D01*
X1512Y2901D01*
X1510Y2901D01*
X1510Y2911D01*
X1508Y2911D01*
X1508Y2921D01*
X1506Y2921D01*
X1506Y2931D01*
X1504Y2931D01*
X1504Y2941D01*
X1502Y2941D01*
X1502Y2951D01*
X1500Y2951D01*
X1500Y2961D01*
X1498Y2961D01*
X1498Y2971D01*
X1496Y2971D01*
X1496Y2977D01*
X184Y2977D01*
G37*
D02*
G36*
X1590Y2969D02*
X1590Y2967D01*
X1944Y2967D01*
X1944Y2969D01*
X1590Y2969D01*
G37*
D02*
G36*
X1590Y2969D02*
X1590Y2967D01*
X1944Y2967D01*
X1944Y2969D01*
X1590Y2969D01*
G37*
D02*
G36*
X1590Y2967D02*
X1590Y2961D01*
X1592Y2961D01*
X1592Y2951D01*
X1594Y2951D01*
X1594Y2941D01*
X1596Y2941D01*
X1596Y2939D01*
X1804Y2939D01*
X1804Y2937D01*
X1812Y2937D01*
X1812Y2935D01*
X1818Y2935D01*
X1818Y2933D01*
X1822Y2933D01*
X1822Y2931D01*
X1824Y2931D01*
X1824Y2929D01*
X1828Y2929D01*
X1828Y2927D01*
X1830Y2927D01*
X1830Y2925D01*
X1834Y2925D01*
X1834Y2923D01*
X1836Y2923D01*
X1836Y2921D01*
X1838Y2921D01*
X1838Y2919D01*
X1840Y2919D01*
X1840Y2917D01*
X1842Y2917D01*
X1842Y2915D01*
X1844Y2915D01*
X1844Y2913D01*
X1846Y2913D01*
X1846Y2911D01*
X1848Y2911D01*
X1848Y2907D01*
X1850Y2907D01*
X1850Y2905D01*
X1852Y2905D01*
X1852Y2901D01*
X1854Y2901D01*
X1854Y2897D01*
X1856Y2897D01*
X1856Y2893D01*
X1858Y2893D01*
X1858Y2885D01*
X1860Y2885D01*
X1860Y2851D01*
X1858Y2851D01*
X1858Y2845D01*
X1856Y2845D01*
X1856Y2839D01*
X1854Y2839D01*
X1854Y2835D01*
X1852Y2835D01*
X1852Y2833D01*
X1850Y2833D01*
X1850Y2829D01*
X1848Y2829D01*
X1848Y2809D01*
X1854Y2809D01*
X1854Y2807D01*
X1878Y2807D01*
X1878Y2805D01*
X1902Y2805D01*
X1902Y2803D01*
X1926Y2803D01*
X1926Y2801D01*
X1950Y2801D01*
X1950Y2799D01*
X1974Y2799D01*
X1974Y2797D01*
X1998Y2797D01*
X1998Y2795D01*
X2028Y2795D01*
X2028Y2807D01*
X2026Y2807D01*
X2026Y2811D01*
X2024Y2811D01*
X2024Y2815D01*
X2022Y2815D01*
X2022Y2819D01*
X2020Y2819D01*
X2020Y2823D01*
X2018Y2823D01*
X2018Y2827D01*
X2016Y2827D01*
X2016Y2829D01*
X2014Y2829D01*
X2014Y2833D01*
X2012Y2833D01*
X2012Y2837D01*
X2010Y2837D01*
X2010Y2841D01*
X2008Y2841D01*
X2008Y2845D01*
X2006Y2845D01*
X2006Y2849D01*
X2004Y2849D01*
X2004Y2853D01*
X2002Y2853D01*
X2002Y2857D01*
X2000Y2857D01*
X2000Y2861D01*
X1998Y2861D01*
X1998Y2865D01*
X1996Y2865D01*
X1996Y2869D01*
X1994Y2869D01*
X1994Y2873D01*
X1992Y2873D01*
X1992Y2877D01*
X1990Y2877D01*
X1990Y2881D01*
X1988Y2881D01*
X1988Y2885D01*
X1986Y2885D01*
X1986Y2887D01*
X1984Y2887D01*
X1984Y2891D01*
X1982Y2891D01*
X1982Y2895D01*
X1980Y2895D01*
X1980Y2899D01*
X1978Y2899D01*
X1978Y2903D01*
X1976Y2903D01*
X1976Y2907D01*
X1974Y2907D01*
X1974Y2911D01*
X1972Y2911D01*
X1972Y2915D01*
X1970Y2915D01*
X1970Y2919D01*
X1968Y2919D01*
X1968Y2923D01*
X1966Y2923D01*
X1966Y2927D01*
X1964Y2927D01*
X1964Y2931D01*
X1962Y2931D01*
X1962Y2935D01*
X1960Y2935D01*
X1960Y2939D01*
X1958Y2939D01*
X1958Y2943D01*
X1956Y2943D01*
X1956Y2945D01*
X1954Y2945D01*
X1954Y2949D01*
X1952Y2949D01*
X1952Y2953D01*
X1950Y2953D01*
X1950Y2957D01*
X1948Y2957D01*
X1948Y2961D01*
X1946Y2961D01*
X1946Y2965D01*
X1944Y2965D01*
X1944Y2967D01*
X1590Y2967D01*
G37*
D02*
G36*
X1596Y2939D02*
X1596Y2931D01*
X1598Y2931D01*
X1598Y2921D01*
X1600Y2921D01*
X1600Y2911D01*
X1602Y2911D01*
X1602Y2901D01*
X1604Y2901D01*
X1604Y2891D01*
X1606Y2891D01*
X1606Y2881D01*
X1608Y2881D01*
X1608Y2871D01*
X1610Y2871D01*
X1610Y2861D01*
X1612Y2861D01*
X1612Y2851D01*
X1614Y2851D01*
X1614Y2841D01*
X1616Y2841D01*
X1616Y2831D01*
X1618Y2831D01*
X1618Y2821D01*
X1620Y2821D01*
X1620Y2811D01*
X1622Y2811D01*
X1622Y2801D01*
X1624Y2801D01*
X1624Y2791D01*
X1626Y2791D01*
X1626Y2781D01*
X1628Y2781D01*
X1628Y2771D01*
X1630Y2771D01*
X1630Y2761D01*
X1632Y2761D01*
X1632Y2751D01*
X1634Y2751D01*
X1634Y2741D01*
X1636Y2741D01*
X1636Y2731D01*
X1638Y2731D01*
X1638Y2721D01*
X1640Y2721D01*
X1640Y2711D01*
X1642Y2711D01*
X1642Y2701D01*
X1644Y2701D01*
X1644Y2691D01*
X1646Y2691D01*
X1646Y2681D01*
X1648Y2681D01*
X1648Y2671D01*
X1650Y2671D01*
X1650Y2661D01*
X1652Y2661D01*
X1652Y2651D01*
X1654Y2651D01*
X1654Y2641D01*
X1656Y2641D01*
X1656Y2631D01*
X1658Y2631D01*
X1658Y2621D01*
X1660Y2621D01*
X1660Y2611D01*
X1662Y2611D01*
X1662Y2599D01*
X1664Y2599D01*
X1664Y2589D01*
X1666Y2589D01*
X1666Y2579D01*
X1668Y2579D01*
X1668Y2569D01*
X1670Y2569D01*
X1670Y2559D01*
X1672Y2559D01*
X1672Y2549D01*
X1674Y2549D01*
X1674Y2527D01*
X1672Y2527D01*
X1672Y2519D01*
X1670Y2519D01*
X1670Y2513D01*
X1668Y2513D01*
X1668Y2511D01*
X1666Y2511D01*
X1666Y2507D01*
X1664Y2507D01*
X1664Y2505D01*
X1662Y2505D01*
X1662Y2503D01*
X1660Y2503D01*
X1660Y2501D01*
X1656Y2501D01*
X1656Y2499D01*
X1654Y2499D01*
X1654Y2497D01*
X1648Y2497D01*
X1648Y2495D01*
X1638Y2495D01*
X1638Y2493D01*
X1724Y2493D01*
X1724Y2495D01*
X1726Y2495D01*
X1726Y2499D01*
X1728Y2499D01*
X1728Y2503D01*
X1730Y2503D01*
X1730Y2507D01*
X1732Y2507D01*
X1732Y2531D01*
X1730Y2531D01*
X1730Y2533D01*
X1728Y2533D01*
X1728Y2537D01*
X1726Y2537D01*
X1726Y2541D01*
X1724Y2541D01*
X1724Y2547D01*
X1722Y2547D01*
X1722Y2555D01*
X1720Y2555D01*
X1720Y2583D01*
X1722Y2583D01*
X1722Y2591D01*
X1724Y2591D01*
X1724Y2595D01*
X1726Y2595D01*
X1726Y2599D01*
X1728Y2599D01*
X1728Y2603D01*
X1730Y2603D01*
X1730Y2607D01*
X1732Y2607D01*
X1732Y2631D01*
X1730Y2631D01*
X1730Y2633D01*
X1728Y2633D01*
X1728Y2637D01*
X1726Y2637D01*
X1726Y2641D01*
X1724Y2641D01*
X1724Y2647D01*
X1722Y2647D01*
X1722Y2655D01*
X1720Y2655D01*
X1720Y2683D01*
X1722Y2683D01*
X1722Y2691D01*
X1724Y2691D01*
X1724Y2695D01*
X1726Y2695D01*
X1726Y2699D01*
X1728Y2699D01*
X1728Y2703D01*
X1730Y2703D01*
X1730Y2707D01*
X1732Y2707D01*
X1732Y2731D01*
X1730Y2731D01*
X1730Y2733D01*
X1728Y2733D01*
X1728Y2737D01*
X1726Y2737D01*
X1726Y2741D01*
X1724Y2741D01*
X1724Y2747D01*
X1722Y2747D01*
X1722Y2755D01*
X1720Y2755D01*
X1720Y2783D01*
X1722Y2783D01*
X1722Y2791D01*
X1724Y2791D01*
X1724Y2795D01*
X1726Y2795D01*
X1726Y2799D01*
X1728Y2799D01*
X1728Y2803D01*
X1730Y2803D01*
X1730Y2807D01*
X1732Y2807D01*
X1732Y2831D01*
X1730Y2831D01*
X1730Y2833D01*
X1728Y2833D01*
X1728Y2837D01*
X1726Y2837D01*
X1726Y2841D01*
X1724Y2841D01*
X1724Y2847D01*
X1722Y2847D01*
X1722Y2855D01*
X1720Y2855D01*
X1720Y2883D01*
X1722Y2883D01*
X1722Y2891D01*
X1724Y2891D01*
X1724Y2895D01*
X1726Y2895D01*
X1726Y2899D01*
X1728Y2899D01*
X1728Y2903D01*
X1730Y2903D01*
X1730Y2907D01*
X1732Y2907D01*
X1732Y2909D01*
X1734Y2909D01*
X1734Y2911D01*
X1736Y2911D01*
X1736Y2915D01*
X1738Y2915D01*
X1738Y2917D01*
X1740Y2917D01*
X1740Y2919D01*
X1742Y2919D01*
X1742Y2921D01*
X1744Y2921D01*
X1744Y2923D01*
X1748Y2923D01*
X1748Y2925D01*
X1750Y2925D01*
X1750Y2927D01*
X1752Y2927D01*
X1752Y2929D01*
X1756Y2929D01*
X1756Y2931D01*
X1760Y2931D01*
X1760Y2933D01*
X1764Y2933D01*
X1764Y2935D01*
X1768Y2935D01*
X1768Y2937D01*
X1778Y2937D01*
X1778Y2939D01*
X1596Y2939D01*
G37*
D02*
G36*
X216Y2811D02*
X216Y2807D01*
X610Y2807D01*
X610Y2805D01*
X616Y2805D01*
X616Y2803D01*
X620Y2803D01*
X620Y2801D01*
X624Y2801D01*
X624Y2799D01*
X628Y2799D01*
X628Y2797D01*
X630Y2797D01*
X630Y2795D01*
X632Y2795D01*
X632Y2793D01*
X636Y2793D01*
X636Y2791D01*
X638Y2791D01*
X638Y2789D01*
X640Y2789D01*
X640Y2787D01*
X642Y2787D01*
X642Y2785D01*
X644Y2785D01*
X644Y2783D01*
X646Y2783D01*
X646Y2779D01*
X648Y2779D01*
X648Y2777D01*
X650Y2777D01*
X650Y2773D01*
X652Y2773D01*
X652Y2771D01*
X654Y2771D01*
X654Y2767D01*
X656Y2767D01*
X656Y2761D01*
X658Y2761D01*
X658Y2753D01*
X660Y2753D01*
X660Y2707D01*
X1010Y2707D01*
X1010Y2705D01*
X1208Y2705D01*
X1208Y2703D01*
X1214Y2703D01*
X1214Y2701D01*
X1218Y2701D01*
X1218Y2699D01*
X1222Y2699D01*
X1222Y2697D01*
X1226Y2697D01*
X1226Y2695D01*
X1228Y2695D01*
X1228Y2693D01*
X1232Y2693D01*
X1232Y2691D01*
X1234Y2691D01*
X1234Y2689D01*
X1236Y2689D01*
X1236Y2687D01*
X1238Y2687D01*
X1238Y2685D01*
X1240Y2685D01*
X1240Y2683D01*
X1242Y2683D01*
X1242Y2681D01*
X1244Y2681D01*
X1244Y2679D01*
X1246Y2679D01*
X1246Y2675D01*
X1248Y2675D01*
X1248Y2673D01*
X1250Y2673D01*
X1250Y2669D01*
X1252Y2669D01*
X1252Y2665D01*
X1254Y2665D01*
X1254Y2659D01*
X1256Y2659D01*
X1256Y2651D01*
X1258Y2651D01*
X1258Y2627D01*
X1256Y2627D01*
X1256Y2617D01*
X1254Y2617D01*
X1254Y2613D01*
X1252Y2613D01*
X1252Y2609D01*
X1250Y2609D01*
X1250Y2605D01*
X1248Y2605D01*
X1248Y2601D01*
X1246Y2601D01*
X1246Y2599D01*
X1244Y2599D01*
X1244Y2579D01*
X1318Y2579D01*
X1318Y2581D01*
X1328Y2581D01*
X1328Y2601D01*
X1326Y2601D01*
X1326Y2605D01*
X1324Y2605D01*
X1324Y2609D01*
X1322Y2609D01*
X1322Y2613D01*
X1320Y2613D01*
X1320Y2619D01*
X1318Y2619D01*
X1318Y2811D01*
X216Y2811D01*
G37*
D02*
G36*
X220Y2807D02*
X220Y2805D01*
X408Y2805D01*
X408Y2803D01*
X414Y2803D01*
X414Y2801D01*
X418Y2801D01*
X418Y2799D01*
X422Y2799D01*
X422Y2797D01*
X426Y2797D01*
X426Y2795D01*
X428Y2795D01*
X428Y2793D01*
X432Y2793D01*
X432Y2791D01*
X434Y2791D01*
X434Y2789D01*
X436Y2789D01*
X436Y2787D01*
X438Y2787D01*
X438Y2785D01*
X440Y2785D01*
X440Y2783D01*
X442Y2783D01*
X442Y2781D01*
X530Y2781D01*
X530Y2783D01*
X538Y2783D01*
X538Y2785D01*
X540Y2785D01*
X540Y2787D01*
X542Y2787D01*
X542Y2789D01*
X544Y2789D01*
X544Y2791D01*
X546Y2791D01*
X546Y2793D01*
X548Y2793D01*
X548Y2795D01*
X550Y2795D01*
X550Y2797D01*
X554Y2797D01*
X554Y2799D01*
X556Y2799D01*
X556Y2801D01*
X560Y2801D01*
X560Y2803D01*
X564Y2803D01*
X564Y2805D01*
X570Y2805D01*
X570Y2807D01*
X220Y2807D01*
G37*
D02*
G36*
X224Y2805D02*
X224Y2803D01*
X228Y2803D01*
X228Y2801D01*
X230Y2801D01*
X230Y2799D01*
X234Y2799D01*
X234Y2797D01*
X236Y2797D01*
X236Y2795D01*
X238Y2795D01*
X238Y2793D01*
X240Y2793D01*
X240Y2791D01*
X242Y2791D01*
X242Y2789D01*
X244Y2789D01*
X244Y2787D01*
X246Y2787D01*
X246Y2785D01*
X248Y2785D01*
X248Y2783D01*
X250Y2783D01*
X250Y2781D01*
X338Y2781D01*
X338Y2783D01*
X340Y2783D01*
X340Y2785D01*
X342Y2785D01*
X342Y2787D01*
X344Y2787D01*
X344Y2789D01*
X346Y2789D01*
X346Y2791D01*
X350Y2791D01*
X350Y2793D01*
X352Y2793D01*
X352Y2795D01*
X354Y2795D01*
X354Y2797D01*
X358Y2797D01*
X358Y2799D01*
X362Y2799D01*
X362Y2801D01*
X366Y2801D01*
X366Y2803D01*
X372Y2803D01*
X372Y2805D01*
X224Y2805D01*
G37*
D02*
G36*
X2044Y2737D02*
X2044Y2733D01*
X2046Y2733D01*
X2046Y2717D01*
X2048Y2717D01*
X2048Y2703D01*
X2050Y2703D01*
X2050Y2689D01*
X2052Y2689D01*
X2052Y2673D01*
X2054Y2673D01*
X2054Y2659D01*
X2056Y2659D01*
X2056Y2643D01*
X2058Y2643D01*
X2058Y2629D01*
X2060Y2629D01*
X2060Y2615D01*
X2062Y2615D01*
X2062Y2599D01*
X2064Y2599D01*
X2064Y2585D01*
X2066Y2585D01*
X2066Y2569D01*
X2068Y2569D01*
X2068Y2555D01*
X2070Y2555D01*
X2070Y2541D01*
X2072Y2541D01*
X2072Y2525D01*
X2074Y2525D01*
X2074Y2511D01*
X2076Y2511D01*
X2076Y2495D01*
X2078Y2495D01*
X2078Y2481D01*
X2080Y2481D01*
X2080Y2467D01*
X2082Y2467D01*
X2082Y2451D01*
X2084Y2451D01*
X2084Y2437D01*
X2086Y2437D01*
X2086Y2421D01*
X2088Y2421D01*
X2088Y2407D01*
X2090Y2407D01*
X2090Y2393D01*
X2092Y2393D01*
X2092Y2377D01*
X2094Y2377D01*
X2094Y2363D01*
X2096Y2363D01*
X2096Y2347D01*
X2098Y2347D01*
X2098Y2333D01*
X2100Y2333D01*
X2100Y2319D01*
X2102Y2319D01*
X2102Y2303D01*
X2104Y2303D01*
X2104Y2289D01*
X2106Y2289D01*
X2106Y2273D01*
X2108Y2273D01*
X2108Y2259D01*
X2110Y2259D01*
X2110Y2245D01*
X2112Y2245D01*
X2112Y2229D01*
X2114Y2229D01*
X2114Y2215D01*
X2116Y2215D01*
X2116Y2199D01*
X2118Y2199D01*
X2118Y2185D01*
X2120Y2185D01*
X2120Y2171D01*
X2122Y2171D01*
X2122Y2155D01*
X2124Y2155D01*
X2124Y2141D01*
X2126Y2141D01*
X2126Y2125D01*
X2128Y2125D01*
X2128Y2111D01*
X2130Y2111D01*
X2130Y2095D01*
X2132Y2095D01*
X2132Y2081D01*
X2134Y2081D01*
X2134Y2067D01*
X2136Y2067D01*
X2136Y2051D01*
X2138Y2051D01*
X2138Y2037D01*
X2140Y2037D01*
X2140Y2021D01*
X2142Y2021D01*
X2142Y2007D01*
X2144Y2007D01*
X2144Y1993D01*
X2146Y1993D01*
X2146Y1977D01*
X2148Y1977D01*
X2148Y1963D01*
X2150Y1963D01*
X2150Y1947D01*
X2152Y1947D01*
X2152Y1933D01*
X2154Y1933D01*
X2154Y1919D01*
X2156Y1919D01*
X2156Y1903D01*
X2158Y1903D01*
X2158Y1889D01*
X2160Y1889D01*
X2160Y1873D01*
X2162Y1873D01*
X2162Y1859D01*
X2164Y1859D01*
X2164Y1845D01*
X2166Y1845D01*
X2166Y1829D01*
X2168Y1829D01*
X2168Y1815D01*
X2170Y1815D01*
X2170Y1799D01*
X2172Y1799D01*
X2172Y1785D01*
X2174Y1785D01*
X2174Y1771D01*
X2176Y1771D01*
X2176Y1755D01*
X2178Y1755D01*
X2178Y1741D01*
X2180Y1741D01*
X2180Y1725D01*
X2182Y1725D01*
X2182Y1711D01*
X2184Y1711D01*
X2184Y1697D01*
X2186Y1697D01*
X2186Y1681D01*
X2188Y1681D01*
X2188Y1667D01*
X2190Y1667D01*
X2190Y1651D01*
X2192Y1651D01*
X2192Y1637D01*
X2194Y1637D01*
X2194Y1623D01*
X2196Y1623D01*
X2196Y1607D01*
X2198Y1607D01*
X2198Y1593D01*
X2200Y1593D01*
X2200Y1577D01*
X2202Y1577D01*
X2202Y1563D01*
X2204Y1563D01*
X2204Y1549D01*
X2206Y1549D01*
X2206Y1533D01*
X2208Y1533D01*
X2208Y1519D01*
X2210Y1519D01*
X2210Y1503D01*
X2212Y1503D01*
X2212Y1489D01*
X2214Y1489D01*
X2214Y1475D01*
X2216Y1475D01*
X2216Y1459D01*
X2218Y1459D01*
X2218Y1445D01*
X2220Y1445D01*
X2220Y1429D01*
X2222Y1429D01*
X2222Y1415D01*
X2224Y1415D01*
X2224Y1401D01*
X2226Y1401D01*
X2226Y1385D01*
X2228Y1385D01*
X2228Y1371D01*
X2230Y1371D01*
X2230Y1355D01*
X2232Y1355D01*
X2232Y1353D01*
X2234Y1353D01*
X2234Y1349D01*
X2236Y1349D01*
X2236Y1347D01*
X2238Y1347D01*
X2238Y1341D01*
X2240Y1341D01*
X2240Y1337D01*
X2242Y1337D01*
X2242Y1307D01*
X2240Y1307D01*
X2240Y1301D01*
X2238Y1301D01*
X2238Y1297D01*
X2236Y1297D01*
X2236Y1295D01*
X2234Y1295D01*
X2234Y1291D01*
X2232Y1291D01*
X2232Y1289D01*
X2230Y1289D01*
X2230Y1287D01*
X2228Y1287D01*
X2228Y1285D01*
X2226Y1285D01*
X2226Y1283D01*
X2224Y1283D01*
X2224Y1281D01*
X2222Y1281D01*
X2222Y1279D01*
X2220Y1279D01*
X2220Y1277D01*
X2216Y1277D01*
X2216Y1275D01*
X2212Y1275D01*
X2212Y1273D01*
X2208Y1273D01*
X2208Y1271D01*
X2158Y1271D01*
X2158Y1255D01*
X2160Y1255D01*
X2160Y1239D01*
X2162Y1239D01*
X2162Y1223D01*
X2164Y1223D01*
X2164Y1209D01*
X2398Y1209D01*
X2398Y1207D01*
X2410Y1207D01*
X2410Y1205D01*
X2708Y1205D01*
X2708Y1203D01*
X2714Y1203D01*
X2714Y1201D01*
X2718Y1201D01*
X2718Y1199D01*
X2722Y1199D01*
X2722Y1197D01*
X2726Y1197D01*
X2726Y1195D01*
X2728Y1195D01*
X2728Y1193D01*
X2732Y1193D01*
X2732Y1191D01*
X2734Y1191D01*
X2734Y1189D01*
X2736Y1189D01*
X2736Y1187D01*
X2738Y1187D01*
X2738Y1185D01*
X2740Y1185D01*
X2740Y1183D01*
X2828Y1183D01*
X2828Y1205D01*
X2826Y1205D01*
X2826Y1209D01*
X2824Y1209D01*
X2824Y1213D01*
X2822Y1213D01*
X2822Y1219D01*
X2820Y1219D01*
X2820Y1275D01*
X2818Y1275D01*
X2818Y1279D01*
X2816Y1279D01*
X2816Y1283D01*
X2814Y1283D01*
X2814Y1287D01*
X2812Y1287D01*
X2812Y1291D01*
X2810Y1291D01*
X2810Y1295D01*
X2808Y1295D01*
X2808Y1299D01*
X2806Y1299D01*
X2806Y1303D01*
X2804Y1303D01*
X2804Y1307D01*
X2802Y1307D01*
X2802Y1311D01*
X2800Y1311D01*
X2800Y1315D01*
X2798Y1315D01*
X2798Y1317D01*
X2796Y1317D01*
X2796Y1321D01*
X2794Y1321D01*
X2794Y1325D01*
X2792Y1325D01*
X2792Y1329D01*
X2790Y1329D01*
X2790Y1333D01*
X2788Y1333D01*
X2788Y1337D01*
X2786Y1337D01*
X2786Y1341D01*
X2784Y1341D01*
X2784Y1345D01*
X2782Y1345D01*
X2782Y1349D01*
X2780Y1349D01*
X2780Y1353D01*
X2778Y1353D01*
X2778Y1357D01*
X2776Y1357D01*
X2776Y1361D01*
X2774Y1361D01*
X2774Y1365D01*
X2772Y1365D01*
X2772Y1369D01*
X2770Y1369D01*
X2770Y1373D01*
X2768Y1373D01*
X2768Y1375D01*
X2766Y1375D01*
X2766Y1379D01*
X2764Y1379D01*
X2764Y1383D01*
X2762Y1383D01*
X2762Y1387D01*
X2760Y1387D01*
X2760Y1391D01*
X2758Y1391D01*
X2758Y1395D01*
X2756Y1395D01*
X2756Y1399D01*
X2754Y1399D01*
X2754Y1403D01*
X2752Y1403D01*
X2752Y1407D01*
X2750Y1407D01*
X2750Y1411D01*
X2748Y1411D01*
X2748Y1415D01*
X2746Y1415D01*
X2746Y1419D01*
X2744Y1419D01*
X2744Y1423D01*
X2742Y1423D01*
X2742Y1427D01*
X2740Y1427D01*
X2740Y1431D01*
X2738Y1431D01*
X2738Y1433D01*
X2736Y1433D01*
X2736Y1437D01*
X2734Y1437D01*
X2734Y1441D01*
X2732Y1441D01*
X2732Y1445D01*
X2730Y1445D01*
X2730Y1449D01*
X2728Y1449D01*
X2728Y1453D01*
X2726Y1453D01*
X2726Y1457D01*
X2724Y1457D01*
X2724Y1461D01*
X2722Y1461D01*
X2722Y1465D01*
X2720Y1465D01*
X2720Y1469D01*
X2718Y1469D01*
X2718Y1473D01*
X2716Y1473D01*
X2716Y1477D01*
X2714Y1477D01*
X2714Y1481D01*
X2712Y1481D01*
X2712Y1485D01*
X2710Y1485D01*
X2710Y1489D01*
X2708Y1489D01*
X2708Y1491D01*
X2706Y1491D01*
X2706Y1495D01*
X2704Y1495D01*
X2704Y1499D01*
X2702Y1499D01*
X2702Y1503D01*
X2700Y1503D01*
X2700Y1507D01*
X2698Y1507D01*
X2698Y1511D01*
X2696Y1511D01*
X2696Y1515D01*
X2694Y1515D01*
X2694Y1519D01*
X2692Y1519D01*
X2692Y1523D01*
X2690Y1523D01*
X2690Y1527D01*
X2688Y1527D01*
X2688Y1531D01*
X2686Y1531D01*
X2686Y1535D01*
X2684Y1535D01*
X2684Y1539D01*
X2682Y1539D01*
X2682Y1543D01*
X2680Y1543D01*
X2680Y1547D01*
X2678Y1547D01*
X2678Y1549D01*
X2676Y1549D01*
X2676Y1553D01*
X2674Y1553D01*
X2674Y1557D01*
X2672Y1557D01*
X2672Y1561D01*
X2670Y1561D01*
X2670Y1565D01*
X2668Y1565D01*
X2668Y1569D01*
X2666Y1569D01*
X2666Y1573D01*
X2664Y1573D01*
X2664Y1577D01*
X2662Y1577D01*
X2662Y1581D01*
X2660Y1581D01*
X2660Y1585D01*
X2658Y1585D01*
X2658Y1589D01*
X2656Y1589D01*
X2656Y1593D01*
X2654Y1593D01*
X2654Y1597D01*
X2652Y1597D01*
X2652Y1601D01*
X2650Y1601D01*
X2650Y1605D01*
X2648Y1605D01*
X2648Y1607D01*
X2646Y1607D01*
X2646Y1611D01*
X2644Y1611D01*
X2644Y1615D01*
X2642Y1615D01*
X2642Y1619D01*
X2640Y1619D01*
X2640Y1623D01*
X2638Y1623D01*
X2638Y1627D01*
X2636Y1627D01*
X2636Y1631D01*
X2634Y1631D01*
X2634Y1635D01*
X2632Y1635D01*
X2632Y1639D01*
X2630Y1639D01*
X2630Y1643D01*
X2628Y1643D01*
X2628Y1647D01*
X2626Y1647D01*
X2626Y1651D01*
X2624Y1651D01*
X2624Y1655D01*
X2622Y1655D01*
X2622Y1659D01*
X2620Y1659D01*
X2620Y1663D01*
X2618Y1663D01*
X2618Y1665D01*
X2616Y1665D01*
X2616Y1669D01*
X2614Y1669D01*
X2614Y1673D01*
X2612Y1673D01*
X2612Y1677D01*
X2610Y1677D01*
X2610Y1681D01*
X2608Y1681D01*
X2608Y1685D01*
X2606Y1685D01*
X2606Y1689D01*
X2604Y1689D01*
X2604Y1693D01*
X2602Y1693D01*
X2602Y1697D01*
X2600Y1697D01*
X2600Y1701D01*
X2598Y1701D01*
X2598Y1705D01*
X2596Y1705D01*
X2596Y1709D01*
X2594Y1709D01*
X2594Y1713D01*
X2592Y1713D01*
X2592Y1717D01*
X2590Y1717D01*
X2590Y1721D01*
X2588Y1721D01*
X2588Y1723D01*
X2586Y1723D01*
X2586Y1727D01*
X2584Y1727D01*
X2584Y1731D01*
X2582Y1731D01*
X2582Y1735D01*
X2580Y1735D01*
X2580Y1739D01*
X2578Y1739D01*
X2578Y1743D01*
X2576Y1743D01*
X2576Y1747D01*
X2574Y1747D01*
X2574Y1751D01*
X2572Y1751D01*
X2572Y1755D01*
X2570Y1755D01*
X2570Y1759D01*
X2568Y1759D01*
X2568Y1763D01*
X2566Y1763D01*
X2566Y1767D01*
X2564Y1767D01*
X2564Y1771D01*
X2562Y1771D01*
X2562Y1775D01*
X2560Y1775D01*
X2560Y1779D01*
X2558Y1779D01*
X2558Y1781D01*
X2556Y1781D01*
X2556Y1785D01*
X2554Y1785D01*
X2554Y1789D01*
X2552Y1789D01*
X2552Y1793D01*
X2550Y1793D01*
X2550Y1797D01*
X2548Y1797D01*
X2548Y1801D01*
X2546Y1801D01*
X2546Y1805D01*
X2544Y1805D01*
X2544Y1809D01*
X2542Y1809D01*
X2542Y1813D01*
X2540Y1813D01*
X2540Y1817D01*
X2538Y1817D01*
X2538Y1821D01*
X2536Y1821D01*
X2536Y1825D01*
X2534Y1825D01*
X2534Y1829D01*
X2532Y1829D01*
X2532Y1833D01*
X2530Y1833D01*
X2530Y1837D01*
X2528Y1837D01*
X2528Y1839D01*
X2526Y1839D01*
X2526Y1843D01*
X2524Y1843D01*
X2524Y1847D01*
X2522Y1847D01*
X2522Y1851D01*
X2520Y1851D01*
X2520Y1855D01*
X2518Y1855D01*
X2518Y1859D01*
X2516Y1859D01*
X2516Y1863D01*
X2514Y1863D01*
X2514Y1867D01*
X2512Y1867D01*
X2512Y1871D01*
X2510Y1871D01*
X2510Y1875D01*
X2508Y1875D01*
X2508Y1879D01*
X2506Y1879D01*
X2506Y1883D01*
X2504Y1883D01*
X2504Y1887D01*
X2502Y1887D01*
X2502Y1891D01*
X2500Y1891D01*
X2500Y1895D01*
X2498Y1895D01*
X2498Y1897D01*
X2496Y1897D01*
X2496Y1901D01*
X2494Y1901D01*
X2494Y1905D01*
X2492Y1905D01*
X2492Y1909D01*
X2490Y1909D01*
X2490Y1913D01*
X2488Y1913D01*
X2488Y1917D01*
X2486Y1917D01*
X2486Y1921D01*
X2484Y1921D01*
X2484Y1925D01*
X2482Y1925D01*
X2482Y1929D01*
X2480Y1929D01*
X2480Y1933D01*
X2478Y1933D01*
X2478Y1937D01*
X2476Y1937D01*
X2476Y1941D01*
X2474Y1941D01*
X2474Y1945D01*
X2472Y1945D01*
X2472Y1949D01*
X2470Y1949D01*
X2470Y1953D01*
X2468Y1953D01*
X2468Y1955D01*
X2466Y1955D01*
X2466Y1959D01*
X2464Y1959D01*
X2464Y1963D01*
X2462Y1963D01*
X2462Y1967D01*
X2460Y1967D01*
X2460Y1971D01*
X2458Y1971D01*
X2458Y1975D01*
X2456Y1975D01*
X2456Y1979D01*
X2454Y1979D01*
X2454Y1983D01*
X2452Y1983D01*
X2452Y1987D01*
X2450Y1987D01*
X2450Y1991D01*
X2448Y1991D01*
X2448Y1995D01*
X2446Y1995D01*
X2446Y1999D01*
X2444Y1999D01*
X2444Y2003D01*
X2442Y2003D01*
X2442Y2007D01*
X2440Y2007D01*
X2440Y2011D01*
X2438Y2011D01*
X2438Y2015D01*
X2436Y2015D01*
X2436Y2017D01*
X2434Y2017D01*
X2434Y2021D01*
X2432Y2021D01*
X2432Y2025D01*
X2430Y2025D01*
X2430Y2029D01*
X2428Y2029D01*
X2428Y2033D01*
X2426Y2033D01*
X2426Y2037D01*
X2424Y2037D01*
X2424Y2041D01*
X2422Y2041D01*
X2422Y2045D01*
X2420Y2045D01*
X2420Y2049D01*
X2418Y2049D01*
X2418Y2053D01*
X2416Y2053D01*
X2416Y2057D01*
X2414Y2057D01*
X2414Y2061D01*
X2412Y2061D01*
X2412Y2065D01*
X2410Y2065D01*
X2410Y2069D01*
X2408Y2069D01*
X2408Y2073D01*
X2406Y2073D01*
X2406Y2075D01*
X2404Y2075D01*
X2404Y2079D01*
X2402Y2079D01*
X2402Y2083D01*
X2400Y2083D01*
X2400Y2087D01*
X2398Y2087D01*
X2398Y2091D01*
X2396Y2091D01*
X2396Y2095D01*
X2394Y2095D01*
X2394Y2099D01*
X2392Y2099D01*
X2392Y2103D01*
X2390Y2103D01*
X2390Y2107D01*
X2388Y2107D01*
X2388Y2111D01*
X2386Y2111D01*
X2386Y2115D01*
X2384Y2115D01*
X2384Y2119D01*
X2382Y2119D01*
X2382Y2123D01*
X2380Y2123D01*
X2380Y2127D01*
X2378Y2127D01*
X2378Y2131D01*
X2376Y2131D01*
X2376Y2133D01*
X2374Y2133D01*
X2374Y2137D01*
X2372Y2137D01*
X2372Y2141D01*
X2370Y2141D01*
X2370Y2145D01*
X2368Y2145D01*
X2368Y2149D01*
X2366Y2149D01*
X2366Y2153D01*
X2364Y2153D01*
X2364Y2157D01*
X2362Y2157D01*
X2362Y2161D01*
X2360Y2161D01*
X2360Y2165D01*
X2358Y2165D01*
X2358Y2169D01*
X2356Y2169D01*
X2356Y2173D01*
X2354Y2173D01*
X2354Y2177D01*
X2352Y2177D01*
X2352Y2181D01*
X2350Y2181D01*
X2350Y2185D01*
X2348Y2185D01*
X2348Y2189D01*
X2346Y2189D01*
X2346Y2191D01*
X2344Y2191D01*
X2344Y2195D01*
X2342Y2195D01*
X2342Y2199D01*
X2340Y2199D01*
X2340Y2203D01*
X2338Y2203D01*
X2338Y2207D01*
X2336Y2207D01*
X2336Y2211D01*
X2334Y2211D01*
X2334Y2215D01*
X2332Y2215D01*
X2332Y2219D01*
X2330Y2219D01*
X2330Y2223D01*
X2328Y2223D01*
X2328Y2227D01*
X2326Y2227D01*
X2326Y2231D01*
X2324Y2231D01*
X2324Y2235D01*
X2322Y2235D01*
X2322Y2239D01*
X2320Y2239D01*
X2320Y2243D01*
X2318Y2243D01*
X2318Y2247D01*
X2316Y2247D01*
X2316Y2249D01*
X2314Y2249D01*
X2314Y2253D01*
X2312Y2253D01*
X2312Y2257D01*
X2310Y2257D01*
X2310Y2261D01*
X2308Y2261D01*
X2308Y2265D01*
X2306Y2265D01*
X2306Y2269D01*
X2304Y2269D01*
X2304Y2273D01*
X2302Y2273D01*
X2302Y2277D01*
X2300Y2277D01*
X2300Y2281D01*
X2298Y2281D01*
X2298Y2285D01*
X2296Y2285D01*
X2296Y2289D01*
X2294Y2289D01*
X2294Y2293D01*
X2292Y2293D01*
X2292Y2297D01*
X2290Y2297D01*
X2290Y2301D01*
X2288Y2301D01*
X2288Y2305D01*
X2286Y2305D01*
X2286Y2307D01*
X2284Y2307D01*
X2284Y2311D01*
X2282Y2311D01*
X2282Y2315D01*
X2280Y2315D01*
X2280Y2319D01*
X2278Y2319D01*
X2278Y2323D01*
X2276Y2323D01*
X2276Y2327D01*
X2274Y2327D01*
X2274Y2331D01*
X2272Y2331D01*
X2272Y2335D01*
X2270Y2335D01*
X2270Y2339D01*
X2268Y2339D01*
X2268Y2343D01*
X2266Y2343D01*
X2266Y2347D01*
X2264Y2347D01*
X2264Y2351D01*
X2262Y2351D01*
X2262Y2355D01*
X2260Y2355D01*
X2260Y2359D01*
X2258Y2359D01*
X2258Y2363D01*
X2256Y2363D01*
X2256Y2365D01*
X2254Y2365D01*
X2254Y2369D01*
X2252Y2369D01*
X2252Y2373D01*
X2250Y2373D01*
X2250Y2377D01*
X2248Y2377D01*
X2248Y2381D01*
X2246Y2381D01*
X2246Y2385D01*
X2244Y2385D01*
X2244Y2389D01*
X2242Y2389D01*
X2242Y2393D01*
X2240Y2393D01*
X2240Y2397D01*
X2238Y2397D01*
X2238Y2401D01*
X2236Y2401D01*
X2236Y2405D01*
X2234Y2405D01*
X2234Y2409D01*
X2232Y2409D01*
X2232Y2413D01*
X2230Y2413D01*
X2230Y2417D01*
X2228Y2417D01*
X2228Y2421D01*
X2226Y2421D01*
X2226Y2423D01*
X2224Y2423D01*
X2224Y2427D01*
X2222Y2427D01*
X2222Y2431D01*
X2220Y2431D01*
X2220Y2435D01*
X2218Y2435D01*
X2218Y2439D01*
X2216Y2439D01*
X2216Y2443D01*
X2214Y2443D01*
X2214Y2447D01*
X2212Y2447D01*
X2212Y2451D01*
X2210Y2451D01*
X2210Y2455D01*
X2208Y2455D01*
X2208Y2459D01*
X2206Y2459D01*
X2206Y2463D01*
X2204Y2463D01*
X2204Y2467D01*
X2202Y2467D01*
X2202Y2471D01*
X2200Y2471D01*
X2200Y2475D01*
X2198Y2475D01*
X2198Y2479D01*
X2196Y2479D01*
X2196Y2481D01*
X2194Y2481D01*
X2194Y2485D01*
X2192Y2485D01*
X2192Y2489D01*
X2190Y2489D01*
X2190Y2493D01*
X2188Y2493D01*
X2188Y2497D01*
X2186Y2497D01*
X2186Y2501D01*
X2184Y2501D01*
X2184Y2505D01*
X2182Y2505D01*
X2182Y2509D01*
X2180Y2509D01*
X2180Y2513D01*
X2178Y2513D01*
X2178Y2517D01*
X2176Y2517D01*
X2176Y2521D01*
X2174Y2521D01*
X2174Y2525D01*
X2172Y2525D01*
X2172Y2529D01*
X2170Y2529D01*
X2170Y2533D01*
X2168Y2533D01*
X2168Y2537D01*
X2166Y2537D01*
X2166Y2539D01*
X2164Y2539D01*
X2164Y2543D01*
X2162Y2543D01*
X2162Y2547D01*
X2160Y2547D01*
X2160Y2551D01*
X2158Y2551D01*
X2158Y2555D01*
X2156Y2555D01*
X2156Y2559D01*
X2154Y2559D01*
X2154Y2563D01*
X2152Y2563D01*
X2152Y2567D01*
X2150Y2567D01*
X2150Y2571D01*
X2148Y2571D01*
X2148Y2575D01*
X2146Y2575D01*
X2146Y2579D01*
X2144Y2579D01*
X2144Y2583D01*
X2142Y2583D01*
X2142Y2587D01*
X2140Y2587D01*
X2140Y2591D01*
X2138Y2591D01*
X2138Y2595D01*
X2136Y2595D01*
X2136Y2597D01*
X2134Y2597D01*
X2134Y2601D01*
X2132Y2601D01*
X2132Y2605D01*
X2130Y2605D01*
X2130Y2609D01*
X2128Y2609D01*
X2128Y2613D01*
X2126Y2613D01*
X2126Y2617D01*
X2124Y2617D01*
X2124Y2621D01*
X2122Y2621D01*
X2122Y2625D01*
X2120Y2625D01*
X2120Y2629D01*
X2118Y2629D01*
X2118Y2633D01*
X2116Y2633D01*
X2116Y2637D01*
X2114Y2637D01*
X2114Y2641D01*
X2112Y2641D01*
X2112Y2645D01*
X2110Y2645D01*
X2110Y2649D01*
X2108Y2649D01*
X2108Y2653D01*
X2106Y2653D01*
X2106Y2655D01*
X2104Y2655D01*
X2104Y2659D01*
X2102Y2659D01*
X2102Y2663D01*
X2100Y2663D01*
X2100Y2667D01*
X2098Y2667D01*
X2098Y2671D01*
X2096Y2671D01*
X2096Y2675D01*
X2094Y2675D01*
X2094Y2679D01*
X2092Y2679D01*
X2092Y2683D01*
X2090Y2683D01*
X2090Y2687D01*
X2088Y2687D01*
X2088Y2691D01*
X2086Y2691D01*
X2086Y2695D01*
X2084Y2695D01*
X2084Y2699D01*
X2082Y2699D01*
X2082Y2703D01*
X2080Y2703D01*
X2080Y2707D01*
X2078Y2707D01*
X2078Y2711D01*
X2076Y2711D01*
X2076Y2713D01*
X2074Y2713D01*
X2074Y2717D01*
X2072Y2717D01*
X2072Y2721D01*
X2070Y2721D01*
X2070Y2725D01*
X2068Y2725D01*
X2068Y2729D01*
X2066Y2729D01*
X2066Y2733D01*
X2064Y2733D01*
X2064Y2737D01*
X2044Y2737D01*
G37*
D02*
G36*
X660Y2707D02*
X660Y2569D01*
X920Y2569D01*
X920Y2607D01*
X922Y2607D01*
X922Y2629D01*
X920Y2629D01*
X920Y2649D01*
X922Y2649D01*
X922Y2659D01*
X924Y2659D01*
X924Y2665D01*
X926Y2665D01*
X926Y2669D01*
X928Y2669D01*
X928Y2673D01*
X930Y2673D01*
X930Y2675D01*
X932Y2675D01*
X932Y2679D01*
X934Y2679D01*
X934Y2681D01*
X936Y2681D01*
X936Y2683D01*
X938Y2683D01*
X938Y2685D01*
X940Y2685D01*
X940Y2687D01*
X942Y2687D01*
X942Y2689D01*
X944Y2689D01*
X944Y2691D01*
X946Y2691D01*
X946Y2693D01*
X948Y2693D01*
X948Y2695D01*
X950Y2695D01*
X950Y2697D01*
X954Y2697D01*
X954Y2699D01*
X956Y2699D01*
X956Y2701D01*
X960Y2701D01*
X960Y2703D01*
X964Y2703D01*
X964Y2705D01*
X970Y2705D01*
X970Y2707D01*
X660Y2707D01*
G37*
D02*
G36*
X1016Y2705D02*
X1016Y2703D01*
X1020Y2703D01*
X1020Y2701D01*
X1024Y2701D01*
X1024Y2699D01*
X1028Y2699D01*
X1028Y2697D01*
X1030Y2697D01*
X1030Y2695D01*
X1032Y2695D01*
X1032Y2693D01*
X1036Y2693D01*
X1036Y2691D01*
X1038Y2691D01*
X1038Y2689D01*
X1040Y2689D01*
X1040Y2687D01*
X1042Y2687D01*
X1042Y2685D01*
X1044Y2685D01*
X1044Y2683D01*
X1046Y2683D01*
X1046Y2679D01*
X1048Y2679D01*
X1048Y2677D01*
X1050Y2677D01*
X1050Y2673D01*
X1052Y2673D01*
X1052Y2671D01*
X1054Y2671D01*
X1054Y2667D01*
X1056Y2667D01*
X1056Y2661D01*
X1058Y2661D01*
X1058Y2653D01*
X1060Y2653D01*
X1060Y2581D01*
X1134Y2581D01*
X1134Y2603D01*
X1132Y2603D01*
X1132Y2607D01*
X1130Y2607D01*
X1130Y2609D01*
X1128Y2609D01*
X1128Y2615D01*
X1126Y2615D01*
X1126Y2621D01*
X1124Y2621D01*
X1124Y2657D01*
X1126Y2657D01*
X1126Y2663D01*
X1128Y2663D01*
X1128Y2667D01*
X1130Y2667D01*
X1130Y2671D01*
X1132Y2671D01*
X1132Y2675D01*
X1134Y2675D01*
X1134Y2677D01*
X1136Y2677D01*
X1136Y2679D01*
X1138Y2679D01*
X1138Y2683D01*
X1140Y2683D01*
X1140Y2685D01*
X1142Y2685D01*
X1142Y2687D01*
X1144Y2687D01*
X1144Y2689D01*
X1146Y2689D01*
X1146Y2691D01*
X1150Y2691D01*
X1150Y2693D01*
X1152Y2693D01*
X1152Y2695D01*
X1154Y2695D01*
X1154Y2697D01*
X1158Y2697D01*
X1158Y2699D01*
X1162Y2699D01*
X1162Y2701D01*
X1166Y2701D01*
X1166Y2703D01*
X1172Y2703D01*
X1172Y2705D01*
X1016Y2705D01*
G37*
D02*
G36*
X254Y2693D02*
X254Y2673D01*
X256Y2673D01*
X256Y2671D01*
X258Y2671D01*
X258Y2665D01*
X260Y2665D01*
X260Y2661D01*
X262Y2661D01*
X262Y2651D01*
X264Y2651D01*
X264Y2571D01*
X376Y2571D01*
X376Y2573D01*
X368Y2573D01*
X368Y2575D01*
X364Y2575D01*
X364Y2577D01*
X360Y2577D01*
X360Y2579D01*
X356Y2579D01*
X356Y2581D01*
X354Y2581D01*
X354Y2583D01*
X350Y2583D01*
X350Y2585D01*
X348Y2585D01*
X348Y2587D01*
X346Y2587D01*
X346Y2589D01*
X344Y2589D01*
X344Y2591D01*
X342Y2591D01*
X342Y2593D01*
X340Y2593D01*
X340Y2595D01*
X338Y2595D01*
X338Y2597D01*
X336Y2597D01*
X336Y2599D01*
X334Y2599D01*
X334Y2603D01*
X332Y2603D01*
X332Y2605D01*
X330Y2605D01*
X330Y2609D01*
X328Y2609D01*
X328Y2613D01*
X326Y2613D01*
X326Y2619D01*
X324Y2619D01*
X324Y2657D01*
X326Y2657D01*
X326Y2663D01*
X328Y2663D01*
X328Y2667D01*
X330Y2667D01*
X330Y2671D01*
X332Y2671D01*
X332Y2693D01*
X254Y2693D01*
G37*
D02*
G36*
X448Y2693D02*
X448Y2673D01*
X450Y2673D01*
X450Y2669D01*
X452Y2669D01*
X452Y2665D01*
X454Y2665D01*
X454Y2659D01*
X456Y2659D01*
X456Y2651D01*
X458Y2651D01*
X458Y2627D01*
X456Y2627D01*
X456Y2617D01*
X454Y2617D01*
X454Y2613D01*
X452Y2613D01*
X452Y2609D01*
X450Y2609D01*
X450Y2605D01*
X448Y2605D01*
X448Y2601D01*
X446Y2601D01*
X446Y2599D01*
X444Y2599D01*
X444Y2597D01*
X442Y2597D01*
X442Y2593D01*
X440Y2593D01*
X440Y2591D01*
X438Y2591D01*
X438Y2589D01*
X436Y2589D01*
X436Y2587D01*
X432Y2587D01*
X432Y2585D01*
X430Y2585D01*
X430Y2583D01*
X428Y2583D01*
X428Y2581D01*
X424Y2581D01*
X424Y2579D01*
X422Y2579D01*
X422Y2577D01*
X418Y2577D01*
X418Y2575D01*
X412Y2575D01*
X412Y2573D01*
X404Y2573D01*
X404Y2571D01*
X520Y2571D01*
X520Y2693D01*
X448Y2693D01*
G37*
D02*
G36*
X264Y2571D02*
X264Y2569D01*
X520Y2569D01*
X520Y2571D01*
X264Y2571D01*
G37*
D02*
G36*
X264Y2571D02*
X264Y2569D01*
X520Y2569D01*
X520Y2571D01*
X264Y2571D01*
G37*
D02*
G36*
X264Y2569D02*
X264Y2567D01*
X920Y2567D01*
X920Y2569D01*
X264Y2569D01*
G37*
D02*
G36*
X264Y2569D02*
X264Y2567D01*
X920Y2567D01*
X920Y2569D01*
X264Y2569D01*
G37*
D02*
G36*
X264Y2567D02*
X264Y2469D01*
X920Y2469D01*
X920Y2567D01*
X264Y2567D01*
G37*
D02*
G36*
X1448Y2495D02*
X1448Y2493D01*
X1608Y2493D01*
X1608Y2495D01*
X1448Y2495D01*
G37*
D02*
G36*
X1060Y2493D02*
X1060Y2471D01*
X1176Y2471D01*
X1176Y2473D01*
X1168Y2473D01*
X1168Y2475D01*
X1164Y2475D01*
X1164Y2477D01*
X1160Y2477D01*
X1160Y2479D01*
X1156Y2479D01*
X1156Y2481D01*
X1154Y2481D01*
X1154Y2483D01*
X1150Y2483D01*
X1150Y2485D01*
X1148Y2485D01*
X1148Y2487D01*
X1146Y2487D01*
X1146Y2489D01*
X1144Y2489D01*
X1144Y2491D01*
X1142Y2491D01*
X1142Y2493D01*
X1060Y2493D01*
G37*
D02*
G36*
X1448Y2493D02*
X1448Y2491D01*
X1724Y2491D01*
X1724Y2493D01*
X1448Y2493D01*
G37*
D02*
G36*
X1448Y2493D02*
X1448Y2491D01*
X1724Y2491D01*
X1724Y2493D01*
X1448Y2493D01*
G37*
D02*
G36*
X1284Y2491D02*
X1284Y2489D01*
X1236Y2489D01*
X1236Y2487D01*
X1232Y2487D01*
X1232Y2485D01*
X1230Y2485D01*
X1230Y2483D01*
X1228Y2483D01*
X1228Y2481D01*
X1224Y2481D01*
X1224Y2479D01*
X1222Y2479D01*
X1222Y2477D01*
X1218Y2477D01*
X1218Y2475D01*
X1212Y2475D01*
X1212Y2473D01*
X1204Y2473D01*
X1204Y2471D01*
X1358Y2471D01*
X1358Y2473D01*
X1354Y2473D01*
X1354Y2475D01*
X1352Y2475D01*
X1352Y2477D01*
X1348Y2477D01*
X1348Y2479D01*
X1346Y2479D01*
X1346Y2481D01*
X1344Y2481D01*
X1344Y2483D01*
X1342Y2483D01*
X1342Y2485D01*
X1340Y2485D01*
X1340Y2487D01*
X1338Y2487D01*
X1338Y2489D01*
X1336Y2489D01*
X1336Y2491D01*
X1284Y2491D01*
G37*
D02*
G36*
X1446Y2491D02*
X1446Y2489D01*
X1444Y2489D01*
X1444Y2487D01*
X1442Y2487D01*
X1442Y2485D01*
X1440Y2485D01*
X1440Y2483D01*
X1438Y2483D01*
X1438Y2481D01*
X1434Y2481D01*
X1434Y2479D01*
X1432Y2479D01*
X1432Y2477D01*
X1430Y2477D01*
X1430Y2475D01*
X1426Y2475D01*
X1426Y2473D01*
X1422Y2473D01*
X1422Y2471D01*
X1418Y2471D01*
X1418Y2469D01*
X1412Y2469D01*
X1412Y2467D01*
X1404Y2467D01*
X1404Y2465D01*
X1720Y2465D01*
X1720Y2483D01*
X1722Y2483D01*
X1722Y2491D01*
X1446Y2491D01*
G37*
D02*
G36*
X1060Y2471D02*
X1060Y2469D01*
X1362Y2469D01*
X1362Y2471D01*
X1060Y2471D01*
G37*
D02*
G36*
X1060Y2471D02*
X1060Y2469D01*
X1362Y2469D01*
X1362Y2471D01*
X1060Y2471D01*
G37*
D02*
G36*
X264Y2469D02*
X264Y2467D01*
X1368Y2467D01*
X1368Y2469D01*
X264Y2469D01*
G37*
D02*
G36*
X264Y2469D02*
X264Y2467D01*
X1368Y2467D01*
X1368Y2469D01*
X264Y2469D01*
G37*
D02*
G36*
X264Y2467D02*
X264Y2465D01*
X1376Y2465D01*
X1376Y2467D01*
X264Y2467D01*
G37*
D02*
G36*
X238Y2465D02*
X238Y2463D01*
X1720Y2463D01*
X1720Y2465D01*
X238Y2465D01*
G37*
D02*
G36*
X238Y2465D02*
X238Y2463D01*
X1720Y2463D01*
X1720Y2465D01*
X238Y2465D01*
G37*
D02*
G36*
X238Y2463D02*
X238Y2109D01*
X1008Y2109D01*
X1008Y2107D01*
X1016Y2107D01*
X1016Y2105D01*
X1020Y2105D01*
X1020Y2103D01*
X1024Y2103D01*
X1024Y2101D01*
X1028Y2101D01*
X1028Y2099D01*
X1030Y2099D01*
X1030Y2097D01*
X1032Y2097D01*
X1032Y2095D01*
X1036Y2095D01*
X1036Y2093D01*
X1038Y2093D01*
X1038Y2091D01*
X1040Y2091D01*
X1040Y2089D01*
X1042Y2089D01*
X1042Y2087D01*
X1044Y2087D01*
X1044Y2085D01*
X1046Y2085D01*
X1046Y2083D01*
X1048Y2083D01*
X1048Y2079D01*
X1050Y2079D01*
X1050Y2077D01*
X1052Y2077D01*
X1052Y2073D01*
X1054Y2073D01*
X1054Y2069D01*
X1056Y2069D01*
X1056Y2065D01*
X1058Y2065D01*
X1058Y2061D01*
X1060Y2061D01*
X1060Y2051D01*
X1062Y2051D01*
X1062Y1891D01*
X1778Y1891D01*
X1778Y1893D01*
X1768Y1893D01*
X1768Y1895D01*
X1764Y1895D01*
X1764Y1897D01*
X1760Y1897D01*
X1760Y1899D01*
X1756Y1899D01*
X1756Y1901D01*
X1752Y1901D01*
X1752Y1903D01*
X1750Y1903D01*
X1750Y1905D01*
X1748Y1905D01*
X1748Y1907D01*
X1744Y1907D01*
X1744Y1909D01*
X1742Y1909D01*
X1742Y1911D01*
X1740Y1911D01*
X1740Y1913D01*
X1738Y1913D01*
X1738Y1915D01*
X1736Y1915D01*
X1736Y1919D01*
X1734Y1919D01*
X1734Y1921D01*
X1732Y1921D01*
X1732Y1923D01*
X1730Y1923D01*
X1730Y1927D01*
X1728Y1927D01*
X1728Y1931D01*
X1726Y1931D01*
X1726Y1935D01*
X1724Y1935D01*
X1724Y1939D01*
X1722Y1939D01*
X1722Y1947D01*
X1720Y1947D01*
X1720Y1975D01*
X1722Y1975D01*
X1722Y1983D01*
X1724Y1983D01*
X1724Y1989D01*
X1726Y1989D01*
X1726Y1993D01*
X1728Y1993D01*
X1728Y1997D01*
X1730Y1997D01*
X1730Y1999D01*
X1732Y1999D01*
X1732Y2023D01*
X1730Y2023D01*
X1730Y2027D01*
X1728Y2027D01*
X1728Y2031D01*
X1726Y2031D01*
X1726Y2035D01*
X1724Y2035D01*
X1724Y2039D01*
X1722Y2039D01*
X1722Y2047D01*
X1720Y2047D01*
X1720Y2075D01*
X1722Y2075D01*
X1722Y2083D01*
X1724Y2083D01*
X1724Y2089D01*
X1726Y2089D01*
X1726Y2093D01*
X1728Y2093D01*
X1728Y2097D01*
X1730Y2097D01*
X1730Y2099D01*
X1732Y2099D01*
X1732Y2103D01*
X1734Y2103D01*
X1734Y2105D01*
X1736Y2105D01*
X1736Y2125D01*
X1734Y2125D01*
X1734Y2127D01*
X1732Y2127D01*
X1732Y2131D01*
X1730Y2131D01*
X1730Y2133D01*
X1728Y2133D01*
X1728Y2137D01*
X1726Y2137D01*
X1726Y2141D01*
X1724Y2141D01*
X1724Y2147D01*
X1722Y2147D01*
X1722Y2155D01*
X1720Y2155D01*
X1720Y2183D01*
X1722Y2183D01*
X1722Y2191D01*
X1724Y2191D01*
X1724Y2195D01*
X1726Y2195D01*
X1726Y2199D01*
X1728Y2199D01*
X1728Y2203D01*
X1730Y2203D01*
X1730Y2207D01*
X1732Y2207D01*
X1732Y2231D01*
X1730Y2231D01*
X1730Y2233D01*
X1728Y2233D01*
X1728Y2237D01*
X1726Y2237D01*
X1726Y2241D01*
X1724Y2241D01*
X1724Y2247D01*
X1722Y2247D01*
X1722Y2255D01*
X1720Y2255D01*
X1720Y2283D01*
X1722Y2283D01*
X1722Y2291D01*
X1724Y2291D01*
X1724Y2295D01*
X1726Y2295D01*
X1726Y2299D01*
X1728Y2299D01*
X1728Y2303D01*
X1730Y2303D01*
X1730Y2307D01*
X1732Y2307D01*
X1732Y2331D01*
X1730Y2331D01*
X1730Y2333D01*
X1728Y2333D01*
X1728Y2337D01*
X1726Y2337D01*
X1726Y2341D01*
X1724Y2341D01*
X1724Y2347D01*
X1722Y2347D01*
X1722Y2355D01*
X1720Y2355D01*
X1720Y2383D01*
X1722Y2383D01*
X1722Y2391D01*
X1724Y2391D01*
X1724Y2395D01*
X1726Y2395D01*
X1726Y2399D01*
X1728Y2399D01*
X1728Y2403D01*
X1730Y2403D01*
X1730Y2407D01*
X1732Y2407D01*
X1732Y2431D01*
X1730Y2431D01*
X1730Y2433D01*
X1728Y2433D01*
X1728Y2437D01*
X1726Y2437D01*
X1726Y2441D01*
X1724Y2441D01*
X1724Y2447D01*
X1722Y2447D01*
X1722Y2455D01*
X1720Y2455D01*
X1720Y2463D01*
X238Y2463D01*
G37*
D02*
G36*
X2410Y2269D02*
X2410Y2267D01*
X3896Y2267D01*
X3896Y2269D01*
X2410Y2269D01*
G37*
D02*
G36*
X2410Y2269D02*
X2410Y2267D01*
X3896Y2267D01*
X3896Y2269D01*
X2410Y2269D01*
G37*
D02*
G36*
X2412Y2267D02*
X2412Y2263D01*
X2414Y2263D01*
X2414Y2259D01*
X2416Y2259D01*
X2416Y2255D01*
X2418Y2255D01*
X2418Y2251D01*
X2420Y2251D01*
X2420Y2247D01*
X2422Y2247D01*
X2422Y2243D01*
X2424Y2243D01*
X2424Y2239D01*
X2426Y2239D01*
X2426Y2235D01*
X2428Y2235D01*
X2428Y2231D01*
X2430Y2231D01*
X2430Y2227D01*
X2432Y2227D01*
X2432Y2223D01*
X2434Y2223D01*
X2434Y2221D01*
X2436Y2221D01*
X2436Y2217D01*
X2438Y2217D01*
X2438Y2213D01*
X2440Y2213D01*
X2440Y2209D01*
X2442Y2209D01*
X2442Y2205D01*
X2444Y2205D01*
X2444Y2201D01*
X2446Y2201D01*
X2446Y2197D01*
X2448Y2197D01*
X2448Y2193D01*
X2450Y2193D01*
X2450Y2189D01*
X2452Y2189D01*
X2452Y2185D01*
X2454Y2185D01*
X2454Y2181D01*
X2456Y2181D01*
X2456Y2177D01*
X2458Y2177D01*
X2458Y2173D01*
X2460Y2173D01*
X2460Y2169D01*
X2462Y2169D01*
X2462Y2165D01*
X2464Y2165D01*
X2464Y2163D01*
X2466Y2163D01*
X2466Y2159D01*
X2468Y2159D01*
X2468Y2155D01*
X2470Y2155D01*
X2470Y2151D01*
X2472Y2151D01*
X2472Y2147D01*
X2474Y2147D01*
X2474Y2143D01*
X2476Y2143D01*
X2476Y2139D01*
X2478Y2139D01*
X2478Y2135D01*
X2480Y2135D01*
X2480Y2131D01*
X2482Y2131D01*
X2482Y2127D01*
X2484Y2127D01*
X2484Y2123D01*
X2486Y2123D01*
X2486Y2119D01*
X2488Y2119D01*
X2488Y2115D01*
X2490Y2115D01*
X2490Y2111D01*
X2492Y2111D01*
X2492Y2107D01*
X2494Y2107D01*
X2494Y2105D01*
X2496Y2105D01*
X2496Y2101D01*
X2498Y2101D01*
X2498Y2097D01*
X2500Y2097D01*
X2500Y2093D01*
X2502Y2093D01*
X2502Y2089D01*
X2504Y2089D01*
X2504Y2085D01*
X2506Y2085D01*
X2506Y2081D01*
X2508Y2081D01*
X2508Y2077D01*
X2510Y2077D01*
X2510Y2073D01*
X2512Y2073D01*
X2512Y2069D01*
X2514Y2069D01*
X2514Y2065D01*
X2516Y2065D01*
X2516Y2061D01*
X2518Y2061D01*
X2518Y2057D01*
X2520Y2057D01*
X2520Y2053D01*
X2522Y2053D01*
X2522Y2049D01*
X2524Y2049D01*
X2524Y2045D01*
X2526Y2045D01*
X2526Y2043D01*
X2528Y2043D01*
X2528Y2039D01*
X2530Y2039D01*
X2530Y2035D01*
X2532Y2035D01*
X2532Y2031D01*
X2534Y2031D01*
X2534Y2027D01*
X2536Y2027D01*
X2536Y2023D01*
X2538Y2023D01*
X2538Y2019D01*
X2540Y2019D01*
X2540Y2015D01*
X2542Y2015D01*
X2542Y2011D01*
X2544Y2011D01*
X2544Y2007D01*
X2546Y2007D01*
X2546Y2003D01*
X2548Y2003D01*
X2548Y1999D01*
X2550Y1999D01*
X2550Y1995D01*
X2552Y1995D01*
X2552Y1991D01*
X2554Y1991D01*
X2554Y1987D01*
X2556Y1987D01*
X2556Y1985D01*
X2558Y1985D01*
X2558Y1981D01*
X2560Y1981D01*
X2560Y1977D01*
X2562Y1977D01*
X2562Y1973D01*
X2564Y1973D01*
X2564Y1969D01*
X2566Y1969D01*
X2566Y1965D01*
X2568Y1965D01*
X2568Y1961D01*
X2570Y1961D01*
X2570Y1957D01*
X2572Y1957D01*
X2572Y1953D01*
X2574Y1953D01*
X2574Y1949D01*
X2576Y1949D01*
X2576Y1945D01*
X2578Y1945D01*
X2578Y1941D01*
X2580Y1941D01*
X2580Y1937D01*
X2582Y1937D01*
X2582Y1933D01*
X2584Y1933D01*
X2584Y1929D01*
X2586Y1929D01*
X2586Y1927D01*
X2588Y1927D01*
X2588Y1923D01*
X2590Y1923D01*
X2590Y1919D01*
X2592Y1919D01*
X2592Y1915D01*
X2594Y1915D01*
X2594Y1911D01*
X2596Y1911D01*
X2596Y1907D01*
X2598Y1907D01*
X2598Y1903D01*
X2600Y1903D01*
X2600Y1899D01*
X2602Y1899D01*
X2602Y1895D01*
X2604Y1895D01*
X2604Y1891D01*
X2606Y1891D01*
X2606Y1887D01*
X2608Y1887D01*
X2608Y1883D01*
X2610Y1883D01*
X2610Y1879D01*
X2612Y1879D01*
X2612Y1875D01*
X2614Y1875D01*
X2614Y1871D01*
X2616Y1871D01*
X2616Y1869D01*
X2618Y1869D01*
X2618Y1865D01*
X2620Y1865D01*
X2620Y1861D01*
X2622Y1861D01*
X2622Y1857D01*
X2624Y1857D01*
X2624Y1853D01*
X2626Y1853D01*
X2626Y1849D01*
X2628Y1849D01*
X2628Y1845D01*
X2630Y1845D01*
X2630Y1841D01*
X2632Y1841D01*
X2632Y1837D01*
X2634Y1837D01*
X2634Y1833D01*
X2636Y1833D01*
X2636Y1829D01*
X2638Y1829D01*
X2638Y1825D01*
X2640Y1825D01*
X2640Y1821D01*
X2642Y1821D01*
X2642Y1817D01*
X2644Y1817D01*
X2644Y1813D01*
X2646Y1813D01*
X2646Y1811D01*
X2648Y1811D01*
X2648Y1807D01*
X2650Y1807D01*
X2650Y1803D01*
X2652Y1803D01*
X2652Y1799D01*
X2654Y1799D01*
X2654Y1795D01*
X2656Y1795D01*
X2656Y1791D01*
X2658Y1791D01*
X2658Y1787D01*
X2660Y1787D01*
X2660Y1783D01*
X2662Y1783D01*
X2662Y1779D01*
X2664Y1779D01*
X2664Y1775D01*
X2666Y1775D01*
X2666Y1771D01*
X2668Y1771D01*
X2668Y1767D01*
X2670Y1767D01*
X2670Y1763D01*
X2672Y1763D01*
X2672Y1759D01*
X2674Y1759D01*
X2674Y1755D01*
X2676Y1755D01*
X2676Y1753D01*
X2678Y1753D01*
X2678Y1749D01*
X2680Y1749D01*
X2680Y1745D01*
X2682Y1745D01*
X2682Y1741D01*
X2684Y1741D01*
X2684Y1737D01*
X2686Y1737D01*
X2686Y1733D01*
X2688Y1733D01*
X2688Y1729D01*
X2690Y1729D01*
X2690Y1725D01*
X2692Y1725D01*
X2692Y1721D01*
X2694Y1721D01*
X2694Y1717D01*
X2696Y1717D01*
X2696Y1713D01*
X2698Y1713D01*
X2698Y1709D01*
X2700Y1709D01*
X2700Y1705D01*
X2702Y1705D01*
X2702Y1701D01*
X2704Y1701D01*
X2704Y1697D01*
X2706Y1697D01*
X2706Y1695D01*
X2708Y1695D01*
X2708Y1691D01*
X2710Y1691D01*
X2710Y1687D01*
X2712Y1687D01*
X2712Y1683D01*
X2714Y1683D01*
X2714Y1679D01*
X2716Y1679D01*
X2716Y1675D01*
X2718Y1675D01*
X2718Y1671D01*
X2720Y1671D01*
X2720Y1667D01*
X2722Y1667D01*
X2722Y1663D01*
X2724Y1663D01*
X2724Y1659D01*
X2726Y1659D01*
X2726Y1655D01*
X2728Y1655D01*
X2728Y1651D01*
X2730Y1651D01*
X2730Y1647D01*
X2732Y1647D01*
X2732Y1643D01*
X2734Y1643D01*
X2734Y1639D01*
X2736Y1639D01*
X2736Y1637D01*
X2738Y1637D01*
X2738Y1633D01*
X2740Y1633D01*
X2740Y1629D01*
X2742Y1629D01*
X2742Y1625D01*
X2744Y1625D01*
X2744Y1621D01*
X2746Y1621D01*
X2746Y1617D01*
X2748Y1617D01*
X2748Y1613D01*
X2750Y1613D01*
X2750Y1609D01*
X2752Y1609D01*
X2752Y1605D01*
X2754Y1605D01*
X2754Y1601D01*
X2756Y1601D01*
X2756Y1597D01*
X2758Y1597D01*
X2758Y1593D01*
X2760Y1593D01*
X2760Y1589D01*
X2762Y1589D01*
X2762Y1585D01*
X2764Y1585D01*
X2764Y1581D01*
X2766Y1581D01*
X2766Y1579D01*
X2768Y1579D01*
X2768Y1575D01*
X2770Y1575D01*
X2770Y1571D01*
X2772Y1571D01*
X2772Y1567D01*
X2774Y1567D01*
X2774Y1563D01*
X2776Y1563D01*
X2776Y1559D01*
X2778Y1559D01*
X2778Y1555D01*
X2780Y1555D01*
X2780Y1551D01*
X2782Y1551D01*
X2782Y1547D01*
X2784Y1547D01*
X2784Y1543D01*
X2786Y1543D01*
X2786Y1539D01*
X2788Y1539D01*
X2788Y1535D01*
X2790Y1535D01*
X2790Y1531D01*
X2792Y1531D01*
X2792Y1527D01*
X2794Y1527D01*
X2794Y1523D01*
X2796Y1523D01*
X2796Y1521D01*
X2798Y1521D01*
X2798Y1517D01*
X2800Y1517D01*
X2800Y1513D01*
X2802Y1513D01*
X2802Y1509D01*
X2804Y1509D01*
X2804Y1505D01*
X2806Y1505D01*
X2806Y1501D01*
X2808Y1501D01*
X2808Y1497D01*
X2810Y1497D01*
X2810Y1493D01*
X2812Y1493D01*
X2812Y1489D01*
X2814Y1489D01*
X2814Y1485D01*
X2816Y1485D01*
X2816Y1481D01*
X2818Y1481D01*
X2818Y1477D01*
X2820Y1477D01*
X2820Y1473D01*
X2822Y1473D01*
X2822Y1469D01*
X2824Y1469D01*
X2824Y1465D01*
X2826Y1465D01*
X2826Y1463D01*
X2828Y1463D01*
X2828Y1459D01*
X2830Y1459D01*
X2830Y1455D01*
X2832Y1455D01*
X2832Y1451D01*
X2834Y1451D01*
X2834Y1447D01*
X2836Y1447D01*
X2836Y1443D01*
X2838Y1443D01*
X2838Y1439D01*
X2840Y1439D01*
X2840Y1435D01*
X2842Y1435D01*
X2842Y1431D01*
X2844Y1431D01*
X2844Y1427D01*
X2846Y1427D01*
X2846Y1423D01*
X2848Y1423D01*
X2848Y1419D01*
X2850Y1419D01*
X2850Y1415D01*
X2852Y1415D01*
X2852Y1411D01*
X3664Y1411D01*
X3664Y1265D01*
X3896Y1265D01*
X3896Y2267D01*
X2412Y2267D01*
G37*
D02*
G36*
X1858Y2151D02*
X1858Y2145D01*
X1856Y2145D01*
X1856Y2139D01*
X1854Y2139D01*
X1854Y2135D01*
X1852Y2135D01*
X1852Y2133D01*
X1850Y2133D01*
X1850Y2129D01*
X1848Y2129D01*
X1848Y2127D01*
X1846Y2127D01*
X1846Y2125D01*
X1844Y2125D01*
X1844Y2105D01*
X1846Y2105D01*
X1846Y2103D01*
X1848Y2103D01*
X1848Y2101D01*
X1850Y2101D01*
X1850Y2097D01*
X1852Y2097D01*
X1852Y2095D01*
X1854Y2095D01*
X1854Y2091D01*
X1856Y2091D01*
X1856Y2085D01*
X1858Y2085D01*
X1858Y2079D01*
X1860Y2079D01*
X1860Y2045D01*
X1858Y2045D01*
X1858Y2037D01*
X1856Y2037D01*
X1856Y2033D01*
X1854Y2033D01*
X1854Y2029D01*
X1852Y2029D01*
X1852Y2025D01*
X1850Y2025D01*
X1850Y2023D01*
X1848Y2023D01*
X1848Y2001D01*
X1850Y2001D01*
X1850Y1997D01*
X1852Y1997D01*
X1852Y1995D01*
X1854Y1995D01*
X1854Y1991D01*
X1856Y1991D01*
X1856Y1985D01*
X1858Y1985D01*
X1858Y1979D01*
X1860Y1979D01*
X1860Y1945D01*
X1858Y1945D01*
X1858Y1937D01*
X1856Y1937D01*
X1856Y1933D01*
X1854Y1933D01*
X1854Y1929D01*
X1852Y1929D01*
X1852Y1925D01*
X1850Y1925D01*
X1850Y1923D01*
X1848Y1923D01*
X1848Y1919D01*
X1846Y1919D01*
X1846Y1917D01*
X1844Y1917D01*
X1844Y1915D01*
X1842Y1915D01*
X1842Y1913D01*
X1840Y1913D01*
X1840Y1911D01*
X1838Y1911D01*
X1838Y1909D01*
X1836Y1909D01*
X1836Y1907D01*
X1834Y1907D01*
X1834Y1905D01*
X1830Y1905D01*
X1830Y1903D01*
X1828Y1903D01*
X1828Y1901D01*
X1824Y1901D01*
X1824Y1899D01*
X1822Y1899D01*
X1822Y1897D01*
X1818Y1897D01*
X1818Y1895D01*
X1812Y1895D01*
X1812Y1893D01*
X1804Y1893D01*
X1804Y1891D01*
X1908Y1891D01*
X1908Y1893D01*
X1906Y1893D01*
X1906Y1911D01*
X1904Y1911D01*
X1904Y1929D01*
X1902Y1929D01*
X1902Y1947D01*
X1900Y1947D01*
X1900Y1965D01*
X1898Y1965D01*
X1898Y1985D01*
X1896Y1985D01*
X1896Y2003D01*
X1894Y2003D01*
X1894Y2021D01*
X1892Y2021D01*
X1892Y2039D01*
X1890Y2039D01*
X1890Y2057D01*
X1888Y2057D01*
X1888Y2077D01*
X1886Y2077D01*
X1886Y2095D01*
X1884Y2095D01*
X1884Y2113D01*
X1882Y2113D01*
X1882Y2131D01*
X1880Y2131D01*
X1880Y2149D01*
X1878Y2149D01*
X1878Y2151D01*
X1858Y2151D01*
G37*
D02*
G36*
X238Y2109D02*
X238Y2107D01*
X610Y2107D01*
X610Y2105D01*
X616Y2105D01*
X616Y2103D01*
X620Y2103D01*
X620Y2101D01*
X624Y2101D01*
X624Y2099D01*
X628Y2099D01*
X628Y2097D01*
X630Y2097D01*
X630Y2095D01*
X632Y2095D01*
X632Y2093D01*
X636Y2093D01*
X636Y2091D01*
X638Y2091D01*
X638Y2089D01*
X640Y2089D01*
X640Y2087D01*
X938Y2087D01*
X938Y2089D01*
X940Y2089D01*
X940Y2091D01*
X944Y2091D01*
X944Y2093D01*
X946Y2093D01*
X946Y2095D01*
X948Y2095D01*
X948Y2097D01*
X950Y2097D01*
X950Y2099D01*
X954Y2099D01*
X954Y2101D01*
X958Y2101D01*
X958Y2103D01*
X960Y2103D01*
X960Y2105D01*
X966Y2105D01*
X966Y2107D01*
X972Y2107D01*
X972Y2109D01*
X238Y2109D01*
G37*
D02*
G36*
X238Y2107D02*
X238Y2089D01*
X240Y2089D01*
X240Y2087D01*
X242Y2087D01*
X242Y2085D01*
X248Y2085D01*
X248Y2083D01*
X288Y2083D01*
X288Y2081D01*
X330Y2081D01*
X330Y2079D01*
X460Y2079D01*
X460Y2081D01*
X498Y2081D01*
X498Y2083D01*
X534Y2083D01*
X534Y2085D01*
X540Y2085D01*
X540Y2087D01*
X542Y2087D01*
X542Y2089D01*
X544Y2089D01*
X544Y2091D01*
X546Y2091D01*
X546Y2093D01*
X548Y2093D01*
X548Y2095D01*
X550Y2095D01*
X550Y2097D01*
X554Y2097D01*
X554Y2099D01*
X556Y2099D01*
X556Y2101D01*
X560Y2101D01*
X560Y2103D01*
X564Y2103D01*
X564Y2105D01*
X570Y2105D01*
X570Y2107D01*
X238Y2107D01*
G37*
D02*
G36*
X660Y1991D02*
X660Y1869D01*
X920Y1869D01*
X920Y1991D01*
X660Y1991D01*
G37*
D02*
G36*
X260Y1985D02*
X260Y1977D01*
X380Y1977D01*
X380Y1979D01*
X376Y1979D01*
X376Y1981D01*
X352Y1981D01*
X352Y1983D01*
X312Y1983D01*
X312Y1985D01*
X260Y1985D01*
G37*
D02*
G36*
X476Y1985D02*
X476Y1983D01*
X438Y1983D01*
X438Y1981D01*
X418Y1981D01*
X418Y1979D01*
X412Y1979D01*
X412Y1977D01*
X520Y1977D01*
X520Y1985D01*
X476Y1985D01*
G37*
D02*
G36*
X260Y1977D02*
X260Y1975D01*
X520Y1975D01*
X520Y1977D01*
X260Y1977D01*
G37*
D02*
G36*
X260Y1977D02*
X260Y1975D01*
X520Y1975D01*
X520Y1977D01*
X260Y1977D01*
G37*
D02*
G36*
X260Y1975D02*
X260Y1869D01*
X520Y1869D01*
X520Y1975D01*
X260Y1975D01*
G37*
D02*
G36*
X1062Y1891D02*
X1062Y1889D01*
X1908Y1889D01*
X1908Y1891D01*
X1062Y1891D01*
G37*
D02*
G36*
X1062Y1891D02*
X1062Y1889D01*
X1908Y1889D01*
X1908Y1891D01*
X1062Y1891D01*
G37*
D02*
G36*
X1062Y1889D02*
X1062Y1867D01*
X1910Y1867D01*
X1910Y1873D01*
X1908Y1873D01*
X1908Y1889D01*
X1062Y1889D01*
G37*
D02*
G36*
X44Y1869D02*
X44Y1867D01*
X920Y1867D01*
X920Y1869D01*
X44Y1869D01*
G37*
D02*
G36*
X44Y1869D02*
X44Y1867D01*
X920Y1867D01*
X920Y1869D01*
X44Y1869D01*
G37*
D02*
G36*
X44Y1869D02*
X44Y1867D01*
X920Y1867D01*
X920Y1869D01*
X44Y1869D01*
G37*
D02*
G36*
X44Y1867D02*
X44Y1865D01*
X1910Y1865D01*
X1910Y1867D01*
X44Y1867D01*
G37*
D02*
G36*
X44Y1867D02*
X44Y1865D01*
X1910Y1865D01*
X1910Y1867D01*
X44Y1867D01*
G37*
D02*
G36*
X44Y1865D02*
X44Y1411D01*
X610Y1411D01*
X610Y1409D01*
X616Y1409D01*
X616Y1407D01*
X620Y1407D01*
X620Y1405D01*
X624Y1405D01*
X624Y1403D01*
X628Y1403D01*
X628Y1401D01*
X630Y1401D01*
X630Y1399D01*
X634Y1399D01*
X634Y1397D01*
X636Y1397D01*
X636Y1395D01*
X638Y1395D01*
X638Y1393D01*
X640Y1393D01*
X640Y1391D01*
X642Y1391D01*
X642Y1389D01*
X644Y1389D01*
X644Y1387D01*
X646Y1387D01*
X646Y1385D01*
X648Y1385D01*
X648Y1383D01*
X650Y1383D01*
X650Y1381D01*
X652Y1381D01*
X652Y1377D01*
X654Y1377D01*
X654Y1373D01*
X656Y1373D01*
X656Y1371D01*
X658Y1371D01*
X658Y1365D01*
X660Y1365D01*
X660Y1361D01*
X662Y1361D01*
X662Y1351D01*
X664Y1351D01*
X664Y1325D01*
X662Y1325D01*
X662Y1317D01*
X660Y1317D01*
X660Y1311D01*
X658Y1311D01*
X658Y1309D01*
X1308Y1309D01*
X1308Y1307D01*
X1316Y1307D01*
X1316Y1305D01*
X1320Y1305D01*
X1320Y1303D01*
X1324Y1303D01*
X1324Y1301D01*
X1328Y1301D01*
X1328Y1299D01*
X1330Y1299D01*
X1330Y1297D01*
X1332Y1297D01*
X1332Y1295D01*
X1336Y1295D01*
X1336Y1293D01*
X1338Y1293D01*
X1338Y1291D01*
X1340Y1291D01*
X1340Y1289D01*
X1342Y1289D01*
X1342Y1287D01*
X1344Y1287D01*
X1344Y1285D01*
X1346Y1285D01*
X1346Y1283D01*
X1348Y1283D01*
X1348Y1279D01*
X1350Y1279D01*
X1350Y1277D01*
X1352Y1277D01*
X1352Y1273D01*
X1354Y1273D01*
X1354Y1269D01*
X1356Y1269D01*
X1356Y1265D01*
X1358Y1265D01*
X1358Y1261D01*
X1360Y1261D01*
X1360Y1251D01*
X1362Y1251D01*
X1362Y1225D01*
X1360Y1225D01*
X1360Y1217D01*
X1358Y1217D01*
X1358Y1211D01*
X1356Y1211D01*
X1356Y1209D01*
X1698Y1209D01*
X1698Y1207D01*
X1710Y1207D01*
X1710Y1205D01*
X1716Y1205D01*
X1716Y1203D01*
X1720Y1203D01*
X1720Y1201D01*
X1724Y1201D01*
X1724Y1199D01*
X1728Y1199D01*
X1728Y1197D01*
X1730Y1197D01*
X1730Y1195D01*
X1732Y1195D01*
X1732Y1193D01*
X1736Y1193D01*
X1736Y1191D01*
X1738Y1191D01*
X1738Y1189D01*
X1740Y1189D01*
X1740Y1187D01*
X1742Y1187D01*
X1742Y1185D01*
X1744Y1185D01*
X1744Y1183D01*
X1746Y1183D01*
X1746Y1179D01*
X1748Y1179D01*
X1748Y1177D01*
X1750Y1177D01*
X1750Y1173D01*
X1752Y1173D01*
X1752Y1171D01*
X1754Y1171D01*
X1754Y1167D01*
X1756Y1167D01*
X1756Y1161D01*
X1758Y1161D01*
X1758Y1155D01*
X1760Y1155D01*
X1760Y969D01*
X2008Y969D01*
X2008Y971D01*
X2006Y971D01*
X2006Y991D01*
X2004Y991D01*
X2004Y1009D01*
X2002Y1009D01*
X2002Y1027D01*
X2000Y1027D01*
X2000Y1045D01*
X1998Y1045D01*
X1998Y1063D01*
X1996Y1063D01*
X1996Y1083D01*
X1994Y1083D01*
X1994Y1101D01*
X1992Y1101D01*
X1992Y1119D01*
X1990Y1119D01*
X1990Y1137D01*
X1988Y1137D01*
X1988Y1155D01*
X1986Y1155D01*
X1986Y1175D01*
X1984Y1175D01*
X1984Y1193D01*
X1982Y1193D01*
X1982Y1211D01*
X1980Y1211D01*
X1980Y1229D01*
X1978Y1229D01*
X1978Y1247D01*
X1976Y1247D01*
X1976Y1267D01*
X1974Y1267D01*
X1974Y1285D01*
X1972Y1285D01*
X1972Y1303D01*
X1970Y1303D01*
X1970Y1321D01*
X1968Y1321D01*
X1968Y1339D01*
X1966Y1339D01*
X1966Y1359D01*
X1964Y1359D01*
X1964Y1377D01*
X1962Y1377D01*
X1962Y1395D01*
X1960Y1395D01*
X1960Y1413D01*
X1958Y1413D01*
X1958Y1431D01*
X1956Y1431D01*
X1956Y1451D01*
X1954Y1451D01*
X1954Y1469D01*
X1952Y1469D01*
X1952Y1487D01*
X1950Y1487D01*
X1950Y1505D01*
X1948Y1505D01*
X1948Y1525D01*
X1946Y1525D01*
X1946Y1543D01*
X1944Y1543D01*
X1944Y1561D01*
X1942Y1561D01*
X1942Y1579D01*
X1940Y1579D01*
X1940Y1597D01*
X1938Y1597D01*
X1938Y1617D01*
X1936Y1617D01*
X1936Y1635D01*
X1934Y1635D01*
X1934Y1653D01*
X1932Y1653D01*
X1932Y1671D01*
X1930Y1671D01*
X1930Y1689D01*
X1928Y1689D01*
X1928Y1709D01*
X1926Y1709D01*
X1926Y1727D01*
X1924Y1727D01*
X1924Y1745D01*
X1922Y1745D01*
X1922Y1763D01*
X1920Y1763D01*
X1920Y1781D01*
X1918Y1781D01*
X1918Y1801D01*
X1916Y1801D01*
X1916Y1819D01*
X1914Y1819D01*
X1914Y1837D01*
X1912Y1837D01*
X1912Y1855D01*
X1910Y1855D01*
X1910Y1865D01*
X44Y1865D01*
G37*
D02*
G36*
X44Y1411D02*
X44Y1265D01*
X318Y1265D01*
X318Y1411D01*
X44Y1411D01*
G37*
D02*
G36*
X510Y1411D02*
X510Y1409D01*
X516Y1409D01*
X516Y1407D01*
X520Y1407D01*
X520Y1405D01*
X524Y1405D01*
X524Y1403D01*
X528Y1403D01*
X528Y1401D01*
X530Y1401D01*
X530Y1399D01*
X550Y1399D01*
X550Y1401D01*
X554Y1401D01*
X554Y1403D01*
X556Y1403D01*
X556Y1405D01*
X560Y1405D01*
X560Y1407D01*
X566Y1407D01*
X566Y1409D01*
X572Y1409D01*
X572Y1411D01*
X510Y1411D01*
G37*
D02*
G36*
X2854Y1411D02*
X2854Y1407D01*
X2856Y1407D01*
X2856Y1405D01*
X2858Y1405D01*
X2858Y1401D01*
X2860Y1401D01*
X2860Y1397D01*
X2862Y1397D01*
X2862Y1393D01*
X2864Y1393D01*
X2864Y1389D01*
X2866Y1389D01*
X2866Y1385D01*
X2868Y1385D01*
X2868Y1381D01*
X2870Y1381D01*
X2870Y1377D01*
X2872Y1377D01*
X2872Y1373D01*
X2874Y1373D01*
X2874Y1369D01*
X2876Y1369D01*
X2876Y1365D01*
X2878Y1365D01*
X2878Y1361D01*
X2880Y1361D01*
X2880Y1357D01*
X2882Y1357D01*
X2882Y1353D01*
X2884Y1353D01*
X2884Y1349D01*
X2886Y1349D01*
X2886Y1347D01*
X2888Y1347D01*
X2888Y1343D01*
X2890Y1343D01*
X2890Y1339D01*
X2892Y1339D01*
X2892Y1335D01*
X2894Y1335D01*
X2894Y1331D01*
X2896Y1331D01*
X2896Y1327D01*
X2898Y1327D01*
X2898Y1323D01*
X2900Y1323D01*
X2900Y1319D01*
X2902Y1319D01*
X2902Y1315D01*
X2904Y1315D01*
X2904Y1311D01*
X2906Y1311D01*
X2906Y1309D01*
X2908Y1309D01*
X2908Y1307D01*
X2916Y1307D01*
X2916Y1305D01*
X2920Y1305D01*
X2920Y1303D01*
X2924Y1303D01*
X2924Y1301D01*
X2928Y1301D01*
X2928Y1299D01*
X2930Y1299D01*
X2930Y1297D01*
X2932Y1297D01*
X2932Y1295D01*
X2936Y1295D01*
X2936Y1293D01*
X2938Y1293D01*
X2938Y1291D01*
X2940Y1291D01*
X2940Y1289D01*
X2942Y1289D01*
X2942Y1287D01*
X2944Y1287D01*
X2944Y1285D01*
X2946Y1285D01*
X2946Y1283D01*
X2948Y1283D01*
X2948Y1279D01*
X2950Y1279D01*
X2950Y1277D01*
X2952Y1277D01*
X2952Y1273D01*
X2954Y1273D01*
X2954Y1269D01*
X2956Y1269D01*
X2956Y1265D01*
X2958Y1265D01*
X2958Y1261D01*
X2960Y1261D01*
X2960Y1251D01*
X2962Y1251D01*
X2962Y1225D01*
X2960Y1225D01*
X2960Y1217D01*
X2958Y1217D01*
X2958Y1211D01*
X2956Y1211D01*
X2956Y1207D01*
X2954Y1207D01*
X2954Y1203D01*
X2952Y1203D01*
X2952Y1201D01*
X2950Y1201D01*
X2950Y1177D01*
X2952Y1177D01*
X2952Y1173D01*
X2954Y1173D01*
X2954Y1169D01*
X2956Y1169D01*
X2956Y1165D01*
X2958Y1165D01*
X2958Y1161D01*
X2960Y1161D01*
X2960Y1159D01*
X2966Y1159D01*
X2966Y1157D01*
X2970Y1157D01*
X2970Y1155D01*
X2976Y1155D01*
X2976Y1153D01*
X2980Y1153D01*
X2980Y1151D01*
X2986Y1151D01*
X2986Y1149D01*
X2990Y1149D01*
X2990Y1147D01*
X2996Y1147D01*
X2996Y1145D01*
X3000Y1145D01*
X3000Y1143D01*
X3006Y1143D01*
X3006Y1141D01*
X3010Y1141D01*
X3010Y1139D01*
X3016Y1139D01*
X3016Y1137D01*
X3020Y1137D01*
X3020Y1135D01*
X3026Y1135D01*
X3026Y1133D01*
X3030Y1133D01*
X3030Y1131D01*
X3036Y1131D01*
X3036Y1129D01*
X3040Y1129D01*
X3040Y1127D01*
X3046Y1127D01*
X3046Y1125D01*
X3050Y1125D01*
X3050Y1123D01*
X3056Y1123D01*
X3056Y1121D01*
X3060Y1121D01*
X3060Y1119D01*
X3066Y1119D01*
X3066Y1117D01*
X3070Y1117D01*
X3070Y1115D01*
X3076Y1115D01*
X3076Y1113D01*
X3080Y1113D01*
X3080Y1111D01*
X3086Y1111D01*
X3086Y1109D01*
X3090Y1109D01*
X3090Y1107D01*
X3096Y1107D01*
X3096Y1105D01*
X3100Y1105D01*
X3100Y1103D01*
X3106Y1103D01*
X3106Y1101D01*
X3110Y1101D01*
X3110Y1099D01*
X3116Y1099D01*
X3116Y1097D01*
X3120Y1097D01*
X3120Y1095D01*
X3126Y1095D01*
X3126Y1093D01*
X3130Y1093D01*
X3130Y1091D01*
X3136Y1091D01*
X3136Y1089D01*
X3140Y1089D01*
X3140Y1087D01*
X3146Y1087D01*
X3146Y1085D01*
X3150Y1085D01*
X3150Y1083D01*
X3156Y1083D01*
X3156Y1081D01*
X3160Y1081D01*
X3160Y1079D01*
X3166Y1079D01*
X3166Y1077D01*
X3170Y1077D01*
X3170Y1075D01*
X3176Y1075D01*
X3176Y1073D01*
X3180Y1073D01*
X3180Y1071D01*
X3186Y1071D01*
X3186Y1069D01*
X3190Y1069D01*
X3190Y1067D01*
X3196Y1067D01*
X3196Y1065D01*
X3200Y1065D01*
X3200Y1063D01*
X3206Y1063D01*
X3206Y1061D01*
X3210Y1061D01*
X3210Y1059D01*
X3216Y1059D01*
X3216Y1057D01*
X3220Y1057D01*
X3220Y1055D01*
X3226Y1055D01*
X3226Y1053D01*
X3230Y1053D01*
X3230Y1051D01*
X3236Y1051D01*
X3236Y1049D01*
X3240Y1049D01*
X3240Y1047D01*
X3246Y1047D01*
X3246Y1045D01*
X3250Y1045D01*
X3250Y1043D01*
X3256Y1043D01*
X3256Y1041D01*
X3260Y1041D01*
X3260Y1039D01*
X3266Y1039D01*
X3266Y1037D01*
X3270Y1037D01*
X3270Y1035D01*
X3276Y1035D01*
X3276Y1033D01*
X3280Y1033D01*
X3280Y1031D01*
X3286Y1031D01*
X3286Y1029D01*
X3290Y1029D01*
X3290Y1027D01*
X3296Y1027D01*
X3296Y1025D01*
X3300Y1025D01*
X3300Y1023D01*
X3306Y1023D01*
X3306Y1021D01*
X3310Y1021D01*
X3310Y1019D01*
X3316Y1019D01*
X3316Y1017D01*
X3320Y1017D01*
X3320Y1015D01*
X3326Y1015D01*
X3326Y1013D01*
X3346Y1013D01*
X3346Y1281D01*
X3344Y1281D01*
X3344Y1283D01*
X3342Y1283D01*
X3342Y1285D01*
X3340Y1285D01*
X3340Y1287D01*
X3338Y1287D01*
X3338Y1289D01*
X3336Y1289D01*
X3336Y1291D01*
X3334Y1291D01*
X3334Y1293D01*
X3332Y1293D01*
X3332Y1295D01*
X3330Y1295D01*
X3330Y1299D01*
X3328Y1299D01*
X3328Y1301D01*
X3326Y1301D01*
X3326Y1305D01*
X3324Y1305D01*
X3324Y1309D01*
X3322Y1309D01*
X3322Y1313D01*
X3320Y1313D01*
X3320Y1319D01*
X3318Y1319D01*
X3318Y1357D01*
X3320Y1357D01*
X3320Y1365D01*
X3322Y1365D01*
X3322Y1369D01*
X3324Y1369D01*
X3324Y1373D01*
X3326Y1373D01*
X3326Y1375D01*
X3328Y1375D01*
X3328Y1379D01*
X3330Y1379D01*
X3330Y1381D01*
X3332Y1381D01*
X3332Y1385D01*
X3334Y1385D01*
X3334Y1387D01*
X3336Y1387D01*
X3336Y1389D01*
X3338Y1389D01*
X3338Y1391D01*
X3340Y1391D01*
X3340Y1393D01*
X3342Y1393D01*
X3342Y1395D01*
X3344Y1395D01*
X3344Y1397D01*
X3348Y1397D01*
X3348Y1399D01*
X3350Y1399D01*
X3350Y1401D01*
X3354Y1401D01*
X3354Y1403D01*
X3356Y1403D01*
X3356Y1405D01*
X3360Y1405D01*
X3360Y1407D01*
X3366Y1407D01*
X3366Y1409D01*
X3372Y1409D01*
X3372Y1411D01*
X2854Y1411D01*
G37*
D02*
G36*
X3410Y1411D02*
X3410Y1409D01*
X3416Y1409D01*
X3416Y1407D01*
X3420Y1407D01*
X3420Y1405D01*
X3424Y1405D01*
X3424Y1403D01*
X3428Y1403D01*
X3428Y1401D01*
X3430Y1401D01*
X3430Y1399D01*
X3450Y1399D01*
X3450Y1401D01*
X3454Y1401D01*
X3454Y1403D01*
X3456Y1403D01*
X3456Y1405D01*
X3460Y1405D01*
X3460Y1407D01*
X3466Y1407D01*
X3466Y1409D01*
X3472Y1409D01*
X3472Y1411D01*
X3410Y1411D01*
G37*
D02*
G36*
X658Y1309D02*
X658Y1307D01*
X656Y1307D01*
X656Y1303D01*
X654Y1303D01*
X654Y1299D01*
X652Y1299D01*
X652Y1297D01*
X650Y1297D01*
X650Y1295D01*
X648Y1295D01*
X648Y1291D01*
X646Y1291D01*
X646Y1289D01*
X644Y1289D01*
X644Y1287D01*
X642Y1287D01*
X642Y1285D01*
X640Y1285D01*
X640Y1283D01*
X638Y1283D01*
X638Y1281D01*
X634Y1281D01*
X634Y1003D01*
X654Y1003D01*
X654Y1005D01*
X660Y1005D01*
X660Y1007D01*
X668Y1007D01*
X668Y1009D01*
X674Y1009D01*
X674Y1011D01*
X682Y1011D01*
X682Y1013D01*
X688Y1013D01*
X688Y1015D01*
X696Y1015D01*
X696Y1017D01*
X702Y1017D01*
X702Y1019D01*
X710Y1019D01*
X710Y1021D01*
X716Y1021D01*
X716Y1023D01*
X724Y1023D01*
X724Y1025D01*
X730Y1025D01*
X730Y1027D01*
X738Y1027D01*
X738Y1029D01*
X744Y1029D01*
X744Y1031D01*
X752Y1031D01*
X752Y1033D01*
X758Y1033D01*
X758Y1035D01*
X766Y1035D01*
X766Y1037D01*
X772Y1037D01*
X772Y1039D01*
X780Y1039D01*
X780Y1041D01*
X786Y1041D01*
X786Y1043D01*
X794Y1043D01*
X794Y1045D01*
X800Y1045D01*
X800Y1047D01*
X808Y1047D01*
X808Y1049D01*
X814Y1049D01*
X814Y1051D01*
X822Y1051D01*
X822Y1053D01*
X828Y1053D01*
X828Y1055D01*
X836Y1055D01*
X836Y1057D01*
X842Y1057D01*
X842Y1059D01*
X850Y1059D01*
X850Y1061D01*
X856Y1061D01*
X856Y1063D01*
X864Y1063D01*
X864Y1065D01*
X870Y1065D01*
X870Y1067D01*
X878Y1067D01*
X878Y1069D01*
X884Y1069D01*
X884Y1071D01*
X892Y1071D01*
X892Y1073D01*
X898Y1073D01*
X898Y1075D01*
X906Y1075D01*
X906Y1077D01*
X912Y1077D01*
X912Y1079D01*
X920Y1079D01*
X920Y1081D01*
X926Y1081D01*
X926Y1083D01*
X934Y1083D01*
X934Y1085D01*
X940Y1085D01*
X940Y1087D01*
X948Y1087D01*
X948Y1089D01*
X954Y1089D01*
X954Y1091D01*
X962Y1091D01*
X962Y1093D01*
X968Y1093D01*
X968Y1095D01*
X976Y1095D01*
X976Y1097D01*
X982Y1097D01*
X982Y1099D01*
X990Y1099D01*
X990Y1101D01*
X996Y1101D01*
X996Y1103D01*
X1004Y1103D01*
X1004Y1105D01*
X1010Y1105D01*
X1010Y1107D01*
X1018Y1107D01*
X1018Y1109D01*
X1024Y1109D01*
X1024Y1111D01*
X1032Y1111D01*
X1032Y1113D01*
X1038Y1113D01*
X1038Y1115D01*
X1046Y1115D01*
X1046Y1117D01*
X1052Y1117D01*
X1052Y1119D01*
X1060Y1119D01*
X1060Y1121D01*
X1066Y1121D01*
X1066Y1123D01*
X1074Y1123D01*
X1074Y1125D01*
X1080Y1125D01*
X1080Y1127D01*
X1088Y1127D01*
X1088Y1129D01*
X1094Y1129D01*
X1094Y1131D01*
X1102Y1131D01*
X1102Y1133D01*
X1108Y1133D01*
X1108Y1135D01*
X1116Y1135D01*
X1116Y1137D01*
X1122Y1137D01*
X1122Y1139D01*
X1130Y1139D01*
X1130Y1141D01*
X1136Y1141D01*
X1136Y1143D01*
X1144Y1143D01*
X1144Y1145D01*
X1150Y1145D01*
X1150Y1147D01*
X1158Y1147D01*
X1158Y1149D01*
X1164Y1149D01*
X1164Y1151D01*
X1172Y1151D01*
X1172Y1153D01*
X1178Y1153D01*
X1178Y1155D01*
X1186Y1155D01*
X1186Y1157D01*
X1192Y1157D01*
X1192Y1159D01*
X1200Y1159D01*
X1200Y1161D01*
X1206Y1161D01*
X1206Y1163D01*
X1214Y1163D01*
X1214Y1165D01*
X1220Y1165D01*
X1220Y1167D01*
X1224Y1167D01*
X1224Y1169D01*
X1226Y1169D01*
X1226Y1173D01*
X1228Y1173D01*
X1228Y1175D01*
X1230Y1175D01*
X1230Y1179D01*
X1232Y1179D01*
X1232Y1199D01*
X1230Y1199D01*
X1230Y1201D01*
X1228Y1201D01*
X1228Y1205D01*
X1226Y1205D01*
X1226Y1209D01*
X1224Y1209D01*
X1224Y1213D01*
X1222Y1213D01*
X1222Y1219D01*
X1220Y1219D01*
X1220Y1257D01*
X1222Y1257D01*
X1222Y1263D01*
X1224Y1263D01*
X1224Y1269D01*
X1226Y1269D01*
X1226Y1273D01*
X1228Y1273D01*
X1228Y1275D01*
X1230Y1275D01*
X1230Y1279D01*
X1232Y1279D01*
X1232Y1281D01*
X1234Y1281D01*
X1234Y1283D01*
X1236Y1283D01*
X1236Y1285D01*
X1238Y1285D01*
X1238Y1289D01*
X1240Y1289D01*
X1240Y1291D01*
X1244Y1291D01*
X1244Y1293D01*
X1246Y1293D01*
X1246Y1295D01*
X1248Y1295D01*
X1248Y1297D01*
X1250Y1297D01*
X1250Y1299D01*
X1254Y1299D01*
X1254Y1301D01*
X1258Y1301D01*
X1258Y1303D01*
X1260Y1303D01*
X1260Y1305D01*
X1266Y1305D01*
X1266Y1307D01*
X1272Y1307D01*
X1272Y1309D01*
X658Y1309D01*
G37*
D02*
G36*
X526Y1275D02*
X526Y1273D01*
X522Y1273D01*
X522Y1271D01*
X518Y1271D01*
X518Y1269D01*
X512Y1269D01*
X512Y1267D01*
X504Y1267D01*
X504Y1265D01*
X546Y1265D01*
X546Y1275D01*
X526Y1275D01*
G37*
D02*
G36*
X3434Y1275D02*
X3434Y1265D01*
X3476Y1265D01*
X3476Y1267D01*
X3468Y1267D01*
X3468Y1269D01*
X3462Y1269D01*
X3462Y1271D01*
X3458Y1271D01*
X3458Y1273D01*
X3454Y1273D01*
X3454Y1275D01*
X3434Y1275D01*
G37*
D02*
G36*
X44Y1265D02*
X44Y1263D01*
X546Y1263D01*
X546Y1265D01*
X44Y1265D01*
G37*
D02*
G36*
X44Y1265D02*
X44Y1263D01*
X546Y1263D01*
X546Y1265D01*
X44Y1265D01*
G37*
D02*
G36*
X3434Y1265D02*
X3434Y1263D01*
X3896Y1263D01*
X3896Y1265D01*
X3434Y1265D01*
G37*
D02*
G36*
X3434Y1265D02*
X3434Y1263D01*
X3896Y1263D01*
X3896Y1265D01*
X3434Y1265D01*
G37*
D02*
G36*
X44Y1263D02*
X44Y485D01*
X578Y485D01*
X578Y487D01*
X572Y487D01*
X572Y489D01*
X568Y489D01*
X568Y491D01*
X566Y491D01*
X566Y493D01*
X562Y493D01*
X562Y495D01*
X560Y495D01*
X560Y499D01*
X558Y499D01*
X558Y501D01*
X556Y501D01*
X556Y505D01*
X554Y505D01*
X554Y509D01*
X552Y509D01*
X552Y517D01*
X550Y517D01*
X550Y679D01*
X548Y679D01*
X548Y869D01*
X420Y869D01*
X420Y1007D01*
X422Y1007D01*
X422Y1009D01*
X546Y1009D01*
X546Y1263D01*
X44Y1263D01*
G37*
D02*
G36*
X3434Y1263D02*
X3434Y1009D01*
X3558Y1009D01*
X3558Y1007D01*
X3560Y1007D01*
X3560Y869D01*
X3896Y869D01*
X3896Y1263D01*
X3434Y1263D01*
G37*
D02*
G36*
X1356Y1209D02*
X1356Y1207D01*
X1354Y1207D01*
X1354Y1205D01*
X1508Y1205D01*
X1508Y1203D01*
X1514Y1203D01*
X1514Y1201D01*
X1518Y1201D01*
X1518Y1199D01*
X1522Y1199D01*
X1522Y1197D01*
X1526Y1197D01*
X1526Y1195D01*
X1528Y1195D01*
X1528Y1193D01*
X1532Y1193D01*
X1532Y1191D01*
X1534Y1191D01*
X1534Y1189D01*
X1536Y1189D01*
X1536Y1187D01*
X1538Y1187D01*
X1538Y1185D01*
X1540Y1185D01*
X1540Y1183D01*
X1638Y1183D01*
X1638Y1185D01*
X1640Y1185D01*
X1640Y1187D01*
X1642Y1187D01*
X1642Y1189D01*
X1644Y1189D01*
X1644Y1191D01*
X1646Y1191D01*
X1646Y1193D01*
X1648Y1193D01*
X1648Y1195D01*
X1650Y1195D01*
X1650Y1197D01*
X1654Y1197D01*
X1654Y1199D01*
X1656Y1199D01*
X1656Y1201D01*
X1660Y1201D01*
X1660Y1203D01*
X1664Y1203D01*
X1664Y1205D01*
X1670Y1205D01*
X1670Y1207D01*
X1682Y1207D01*
X1682Y1209D01*
X1356Y1209D01*
G37*
D02*
G36*
X2164Y1209D02*
X2164Y1207D01*
X2166Y1207D01*
X2166Y1191D01*
X2168Y1191D01*
X2168Y1175D01*
X2170Y1175D01*
X2170Y1159D01*
X2172Y1159D01*
X2172Y1143D01*
X2174Y1143D01*
X2174Y1125D01*
X2176Y1125D01*
X2176Y1109D01*
X2178Y1109D01*
X2178Y1093D01*
X2180Y1093D01*
X2180Y1077D01*
X2182Y1077D01*
X2182Y1061D01*
X2184Y1061D01*
X2184Y1045D01*
X2186Y1045D01*
X2186Y1029D01*
X2188Y1029D01*
X2188Y1011D01*
X2190Y1011D01*
X2190Y995D01*
X2192Y995D01*
X2192Y979D01*
X2194Y979D01*
X2194Y969D01*
X2320Y969D01*
X2320Y1107D01*
X2322Y1107D01*
X2322Y1129D01*
X2320Y1129D01*
X2320Y1149D01*
X2322Y1149D01*
X2322Y1159D01*
X2324Y1159D01*
X2324Y1165D01*
X2326Y1165D01*
X2326Y1169D01*
X2328Y1169D01*
X2328Y1173D01*
X2330Y1173D01*
X2330Y1175D01*
X2332Y1175D01*
X2332Y1179D01*
X2334Y1179D01*
X2334Y1181D01*
X2336Y1181D01*
X2336Y1183D01*
X2338Y1183D01*
X2338Y1185D01*
X2340Y1185D01*
X2340Y1187D01*
X2342Y1187D01*
X2342Y1189D01*
X2344Y1189D01*
X2344Y1191D01*
X2346Y1191D01*
X2346Y1193D01*
X2348Y1193D01*
X2348Y1195D01*
X2350Y1195D01*
X2350Y1197D01*
X2354Y1197D01*
X2354Y1199D01*
X2356Y1199D01*
X2356Y1201D01*
X2360Y1201D01*
X2360Y1203D01*
X2364Y1203D01*
X2364Y1205D01*
X2370Y1205D01*
X2370Y1207D01*
X2382Y1207D01*
X2382Y1209D01*
X2164Y1209D01*
G37*
D02*
G36*
X1354Y1205D02*
X1354Y1203D01*
X1352Y1203D01*
X1352Y1183D01*
X1440Y1183D01*
X1440Y1185D01*
X1442Y1185D01*
X1442Y1187D01*
X1444Y1187D01*
X1444Y1189D01*
X1446Y1189D01*
X1446Y1191D01*
X1450Y1191D01*
X1450Y1193D01*
X1452Y1193D01*
X1452Y1195D01*
X1454Y1195D01*
X1454Y1197D01*
X1458Y1197D01*
X1458Y1199D01*
X1462Y1199D01*
X1462Y1201D01*
X1466Y1201D01*
X1466Y1203D01*
X1472Y1203D01*
X1472Y1205D01*
X1354Y1205D01*
G37*
D02*
G36*
X2416Y1205D02*
X2416Y1203D01*
X2420Y1203D01*
X2420Y1201D01*
X2424Y1201D01*
X2424Y1199D01*
X2428Y1199D01*
X2428Y1197D01*
X2430Y1197D01*
X2430Y1195D01*
X2432Y1195D01*
X2432Y1193D01*
X2436Y1193D01*
X2436Y1191D01*
X2438Y1191D01*
X2438Y1189D01*
X2440Y1189D01*
X2440Y1187D01*
X2442Y1187D01*
X2442Y1185D01*
X2444Y1185D01*
X2444Y1183D01*
X2640Y1183D01*
X2640Y1185D01*
X2642Y1185D01*
X2642Y1187D01*
X2644Y1187D01*
X2644Y1189D01*
X2646Y1189D01*
X2646Y1191D01*
X2650Y1191D01*
X2650Y1193D01*
X2652Y1193D01*
X2652Y1195D01*
X2654Y1195D01*
X2654Y1197D01*
X2658Y1197D01*
X2658Y1199D01*
X2662Y1199D01*
X2662Y1201D01*
X2666Y1201D01*
X2666Y1203D01*
X2672Y1203D01*
X2672Y1205D01*
X2416Y1205D01*
G37*
D02*
G36*
X1362Y1095D02*
X1362Y971D01*
X1476Y971D01*
X1476Y973D01*
X1468Y973D01*
X1468Y975D01*
X1464Y975D01*
X1464Y977D01*
X1460Y977D01*
X1460Y979D01*
X1456Y979D01*
X1456Y981D01*
X1454Y981D01*
X1454Y983D01*
X1450Y983D01*
X1450Y985D01*
X1448Y985D01*
X1448Y987D01*
X1446Y987D01*
X1446Y989D01*
X1444Y989D01*
X1444Y991D01*
X1442Y991D01*
X1442Y993D01*
X1440Y993D01*
X1440Y995D01*
X1438Y995D01*
X1438Y997D01*
X1436Y997D01*
X1436Y999D01*
X1434Y999D01*
X1434Y1003D01*
X1432Y1003D01*
X1432Y1005D01*
X1430Y1005D01*
X1430Y1009D01*
X1428Y1009D01*
X1428Y1013D01*
X1426Y1013D01*
X1426Y1019D01*
X1424Y1019D01*
X1424Y1057D01*
X1426Y1057D01*
X1426Y1063D01*
X1428Y1063D01*
X1428Y1067D01*
X1430Y1067D01*
X1430Y1071D01*
X1432Y1071D01*
X1432Y1075D01*
X1434Y1075D01*
X1434Y1095D01*
X1362Y1095D01*
G37*
D02*
G36*
X1546Y1095D02*
X1546Y1075D01*
X1548Y1075D01*
X1548Y1073D01*
X1550Y1073D01*
X1550Y1069D01*
X1552Y1069D01*
X1552Y1065D01*
X1554Y1065D01*
X1554Y1059D01*
X1556Y1059D01*
X1556Y1051D01*
X1558Y1051D01*
X1558Y1025D01*
X1556Y1025D01*
X1556Y1017D01*
X1554Y1017D01*
X1554Y1013D01*
X1552Y1013D01*
X1552Y1009D01*
X1550Y1009D01*
X1550Y1005D01*
X1548Y1005D01*
X1548Y1001D01*
X1546Y1001D01*
X1546Y999D01*
X1544Y999D01*
X1544Y997D01*
X1542Y997D01*
X1542Y993D01*
X1540Y993D01*
X1540Y991D01*
X1538Y991D01*
X1538Y989D01*
X1536Y989D01*
X1536Y987D01*
X1532Y987D01*
X1532Y985D01*
X1530Y985D01*
X1530Y983D01*
X1528Y983D01*
X1528Y981D01*
X1524Y981D01*
X1524Y979D01*
X1522Y979D01*
X1522Y977D01*
X1518Y977D01*
X1518Y975D01*
X1512Y975D01*
X1512Y973D01*
X1504Y973D01*
X1504Y971D01*
X1620Y971D01*
X1620Y1095D01*
X1546Y1095D01*
G37*
D02*
G36*
X2460Y1095D02*
X2460Y971D01*
X2676Y971D01*
X2676Y973D01*
X2668Y973D01*
X2668Y975D01*
X2664Y975D01*
X2664Y977D01*
X2660Y977D01*
X2660Y979D01*
X2656Y979D01*
X2656Y981D01*
X2654Y981D01*
X2654Y983D01*
X2650Y983D01*
X2650Y985D01*
X2648Y985D01*
X2648Y987D01*
X2646Y987D01*
X2646Y989D01*
X2644Y989D01*
X2644Y991D01*
X2642Y991D01*
X2642Y993D01*
X2640Y993D01*
X2640Y995D01*
X2638Y995D01*
X2638Y997D01*
X2636Y997D01*
X2636Y999D01*
X2634Y999D01*
X2634Y1003D01*
X2632Y1003D01*
X2632Y1005D01*
X2630Y1005D01*
X2630Y1009D01*
X2628Y1009D01*
X2628Y1013D01*
X2626Y1013D01*
X2626Y1019D01*
X2624Y1019D01*
X2624Y1057D01*
X2626Y1057D01*
X2626Y1063D01*
X2628Y1063D01*
X2628Y1067D01*
X2630Y1067D01*
X2630Y1071D01*
X2632Y1071D01*
X2632Y1075D01*
X2634Y1075D01*
X2634Y1095D01*
X2460Y1095D01*
G37*
D02*
G36*
X2746Y1095D02*
X2746Y1075D01*
X2748Y1075D01*
X2748Y1073D01*
X2750Y1073D01*
X2750Y1069D01*
X2752Y1069D01*
X2752Y1065D01*
X2754Y1065D01*
X2754Y1059D01*
X2756Y1059D01*
X2756Y1051D01*
X2758Y1051D01*
X2758Y1025D01*
X2756Y1025D01*
X2756Y1017D01*
X2754Y1017D01*
X2754Y1013D01*
X2752Y1013D01*
X2752Y1009D01*
X2750Y1009D01*
X2750Y1005D01*
X2748Y1005D01*
X2748Y1001D01*
X2746Y1001D01*
X2746Y999D01*
X2744Y999D01*
X2744Y997D01*
X2742Y997D01*
X2742Y993D01*
X2740Y993D01*
X2740Y991D01*
X2738Y991D01*
X2738Y989D01*
X2736Y989D01*
X2736Y987D01*
X2732Y987D01*
X2732Y985D01*
X2730Y985D01*
X2730Y983D01*
X2728Y983D01*
X2728Y981D01*
X2724Y981D01*
X2724Y979D01*
X2722Y979D01*
X2722Y977D01*
X2718Y977D01*
X2718Y975D01*
X2712Y975D01*
X2712Y973D01*
X2704Y973D01*
X2704Y971D01*
X2820Y971D01*
X2820Y1095D01*
X2746Y1095D01*
G37*
D02*
G36*
X1196Y1065D02*
X1196Y1063D01*
X1188Y1063D01*
X1188Y1061D01*
X1182Y1061D01*
X1182Y1059D01*
X1174Y1059D01*
X1174Y1057D01*
X1168Y1057D01*
X1168Y1055D01*
X1160Y1055D01*
X1160Y1053D01*
X1154Y1053D01*
X1154Y1051D01*
X1146Y1051D01*
X1146Y1049D01*
X1140Y1049D01*
X1140Y1047D01*
X1132Y1047D01*
X1132Y1045D01*
X1126Y1045D01*
X1126Y1043D01*
X1118Y1043D01*
X1118Y1041D01*
X1112Y1041D01*
X1112Y1039D01*
X1104Y1039D01*
X1104Y1037D01*
X1098Y1037D01*
X1098Y1035D01*
X1090Y1035D01*
X1090Y1033D01*
X1084Y1033D01*
X1084Y1031D01*
X1076Y1031D01*
X1076Y1029D01*
X1070Y1029D01*
X1070Y1027D01*
X1062Y1027D01*
X1062Y1025D01*
X1056Y1025D01*
X1056Y1023D01*
X1048Y1023D01*
X1048Y1021D01*
X1042Y1021D01*
X1042Y1019D01*
X1034Y1019D01*
X1034Y1017D01*
X1028Y1017D01*
X1028Y1015D01*
X1020Y1015D01*
X1020Y1013D01*
X1014Y1013D01*
X1014Y1011D01*
X1006Y1011D01*
X1006Y1009D01*
X1000Y1009D01*
X1000Y1007D01*
X992Y1007D01*
X992Y1005D01*
X986Y1005D01*
X986Y1003D01*
X978Y1003D01*
X978Y1001D01*
X972Y1001D01*
X972Y999D01*
X964Y999D01*
X964Y997D01*
X958Y997D01*
X958Y995D01*
X950Y995D01*
X950Y993D01*
X944Y993D01*
X944Y991D01*
X936Y991D01*
X936Y989D01*
X930Y989D01*
X930Y987D01*
X922Y987D01*
X922Y985D01*
X916Y985D01*
X916Y983D01*
X908Y983D01*
X908Y981D01*
X902Y981D01*
X902Y979D01*
X894Y979D01*
X894Y977D01*
X888Y977D01*
X888Y975D01*
X880Y975D01*
X880Y973D01*
X874Y973D01*
X874Y971D01*
X866Y971D01*
X866Y969D01*
X860Y969D01*
X860Y967D01*
X1220Y967D01*
X1220Y1065D01*
X1196Y1065D01*
G37*
D02*
G36*
X2962Y1053D02*
X2962Y967D01*
X3192Y967D01*
X3192Y969D01*
X3188Y969D01*
X3188Y971D01*
X3182Y971D01*
X3182Y973D01*
X3178Y973D01*
X3178Y975D01*
X3172Y975D01*
X3172Y977D01*
X3168Y977D01*
X3168Y979D01*
X3162Y979D01*
X3162Y981D01*
X3158Y981D01*
X3158Y983D01*
X3152Y983D01*
X3152Y985D01*
X3148Y985D01*
X3148Y987D01*
X3142Y987D01*
X3142Y989D01*
X3138Y989D01*
X3138Y991D01*
X3132Y991D01*
X3132Y993D01*
X3128Y993D01*
X3128Y995D01*
X3122Y995D01*
X3122Y997D01*
X3118Y997D01*
X3118Y999D01*
X3112Y999D01*
X3112Y1001D01*
X3108Y1001D01*
X3108Y1003D01*
X3102Y1003D01*
X3102Y1005D01*
X3098Y1005D01*
X3098Y1007D01*
X3092Y1007D01*
X3092Y1009D01*
X3088Y1009D01*
X3088Y1011D01*
X3082Y1011D01*
X3082Y1013D01*
X3078Y1013D01*
X3078Y1015D01*
X3072Y1015D01*
X3072Y1017D01*
X3068Y1017D01*
X3068Y1019D01*
X3062Y1019D01*
X3062Y1021D01*
X3058Y1021D01*
X3058Y1023D01*
X3052Y1023D01*
X3052Y1025D01*
X3048Y1025D01*
X3048Y1027D01*
X3042Y1027D01*
X3042Y1029D01*
X3038Y1029D01*
X3038Y1031D01*
X3032Y1031D01*
X3032Y1033D01*
X3028Y1033D01*
X3028Y1035D01*
X3022Y1035D01*
X3022Y1037D01*
X3018Y1037D01*
X3018Y1039D01*
X3012Y1039D01*
X3012Y1041D01*
X3008Y1041D01*
X3008Y1043D01*
X3002Y1043D01*
X3002Y1045D01*
X2998Y1045D01*
X2998Y1047D01*
X2992Y1047D01*
X2992Y1049D01*
X2988Y1049D01*
X2988Y1051D01*
X2982Y1051D01*
X2982Y1053D01*
X2962Y1053D01*
G37*
D02*
G36*
X1362Y971D02*
X1362Y969D01*
X1620Y969D01*
X1620Y971D01*
X1362Y971D01*
G37*
D02*
G36*
X1362Y971D02*
X1362Y969D01*
X1620Y969D01*
X1620Y971D01*
X1362Y971D01*
G37*
D02*
G36*
X2460Y971D02*
X2460Y969D01*
X2820Y969D01*
X2820Y971D01*
X2460Y971D01*
G37*
D02*
G36*
X2460Y971D02*
X2460Y969D01*
X2820Y969D01*
X2820Y971D01*
X2460Y971D01*
G37*
D02*
G36*
X1362Y969D02*
X1362Y967D01*
X2008Y967D01*
X2008Y969D01*
X1362Y969D01*
G37*
D02*
G36*
X1362Y969D02*
X1362Y967D01*
X2008Y967D01*
X2008Y969D01*
X1362Y969D01*
G37*
D02*
G36*
X2194Y969D02*
X2194Y967D01*
X2820Y967D01*
X2820Y969D01*
X2194Y969D01*
G37*
D02*
G36*
X2194Y969D02*
X2194Y967D01*
X2820Y967D01*
X2820Y969D01*
X2194Y969D01*
G37*
D02*
G36*
X852Y967D02*
X852Y965D01*
X2008Y965D01*
X2008Y967D01*
X852Y967D01*
G37*
D02*
G36*
X852Y967D02*
X852Y965D01*
X2008Y965D01*
X2008Y967D01*
X852Y967D01*
G37*
D02*
G36*
X2194Y967D02*
X2194Y965D01*
X3198Y965D01*
X3198Y967D01*
X2194Y967D01*
G37*
D02*
G36*
X2194Y967D02*
X2194Y965D01*
X3198Y965D01*
X3198Y967D01*
X2194Y967D01*
G37*
D02*
G36*
X846Y965D02*
X846Y963D01*
X838Y963D01*
X838Y961D01*
X832Y961D01*
X832Y959D01*
X824Y959D01*
X824Y957D01*
X818Y957D01*
X818Y955D01*
X810Y955D01*
X810Y953D01*
X804Y953D01*
X804Y951D01*
X796Y951D01*
X796Y949D01*
X790Y949D01*
X790Y947D01*
X782Y947D01*
X782Y945D01*
X776Y945D01*
X776Y943D01*
X768Y943D01*
X768Y941D01*
X762Y941D01*
X762Y939D01*
X754Y939D01*
X754Y937D01*
X748Y937D01*
X748Y935D01*
X740Y935D01*
X740Y933D01*
X734Y933D01*
X734Y931D01*
X726Y931D01*
X726Y929D01*
X720Y929D01*
X720Y927D01*
X712Y927D01*
X712Y925D01*
X706Y925D01*
X706Y923D01*
X698Y923D01*
X698Y921D01*
X692Y921D01*
X692Y919D01*
X684Y919D01*
X684Y917D01*
X678Y917D01*
X678Y915D01*
X670Y915D01*
X670Y913D01*
X664Y913D01*
X664Y911D01*
X656Y911D01*
X656Y909D01*
X654Y909D01*
X654Y907D01*
X652Y907D01*
X652Y903D01*
X650Y903D01*
X650Y901D01*
X648Y901D01*
X648Y897D01*
X646Y897D01*
X646Y895D01*
X644Y895D01*
X644Y893D01*
X642Y893D01*
X642Y891D01*
X640Y891D01*
X640Y889D01*
X638Y889D01*
X638Y887D01*
X636Y887D01*
X636Y709D01*
X1308Y709D01*
X1308Y707D01*
X1316Y707D01*
X1316Y705D01*
X1320Y705D01*
X1320Y703D01*
X1324Y703D01*
X1324Y701D01*
X1328Y701D01*
X1328Y699D01*
X1330Y699D01*
X1330Y697D01*
X1332Y697D01*
X1332Y695D01*
X1336Y695D01*
X1336Y693D01*
X1338Y693D01*
X1338Y691D01*
X1340Y691D01*
X1340Y689D01*
X1342Y689D01*
X1342Y687D01*
X1344Y687D01*
X1344Y685D01*
X1346Y685D01*
X1346Y683D01*
X1430Y683D01*
X1430Y685D01*
X1630Y685D01*
X1630Y687D01*
X1830Y687D01*
X1830Y689D01*
X2030Y689D01*
X2030Y691D01*
X2036Y691D01*
X2036Y715D01*
X2034Y715D01*
X2034Y733D01*
X2032Y733D01*
X2032Y751D01*
X2030Y751D01*
X2030Y769D01*
X2028Y769D01*
X2028Y787D01*
X2026Y787D01*
X2026Y807D01*
X2024Y807D01*
X2024Y825D01*
X2022Y825D01*
X2022Y843D01*
X2020Y843D01*
X2020Y861D01*
X2018Y861D01*
X2018Y879D01*
X2016Y879D01*
X2016Y899D01*
X2014Y899D01*
X2014Y917D01*
X2012Y917D01*
X2012Y935D01*
X2010Y935D01*
X2010Y953D01*
X2008Y953D01*
X2008Y965D01*
X846Y965D01*
G37*
D02*
G36*
X2194Y965D02*
X2194Y963D01*
X2196Y963D01*
X2196Y947D01*
X2198Y947D01*
X2198Y931D01*
X2200Y931D01*
X2200Y915D01*
X2202Y915D01*
X2202Y899D01*
X2204Y899D01*
X2204Y881D01*
X2206Y881D01*
X2206Y869D01*
X3374Y869D01*
X3374Y871D01*
X3368Y871D01*
X3368Y873D01*
X3362Y873D01*
X3362Y875D01*
X3358Y875D01*
X3358Y877D01*
X3354Y877D01*
X3354Y879D01*
X3352Y879D01*
X3352Y881D01*
X3350Y881D01*
X3350Y883D01*
X3346Y883D01*
X3346Y885D01*
X3344Y885D01*
X3344Y887D01*
X3342Y887D01*
X3342Y889D01*
X3340Y889D01*
X3340Y891D01*
X3338Y891D01*
X3338Y893D01*
X3336Y893D01*
X3336Y895D01*
X3334Y895D01*
X3334Y899D01*
X3332Y899D01*
X3332Y901D01*
X3330Y901D01*
X3330Y905D01*
X3328Y905D01*
X3328Y909D01*
X3326Y909D01*
X3326Y913D01*
X3324Y913D01*
X3324Y915D01*
X3322Y915D01*
X3322Y917D01*
X3318Y917D01*
X3318Y919D01*
X3312Y919D01*
X3312Y921D01*
X3308Y921D01*
X3308Y923D01*
X3302Y923D01*
X3302Y925D01*
X3298Y925D01*
X3298Y927D01*
X3292Y927D01*
X3292Y929D01*
X3288Y929D01*
X3288Y931D01*
X3282Y931D01*
X3282Y933D01*
X3278Y933D01*
X3278Y935D01*
X3272Y935D01*
X3272Y937D01*
X3268Y937D01*
X3268Y939D01*
X3262Y939D01*
X3262Y941D01*
X3258Y941D01*
X3258Y943D01*
X3252Y943D01*
X3252Y945D01*
X3248Y945D01*
X3248Y947D01*
X3242Y947D01*
X3242Y949D01*
X3238Y949D01*
X3238Y951D01*
X3232Y951D01*
X3232Y953D01*
X3228Y953D01*
X3228Y955D01*
X3222Y955D01*
X3222Y957D01*
X3218Y957D01*
X3218Y959D01*
X3212Y959D01*
X3212Y961D01*
X3208Y961D01*
X3208Y963D01*
X3202Y963D01*
X3202Y965D01*
X2194Y965D01*
G37*
D02*
G36*
X2206Y869D02*
X2206Y867D01*
X3896Y867D01*
X3896Y869D01*
X2206Y869D01*
G37*
D02*
G36*
X2206Y869D02*
X2206Y867D01*
X3896Y867D01*
X3896Y869D01*
X2206Y869D01*
G37*
D02*
G36*
X2206Y867D02*
X2206Y865D01*
X2208Y865D01*
X2208Y849D01*
X2210Y849D01*
X2210Y833D01*
X2212Y833D01*
X2212Y825D01*
X3504Y825D01*
X3504Y823D01*
X3510Y823D01*
X3510Y821D01*
X3514Y821D01*
X3514Y819D01*
X3518Y819D01*
X3518Y817D01*
X3520Y817D01*
X3520Y815D01*
X3522Y815D01*
X3522Y813D01*
X3524Y813D01*
X3524Y811D01*
X3526Y811D01*
X3526Y809D01*
X3528Y809D01*
X3528Y807D01*
X3530Y807D01*
X3530Y805D01*
X3532Y805D01*
X3532Y803D01*
X3534Y803D01*
X3534Y799D01*
X3536Y799D01*
X3536Y795D01*
X3538Y795D01*
X3538Y791D01*
X3540Y791D01*
X3540Y757D01*
X3538Y757D01*
X3538Y751D01*
X3536Y751D01*
X3536Y747D01*
X3534Y747D01*
X3534Y745D01*
X3532Y745D01*
X3532Y743D01*
X3530Y743D01*
X3530Y739D01*
X3528Y739D01*
X3528Y737D01*
X3526Y737D01*
X3526Y735D01*
X3524Y735D01*
X3524Y733D01*
X3520Y733D01*
X3520Y731D01*
X3518Y731D01*
X3518Y729D01*
X3516Y729D01*
X3516Y727D01*
X3512Y727D01*
X3512Y725D01*
X3506Y725D01*
X3506Y723D01*
X3498Y723D01*
X3498Y721D01*
X3896Y721D01*
X3896Y867D01*
X2206Y867D01*
G37*
D02*
G36*
X2212Y825D02*
X2212Y817D01*
X2214Y817D01*
X2214Y801D01*
X2216Y801D01*
X2216Y785D01*
X2218Y785D01*
X2218Y769D01*
X2220Y769D01*
X2220Y751D01*
X2222Y751D01*
X2222Y735D01*
X2224Y735D01*
X2224Y721D01*
X3482Y721D01*
X3482Y723D01*
X3472Y723D01*
X3472Y725D01*
X3466Y725D01*
X3466Y727D01*
X3464Y727D01*
X3464Y729D01*
X3460Y729D01*
X3460Y731D01*
X3458Y731D01*
X3458Y733D01*
X3454Y733D01*
X3454Y735D01*
X3452Y735D01*
X3452Y737D01*
X3450Y737D01*
X3450Y741D01*
X3448Y741D01*
X3448Y743D01*
X3446Y743D01*
X3446Y745D01*
X3444Y745D01*
X3444Y749D01*
X3442Y749D01*
X3442Y753D01*
X3440Y753D01*
X3440Y757D01*
X3438Y757D01*
X3438Y791D01*
X3440Y791D01*
X3440Y795D01*
X3442Y795D01*
X3442Y799D01*
X3444Y799D01*
X3444Y803D01*
X3446Y803D01*
X3446Y805D01*
X3448Y805D01*
X3448Y807D01*
X3450Y807D01*
X3450Y809D01*
X3452Y809D01*
X3452Y811D01*
X3454Y811D01*
X3454Y813D01*
X3456Y813D01*
X3456Y815D01*
X3458Y815D01*
X3458Y817D01*
X3462Y817D01*
X3462Y819D01*
X3464Y819D01*
X3464Y821D01*
X3468Y821D01*
X3468Y823D01*
X3474Y823D01*
X3474Y825D01*
X2212Y825D01*
G37*
D02*
G36*
X2224Y721D02*
X2224Y719D01*
X3896Y719D01*
X3896Y721D01*
X2224Y721D01*
G37*
D02*
G36*
X2224Y721D02*
X2224Y719D01*
X3896Y719D01*
X3896Y721D01*
X2224Y721D01*
G37*
D02*
G36*
X2226Y719D02*
X2226Y709D01*
X2908Y709D01*
X2908Y707D01*
X2916Y707D01*
X2916Y705D01*
X2920Y705D01*
X2920Y703D01*
X2924Y703D01*
X2924Y701D01*
X2928Y701D01*
X2928Y699D01*
X2930Y699D01*
X2930Y697D01*
X2932Y697D01*
X2932Y695D01*
X2936Y695D01*
X2936Y693D01*
X2938Y693D01*
X2938Y691D01*
X2940Y691D01*
X2940Y689D01*
X2942Y689D01*
X2942Y687D01*
X2944Y687D01*
X2944Y685D01*
X2946Y685D01*
X2946Y683D01*
X2948Y683D01*
X2948Y679D01*
X2950Y679D01*
X2950Y677D01*
X2952Y677D01*
X2952Y673D01*
X2954Y673D01*
X2954Y669D01*
X2956Y669D01*
X2956Y665D01*
X2958Y665D01*
X2958Y661D01*
X2960Y661D01*
X2960Y651D01*
X2962Y651D01*
X2962Y625D01*
X2960Y625D01*
X2960Y617D01*
X2958Y617D01*
X2958Y611D01*
X2956Y611D01*
X2956Y607D01*
X2954Y607D01*
X2954Y603D01*
X2952Y603D01*
X2952Y601D01*
X2950Y601D01*
X2950Y577D01*
X2952Y577D01*
X2952Y573D01*
X2954Y573D01*
X2954Y569D01*
X2956Y569D01*
X2956Y565D01*
X2958Y565D01*
X2958Y561D01*
X2960Y561D01*
X2960Y551D01*
X2962Y551D01*
X2962Y367D01*
X3896Y367D01*
X3896Y719D01*
X2226Y719D01*
G37*
D02*
G36*
X636Y709D02*
X636Y693D01*
X638Y693D01*
X638Y573D01*
X690Y573D01*
X690Y575D01*
X828Y575D01*
X828Y577D01*
X968Y577D01*
X968Y579D01*
X1108Y579D01*
X1108Y581D01*
X1230Y581D01*
X1230Y601D01*
X1228Y601D01*
X1228Y605D01*
X1226Y605D01*
X1226Y609D01*
X1224Y609D01*
X1224Y613D01*
X1222Y613D01*
X1222Y619D01*
X1220Y619D01*
X1220Y657D01*
X1222Y657D01*
X1222Y663D01*
X1224Y663D01*
X1224Y669D01*
X1226Y669D01*
X1226Y673D01*
X1228Y673D01*
X1228Y675D01*
X1230Y675D01*
X1230Y679D01*
X1232Y679D01*
X1232Y681D01*
X1234Y681D01*
X1234Y683D01*
X1236Y683D01*
X1236Y685D01*
X1238Y685D01*
X1238Y689D01*
X1240Y689D01*
X1240Y691D01*
X1244Y691D01*
X1244Y693D01*
X1246Y693D01*
X1246Y695D01*
X1248Y695D01*
X1248Y697D01*
X1250Y697D01*
X1250Y699D01*
X1254Y699D01*
X1254Y701D01*
X1258Y701D01*
X1258Y703D01*
X1260Y703D01*
X1260Y705D01*
X1266Y705D01*
X1266Y707D01*
X1272Y707D01*
X1272Y709D01*
X636Y709D01*
G37*
D02*
G36*
X2226Y709D02*
X2226Y703D01*
X2228Y703D01*
X2228Y693D01*
X2306Y693D01*
X2306Y691D01*
X2430Y691D01*
X2430Y689D01*
X2554Y689D01*
X2554Y687D01*
X2680Y687D01*
X2680Y685D01*
X2804Y685D01*
X2804Y683D01*
X2836Y683D01*
X2836Y685D01*
X2838Y685D01*
X2838Y689D01*
X2840Y689D01*
X2840Y691D01*
X2844Y691D01*
X2844Y693D01*
X2846Y693D01*
X2846Y695D01*
X2848Y695D01*
X2848Y697D01*
X2850Y697D01*
X2850Y699D01*
X2854Y699D01*
X2854Y701D01*
X2858Y701D01*
X2858Y703D01*
X2860Y703D01*
X2860Y705D01*
X2866Y705D01*
X2866Y707D01*
X2872Y707D01*
X2872Y709D01*
X2226Y709D01*
G37*
D02*
G36*
X2128Y627D02*
X2128Y623D01*
X2126Y623D01*
X2126Y619D01*
X2124Y619D01*
X2124Y617D01*
X2122Y617D01*
X2122Y613D01*
X2120Y613D01*
X2120Y611D01*
X2116Y611D01*
X2116Y609D01*
X2114Y609D01*
X2114Y607D01*
X2110Y607D01*
X2110Y605D01*
X2104Y605D01*
X2104Y603D01*
X2046Y603D01*
X2046Y601D01*
X1846Y601D01*
X1846Y599D01*
X1746Y599D01*
X1746Y579D01*
X1748Y579D01*
X1748Y577D01*
X1750Y577D01*
X1750Y573D01*
X1752Y573D01*
X1752Y571D01*
X1754Y571D01*
X1754Y567D01*
X1756Y567D01*
X1756Y561D01*
X1758Y561D01*
X1758Y555D01*
X1760Y555D01*
X1760Y369D01*
X2320Y369D01*
X2320Y507D01*
X2322Y507D01*
X2322Y529D01*
X2320Y529D01*
X2320Y549D01*
X2322Y549D01*
X2322Y559D01*
X2324Y559D01*
X2324Y565D01*
X2326Y565D01*
X2326Y569D01*
X2328Y569D01*
X2328Y573D01*
X2330Y573D01*
X2330Y575D01*
X2332Y575D01*
X2332Y579D01*
X2334Y579D01*
X2334Y581D01*
X2336Y581D01*
X2336Y583D01*
X2338Y583D01*
X2338Y603D01*
X2290Y603D01*
X2290Y605D01*
X2178Y605D01*
X2178Y607D01*
X2168Y607D01*
X2168Y609D01*
X2164Y609D01*
X2164Y611D01*
X2160Y611D01*
X2160Y613D01*
X2158Y613D01*
X2158Y615D01*
X2156Y615D01*
X2156Y617D01*
X2154Y617D01*
X2154Y619D01*
X2152Y619D01*
X2152Y621D01*
X2150Y621D01*
X2150Y625D01*
X2148Y625D01*
X2148Y627D01*
X2128Y627D01*
G37*
D02*
G36*
X1362Y495D02*
X1362Y371D01*
X1476Y371D01*
X1476Y373D01*
X1468Y373D01*
X1468Y375D01*
X1464Y375D01*
X1464Y377D01*
X1460Y377D01*
X1460Y379D01*
X1456Y379D01*
X1456Y381D01*
X1454Y381D01*
X1454Y383D01*
X1450Y383D01*
X1450Y385D01*
X1448Y385D01*
X1448Y387D01*
X1446Y387D01*
X1446Y389D01*
X1444Y389D01*
X1444Y391D01*
X1442Y391D01*
X1442Y393D01*
X1440Y393D01*
X1440Y395D01*
X1438Y395D01*
X1438Y397D01*
X1436Y397D01*
X1436Y399D01*
X1434Y399D01*
X1434Y403D01*
X1432Y403D01*
X1432Y405D01*
X1430Y405D01*
X1430Y409D01*
X1428Y409D01*
X1428Y413D01*
X1426Y413D01*
X1426Y419D01*
X1424Y419D01*
X1424Y457D01*
X1426Y457D01*
X1426Y463D01*
X1428Y463D01*
X1428Y467D01*
X1430Y467D01*
X1430Y471D01*
X1432Y471D01*
X1432Y475D01*
X1434Y475D01*
X1434Y495D01*
X1362Y495D01*
G37*
D02*
G36*
X1546Y495D02*
X1546Y475D01*
X1548Y475D01*
X1548Y473D01*
X1550Y473D01*
X1550Y469D01*
X1552Y469D01*
X1552Y465D01*
X1554Y465D01*
X1554Y459D01*
X1556Y459D01*
X1556Y451D01*
X1558Y451D01*
X1558Y425D01*
X1556Y425D01*
X1556Y417D01*
X1554Y417D01*
X1554Y413D01*
X1552Y413D01*
X1552Y409D01*
X1550Y409D01*
X1550Y405D01*
X1548Y405D01*
X1548Y401D01*
X1546Y401D01*
X1546Y399D01*
X1544Y399D01*
X1544Y397D01*
X1542Y397D01*
X1542Y393D01*
X1540Y393D01*
X1540Y391D01*
X1538Y391D01*
X1538Y389D01*
X1536Y389D01*
X1536Y387D01*
X1532Y387D01*
X1532Y385D01*
X1530Y385D01*
X1530Y383D01*
X1528Y383D01*
X1528Y381D01*
X1524Y381D01*
X1524Y379D01*
X1522Y379D01*
X1522Y377D01*
X1518Y377D01*
X1518Y375D01*
X1512Y375D01*
X1512Y373D01*
X1504Y373D01*
X1504Y371D01*
X1620Y371D01*
X1620Y495D01*
X1546Y495D01*
G37*
D02*
G36*
X2460Y495D02*
X2460Y371D01*
X2676Y371D01*
X2676Y373D01*
X2668Y373D01*
X2668Y375D01*
X2664Y375D01*
X2664Y377D01*
X2660Y377D01*
X2660Y379D01*
X2656Y379D01*
X2656Y381D01*
X2654Y381D01*
X2654Y383D01*
X2650Y383D01*
X2650Y385D01*
X2648Y385D01*
X2648Y387D01*
X2646Y387D01*
X2646Y389D01*
X2644Y389D01*
X2644Y391D01*
X2642Y391D01*
X2642Y393D01*
X2640Y393D01*
X2640Y395D01*
X2638Y395D01*
X2638Y397D01*
X2636Y397D01*
X2636Y399D01*
X2634Y399D01*
X2634Y403D01*
X2632Y403D01*
X2632Y405D01*
X2630Y405D01*
X2630Y409D01*
X2628Y409D01*
X2628Y413D01*
X2626Y413D01*
X2626Y419D01*
X2624Y419D01*
X2624Y457D01*
X2626Y457D01*
X2626Y463D01*
X2628Y463D01*
X2628Y467D01*
X2630Y467D01*
X2630Y471D01*
X2632Y471D01*
X2632Y475D01*
X2634Y475D01*
X2634Y495D01*
X2460Y495D01*
G37*
D02*
G36*
X2746Y495D02*
X2746Y475D01*
X2748Y475D01*
X2748Y473D01*
X2750Y473D01*
X2750Y469D01*
X2752Y469D01*
X2752Y465D01*
X2754Y465D01*
X2754Y459D01*
X2756Y459D01*
X2756Y451D01*
X2758Y451D01*
X2758Y425D01*
X2756Y425D01*
X2756Y417D01*
X2754Y417D01*
X2754Y413D01*
X2752Y413D01*
X2752Y409D01*
X2750Y409D01*
X2750Y405D01*
X2748Y405D01*
X2748Y401D01*
X2746Y401D01*
X2746Y399D01*
X2744Y399D01*
X2744Y397D01*
X2742Y397D01*
X2742Y393D01*
X2740Y393D01*
X2740Y391D01*
X2738Y391D01*
X2738Y389D01*
X2736Y389D01*
X2736Y387D01*
X2732Y387D01*
X2732Y385D01*
X2730Y385D01*
X2730Y383D01*
X2728Y383D01*
X2728Y381D01*
X2724Y381D01*
X2724Y379D01*
X2722Y379D01*
X2722Y377D01*
X2718Y377D01*
X2718Y375D01*
X2712Y375D01*
X2712Y373D01*
X2704Y373D01*
X2704Y371D01*
X2820Y371D01*
X2820Y495D01*
X2746Y495D01*
G37*
D02*
G36*
X1122Y493D02*
X1122Y491D01*
X1068Y491D01*
X1068Y471D01*
X1070Y471D01*
X1070Y469D01*
X1074Y469D01*
X1074Y467D01*
X1076Y467D01*
X1076Y465D01*
X1078Y465D01*
X1078Y463D01*
X1080Y463D01*
X1080Y461D01*
X1082Y461D01*
X1082Y459D01*
X1084Y459D01*
X1084Y455D01*
X1086Y455D01*
X1086Y453D01*
X1088Y453D01*
X1088Y449D01*
X1090Y449D01*
X1090Y443D01*
X1092Y443D01*
X1092Y411D01*
X1090Y411D01*
X1090Y405D01*
X1088Y405D01*
X1088Y403D01*
X1086Y403D01*
X1086Y399D01*
X1084Y399D01*
X1084Y397D01*
X1082Y397D01*
X1082Y393D01*
X1080Y393D01*
X1080Y391D01*
X1078Y391D01*
X1078Y389D01*
X1076Y389D01*
X1076Y387D01*
X1074Y387D01*
X1074Y385D01*
X1070Y385D01*
X1070Y383D01*
X1068Y383D01*
X1068Y381D01*
X1064Y381D01*
X1064Y379D01*
X1060Y379D01*
X1060Y377D01*
X1054Y377D01*
X1054Y375D01*
X1220Y375D01*
X1220Y493D01*
X1122Y493D01*
G37*
D02*
G36*
X982Y491D02*
X982Y489D01*
X844Y489D01*
X844Y487D01*
X704Y487D01*
X704Y485D01*
X1014Y485D01*
X1014Y491D01*
X982Y491D01*
G37*
D02*
G36*
X44Y485D02*
X44Y483D01*
X1014Y483D01*
X1014Y485D01*
X44Y485D01*
G37*
D02*
G36*
X44Y485D02*
X44Y483D01*
X1014Y483D01*
X1014Y485D01*
X44Y485D01*
G37*
D02*
G36*
X44Y483D02*
X44Y375D01*
X1028Y375D01*
X1028Y377D01*
X1022Y377D01*
X1022Y379D01*
X1018Y379D01*
X1018Y381D01*
X1014Y381D01*
X1014Y383D01*
X1010Y383D01*
X1010Y385D01*
X1008Y385D01*
X1008Y387D01*
X1006Y387D01*
X1006Y389D01*
X1004Y389D01*
X1004Y391D01*
X1002Y391D01*
X1002Y393D01*
X1000Y393D01*
X1000Y395D01*
X998Y395D01*
X998Y399D01*
X996Y399D01*
X996Y401D01*
X994Y401D01*
X994Y405D01*
X992Y405D01*
X992Y409D01*
X990Y409D01*
X990Y445D01*
X992Y445D01*
X992Y449D01*
X994Y449D01*
X994Y453D01*
X996Y453D01*
X996Y457D01*
X998Y457D01*
X998Y459D01*
X1000Y459D01*
X1000Y461D01*
X1002Y461D01*
X1002Y463D01*
X1004Y463D01*
X1004Y465D01*
X1006Y465D01*
X1006Y467D01*
X1008Y467D01*
X1008Y469D01*
X1010Y469D01*
X1010Y471D01*
X1014Y471D01*
X1014Y483D01*
X44Y483D01*
G37*
D02*
G36*
X44Y375D02*
X44Y373D01*
X1220Y373D01*
X1220Y375D01*
X44Y375D01*
G37*
D02*
G36*
X44Y375D02*
X44Y373D01*
X1220Y373D01*
X1220Y375D01*
X44Y375D01*
G37*
D02*
G36*
X44Y373D02*
X44Y367D01*
X1220Y367D01*
X1220Y373D01*
X44Y373D01*
G37*
D02*
G36*
X1362Y371D02*
X1362Y369D01*
X1620Y369D01*
X1620Y371D01*
X1362Y371D01*
G37*
D02*
G36*
X1362Y371D02*
X1362Y369D01*
X1620Y369D01*
X1620Y371D01*
X1362Y371D01*
G37*
D02*
G36*
X2460Y371D02*
X2460Y369D01*
X2820Y369D01*
X2820Y371D01*
X2460Y371D01*
G37*
D02*
G36*
X2460Y371D02*
X2460Y369D01*
X2820Y369D01*
X2820Y371D01*
X2460Y371D01*
G37*
D02*
G36*
X1362Y369D02*
X1362Y367D01*
X2820Y367D01*
X2820Y369D01*
X1362Y369D01*
G37*
D02*
G36*
X1362Y369D02*
X1362Y367D01*
X2820Y367D01*
X2820Y369D01*
X1362Y369D01*
G37*
D02*
G36*
X1362Y369D02*
X1362Y367D01*
X2820Y367D01*
X2820Y369D01*
X1362Y369D01*
G37*
D02*
G36*
X44Y367D02*
X44Y365D01*
X3896Y365D01*
X3896Y367D01*
X44Y367D01*
G37*
D02*
G36*
X44Y367D02*
X44Y365D01*
X3896Y365D01*
X3896Y367D01*
X44Y367D01*
G37*
D02*
G36*
X44Y367D02*
X44Y365D01*
X3896Y365D01*
X3896Y367D01*
X44Y367D01*
G37*
D02*
G36*
X44Y365D02*
X44Y43D01*
X3896Y43D01*
X3896Y365D01*
X44Y365D01*
G37*
D02*
G36*
X1270Y1023D02*
X1309Y1023D01*
X1309Y967D01*
X1270Y967D01*
X1270Y1023D01*
G37*
D02*
G36*
X1216Y1061D02*
X1270Y1061D01*
X1270Y1022D01*
X1216Y1022D01*
X1216Y1061D01*
G37*
D02*
G36*
X1470Y1027D02*
X1505Y1027D01*
X1505Y971D01*
X1470Y971D01*
X1470Y1027D01*
G37*
D02*
G36*
X1669Y1025D02*
X1706Y1025D01*
X1706Y969D01*
X1669Y969D01*
X1669Y1025D01*
G37*
D02*
G36*
X1704Y1060D02*
X1760Y1060D01*
X1760Y1023D01*
X1704Y1023D01*
X1704Y1060D01*
G37*
D02*
G36*
X1030Y483D02*
X1049Y483D01*
X1049Y437D01*
X1030Y437D01*
X1030Y483D01*
G37*
D02*
G36*
X1030Y423D02*
X1049Y423D01*
X1049Y375D01*
X1030Y375D01*
X1030Y423D01*
G37*
D02*
G36*
X986Y439D02*
X1032Y439D01*
X1032Y420D01*
X986Y420D01*
X986Y439D01*
G37*
D02*
G36*
X1470Y427D02*
X1505Y427D01*
X1505Y371D01*
X1470Y371D01*
X1470Y427D01*
G37*
D02*
G36*
X471Y925D02*
X508Y925D01*
X508Y869D01*
X471Y869D01*
X471Y925D01*
G37*
D02*
G36*
X970Y1921D02*
X1009Y1921D01*
X1009Y1867D01*
X970Y1867D01*
X970Y1921D01*
G37*
D02*
G36*
X1008Y1959D02*
X1062Y1959D01*
X1062Y1920D01*
X1008Y1920D01*
X1008Y1959D01*
G37*
D02*
G36*
X469Y1415D02*
X510Y1415D01*
X510Y1363D01*
X469Y1363D01*
X469Y1415D01*
G37*
D02*
G36*
X1669Y425D02*
X1706Y425D01*
X1706Y369D01*
X1669Y369D01*
X1669Y425D01*
G37*
D02*
G36*
X1704Y460D02*
X1760Y460D01*
X1760Y423D01*
X1704Y423D01*
X1704Y460D01*
G37*
D02*
G36*
X571Y1923D02*
X608Y1923D01*
X608Y1869D01*
X571Y1869D01*
X571Y1923D01*
G37*
D02*
G36*
X571Y2623D02*
X608Y2623D01*
X608Y2569D01*
X571Y2569D01*
X571Y2623D01*
G37*
D02*
G36*
X372Y2625D02*
X407Y2625D01*
X407Y2571D01*
X372Y2571D01*
X372Y2625D01*
G37*
D02*
G36*
X1468Y3721D02*
X1507Y3721D01*
X1507Y3667D01*
X1468Y3667D01*
X1468Y3721D01*
G37*
D02*
G36*
X1506Y3759D02*
X1562Y3759D01*
X1562Y3720D01*
X1506Y3720D01*
X1506Y3759D01*
G37*
D02*
G36*
X171Y1923D02*
X208Y1923D01*
X208Y1869D01*
X171Y1869D01*
X171Y1923D01*
G37*
D02*
G36*
X2369Y1025D02*
X2406Y1025D01*
X2406Y969D01*
X2369Y969D01*
X2369Y1025D01*
G37*
D02*
G36*
X2316Y1060D02*
X2370Y1060D01*
X2370Y1023D01*
X2316Y1023D01*
X2316Y1060D01*
G37*
D02*
G36*
X2670Y1027D02*
X2705Y1027D01*
X2705Y971D01*
X2670Y971D01*
X2670Y1027D01*
G37*
D02*
G36*
X2868Y1023D02*
X2907Y1023D01*
X2907Y967D01*
X2868Y967D01*
X2868Y1023D01*
G37*
D02*
G36*
X3504Y960D02*
X3560Y960D01*
X3560Y923D01*
X3504Y923D01*
X3504Y960D01*
G37*
D02*
G36*
X3467Y1415D02*
X3508Y1415D01*
X3508Y1363D01*
X3467Y1363D01*
X3467Y1415D01*
G37*
D02*
G36*
X2316Y460D02*
X2370Y460D01*
X2370Y423D01*
X2316Y423D01*
X2316Y460D01*
G37*
D02*
G36*
X2670Y427D02*
X2705Y427D01*
X2705Y371D01*
X2670Y371D01*
X2670Y427D01*
G37*
D02*
G36*
X2868Y423D02*
X2907Y423D01*
X2907Y367D01*
X2868Y367D01*
X2868Y423D01*
G37*
D02*
G36*
X2906Y461D02*
X2962Y461D01*
X2962Y422D01*
X2906Y422D01*
X2906Y461D01*
G37*
D02*
G36*
X971Y2711D02*
X1008Y2711D01*
X1008Y2657D01*
X971Y2657D01*
X971Y2711D01*
G37*
D02*
G36*
X1172Y2709D02*
X1207Y2709D01*
X1207Y2655D01*
X1172Y2655D01*
X1172Y2709D01*
G37*
D02*
G36*
X1410Y2660D02*
X1464Y2660D01*
X1464Y2619D01*
X1410Y2619D01*
X1410Y2660D01*
G37*
D02*
G36*
X3616Y2958D02*
X3670Y2958D01*
X3670Y2921D01*
X3616Y2921D01*
X3616Y2958D01*
G37*
D02*
G36*
X3616Y2858D02*
X3670Y2858D01*
X3670Y2821D01*
X3616Y2821D01*
X3616Y2858D01*
G37*
D02*
G36*
X3704Y2858D02*
X3760Y2858D01*
X3760Y2821D01*
X3704Y2821D01*
X3704Y2858D01*
G37*
D02*
G36*
X1716Y2288D02*
X1770Y2288D01*
X1770Y2251D01*
X1716Y2251D01*
X1716Y2288D01*
G37*
D02*
G54D22*
X963Y2566D02*
X1018Y2566D01*
X1018Y2511D01*
X963Y2511D01*
X963Y2566D01*
D02*
G04 End of Copper0*
M02*