G04 MADE WITH FRITZING*
G04 WWW.FRITZING.ORG*
G04 DOUBLE SIDED*
G04 HOLES PLATED*
G04 CONTOUR ON CENTER OF CONTOUR VECTOR*
%ASAXBY*%
%FSLAX23Y23*%
%MOIN*%
%OFA0B0*%
%SFA1.0B1.0*%
%ADD10C,0.075000*%
%ADD11C,0.075833*%
%ADD12C,0.078000*%
%ADD13C,0.082000*%
%ADD14C,0.070000*%
%ADD15C,0.039370*%
%ADD16R,0.078000X0.078000*%
%ADD17R,0.082000X0.082000*%
%ADD18R,0.075000X0.075000*%
%ADD19C,0.032000*%
%ADD20C,0.024000*%
%ADD21C,0.048000*%
%ADD22C,0.020000*%
%LNCOPPER1*%
G90*
G70*
G54D10*
X1234Y3746D03*
X1620Y3742D03*
X1117Y3545D03*
X2044Y3761D03*
G54D11*
X1790Y1961D03*
X1790Y2062D03*
X1790Y2169D03*
X1790Y2269D03*
X1790Y2369D03*
X1790Y2469D03*
X1790Y2569D03*
X1790Y2669D03*
X1790Y2769D03*
X1790Y2869D03*
X1790Y3039D03*
X1790Y3139D03*
X1790Y3239D03*
X1790Y3339D03*
X1790Y3439D03*
X1790Y3539D03*
X1790Y3639D03*
X1790Y3739D03*
X3690Y2339D03*
X3690Y2439D03*
X3690Y2539D03*
X3690Y2639D03*
X3690Y2739D03*
X3690Y2839D03*
X3690Y2939D03*
X3690Y3039D03*
X3690Y3239D03*
X3690Y3339D03*
X3690Y3439D03*
X3690Y3539D03*
X3690Y3639D03*
X3690Y3739D03*
G54D12*
X990Y1938D03*
X990Y2038D03*
X234Y3738D03*
X134Y3738D03*
X1390Y3738D03*
X1490Y3738D03*
X490Y3138D03*
X390Y3138D03*
X990Y3338D03*
X890Y3338D03*
X990Y3538D03*
X890Y3538D03*
X990Y3738D03*
X890Y3738D03*
X990Y3138D03*
X890Y3138D03*
X490Y3338D03*
X390Y3338D03*
X490Y3538D03*
X390Y3538D03*
X390Y3738D03*
X490Y3738D03*
G54D13*
X390Y1338D03*
X490Y1338D03*
X590Y1338D03*
X3590Y1338D03*
X3490Y1338D03*
X3390Y1338D03*
X1390Y2739D03*
X1390Y2639D03*
X1390Y2539D03*
X190Y2539D03*
X190Y2639D03*
X190Y2739D03*
G54D12*
X2890Y438D03*
X2890Y538D03*
X2890Y638D03*
X2890Y1038D03*
X2890Y1138D03*
X2890Y1238D03*
X1290Y438D03*
X1290Y538D03*
X1290Y638D03*
X1290Y1038D03*
X1290Y1138D03*
X1290Y1238D03*
G54D14*
X1490Y538D03*
X1490Y438D03*
X1490Y1138D03*
X1490Y1038D03*
X2690Y538D03*
X2690Y438D03*
X2690Y1138D03*
X2690Y1038D03*
G54D10*
X590Y2639D03*
X590Y2739D03*
X990Y2539D03*
X990Y2639D03*
X2390Y1038D03*
X2390Y1138D03*
X2390Y438D03*
X2390Y538D03*
X1690Y438D03*
X1690Y538D03*
X1690Y1038D03*
X1690Y1138D03*
X490Y938D03*
X590Y938D03*
X3490Y938D03*
X3390Y938D03*
G54D14*
X390Y2739D03*
X390Y2638D03*
X1190Y2639D03*
X1190Y2538D03*
G54D10*
X190Y1938D03*
X190Y2038D03*
X590Y1938D03*
X590Y2038D03*
G54D15*
X396Y2028D03*
X1041Y427D03*
X3489Y774D03*
X2190Y1322D03*
X870Y3030D03*
X1131Y3395D03*
X1292Y3216D03*
G54D16*
X990Y1938D03*
G54D17*
X390Y1338D03*
X3590Y1338D03*
X1390Y2739D03*
X190Y2539D03*
G54D16*
X2890Y438D03*
X2890Y1038D03*
X1290Y438D03*
X1290Y1038D03*
G54D18*
X590Y2639D03*
X2390Y1038D03*
X2390Y438D03*
X1690Y438D03*
X1690Y1038D03*
X490Y938D03*
X3490Y938D03*
X190Y1938D03*
X590Y1938D03*
G54D19*
X829Y2734D02*
X715Y2540D01*
D02*
X1353Y2738D02*
X829Y2734D01*
D02*
X715Y2540D02*
X222Y2539D01*
D02*
X391Y1371D02*
X396Y2009D01*
G54D20*
D02*
X1036Y949D02*
X1041Y446D01*
D02*
X1262Y1029D02*
X1036Y949D01*
D02*
X3368Y921D02*
X2914Y557D01*
D02*
X2171Y1320D02*
X1320Y1241D01*
G54D21*
D02*
X1326Y1648D02*
X1326Y2043D01*
D02*
X3516Y1690D02*
X1326Y1648D01*
D02*
X1326Y2043D02*
X1020Y2039D01*
D02*
X3581Y1381D02*
X3516Y1690D01*
D02*
X3509Y3043D02*
X3651Y3040D01*
D02*
X3516Y1690D02*
X3509Y3043D01*
G54D20*
D02*
X1952Y3236D02*
X1952Y3843D01*
D02*
X1952Y3843D02*
X1191Y3843D01*
D02*
X1819Y3238D02*
X1952Y3236D01*
D02*
X1191Y3843D02*
X1017Y3752D01*
D02*
X960Y3738D02*
X920Y3738D01*
D02*
X960Y3538D02*
X920Y3538D01*
D02*
X960Y3338D02*
X920Y3338D01*
D02*
X960Y3138D02*
X920Y3138D01*
D02*
X460Y3138D02*
X420Y3138D01*
D02*
X460Y3338D02*
X420Y3338D01*
D02*
X460Y3538D02*
X420Y3538D01*
D02*
X460Y3738D02*
X420Y3738D01*
D02*
X1767Y3454D02*
X1635Y3537D01*
D02*
X1635Y3537D02*
X1297Y3646D01*
D02*
X1297Y3646D02*
X842Y3648D01*
D02*
X842Y3648D02*
X520Y3731D01*
D02*
X1194Y3093D02*
X1135Y3377D01*
D02*
X1762Y3041D02*
X1194Y3093D01*
D02*
X778Y2941D02*
X772Y3339D01*
D02*
X772Y3339D02*
X860Y3339D01*
D02*
X1705Y2462D02*
X1585Y2919D01*
D02*
X1585Y2919D02*
X778Y2941D01*
D02*
X1762Y2466D02*
X1705Y2462D01*
D02*
X1516Y2859D02*
X699Y2882D01*
D02*
X687Y3591D02*
X861Y3546D01*
D02*
X699Y2882D02*
X687Y3591D01*
D02*
X1636Y2365D02*
X1516Y2859D01*
D02*
X1762Y2368D02*
X1636Y2365D01*
D02*
X1717Y2973D02*
X889Y3028D01*
D02*
X1774Y2892D02*
X1717Y2973D01*
D02*
X1763Y3332D02*
X1310Y3220D01*
D02*
X57Y3904D02*
X57Y3149D01*
D02*
X3842Y3855D02*
X580Y3909D01*
D02*
X580Y3909D02*
X57Y3904D01*
D02*
X3833Y2634D02*
X3842Y3855D01*
D02*
X3719Y2638D02*
X3833Y2634D01*
D02*
X57Y3149D02*
X360Y3139D01*
G36*
X498Y3865D02*
X498Y3863D01*
X284Y3863D01*
X284Y3861D01*
X102Y3861D01*
X102Y3809D01*
X908Y3809D01*
X908Y3807D01*
X916Y3807D01*
X916Y3805D01*
X920Y3805D01*
X920Y3803D01*
X924Y3803D01*
X924Y3801D01*
X928Y3801D01*
X928Y3799D01*
X930Y3799D01*
X930Y3797D01*
X950Y3797D01*
X950Y3799D01*
X954Y3799D01*
X954Y3801D01*
X958Y3801D01*
X958Y3803D01*
X960Y3803D01*
X960Y3805D01*
X966Y3805D01*
X966Y3807D01*
X972Y3807D01*
X972Y3809D01*
X1028Y3809D01*
X1028Y3811D01*
X1032Y3811D01*
X1032Y3813D01*
X1034Y3813D01*
X1034Y3815D01*
X1038Y3815D01*
X1038Y3817D01*
X1042Y3817D01*
X1042Y3819D01*
X1046Y3819D01*
X1046Y3821D01*
X1050Y3821D01*
X1050Y3823D01*
X1054Y3823D01*
X1054Y3825D01*
X1058Y3825D01*
X1058Y3827D01*
X1062Y3827D01*
X1062Y3829D01*
X1066Y3829D01*
X1066Y3831D01*
X1070Y3831D01*
X1070Y3833D01*
X1074Y3833D01*
X1074Y3835D01*
X1078Y3835D01*
X1078Y3837D01*
X1082Y3837D01*
X1082Y3857D01*
X988Y3857D01*
X988Y3859D01*
X866Y3859D01*
X866Y3861D01*
X744Y3861D01*
X744Y3863D01*
X624Y3863D01*
X624Y3865D01*
X498Y3865D01*
G37*
D02*
G36*
X152Y3809D02*
X152Y3807D01*
X158Y3807D01*
X158Y3805D01*
X164Y3805D01*
X164Y3803D01*
X166Y3803D01*
X166Y3801D01*
X170Y3801D01*
X170Y3799D01*
X174Y3799D01*
X174Y3797D01*
X194Y3797D01*
X194Y3799D01*
X198Y3799D01*
X198Y3801D01*
X200Y3801D01*
X200Y3803D01*
X204Y3803D01*
X204Y3805D01*
X210Y3805D01*
X210Y3807D01*
X216Y3807D01*
X216Y3809D01*
X152Y3809D01*
G37*
D02*
G36*
X252Y3809D02*
X252Y3807D01*
X258Y3807D01*
X258Y3805D01*
X264Y3805D01*
X264Y3803D01*
X266Y3803D01*
X266Y3801D01*
X270Y3801D01*
X270Y3799D01*
X274Y3799D01*
X274Y3797D01*
X276Y3797D01*
X276Y3795D01*
X278Y3795D01*
X278Y3793D01*
X280Y3793D01*
X280Y3791D01*
X284Y3791D01*
X284Y3789D01*
X286Y3789D01*
X286Y3785D01*
X288Y3785D01*
X288Y3783D01*
X290Y3783D01*
X290Y3781D01*
X292Y3781D01*
X292Y3779D01*
X294Y3779D01*
X294Y3775D01*
X296Y3775D01*
X296Y3773D01*
X298Y3773D01*
X298Y3769D01*
X300Y3769D01*
X300Y3763D01*
X302Y3763D01*
X302Y3757D01*
X322Y3757D01*
X322Y3763D01*
X324Y3763D01*
X324Y3769D01*
X326Y3769D01*
X326Y3773D01*
X328Y3773D01*
X328Y3775D01*
X330Y3775D01*
X330Y3779D01*
X332Y3779D01*
X332Y3781D01*
X334Y3781D01*
X334Y3783D01*
X336Y3783D01*
X336Y3785D01*
X338Y3785D01*
X338Y3789D01*
X340Y3789D01*
X340Y3791D01*
X344Y3791D01*
X344Y3793D01*
X346Y3793D01*
X346Y3795D01*
X348Y3795D01*
X348Y3797D01*
X350Y3797D01*
X350Y3799D01*
X354Y3799D01*
X354Y3801D01*
X358Y3801D01*
X358Y3803D01*
X360Y3803D01*
X360Y3805D01*
X366Y3805D01*
X366Y3807D01*
X372Y3807D01*
X372Y3809D01*
X252Y3809D01*
G37*
D02*
G36*
X408Y3809D02*
X408Y3807D01*
X416Y3807D01*
X416Y3805D01*
X420Y3805D01*
X420Y3803D01*
X424Y3803D01*
X424Y3801D01*
X428Y3801D01*
X428Y3799D01*
X430Y3799D01*
X430Y3797D01*
X450Y3797D01*
X450Y3799D01*
X454Y3799D01*
X454Y3801D01*
X458Y3801D01*
X458Y3803D01*
X460Y3803D01*
X460Y3805D01*
X466Y3805D01*
X466Y3807D01*
X472Y3807D01*
X472Y3809D01*
X408Y3809D01*
G37*
D02*
G36*
X508Y3809D02*
X508Y3807D01*
X516Y3807D01*
X516Y3805D01*
X520Y3805D01*
X520Y3803D01*
X524Y3803D01*
X524Y3801D01*
X528Y3801D01*
X528Y3799D01*
X530Y3799D01*
X530Y3797D01*
X532Y3797D01*
X532Y3795D01*
X536Y3795D01*
X536Y3793D01*
X538Y3793D01*
X538Y3791D01*
X540Y3791D01*
X540Y3789D01*
X542Y3789D01*
X542Y3787D01*
X544Y3787D01*
X544Y3785D01*
X546Y3785D01*
X546Y3783D01*
X548Y3783D01*
X548Y3779D01*
X550Y3779D01*
X550Y3777D01*
X552Y3777D01*
X552Y3773D01*
X554Y3773D01*
X554Y3769D01*
X558Y3769D01*
X558Y3767D01*
X566Y3767D01*
X566Y3765D01*
X574Y3765D01*
X574Y3763D01*
X582Y3763D01*
X582Y3761D01*
X590Y3761D01*
X590Y3759D01*
X598Y3759D01*
X598Y3757D01*
X606Y3757D01*
X606Y3755D01*
X614Y3755D01*
X614Y3753D01*
X622Y3753D01*
X622Y3751D01*
X628Y3751D01*
X628Y3749D01*
X636Y3749D01*
X636Y3747D01*
X644Y3747D01*
X644Y3745D01*
X652Y3745D01*
X652Y3743D01*
X660Y3743D01*
X660Y3741D01*
X668Y3741D01*
X668Y3739D01*
X676Y3739D01*
X676Y3737D01*
X684Y3737D01*
X684Y3735D01*
X692Y3735D01*
X692Y3733D01*
X700Y3733D01*
X700Y3731D01*
X708Y3731D01*
X708Y3729D01*
X714Y3729D01*
X714Y3727D01*
X722Y3727D01*
X722Y3725D01*
X730Y3725D01*
X730Y3723D01*
X738Y3723D01*
X738Y3721D01*
X746Y3721D01*
X746Y3719D01*
X754Y3719D01*
X754Y3717D01*
X762Y3717D01*
X762Y3715D01*
X770Y3715D01*
X770Y3713D01*
X778Y3713D01*
X778Y3711D01*
X786Y3711D01*
X786Y3709D01*
X794Y3709D01*
X794Y3707D01*
X800Y3707D01*
X800Y3705D01*
X820Y3705D01*
X820Y3757D01*
X822Y3757D01*
X822Y3763D01*
X824Y3763D01*
X824Y3769D01*
X826Y3769D01*
X826Y3773D01*
X828Y3773D01*
X828Y3775D01*
X830Y3775D01*
X830Y3779D01*
X832Y3779D01*
X832Y3781D01*
X834Y3781D01*
X834Y3783D01*
X836Y3783D01*
X836Y3785D01*
X838Y3785D01*
X838Y3789D01*
X840Y3789D01*
X840Y3791D01*
X844Y3791D01*
X844Y3793D01*
X846Y3793D01*
X846Y3795D01*
X848Y3795D01*
X848Y3797D01*
X850Y3797D01*
X850Y3799D01*
X854Y3799D01*
X854Y3801D01*
X858Y3801D01*
X858Y3803D01*
X860Y3803D01*
X860Y3805D01*
X866Y3805D01*
X866Y3807D01*
X872Y3807D01*
X872Y3809D01*
X508Y3809D01*
G37*
D02*
G36*
X1206Y3799D02*
X1206Y3797D01*
X1202Y3797D01*
X1202Y3795D01*
X1198Y3795D01*
X1198Y3793D01*
X1194Y3793D01*
X1194Y3791D01*
X1190Y3791D01*
X1190Y3789D01*
X1186Y3789D01*
X1186Y3787D01*
X1182Y3787D01*
X1182Y3785D01*
X1178Y3785D01*
X1178Y3783D01*
X1174Y3783D01*
X1174Y3781D01*
X1170Y3781D01*
X1170Y3779D01*
X1168Y3779D01*
X1168Y3777D01*
X1164Y3777D01*
X1164Y3775D01*
X1160Y3775D01*
X1160Y3773D01*
X1156Y3773D01*
X1156Y3771D01*
X1152Y3771D01*
X1152Y3769D01*
X1148Y3769D01*
X1148Y3767D01*
X1144Y3767D01*
X1144Y3765D01*
X1140Y3765D01*
X1140Y3763D01*
X1136Y3763D01*
X1136Y3761D01*
X1132Y3761D01*
X1132Y3759D01*
X1128Y3759D01*
X1128Y3757D01*
X1124Y3757D01*
X1124Y3755D01*
X1120Y3755D01*
X1120Y3753D01*
X1118Y3753D01*
X1118Y3751D01*
X1114Y3751D01*
X1114Y3749D01*
X1110Y3749D01*
X1110Y3747D01*
X1106Y3747D01*
X1106Y3745D01*
X1102Y3745D01*
X1102Y3743D01*
X1098Y3743D01*
X1098Y3741D01*
X1094Y3741D01*
X1094Y3739D01*
X1090Y3739D01*
X1090Y3737D01*
X1086Y3737D01*
X1086Y3735D01*
X1082Y3735D01*
X1082Y3733D01*
X1078Y3733D01*
X1078Y3731D01*
X1074Y3731D01*
X1074Y3729D01*
X1070Y3729D01*
X1070Y3727D01*
X1066Y3727D01*
X1066Y3725D01*
X1064Y3725D01*
X1064Y3723D01*
X1060Y3723D01*
X1060Y3717D01*
X1058Y3717D01*
X1058Y3711D01*
X1056Y3711D01*
X1056Y3691D01*
X1282Y3691D01*
X1282Y3689D01*
X1328Y3689D01*
X1328Y3705D01*
X1326Y3705D01*
X1326Y3709D01*
X1324Y3709D01*
X1324Y3713D01*
X1322Y3713D01*
X1322Y3719D01*
X1320Y3719D01*
X1320Y3757D01*
X1322Y3757D01*
X1322Y3763D01*
X1324Y3763D01*
X1324Y3769D01*
X1326Y3769D01*
X1326Y3773D01*
X1328Y3773D01*
X1328Y3775D01*
X1330Y3775D01*
X1330Y3779D01*
X1332Y3779D01*
X1332Y3799D01*
X1206Y3799D01*
G37*
D02*
G36*
X1848Y3799D02*
X1848Y3777D01*
X1850Y3777D01*
X1850Y3775D01*
X1852Y3775D01*
X1852Y3771D01*
X1854Y3771D01*
X1854Y3767D01*
X1856Y3767D01*
X1856Y3763D01*
X1858Y3763D01*
X1858Y3755D01*
X1860Y3755D01*
X1860Y3721D01*
X1858Y3721D01*
X1858Y3715D01*
X1856Y3715D01*
X1856Y3709D01*
X1854Y3709D01*
X1854Y3705D01*
X1852Y3705D01*
X1852Y3703D01*
X1850Y3703D01*
X1850Y3699D01*
X1848Y3699D01*
X1848Y3677D01*
X1850Y3677D01*
X1850Y3675D01*
X1852Y3675D01*
X1852Y3671D01*
X1854Y3671D01*
X1854Y3667D01*
X1856Y3667D01*
X1856Y3663D01*
X1858Y3663D01*
X1858Y3655D01*
X1860Y3655D01*
X1860Y3621D01*
X1858Y3621D01*
X1858Y3615D01*
X1856Y3615D01*
X1856Y3609D01*
X1854Y3609D01*
X1854Y3605D01*
X1852Y3605D01*
X1852Y3603D01*
X1850Y3603D01*
X1850Y3599D01*
X1848Y3599D01*
X1848Y3577D01*
X1850Y3577D01*
X1850Y3575D01*
X1852Y3575D01*
X1852Y3571D01*
X1854Y3571D01*
X1854Y3567D01*
X1856Y3567D01*
X1856Y3563D01*
X1858Y3563D01*
X1858Y3555D01*
X1860Y3555D01*
X1860Y3521D01*
X1858Y3521D01*
X1858Y3515D01*
X1856Y3515D01*
X1856Y3509D01*
X1854Y3509D01*
X1854Y3505D01*
X1852Y3505D01*
X1852Y3503D01*
X1850Y3503D01*
X1850Y3499D01*
X1848Y3499D01*
X1848Y3477D01*
X1850Y3477D01*
X1850Y3475D01*
X1852Y3475D01*
X1852Y3471D01*
X1854Y3471D01*
X1854Y3467D01*
X1856Y3467D01*
X1856Y3463D01*
X1858Y3463D01*
X1858Y3455D01*
X1860Y3455D01*
X1860Y3421D01*
X1858Y3421D01*
X1858Y3415D01*
X1856Y3415D01*
X1856Y3409D01*
X1854Y3409D01*
X1854Y3405D01*
X1852Y3405D01*
X1852Y3403D01*
X1850Y3403D01*
X1850Y3399D01*
X1848Y3399D01*
X1848Y3377D01*
X1850Y3377D01*
X1850Y3375D01*
X1852Y3375D01*
X1852Y3371D01*
X1854Y3371D01*
X1854Y3367D01*
X1856Y3367D01*
X1856Y3363D01*
X1858Y3363D01*
X1858Y3355D01*
X1860Y3355D01*
X1860Y3321D01*
X1858Y3321D01*
X1858Y3315D01*
X1856Y3315D01*
X1856Y3309D01*
X1854Y3309D01*
X1854Y3305D01*
X1852Y3305D01*
X1852Y3303D01*
X1850Y3303D01*
X1850Y3281D01*
X1908Y3281D01*
X1908Y3799D01*
X1848Y3799D01*
G37*
D02*
G36*
X1548Y3799D02*
X1548Y3779D01*
X1550Y3779D01*
X1550Y3777D01*
X1552Y3777D01*
X1552Y3773D01*
X1554Y3773D01*
X1554Y3769D01*
X1556Y3769D01*
X1556Y3765D01*
X1558Y3765D01*
X1558Y3761D01*
X1560Y3761D01*
X1560Y3751D01*
X1562Y3751D01*
X1562Y3725D01*
X1560Y3725D01*
X1560Y3717D01*
X1558Y3717D01*
X1558Y3711D01*
X1556Y3711D01*
X1556Y3707D01*
X1554Y3707D01*
X1554Y3703D01*
X1552Y3703D01*
X1552Y3701D01*
X1550Y3701D01*
X1550Y3697D01*
X1548Y3697D01*
X1548Y3695D01*
X1546Y3695D01*
X1546Y3693D01*
X1544Y3693D01*
X1544Y3691D01*
X1542Y3691D01*
X1542Y3689D01*
X1540Y3689D01*
X1540Y3687D01*
X1538Y3687D01*
X1538Y3685D01*
X1536Y3685D01*
X1536Y3683D01*
X1534Y3683D01*
X1534Y3681D01*
X1532Y3681D01*
X1532Y3679D01*
X1528Y3679D01*
X1528Y3677D01*
X1526Y3677D01*
X1526Y3675D01*
X1522Y3675D01*
X1522Y3673D01*
X1518Y3673D01*
X1518Y3671D01*
X1512Y3671D01*
X1512Y3669D01*
X1504Y3669D01*
X1504Y3667D01*
X1726Y3667D01*
X1726Y3669D01*
X1728Y3669D01*
X1728Y3673D01*
X1730Y3673D01*
X1730Y3677D01*
X1732Y3677D01*
X1732Y3701D01*
X1730Y3701D01*
X1730Y3703D01*
X1728Y3703D01*
X1728Y3707D01*
X1726Y3707D01*
X1726Y3711D01*
X1724Y3711D01*
X1724Y3717D01*
X1722Y3717D01*
X1722Y3725D01*
X1720Y3725D01*
X1720Y3753D01*
X1722Y3753D01*
X1722Y3761D01*
X1724Y3761D01*
X1724Y3765D01*
X1726Y3765D01*
X1726Y3769D01*
X1728Y3769D01*
X1728Y3773D01*
X1730Y3773D01*
X1730Y3777D01*
X1732Y3777D01*
X1732Y3779D01*
X1734Y3779D01*
X1734Y3799D01*
X1548Y3799D01*
G37*
D02*
G36*
X1428Y3679D02*
X1428Y3677D01*
X1426Y3677D01*
X1426Y3675D01*
X1422Y3675D01*
X1422Y3667D01*
X1476Y3667D01*
X1476Y3669D01*
X1468Y3669D01*
X1468Y3671D01*
X1464Y3671D01*
X1464Y3673D01*
X1458Y3673D01*
X1458Y3675D01*
X1456Y3675D01*
X1456Y3677D01*
X1452Y3677D01*
X1452Y3679D01*
X1428Y3679D01*
G37*
D02*
G36*
X1422Y3667D02*
X1422Y3665D01*
X1726Y3665D01*
X1726Y3667D01*
X1422Y3667D01*
G37*
D02*
G36*
X1422Y3667D02*
X1422Y3665D01*
X1726Y3665D01*
X1726Y3667D01*
X1422Y3667D01*
G37*
D02*
G36*
X1422Y3665D02*
X1422Y3653D01*
X1428Y3653D01*
X1428Y3651D01*
X1434Y3651D01*
X1434Y3649D01*
X1440Y3649D01*
X1440Y3647D01*
X1446Y3647D01*
X1446Y3645D01*
X1452Y3645D01*
X1452Y3643D01*
X1458Y3643D01*
X1458Y3641D01*
X1464Y3641D01*
X1464Y3639D01*
X1472Y3639D01*
X1472Y3637D01*
X1478Y3637D01*
X1478Y3635D01*
X1484Y3635D01*
X1484Y3633D01*
X1490Y3633D01*
X1490Y3631D01*
X1496Y3631D01*
X1496Y3629D01*
X1502Y3629D01*
X1502Y3627D01*
X1508Y3627D01*
X1508Y3625D01*
X1514Y3625D01*
X1514Y3623D01*
X1520Y3623D01*
X1520Y3621D01*
X1528Y3621D01*
X1528Y3619D01*
X1534Y3619D01*
X1534Y3617D01*
X1540Y3617D01*
X1540Y3615D01*
X1546Y3615D01*
X1546Y3613D01*
X1552Y3613D01*
X1552Y3611D01*
X1558Y3611D01*
X1558Y3609D01*
X1564Y3609D01*
X1564Y3607D01*
X1570Y3607D01*
X1570Y3605D01*
X1576Y3605D01*
X1576Y3603D01*
X1584Y3603D01*
X1584Y3601D01*
X1590Y3601D01*
X1590Y3599D01*
X1596Y3599D01*
X1596Y3597D01*
X1602Y3597D01*
X1602Y3595D01*
X1608Y3595D01*
X1608Y3593D01*
X1614Y3593D01*
X1614Y3591D01*
X1620Y3591D01*
X1620Y3589D01*
X1626Y3589D01*
X1626Y3587D01*
X1634Y3587D01*
X1634Y3585D01*
X1640Y3585D01*
X1640Y3583D01*
X1646Y3583D01*
X1646Y3581D01*
X1652Y3581D01*
X1652Y3579D01*
X1658Y3579D01*
X1658Y3577D01*
X1662Y3577D01*
X1662Y3575D01*
X1664Y3575D01*
X1664Y3573D01*
X1668Y3573D01*
X1668Y3571D01*
X1670Y3571D01*
X1670Y3569D01*
X1674Y3569D01*
X1674Y3567D01*
X1676Y3567D01*
X1676Y3565D01*
X1680Y3565D01*
X1680Y3563D01*
X1684Y3563D01*
X1684Y3561D01*
X1686Y3561D01*
X1686Y3559D01*
X1690Y3559D01*
X1690Y3557D01*
X1692Y3557D01*
X1692Y3555D01*
X1696Y3555D01*
X1696Y3553D01*
X1698Y3553D01*
X1698Y3551D01*
X1720Y3551D01*
X1720Y3553D01*
X1722Y3553D01*
X1722Y3561D01*
X1724Y3561D01*
X1724Y3565D01*
X1726Y3565D01*
X1726Y3569D01*
X1728Y3569D01*
X1728Y3573D01*
X1730Y3573D01*
X1730Y3577D01*
X1732Y3577D01*
X1732Y3601D01*
X1730Y3601D01*
X1730Y3603D01*
X1728Y3603D01*
X1728Y3607D01*
X1726Y3607D01*
X1726Y3611D01*
X1724Y3611D01*
X1724Y3617D01*
X1722Y3617D01*
X1722Y3625D01*
X1720Y3625D01*
X1720Y3653D01*
X1722Y3653D01*
X1722Y3661D01*
X1724Y3661D01*
X1724Y3665D01*
X1422Y3665D01*
G37*
D02*
G36*
X1046Y3603D02*
X1046Y3583D01*
X1048Y3583D01*
X1048Y3579D01*
X1050Y3579D01*
X1050Y3577D01*
X1052Y3577D01*
X1052Y3573D01*
X1054Y3573D01*
X1054Y3569D01*
X1056Y3569D01*
X1056Y3565D01*
X1058Y3565D01*
X1058Y3561D01*
X1060Y3561D01*
X1060Y3551D01*
X1062Y3551D01*
X1062Y3525D01*
X1060Y3525D01*
X1060Y3517D01*
X1058Y3517D01*
X1058Y3511D01*
X1056Y3511D01*
X1056Y3507D01*
X1054Y3507D01*
X1054Y3503D01*
X1052Y3503D01*
X1052Y3501D01*
X1050Y3501D01*
X1050Y3497D01*
X1048Y3497D01*
X1048Y3495D01*
X1046Y3495D01*
X1046Y3493D01*
X1044Y3493D01*
X1044Y3491D01*
X1042Y3491D01*
X1042Y3489D01*
X1040Y3489D01*
X1040Y3487D01*
X1038Y3487D01*
X1038Y3485D01*
X1036Y3485D01*
X1036Y3483D01*
X1034Y3483D01*
X1034Y3481D01*
X1032Y3481D01*
X1032Y3479D01*
X1028Y3479D01*
X1028Y3477D01*
X1026Y3477D01*
X1026Y3475D01*
X1022Y3475D01*
X1022Y3473D01*
X1018Y3473D01*
X1018Y3471D01*
X1012Y3471D01*
X1012Y3469D01*
X1004Y3469D01*
X1004Y3467D01*
X1656Y3467D01*
X1656Y3469D01*
X1654Y3469D01*
X1654Y3471D01*
X1650Y3471D01*
X1650Y3473D01*
X1648Y3473D01*
X1648Y3475D01*
X1644Y3475D01*
X1644Y3477D01*
X1642Y3477D01*
X1642Y3479D01*
X1638Y3479D01*
X1638Y3481D01*
X1634Y3481D01*
X1634Y3483D01*
X1632Y3483D01*
X1632Y3485D01*
X1628Y3485D01*
X1628Y3487D01*
X1626Y3487D01*
X1626Y3489D01*
X1622Y3489D01*
X1622Y3491D01*
X1620Y3491D01*
X1620Y3493D01*
X1616Y3493D01*
X1616Y3495D01*
X1612Y3495D01*
X1612Y3497D01*
X1608Y3497D01*
X1608Y3499D01*
X1602Y3499D01*
X1602Y3501D01*
X1594Y3501D01*
X1594Y3503D01*
X1588Y3503D01*
X1588Y3505D01*
X1582Y3505D01*
X1582Y3507D01*
X1576Y3507D01*
X1576Y3509D01*
X1570Y3509D01*
X1570Y3511D01*
X1564Y3511D01*
X1564Y3513D01*
X1558Y3513D01*
X1558Y3515D01*
X1552Y3515D01*
X1552Y3517D01*
X1546Y3517D01*
X1546Y3519D01*
X1538Y3519D01*
X1538Y3521D01*
X1532Y3521D01*
X1532Y3523D01*
X1526Y3523D01*
X1526Y3525D01*
X1520Y3525D01*
X1520Y3527D01*
X1514Y3527D01*
X1514Y3529D01*
X1508Y3529D01*
X1508Y3531D01*
X1502Y3531D01*
X1502Y3533D01*
X1496Y3533D01*
X1496Y3535D01*
X1490Y3535D01*
X1490Y3537D01*
X1482Y3537D01*
X1482Y3539D01*
X1476Y3539D01*
X1476Y3541D01*
X1470Y3541D01*
X1470Y3543D01*
X1464Y3543D01*
X1464Y3545D01*
X1458Y3545D01*
X1458Y3547D01*
X1452Y3547D01*
X1452Y3549D01*
X1446Y3549D01*
X1446Y3551D01*
X1440Y3551D01*
X1440Y3553D01*
X1434Y3553D01*
X1434Y3555D01*
X1426Y3555D01*
X1426Y3557D01*
X1420Y3557D01*
X1420Y3559D01*
X1414Y3559D01*
X1414Y3561D01*
X1408Y3561D01*
X1408Y3563D01*
X1402Y3563D01*
X1402Y3565D01*
X1396Y3565D01*
X1396Y3567D01*
X1390Y3567D01*
X1390Y3569D01*
X1384Y3569D01*
X1384Y3571D01*
X1378Y3571D01*
X1378Y3573D01*
X1370Y3573D01*
X1370Y3575D01*
X1364Y3575D01*
X1364Y3577D01*
X1358Y3577D01*
X1358Y3579D01*
X1352Y3579D01*
X1352Y3581D01*
X1346Y3581D01*
X1346Y3583D01*
X1340Y3583D01*
X1340Y3585D01*
X1334Y3585D01*
X1334Y3587D01*
X1328Y3587D01*
X1328Y3589D01*
X1320Y3589D01*
X1320Y3591D01*
X1314Y3591D01*
X1314Y3593D01*
X1308Y3593D01*
X1308Y3595D01*
X1302Y3595D01*
X1302Y3597D01*
X1296Y3597D01*
X1296Y3599D01*
X1290Y3599D01*
X1290Y3601D01*
X1266Y3601D01*
X1266Y3603D01*
X1046Y3603D01*
G37*
D02*
G36*
X732Y3527D02*
X732Y3471D01*
X734Y3471D01*
X734Y3467D01*
X876Y3467D01*
X876Y3469D01*
X868Y3469D01*
X868Y3471D01*
X864Y3471D01*
X864Y3473D01*
X858Y3473D01*
X858Y3475D01*
X856Y3475D01*
X856Y3477D01*
X852Y3477D01*
X852Y3479D01*
X850Y3479D01*
X850Y3481D01*
X846Y3481D01*
X846Y3483D01*
X844Y3483D01*
X844Y3485D01*
X842Y3485D01*
X842Y3487D01*
X840Y3487D01*
X840Y3489D01*
X838Y3489D01*
X838Y3491D01*
X836Y3491D01*
X836Y3493D01*
X834Y3493D01*
X834Y3495D01*
X832Y3495D01*
X832Y3499D01*
X830Y3499D01*
X830Y3501D01*
X828Y3501D01*
X828Y3505D01*
X826Y3505D01*
X826Y3509D01*
X818Y3509D01*
X818Y3511D01*
X810Y3511D01*
X810Y3513D01*
X802Y3513D01*
X802Y3515D01*
X794Y3515D01*
X794Y3517D01*
X788Y3517D01*
X788Y3519D01*
X780Y3519D01*
X780Y3521D01*
X772Y3521D01*
X772Y3523D01*
X764Y3523D01*
X764Y3525D01*
X756Y3525D01*
X756Y3527D01*
X732Y3527D01*
G37*
D02*
G36*
X928Y3479D02*
X928Y3477D01*
X926Y3477D01*
X926Y3475D01*
X922Y3475D01*
X922Y3473D01*
X918Y3473D01*
X918Y3471D01*
X912Y3471D01*
X912Y3469D01*
X904Y3469D01*
X904Y3467D01*
X976Y3467D01*
X976Y3469D01*
X968Y3469D01*
X968Y3471D01*
X964Y3471D01*
X964Y3473D01*
X958Y3473D01*
X958Y3475D01*
X956Y3475D01*
X956Y3477D01*
X952Y3477D01*
X952Y3479D01*
X928Y3479D01*
G37*
D02*
G36*
X734Y3467D02*
X734Y3465D01*
X1660Y3465D01*
X1660Y3467D01*
X734Y3467D01*
G37*
D02*
G36*
X734Y3467D02*
X734Y3465D01*
X1660Y3465D01*
X1660Y3467D01*
X734Y3467D01*
G37*
D02*
G36*
X734Y3467D02*
X734Y3465D01*
X1660Y3465D01*
X1660Y3467D01*
X734Y3467D01*
G37*
D02*
G36*
X734Y3465D02*
X734Y3447D01*
X1146Y3447D01*
X1146Y3445D01*
X1152Y3445D01*
X1152Y3443D01*
X1156Y3443D01*
X1156Y3441D01*
X1158Y3441D01*
X1158Y3439D01*
X1162Y3439D01*
X1162Y3437D01*
X1164Y3437D01*
X1164Y3435D01*
X1166Y3435D01*
X1166Y3433D01*
X1168Y3433D01*
X1168Y3431D01*
X1170Y3431D01*
X1170Y3429D01*
X1172Y3429D01*
X1172Y3427D01*
X1174Y3427D01*
X1174Y3425D01*
X1176Y3425D01*
X1176Y3421D01*
X1178Y3421D01*
X1178Y3417D01*
X1180Y3417D01*
X1180Y3413D01*
X1182Y3413D01*
X1182Y3369D01*
X1184Y3369D01*
X1184Y3359D01*
X1186Y3359D01*
X1186Y3349D01*
X1188Y3349D01*
X1188Y3339D01*
X1190Y3339D01*
X1190Y3331D01*
X1192Y3331D01*
X1192Y3321D01*
X1194Y3321D01*
X1194Y3311D01*
X1196Y3311D01*
X1196Y3301D01*
X1198Y3301D01*
X1198Y3291D01*
X1200Y3291D01*
X1200Y3283D01*
X1202Y3283D01*
X1202Y3273D01*
X1204Y3273D01*
X1204Y3263D01*
X1206Y3263D01*
X1206Y3253D01*
X1208Y3253D01*
X1208Y3243D01*
X1210Y3243D01*
X1210Y3235D01*
X1212Y3235D01*
X1212Y3225D01*
X1214Y3225D01*
X1214Y3215D01*
X1216Y3215D01*
X1216Y3205D01*
X1218Y3205D01*
X1218Y3195D01*
X1220Y3195D01*
X1220Y3187D01*
X1222Y3187D01*
X1222Y3177D01*
X1224Y3177D01*
X1224Y3167D01*
X1226Y3167D01*
X1226Y3163D01*
X1284Y3163D01*
X1284Y3165D01*
X1274Y3165D01*
X1274Y3167D01*
X1270Y3167D01*
X1270Y3169D01*
X1266Y3169D01*
X1266Y3171D01*
X1262Y3171D01*
X1262Y3173D01*
X1260Y3173D01*
X1260Y3175D01*
X1258Y3175D01*
X1258Y3177D01*
X1256Y3177D01*
X1256Y3179D01*
X1254Y3179D01*
X1254Y3181D01*
X1252Y3181D01*
X1252Y3183D01*
X1250Y3183D01*
X1250Y3185D01*
X1248Y3185D01*
X1248Y3189D01*
X1246Y3189D01*
X1246Y3191D01*
X1244Y3191D01*
X1244Y3197D01*
X1242Y3197D01*
X1242Y3203D01*
X1240Y3203D01*
X1240Y3229D01*
X1242Y3229D01*
X1242Y3235D01*
X1244Y3235D01*
X1244Y3239D01*
X1246Y3239D01*
X1246Y3243D01*
X1248Y3243D01*
X1248Y3245D01*
X1250Y3245D01*
X1250Y3249D01*
X1252Y3249D01*
X1252Y3251D01*
X1254Y3251D01*
X1254Y3253D01*
X1256Y3253D01*
X1256Y3255D01*
X1258Y3255D01*
X1258Y3257D01*
X1262Y3257D01*
X1262Y3259D01*
X1264Y3259D01*
X1264Y3261D01*
X1268Y3261D01*
X1268Y3263D01*
X1270Y3263D01*
X1270Y3265D01*
X1276Y3265D01*
X1276Y3267D01*
X1314Y3267D01*
X1314Y3269D01*
X1322Y3269D01*
X1322Y3271D01*
X1330Y3271D01*
X1330Y3273D01*
X1338Y3273D01*
X1338Y3275D01*
X1346Y3275D01*
X1346Y3277D01*
X1354Y3277D01*
X1354Y3279D01*
X1362Y3279D01*
X1362Y3281D01*
X1372Y3281D01*
X1372Y3283D01*
X1380Y3283D01*
X1380Y3285D01*
X1388Y3285D01*
X1388Y3287D01*
X1396Y3287D01*
X1396Y3289D01*
X1404Y3289D01*
X1404Y3291D01*
X1412Y3291D01*
X1412Y3293D01*
X1420Y3293D01*
X1420Y3295D01*
X1428Y3295D01*
X1428Y3297D01*
X1436Y3297D01*
X1436Y3299D01*
X1444Y3299D01*
X1444Y3301D01*
X1452Y3301D01*
X1452Y3303D01*
X1460Y3303D01*
X1460Y3305D01*
X1468Y3305D01*
X1468Y3307D01*
X1476Y3307D01*
X1476Y3309D01*
X1484Y3309D01*
X1484Y3311D01*
X1492Y3311D01*
X1492Y3313D01*
X1500Y3313D01*
X1500Y3315D01*
X1508Y3315D01*
X1508Y3317D01*
X1518Y3317D01*
X1518Y3319D01*
X1526Y3319D01*
X1526Y3321D01*
X1534Y3321D01*
X1534Y3323D01*
X1542Y3323D01*
X1542Y3325D01*
X1550Y3325D01*
X1550Y3327D01*
X1558Y3327D01*
X1558Y3329D01*
X1566Y3329D01*
X1566Y3331D01*
X1574Y3331D01*
X1574Y3333D01*
X1582Y3333D01*
X1582Y3335D01*
X1590Y3335D01*
X1590Y3337D01*
X1598Y3337D01*
X1598Y3339D01*
X1606Y3339D01*
X1606Y3341D01*
X1614Y3341D01*
X1614Y3343D01*
X1622Y3343D01*
X1622Y3345D01*
X1630Y3345D01*
X1630Y3347D01*
X1638Y3347D01*
X1638Y3349D01*
X1646Y3349D01*
X1646Y3351D01*
X1656Y3351D01*
X1656Y3353D01*
X1664Y3353D01*
X1664Y3355D01*
X1672Y3355D01*
X1672Y3357D01*
X1680Y3357D01*
X1680Y3359D01*
X1688Y3359D01*
X1688Y3361D01*
X1696Y3361D01*
X1696Y3363D01*
X1704Y3363D01*
X1704Y3365D01*
X1712Y3365D01*
X1712Y3367D01*
X1720Y3367D01*
X1720Y3369D01*
X1728Y3369D01*
X1728Y3373D01*
X1730Y3373D01*
X1730Y3377D01*
X1732Y3377D01*
X1732Y3401D01*
X1730Y3401D01*
X1730Y3403D01*
X1728Y3403D01*
X1728Y3407D01*
X1726Y3407D01*
X1726Y3411D01*
X1724Y3411D01*
X1724Y3417D01*
X1722Y3417D01*
X1722Y3425D01*
X1720Y3425D01*
X1720Y3429D01*
X1716Y3429D01*
X1716Y3431D01*
X1714Y3431D01*
X1714Y3433D01*
X1710Y3433D01*
X1710Y3435D01*
X1708Y3435D01*
X1708Y3437D01*
X1704Y3437D01*
X1704Y3439D01*
X1702Y3439D01*
X1702Y3441D01*
X1698Y3441D01*
X1698Y3443D01*
X1694Y3443D01*
X1694Y3445D01*
X1692Y3445D01*
X1692Y3447D01*
X1688Y3447D01*
X1688Y3449D01*
X1686Y3449D01*
X1686Y3451D01*
X1682Y3451D01*
X1682Y3453D01*
X1680Y3453D01*
X1680Y3455D01*
X1676Y3455D01*
X1676Y3457D01*
X1672Y3457D01*
X1672Y3459D01*
X1670Y3459D01*
X1670Y3461D01*
X1666Y3461D01*
X1666Y3463D01*
X1664Y3463D01*
X1664Y3465D01*
X734Y3465D01*
G37*
D02*
G36*
X734Y3447D02*
X734Y3409D01*
X1008Y3409D01*
X1008Y3407D01*
X1016Y3407D01*
X1016Y3405D01*
X1020Y3405D01*
X1020Y3403D01*
X1024Y3403D01*
X1024Y3401D01*
X1028Y3401D01*
X1028Y3399D01*
X1030Y3399D01*
X1030Y3397D01*
X1032Y3397D01*
X1032Y3395D01*
X1036Y3395D01*
X1036Y3393D01*
X1038Y3393D01*
X1038Y3391D01*
X1040Y3391D01*
X1040Y3389D01*
X1042Y3389D01*
X1042Y3387D01*
X1044Y3387D01*
X1044Y3385D01*
X1046Y3385D01*
X1046Y3383D01*
X1048Y3383D01*
X1048Y3379D01*
X1050Y3379D01*
X1050Y3377D01*
X1052Y3377D01*
X1052Y3373D01*
X1054Y3373D01*
X1054Y3369D01*
X1056Y3369D01*
X1056Y3365D01*
X1058Y3365D01*
X1058Y3361D01*
X1060Y3361D01*
X1060Y3351D01*
X1062Y3351D01*
X1062Y3325D01*
X1060Y3325D01*
X1060Y3317D01*
X1058Y3317D01*
X1058Y3311D01*
X1056Y3311D01*
X1056Y3307D01*
X1054Y3307D01*
X1054Y3303D01*
X1052Y3303D01*
X1052Y3301D01*
X1050Y3301D01*
X1050Y3297D01*
X1048Y3297D01*
X1048Y3295D01*
X1046Y3295D01*
X1046Y3293D01*
X1044Y3293D01*
X1044Y3291D01*
X1042Y3291D01*
X1042Y3289D01*
X1040Y3289D01*
X1040Y3287D01*
X1038Y3287D01*
X1038Y3285D01*
X1036Y3285D01*
X1036Y3283D01*
X1034Y3283D01*
X1034Y3281D01*
X1032Y3281D01*
X1032Y3279D01*
X1028Y3279D01*
X1028Y3277D01*
X1026Y3277D01*
X1026Y3275D01*
X1022Y3275D01*
X1022Y3273D01*
X1018Y3273D01*
X1018Y3271D01*
X1012Y3271D01*
X1012Y3269D01*
X1004Y3269D01*
X1004Y3267D01*
X1112Y3267D01*
X1112Y3271D01*
X1110Y3271D01*
X1110Y3279D01*
X1108Y3279D01*
X1108Y3289D01*
X1106Y3289D01*
X1106Y3299D01*
X1104Y3299D01*
X1104Y3309D01*
X1102Y3309D01*
X1102Y3319D01*
X1100Y3319D01*
X1100Y3327D01*
X1098Y3327D01*
X1098Y3337D01*
X1096Y3337D01*
X1096Y3347D01*
X1094Y3347D01*
X1094Y3357D01*
X1092Y3357D01*
X1092Y3361D01*
X1090Y3361D01*
X1090Y3365D01*
X1088Y3365D01*
X1088Y3367D01*
X1086Y3367D01*
X1086Y3371D01*
X1084Y3371D01*
X1084Y3373D01*
X1082Y3373D01*
X1082Y3379D01*
X1080Y3379D01*
X1080Y3411D01*
X1082Y3411D01*
X1082Y3417D01*
X1084Y3417D01*
X1084Y3421D01*
X1086Y3421D01*
X1086Y3423D01*
X1088Y3423D01*
X1088Y3427D01*
X1090Y3427D01*
X1090Y3429D01*
X1092Y3429D01*
X1092Y3431D01*
X1094Y3431D01*
X1094Y3433D01*
X1096Y3433D01*
X1096Y3435D01*
X1098Y3435D01*
X1098Y3437D01*
X1100Y3437D01*
X1100Y3439D01*
X1104Y3439D01*
X1104Y3441D01*
X1106Y3441D01*
X1106Y3443D01*
X1110Y3443D01*
X1110Y3445D01*
X1116Y3445D01*
X1116Y3447D01*
X734Y3447D01*
G37*
D02*
G36*
X734Y3409D02*
X734Y3381D01*
X758Y3381D01*
X758Y3383D01*
X836Y3383D01*
X836Y3385D01*
X838Y3385D01*
X838Y3389D01*
X840Y3389D01*
X840Y3391D01*
X844Y3391D01*
X844Y3393D01*
X846Y3393D01*
X846Y3395D01*
X848Y3395D01*
X848Y3397D01*
X850Y3397D01*
X850Y3399D01*
X854Y3399D01*
X854Y3401D01*
X858Y3401D01*
X858Y3403D01*
X860Y3403D01*
X860Y3405D01*
X866Y3405D01*
X866Y3407D01*
X872Y3407D01*
X872Y3409D01*
X734Y3409D01*
G37*
D02*
G36*
X908Y3409D02*
X908Y3407D01*
X916Y3407D01*
X916Y3405D01*
X920Y3405D01*
X920Y3403D01*
X924Y3403D01*
X924Y3401D01*
X928Y3401D01*
X928Y3399D01*
X930Y3399D01*
X930Y3397D01*
X950Y3397D01*
X950Y3399D01*
X954Y3399D01*
X954Y3401D01*
X958Y3401D01*
X958Y3403D01*
X960Y3403D01*
X960Y3405D01*
X966Y3405D01*
X966Y3407D01*
X972Y3407D01*
X972Y3409D01*
X908Y3409D01*
G37*
D02*
G36*
X816Y3293D02*
X816Y3273D01*
X818Y3273D01*
X818Y3267D01*
X876Y3267D01*
X876Y3269D01*
X868Y3269D01*
X868Y3271D01*
X864Y3271D01*
X864Y3273D01*
X858Y3273D01*
X858Y3275D01*
X856Y3275D01*
X856Y3277D01*
X852Y3277D01*
X852Y3279D01*
X850Y3279D01*
X850Y3281D01*
X846Y3281D01*
X846Y3283D01*
X844Y3283D01*
X844Y3285D01*
X842Y3285D01*
X842Y3287D01*
X840Y3287D01*
X840Y3289D01*
X838Y3289D01*
X838Y3291D01*
X836Y3291D01*
X836Y3293D01*
X816Y3293D01*
G37*
D02*
G36*
X928Y3279D02*
X928Y3277D01*
X926Y3277D01*
X926Y3275D01*
X922Y3275D01*
X922Y3273D01*
X918Y3273D01*
X918Y3271D01*
X912Y3271D01*
X912Y3269D01*
X904Y3269D01*
X904Y3267D01*
X976Y3267D01*
X976Y3269D01*
X968Y3269D01*
X968Y3271D01*
X964Y3271D01*
X964Y3273D01*
X958Y3273D01*
X958Y3275D01*
X956Y3275D01*
X956Y3277D01*
X952Y3277D01*
X952Y3279D01*
X928Y3279D01*
G37*
D02*
G36*
X1702Y3271D02*
X1702Y3269D01*
X1694Y3269D01*
X1694Y3267D01*
X1686Y3267D01*
X1686Y3265D01*
X1678Y3265D01*
X1678Y3263D01*
X1670Y3263D01*
X1670Y3261D01*
X1662Y3261D01*
X1662Y3259D01*
X1654Y3259D01*
X1654Y3257D01*
X1646Y3257D01*
X1646Y3255D01*
X1638Y3255D01*
X1638Y3253D01*
X1630Y3253D01*
X1630Y3251D01*
X1622Y3251D01*
X1622Y3249D01*
X1614Y3249D01*
X1614Y3247D01*
X1606Y3247D01*
X1606Y3245D01*
X1596Y3245D01*
X1596Y3243D01*
X1588Y3243D01*
X1588Y3241D01*
X1580Y3241D01*
X1580Y3239D01*
X1572Y3239D01*
X1572Y3237D01*
X1564Y3237D01*
X1564Y3235D01*
X1556Y3235D01*
X1556Y3233D01*
X1548Y3233D01*
X1548Y3231D01*
X1540Y3231D01*
X1540Y3229D01*
X1532Y3229D01*
X1532Y3227D01*
X1524Y3227D01*
X1524Y3225D01*
X1516Y3225D01*
X1516Y3223D01*
X1508Y3223D01*
X1508Y3221D01*
X1500Y3221D01*
X1500Y3219D01*
X1492Y3219D01*
X1492Y3217D01*
X1484Y3217D01*
X1484Y3215D01*
X1476Y3215D01*
X1476Y3213D01*
X1468Y3213D01*
X1468Y3211D01*
X1458Y3211D01*
X1458Y3209D01*
X1450Y3209D01*
X1450Y3207D01*
X1442Y3207D01*
X1442Y3205D01*
X1434Y3205D01*
X1434Y3203D01*
X1426Y3203D01*
X1426Y3201D01*
X1418Y3201D01*
X1418Y3199D01*
X1410Y3199D01*
X1410Y3197D01*
X1402Y3197D01*
X1402Y3195D01*
X1394Y3195D01*
X1394Y3193D01*
X1386Y3193D01*
X1386Y3191D01*
X1378Y3191D01*
X1378Y3189D01*
X1370Y3189D01*
X1370Y3187D01*
X1362Y3187D01*
X1362Y3185D01*
X1354Y3185D01*
X1354Y3183D01*
X1346Y3183D01*
X1346Y3181D01*
X1338Y3181D01*
X1338Y3179D01*
X1330Y3179D01*
X1330Y3177D01*
X1326Y3177D01*
X1326Y3175D01*
X1324Y3175D01*
X1324Y3173D01*
X1320Y3173D01*
X1320Y3171D01*
X1318Y3171D01*
X1318Y3169D01*
X1314Y3169D01*
X1314Y3167D01*
X1310Y3167D01*
X1310Y3165D01*
X1300Y3165D01*
X1300Y3163D01*
X1724Y3163D01*
X1724Y3165D01*
X1726Y3165D01*
X1726Y3169D01*
X1728Y3169D01*
X1728Y3173D01*
X1730Y3173D01*
X1730Y3177D01*
X1732Y3177D01*
X1732Y3201D01*
X1730Y3201D01*
X1730Y3203D01*
X1728Y3203D01*
X1728Y3207D01*
X1726Y3207D01*
X1726Y3211D01*
X1724Y3211D01*
X1724Y3217D01*
X1722Y3217D01*
X1722Y3225D01*
X1720Y3225D01*
X1720Y3253D01*
X1722Y3253D01*
X1722Y3271D01*
X1702Y3271D01*
G37*
D02*
G36*
X818Y3267D02*
X818Y3265D01*
X1112Y3265D01*
X1112Y3267D01*
X818Y3267D01*
G37*
D02*
G36*
X818Y3267D02*
X818Y3265D01*
X1112Y3265D01*
X1112Y3267D01*
X818Y3267D01*
G37*
D02*
G36*
X818Y3267D02*
X818Y3265D01*
X1112Y3265D01*
X1112Y3267D01*
X818Y3267D01*
G37*
D02*
G36*
X818Y3265D02*
X818Y3209D01*
X1008Y3209D01*
X1008Y3207D01*
X1016Y3207D01*
X1016Y3205D01*
X1020Y3205D01*
X1020Y3203D01*
X1024Y3203D01*
X1024Y3201D01*
X1028Y3201D01*
X1028Y3199D01*
X1030Y3199D01*
X1030Y3197D01*
X1032Y3197D01*
X1032Y3195D01*
X1036Y3195D01*
X1036Y3193D01*
X1038Y3193D01*
X1038Y3191D01*
X1040Y3191D01*
X1040Y3189D01*
X1042Y3189D01*
X1042Y3187D01*
X1044Y3187D01*
X1044Y3185D01*
X1046Y3185D01*
X1046Y3183D01*
X1048Y3183D01*
X1048Y3179D01*
X1050Y3179D01*
X1050Y3177D01*
X1052Y3177D01*
X1052Y3173D01*
X1054Y3173D01*
X1054Y3169D01*
X1056Y3169D01*
X1056Y3165D01*
X1058Y3165D01*
X1058Y3161D01*
X1060Y3161D01*
X1060Y3151D01*
X1062Y3151D01*
X1062Y3125D01*
X1060Y3125D01*
X1060Y3117D01*
X1058Y3117D01*
X1058Y3111D01*
X1056Y3111D01*
X1056Y3107D01*
X1054Y3107D01*
X1054Y3103D01*
X1052Y3103D01*
X1052Y3101D01*
X1050Y3101D01*
X1050Y3097D01*
X1048Y3097D01*
X1048Y3095D01*
X1046Y3095D01*
X1046Y3093D01*
X1044Y3093D01*
X1044Y3091D01*
X1042Y3091D01*
X1042Y3089D01*
X1040Y3089D01*
X1040Y3087D01*
X1038Y3087D01*
X1038Y3085D01*
X1036Y3085D01*
X1036Y3083D01*
X1034Y3083D01*
X1034Y3063D01*
X1052Y3063D01*
X1052Y3061D01*
X1082Y3061D01*
X1082Y3059D01*
X1112Y3059D01*
X1112Y3057D01*
X1152Y3057D01*
X1152Y3079D01*
X1150Y3079D01*
X1150Y3087D01*
X1148Y3087D01*
X1148Y3097D01*
X1146Y3097D01*
X1146Y3107D01*
X1144Y3107D01*
X1144Y3117D01*
X1142Y3117D01*
X1142Y3127D01*
X1140Y3127D01*
X1140Y3135D01*
X1138Y3135D01*
X1138Y3145D01*
X1136Y3145D01*
X1136Y3155D01*
X1134Y3155D01*
X1134Y3165D01*
X1132Y3165D01*
X1132Y3175D01*
X1130Y3175D01*
X1130Y3183D01*
X1128Y3183D01*
X1128Y3193D01*
X1126Y3193D01*
X1126Y3203D01*
X1124Y3203D01*
X1124Y3213D01*
X1122Y3213D01*
X1122Y3223D01*
X1120Y3223D01*
X1120Y3231D01*
X1118Y3231D01*
X1118Y3241D01*
X1116Y3241D01*
X1116Y3251D01*
X1114Y3251D01*
X1114Y3261D01*
X1112Y3261D01*
X1112Y3265D01*
X818Y3265D01*
G37*
D02*
G36*
X818Y3209D02*
X818Y3185D01*
X838Y3185D01*
X838Y3189D01*
X840Y3189D01*
X840Y3191D01*
X844Y3191D01*
X844Y3193D01*
X846Y3193D01*
X846Y3195D01*
X848Y3195D01*
X848Y3197D01*
X850Y3197D01*
X850Y3199D01*
X854Y3199D01*
X854Y3201D01*
X858Y3201D01*
X858Y3203D01*
X860Y3203D01*
X860Y3205D01*
X866Y3205D01*
X866Y3207D01*
X872Y3207D01*
X872Y3209D01*
X818Y3209D01*
G37*
D02*
G36*
X908Y3209D02*
X908Y3207D01*
X916Y3207D01*
X916Y3205D01*
X920Y3205D01*
X920Y3203D01*
X924Y3203D01*
X924Y3201D01*
X928Y3201D01*
X928Y3199D01*
X930Y3199D01*
X930Y3197D01*
X950Y3197D01*
X950Y3199D01*
X954Y3199D01*
X954Y3201D01*
X958Y3201D01*
X958Y3203D01*
X960Y3203D01*
X960Y3205D01*
X966Y3205D01*
X966Y3207D01*
X972Y3207D01*
X972Y3209D01*
X908Y3209D01*
G37*
D02*
G36*
X1226Y3163D02*
X1226Y3161D01*
X1724Y3161D01*
X1724Y3163D01*
X1226Y3163D01*
G37*
D02*
G36*
X1226Y3163D02*
X1226Y3161D01*
X1724Y3161D01*
X1724Y3163D01*
X1226Y3163D01*
G37*
D02*
G36*
X1226Y3161D02*
X1226Y3157D01*
X1228Y3157D01*
X1228Y3147D01*
X1230Y3147D01*
X1230Y3139D01*
X1232Y3139D01*
X1232Y3133D01*
X1254Y3133D01*
X1254Y3131D01*
X1276Y3131D01*
X1276Y3129D01*
X1298Y3129D01*
X1298Y3127D01*
X1320Y3127D01*
X1320Y3125D01*
X1342Y3125D01*
X1342Y3123D01*
X1364Y3123D01*
X1364Y3121D01*
X1386Y3121D01*
X1386Y3119D01*
X1408Y3119D01*
X1408Y3117D01*
X1430Y3117D01*
X1430Y3115D01*
X1452Y3115D01*
X1452Y3113D01*
X1474Y3113D01*
X1474Y3111D01*
X1496Y3111D01*
X1496Y3109D01*
X1518Y3109D01*
X1518Y3107D01*
X1540Y3107D01*
X1540Y3105D01*
X1562Y3105D01*
X1562Y3103D01*
X1584Y3103D01*
X1584Y3101D01*
X1606Y3101D01*
X1606Y3099D01*
X1628Y3099D01*
X1628Y3097D01*
X1650Y3097D01*
X1650Y3095D01*
X1672Y3095D01*
X1672Y3093D01*
X1694Y3093D01*
X1694Y3091D01*
X1726Y3091D01*
X1726Y3111D01*
X1724Y3111D01*
X1724Y3117D01*
X1722Y3117D01*
X1722Y3125D01*
X1720Y3125D01*
X1720Y3153D01*
X1722Y3153D01*
X1722Y3161D01*
X1226Y3161D01*
G37*
D02*
G36*
X1634Y2933D02*
X1634Y2909D01*
X1636Y2909D01*
X1636Y2901D01*
X1638Y2901D01*
X1638Y2893D01*
X1640Y2893D01*
X1640Y2885D01*
X1642Y2885D01*
X1642Y2879D01*
X1644Y2879D01*
X1644Y2871D01*
X1646Y2871D01*
X1646Y2863D01*
X1648Y2863D01*
X1648Y2855D01*
X1650Y2855D01*
X1650Y2847D01*
X1652Y2847D01*
X1652Y2839D01*
X1654Y2839D01*
X1654Y2833D01*
X1656Y2833D01*
X1656Y2825D01*
X1658Y2825D01*
X1658Y2817D01*
X1660Y2817D01*
X1660Y2809D01*
X1662Y2809D01*
X1662Y2801D01*
X1664Y2801D01*
X1664Y2795D01*
X1666Y2795D01*
X1666Y2787D01*
X1668Y2787D01*
X1668Y2779D01*
X1670Y2779D01*
X1670Y2771D01*
X1672Y2771D01*
X1672Y2763D01*
X1674Y2763D01*
X1674Y2755D01*
X1676Y2755D01*
X1676Y2749D01*
X1678Y2749D01*
X1678Y2741D01*
X1680Y2741D01*
X1680Y2733D01*
X1682Y2733D01*
X1682Y2725D01*
X1684Y2725D01*
X1684Y2717D01*
X1686Y2717D01*
X1686Y2711D01*
X1688Y2711D01*
X1688Y2703D01*
X1690Y2703D01*
X1690Y2695D01*
X1692Y2695D01*
X1692Y2687D01*
X1694Y2687D01*
X1694Y2679D01*
X1696Y2679D01*
X1696Y2671D01*
X1698Y2671D01*
X1698Y2665D01*
X1700Y2665D01*
X1700Y2657D01*
X1720Y2657D01*
X1720Y2683D01*
X1722Y2683D01*
X1722Y2691D01*
X1724Y2691D01*
X1724Y2695D01*
X1726Y2695D01*
X1726Y2699D01*
X1728Y2699D01*
X1728Y2703D01*
X1730Y2703D01*
X1730Y2707D01*
X1732Y2707D01*
X1732Y2731D01*
X1730Y2731D01*
X1730Y2733D01*
X1728Y2733D01*
X1728Y2737D01*
X1726Y2737D01*
X1726Y2741D01*
X1724Y2741D01*
X1724Y2747D01*
X1722Y2747D01*
X1722Y2755D01*
X1720Y2755D01*
X1720Y2783D01*
X1722Y2783D01*
X1722Y2791D01*
X1724Y2791D01*
X1724Y2795D01*
X1726Y2795D01*
X1726Y2799D01*
X1728Y2799D01*
X1728Y2803D01*
X1730Y2803D01*
X1730Y2807D01*
X1732Y2807D01*
X1732Y2831D01*
X1730Y2831D01*
X1730Y2833D01*
X1728Y2833D01*
X1728Y2837D01*
X1726Y2837D01*
X1726Y2841D01*
X1724Y2841D01*
X1724Y2847D01*
X1722Y2847D01*
X1722Y2855D01*
X1720Y2855D01*
X1720Y2889D01*
X1718Y2889D01*
X1718Y2891D01*
X1716Y2891D01*
X1716Y2895D01*
X1714Y2895D01*
X1714Y2897D01*
X1712Y2897D01*
X1712Y2901D01*
X1710Y2901D01*
X1710Y2903D01*
X1708Y2903D01*
X1708Y2907D01*
X1706Y2907D01*
X1706Y2909D01*
X1704Y2909D01*
X1704Y2911D01*
X1702Y2911D01*
X1702Y2915D01*
X1700Y2915D01*
X1700Y2917D01*
X1698Y2917D01*
X1698Y2921D01*
X1696Y2921D01*
X1696Y2923D01*
X1694Y2923D01*
X1694Y2927D01*
X1692Y2927D01*
X1692Y2929D01*
X1690Y2929D01*
X1690Y2931D01*
X1664Y2931D01*
X1664Y2933D01*
X1634Y2933D01*
G37*
D02*
G36*
X1996Y3841D02*
X1996Y3221D01*
X1994Y3221D01*
X1994Y3215D01*
X1992Y3215D01*
X1992Y3211D01*
X1990Y3211D01*
X1990Y3207D01*
X1988Y3207D01*
X1988Y3205D01*
X1986Y3205D01*
X1986Y3203D01*
X1984Y3203D01*
X1984Y3201D01*
X1982Y3201D01*
X1982Y3199D01*
X1980Y3199D01*
X1980Y3197D01*
X1976Y3197D01*
X1976Y3195D01*
X1972Y3195D01*
X1972Y3193D01*
X1962Y3193D01*
X1962Y3191D01*
X3638Y3191D01*
X3638Y3193D01*
X3636Y3193D01*
X3636Y3195D01*
X3634Y3195D01*
X3634Y3197D01*
X3632Y3197D01*
X3632Y3201D01*
X3630Y3201D01*
X3630Y3203D01*
X3628Y3203D01*
X3628Y3207D01*
X3626Y3207D01*
X3626Y3211D01*
X3624Y3211D01*
X3624Y3217D01*
X3622Y3217D01*
X3622Y3225D01*
X3620Y3225D01*
X3620Y3253D01*
X3622Y3253D01*
X3622Y3261D01*
X3624Y3261D01*
X3624Y3265D01*
X3626Y3265D01*
X3626Y3269D01*
X3628Y3269D01*
X3628Y3273D01*
X3630Y3273D01*
X3630Y3277D01*
X3632Y3277D01*
X3632Y3301D01*
X3630Y3301D01*
X3630Y3303D01*
X3628Y3303D01*
X3628Y3307D01*
X3626Y3307D01*
X3626Y3311D01*
X3624Y3311D01*
X3624Y3317D01*
X3622Y3317D01*
X3622Y3325D01*
X3620Y3325D01*
X3620Y3353D01*
X3622Y3353D01*
X3622Y3361D01*
X3624Y3361D01*
X3624Y3365D01*
X3626Y3365D01*
X3626Y3369D01*
X3628Y3369D01*
X3628Y3373D01*
X3630Y3373D01*
X3630Y3377D01*
X3632Y3377D01*
X3632Y3401D01*
X3630Y3401D01*
X3630Y3403D01*
X3628Y3403D01*
X3628Y3407D01*
X3626Y3407D01*
X3626Y3411D01*
X3624Y3411D01*
X3624Y3417D01*
X3622Y3417D01*
X3622Y3425D01*
X3620Y3425D01*
X3620Y3453D01*
X3622Y3453D01*
X3622Y3461D01*
X3624Y3461D01*
X3624Y3465D01*
X3626Y3465D01*
X3626Y3469D01*
X3628Y3469D01*
X3628Y3473D01*
X3630Y3473D01*
X3630Y3477D01*
X3632Y3477D01*
X3632Y3501D01*
X3630Y3501D01*
X3630Y3503D01*
X3628Y3503D01*
X3628Y3507D01*
X3626Y3507D01*
X3626Y3511D01*
X3624Y3511D01*
X3624Y3517D01*
X3622Y3517D01*
X3622Y3525D01*
X3620Y3525D01*
X3620Y3553D01*
X3622Y3553D01*
X3622Y3561D01*
X3624Y3561D01*
X3624Y3565D01*
X3626Y3565D01*
X3626Y3569D01*
X3628Y3569D01*
X3628Y3573D01*
X3630Y3573D01*
X3630Y3577D01*
X3632Y3577D01*
X3632Y3601D01*
X3630Y3601D01*
X3630Y3603D01*
X3628Y3603D01*
X3628Y3607D01*
X3626Y3607D01*
X3626Y3611D01*
X3624Y3611D01*
X3624Y3617D01*
X3622Y3617D01*
X3622Y3625D01*
X3620Y3625D01*
X3620Y3653D01*
X3622Y3653D01*
X3622Y3661D01*
X3624Y3661D01*
X3624Y3665D01*
X3626Y3665D01*
X3626Y3669D01*
X3628Y3669D01*
X3628Y3673D01*
X3630Y3673D01*
X3630Y3677D01*
X3632Y3677D01*
X3632Y3701D01*
X3630Y3701D01*
X3630Y3703D01*
X3628Y3703D01*
X3628Y3707D01*
X3626Y3707D01*
X3626Y3711D01*
X3624Y3711D01*
X3624Y3717D01*
X3622Y3717D01*
X3622Y3725D01*
X3620Y3725D01*
X3620Y3753D01*
X3622Y3753D01*
X3622Y3761D01*
X3624Y3761D01*
X3624Y3765D01*
X3626Y3765D01*
X3626Y3769D01*
X3628Y3769D01*
X3628Y3773D01*
X3630Y3773D01*
X3630Y3777D01*
X3632Y3777D01*
X3632Y3779D01*
X3634Y3779D01*
X3634Y3781D01*
X3636Y3781D01*
X3636Y3785D01*
X3638Y3785D01*
X3638Y3787D01*
X3640Y3787D01*
X3640Y3789D01*
X3642Y3789D01*
X3642Y3791D01*
X3644Y3791D01*
X3644Y3793D01*
X3648Y3793D01*
X3648Y3795D01*
X3650Y3795D01*
X3650Y3815D01*
X3538Y3815D01*
X3538Y3817D01*
X3418Y3817D01*
X3418Y3819D01*
X3296Y3819D01*
X3296Y3821D01*
X3174Y3821D01*
X3174Y3823D01*
X3052Y3823D01*
X3052Y3825D01*
X2932Y3825D01*
X2932Y3827D01*
X2810Y3827D01*
X2810Y3829D01*
X2688Y3829D01*
X2688Y3831D01*
X2566Y3831D01*
X2566Y3833D01*
X2446Y3833D01*
X2446Y3835D01*
X2324Y3835D01*
X2324Y3837D01*
X2202Y3837D01*
X2202Y3839D01*
X2080Y3839D01*
X2080Y3841D01*
X1996Y3841D01*
G37*
D02*
G36*
X3734Y3813D02*
X3734Y3793D01*
X3736Y3793D01*
X3736Y3791D01*
X3738Y3791D01*
X3738Y3789D01*
X3740Y3789D01*
X3740Y3787D01*
X3742Y3787D01*
X3742Y3785D01*
X3744Y3785D01*
X3744Y3783D01*
X3746Y3783D01*
X3746Y3781D01*
X3748Y3781D01*
X3748Y3777D01*
X3750Y3777D01*
X3750Y3775D01*
X3752Y3775D01*
X3752Y3771D01*
X3754Y3771D01*
X3754Y3767D01*
X3756Y3767D01*
X3756Y3763D01*
X3758Y3763D01*
X3758Y3755D01*
X3760Y3755D01*
X3760Y3721D01*
X3758Y3721D01*
X3758Y3715D01*
X3756Y3715D01*
X3756Y3709D01*
X3754Y3709D01*
X3754Y3705D01*
X3752Y3705D01*
X3752Y3703D01*
X3750Y3703D01*
X3750Y3699D01*
X3748Y3699D01*
X3748Y3677D01*
X3750Y3677D01*
X3750Y3675D01*
X3752Y3675D01*
X3752Y3671D01*
X3754Y3671D01*
X3754Y3667D01*
X3756Y3667D01*
X3756Y3663D01*
X3758Y3663D01*
X3758Y3655D01*
X3760Y3655D01*
X3760Y3621D01*
X3758Y3621D01*
X3758Y3615D01*
X3756Y3615D01*
X3756Y3609D01*
X3754Y3609D01*
X3754Y3605D01*
X3752Y3605D01*
X3752Y3603D01*
X3750Y3603D01*
X3750Y3599D01*
X3748Y3599D01*
X3748Y3577D01*
X3750Y3577D01*
X3750Y3575D01*
X3752Y3575D01*
X3752Y3571D01*
X3754Y3571D01*
X3754Y3567D01*
X3756Y3567D01*
X3756Y3563D01*
X3758Y3563D01*
X3758Y3555D01*
X3760Y3555D01*
X3760Y3521D01*
X3758Y3521D01*
X3758Y3515D01*
X3756Y3515D01*
X3756Y3509D01*
X3754Y3509D01*
X3754Y3505D01*
X3752Y3505D01*
X3752Y3503D01*
X3750Y3503D01*
X3750Y3499D01*
X3748Y3499D01*
X3748Y3477D01*
X3750Y3477D01*
X3750Y3475D01*
X3752Y3475D01*
X3752Y3471D01*
X3754Y3471D01*
X3754Y3467D01*
X3756Y3467D01*
X3756Y3463D01*
X3758Y3463D01*
X3758Y3455D01*
X3760Y3455D01*
X3760Y3421D01*
X3758Y3421D01*
X3758Y3415D01*
X3756Y3415D01*
X3756Y3409D01*
X3754Y3409D01*
X3754Y3405D01*
X3752Y3405D01*
X3752Y3403D01*
X3750Y3403D01*
X3750Y3399D01*
X3748Y3399D01*
X3748Y3377D01*
X3750Y3377D01*
X3750Y3375D01*
X3752Y3375D01*
X3752Y3371D01*
X3754Y3371D01*
X3754Y3367D01*
X3756Y3367D01*
X3756Y3363D01*
X3758Y3363D01*
X3758Y3355D01*
X3760Y3355D01*
X3760Y3321D01*
X3758Y3321D01*
X3758Y3315D01*
X3756Y3315D01*
X3756Y3309D01*
X3754Y3309D01*
X3754Y3305D01*
X3752Y3305D01*
X3752Y3303D01*
X3750Y3303D01*
X3750Y3299D01*
X3748Y3299D01*
X3748Y3277D01*
X3750Y3277D01*
X3750Y3275D01*
X3752Y3275D01*
X3752Y3271D01*
X3754Y3271D01*
X3754Y3267D01*
X3756Y3267D01*
X3756Y3263D01*
X3758Y3263D01*
X3758Y3255D01*
X3760Y3255D01*
X3760Y3221D01*
X3758Y3221D01*
X3758Y3215D01*
X3756Y3215D01*
X3756Y3209D01*
X3754Y3209D01*
X3754Y3205D01*
X3752Y3205D01*
X3752Y3203D01*
X3750Y3203D01*
X3750Y3199D01*
X3748Y3199D01*
X3748Y3197D01*
X3746Y3197D01*
X3746Y3195D01*
X3744Y3195D01*
X3744Y3193D01*
X3742Y3193D01*
X3742Y3189D01*
X3740Y3189D01*
X3740Y3187D01*
X3736Y3187D01*
X3736Y3185D01*
X3734Y3185D01*
X3734Y3183D01*
X3732Y3183D01*
X3732Y3181D01*
X3730Y3181D01*
X3730Y3179D01*
X3726Y3179D01*
X3726Y3177D01*
X3724Y3177D01*
X3724Y3175D01*
X3720Y3175D01*
X3720Y3173D01*
X3714Y3173D01*
X3714Y3171D01*
X3708Y3171D01*
X3708Y3169D01*
X3792Y3169D01*
X3792Y3209D01*
X3794Y3209D01*
X3794Y3457D01*
X3796Y3457D01*
X3796Y3707D01*
X3798Y3707D01*
X3798Y3811D01*
X3782Y3811D01*
X3782Y3813D01*
X3734Y3813D01*
G37*
D02*
G36*
X302Y3719D02*
X302Y3713D01*
X300Y3713D01*
X300Y3709D01*
X298Y3709D01*
X298Y3705D01*
X296Y3705D01*
X296Y3701D01*
X294Y3701D01*
X294Y3699D01*
X292Y3699D01*
X292Y3695D01*
X290Y3695D01*
X290Y3693D01*
X288Y3693D01*
X288Y3691D01*
X286Y3691D01*
X286Y3689D01*
X284Y3689D01*
X284Y3687D01*
X282Y3687D01*
X282Y3685D01*
X280Y3685D01*
X280Y3683D01*
X278Y3683D01*
X278Y3681D01*
X274Y3681D01*
X274Y3679D01*
X272Y3679D01*
X272Y3677D01*
X268Y3677D01*
X268Y3675D01*
X266Y3675D01*
X266Y3673D01*
X262Y3673D01*
X262Y3671D01*
X256Y3671D01*
X256Y3669D01*
X248Y3669D01*
X248Y3667D01*
X376Y3667D01*
X376Y3669D01*
X368Y3669D01*
X368Y3671D01*
X364Y3671D01*
X364Y3673D01*
X358Y3673D01*
X358Y3675D01*
X356Y3675D01*
X356Y3677D01*
X352Y3677D01*
X352Y3679D01*
X350Y3679D01*
X350Y3681D01*
X346Y3681D01*
X346Y3683D01*
X344Y3683D01*
X344Y3685D01*
X342Y3685D01*
X342Y3687D01*
X340Y3687D01*
X340Y3689D01*
X338Y3689D01*
X338Y3691D01*
X336Y3691D01*
X336Y3693D01*
X334Y3693D01*
X334Y3695D01*
X332Y3695D01*
X332Y3699D01*
X330Y3699D01*
X330Y3701D01*
X328Y3701D01*
X328Y3705D01*
X326Y3705D01*
X326Y3709D01*
X324Y3709D01*
X324Y3713D01*
X322Y3713D01*
X322Y3719D01*
X302Y3719D01*
G37*
D02*
G36*
X172Y3679D02*
X172Y3677D01*
X168Y3677D01*
X168Y3675D01*
X166Y3675D01*
X166Y3673D01*
X162Y3673D01*
X162Y3671D01*
X156Y3671D01*
X156Y3669D01*
X148Y3669D01*
X148Y3667D01*
X220Y3667D01*
X220Y3669D01*
X212Y3669D01*
X212Y3671D01*
X206Y3671D01*
X206Y3673D01*
X202Y3673D01*
X202Y3675D01*
X198Y3675D01*
X198Y3677D01*
X196Y3677D01*
X196Y3679D01*
X172Y3679D01*
G37*
D02*
G36*
X428Y3679D02*
X428Y3677D01*
X426Y3677D01*
X426Y3675D01*
X422Y3675D01*
X422Y3673D01*
X418Y3673D01*
X418Y3671D01*
X412Y3671D01*
X412Y3669D01*
X404Y3669D01*
X404Y3667D01*
X476Y3667D01*
X476Y3669D01*
X468Y3669D01*
X468Y3671D01*
X464Y3671D01*
X464Y3673D01*
X458Y3673D01*
X458Y3675D01*
X456Y3675D01*
X456Y3677D01*
X452Y3677D01*
X452Y3679D01*
X428Y3679D01*
G37*
D02*
G36*
X526Y3677D02*
X526Y3675D01*
X522Y3675D01*
X522Y3673D01*
X518Y3673D01*
X518Y3671D01*
X512Y3671D01*
X512Y3669D01*
X504Y3669D01*
X504Y3667D01*
X582Y3667D01*
X582Y3669D01*
X574Y3669D01*
X574Y3671D01*
X566Y3671D01*
X566Y3673D01*
X558Y3673D01*
X558Y3675D01*
X550Y3675D01*
X550Y3677D01*
X526Y3677D01*
G37*
D02*
G36*
X102Y3667D02*
X102Y3665D01*
X590Y3665D01*
X590Y3667D01*
X102Y3667D01*
G37*
D02*
G36*
X102Y3667D02*
X102Y3665D01*
X590Y3665D01*
X590Y3667D01*
X102Y3667D01*
G37*
D02*
G36*
X102Y3667D02*
X102Y3665D01*
X590Y3665D01*
X590Y3667D01*
X102Y3667D01*
G37*
D02*
G36*
X102Y3667D02*
X102Y3665D01*
X590Y3665D01*
X590Y3667D01*
X102Y3667D01*
G37*
D02*
G36*
X102Y3665D02*
X102Y3609D01*
X508Y3609D01*
X508Y3607D01*
X516Y3607D01*
X516Y3605D01*
X520Y3605D01*
X520Y3603D01*
X524Y3603D01*
X524Y3601D01*
X528Y3601D01*
X528Y3599D01*
X530Y3599D01*
X530Y3597D01*
X532Y3597D01*
X532Y3595D01*
X536Y3595D01*
X536Y3593D01*
X538Y3593D01*
X538Y3591D01*
X540Y3591D01*
X540Y3589D01*
X542Y3589D01*
X542Y3587D01*
X544Y3587D01*
X544Y3585D01*
X546Y3585D01*
X546Y3583D01*
X548Y3583D01*
X548Y3579D01*
X550Y3579D01*
X550Y3577D01*
X552Y3577D01*
X552Y3573D01*
X554Y3573D01*
X554Y3569D01*
X556Y3569D01*
X556Y3565D01*
X558Y3565D01*
X558Y3561D01*
X560Y3561D01*
X560Y3551D01*
X562Y3551D01*
X562Y3525D01*
X560Y3525D01*
X560Y3517D01*
X558Y3517D01*
X558Y3511D01*
X556Y3511D01*
X556Y3507D01*
X554Y3507D01*
X554Y3503D01*
X552Y3503D01*
X552Y3501D01*
X550Y3501D01*
X550Y3497D01*
X548Y3497D01*
X548Y3495D01*
X546Y3495D01*
X546Y3493D01*
X544Y3493D01*
X544Y3491D01*
X542Y3491D01*
X542Y3489D01*
X540Y3489D01*
X540Y3487D01*
X538Y3487D01*
X538Y3485D01*
X536Y3485D01*
X536Y3483D01*
X534Y3483D01*
X534Y3481D01*
X532Y3481D01*
X532Y3479D01*
X528Y3479D01*
X528Y3477D01*
X526Y3477D01*
X526Y3475D01*
X522Y3475D01*
X522Y3473D01*
X518Y3473D01*
X518Y3471D01*
X512Y3471D01*
X512Y3469D01*
X504Y3469D01*
X504Y3467D01*
X644Y3467D01*
X644Y3569D01*
X642Y3569D01*
X642Y3603D01*
X644Y3603D01*
X644Y3611D01*
X646Y3611D01*
X646Y3615D01*
X648Y3615D01*
X648Y3619D01*
X650Y3619D01*
X650Y3621D01*
X652Y3621D01*
X652Y3623D01*
X654Y3623D01*
X654Y3625D01*
X656Y3625D01*
X656Y3627D01*
X658Y3627D01*
X658Y3629D01*
X660Y3629D01*
X660Y3649D01*
X652Y3649D01*
X652Y3651D01*
X644Y3651D01*
X644Y3653D01*
X636Y3653D01*
X636Y3655D01*
X630Y3655D01*
X630Y3657D01*
X622Y3657D01*
X622Y3659D01*
X614Y3659D01*
X614Y3661D01*
X606Y3661D01*
X606Y3663D01*
X598Y3663D01*
X598Y3665D01*
X102Y3665D01*
G37*
D02*
G36*
X102Y3609D02*
X102Y3467D01*
X376Y3467D01*
X376Y3469D01*
X368Y3469D01*
X368Y3471D01*
X364Y3471D01*
X364Y3473D01*
X358Y3473D01*
X358Y3475D01*
X356Y3475D01*
X356Y3477D01*
X352Y3477D01*
X352Y3479D01*
X350Y3479D01*
X350Y3481D01*
X346Y3481D01*
X346Y3483D01*
X344Y3483D01*
X344Y3485D01*
X342Y3485D01*
X342Y3487D01*
X340Y3487D01*
X340Y3489D01*
X338Y3489D01*
X338Y3491D01*
X336Y3491D01*
X336Y3493D01*
X334Y3493D01*
X334Y3495D01*
X332Y3495D01*
X332Y3499D01*
X330Y3499D01*
X330Y3501D01*
X328Y3501D01*
X328Y3505D01*
X326Y3505D01*
X326Y3509D01*
X324Y3509D01*
X324Y3513D01*
X322Y3513D01*
X322Y3519D01*
X320Y3519D01*
X320Y3557D01*
X322Y3557D01*
X322Y3563D01*
X324Y3563D01*
X324Y3569D01*
X326Y3569D01*
X326Y3573D01*
X328Y3573D01*
X328Y3575D01*
X330Y3575D01*
X330Y3579D01*
X332Y3579D01*
X332Y3581D01*
X334Y3581D01*
X334Y3583D01*
X336Y3583D01*
X336Y3585D01*
X338Y3585D01*
X338Y3589D01*
X340Y3589D01*
X340Y3591D01*
X344Y3591D01*
X344Y3593D01*
X346Y3593D01*
X346Y3595D01*
X348Y3595D01*
X348Y3597D01*
X350Y3597D01*
X350Y3599D01*
X354Y3599D01*
X354Y3601D01*
X358Y3601D01*
X358Y3603D01*
X360Y3603D01*
X360Y3605D01*
X366Y3605D01*
X366Y3607D01*
X372Y3607D01*
X372Y3609D01*
X102Y3609D01*
G37*
D02*
G36*
X408Y3609D02*
X408Y3607D01*
X416Y3607D01*
X416Y3605D01*
X420Y3605D01*
X420Y3603D01*
X424Y3603D01*
X424Y3601D01*
X428Y3601D01*
X428Y3599D01*
X430Y3599D01*
X430Y3597D01*
X450Y3597D01*
X450Y3599D01*
X454Y3599D01*
X454Y3601D01*
X458Y3601D01*
X458Y3603D01*
X460Y3603D01*
X460Y3605D01*
X466Y3605D01*
X466Y3607D01*
X472Y3607D01*
X472Y3609D01*
X408Y3609D01*
G37*
D02*
G36*
X428Y3479D02*
X428Y3477D01*
X426Y3477D01*
X426Y3475D01*
X422Y3475D01*
X422Y3473D01*
X418Y3473D01*
X418Y3471D01*
X412Y3471D01*
X412Y3469D01*
X404Y3469D01*
X404Y3467D01*
X476Y3467D01*
X476Y3469D01*
X468Y3469D01*
X468Y3471D01*
X464Y3471D01*
X464Y3473D01*
X458Y3473D01*
X458Y3475D01*
X456Y3475D01*
X456Y3477D01*
X452Y3477D01*
X452Y3479D01*
X428Y3479D01*
G37*
D02*
G36*
X102Y3467D02*
X102Y3465D01*
X644Y3465D01*
X644Y3467D01*
X102Y3467D01*
G37*
D02*
G36*
X102Y3467D02*
X102Y3465D01*
X644Y3465D01*
X644Y3467D01*
X102Y3467D01*
G37*
D02*
G36*
X102Y3467D02*
X102Y3465D01*
X644Y3465D01*
X644Y3467D01*
X102Y3467D01*
G37*
D02*
G36*
X102Y3465D02*
X102Y3409D01*
X508Y3409D01*
X508Y3407D01*
X516Y3407D01*
X516Y3405D01*
X520Y3405D01*
X520Y3403D01*
X524Y3403D01*
X524Y3401D01*
X528Y3401D01*
X528Y3399D01*
X530Y3399D01*
X530Y3397D01*
X532Y3397D01*
X532Y3395D01*
X536Y3395D01*
X536Y3393D01*
X538Y3393D01*
X538Y3391D01*
X540Y3391D01*
X540Y3389D01*
X542Y3389D01*
X542Y3387D01*
X544Y3387D01*
X544Y3385D01*
X546Y3385D01*
X546Y3383D01*
X548Y3383D01*
X548Y3379D01*
X550Y3379D01*
X550Y3377D01*
X552Y3377D01*
X552Y3373D01*
X554Y3373D01*
X554Y3369D01*
X556Y3369D01*
X556Y3365D01*
X558Y3365D01*
X558Y3361D01*
X560Y3361D01*
X560Y3351D01*
X562Y3351D01*
X562Y3325D01*
X560Y3325D01*
X560Y3317D01*
X558Y3317D01*
X558Y3311D01*
X556Y3311D01*
X556Y3307D01*
X554Y3307D01*
X554Y3303D01*
X552Y3303D01*
X552Y3301D01*
X550Y3301D01*
X550Y3297D01*
X548Y3297D01*
X548Y3295D01*
X546Y3295D01*
X546Y3293D01*
X544Y3293D01*
X544Y3291D01*
X542Y3291D01*
X542Y3289D01*
X540Y3289D01*
X540Y3287D01*
X538Y3287D01*
X538Y3285D01*
X536Y3285D01*
X536Y3283D01*
X534Y3283D01*
X534Y3281D01*
X532Y3281D01*
X532Y3279D01*
X528Y3279D01*
X528Y3277D01*
X526Y3277D01*
X526Y3275D01*
X522Y3275D01*
X522Y3273D01*
X518Y3273D01*
X518Y3271D01*
X512Y3271D01*
X512Y3269D01*
X504Y3269D01*
X504Y3267D01*
X648Y3267D01*
X648Y3343D01*
X646Y3343D01*
X646Y3455D01*
X644Y3455D01*
X644Y3465D01*
X102Y3465D01*
G37*
D02*
G36*
X102Y3409D02*
X102Y3267D01*
X376Y3267D01*
X376Y3269D01*
X368Y3269D01*
X368Y3271D01*
X364Y3271D01*
X364Y3273D01*
X358Y3273D01*
X358Y3275D01*
X356Y3275D01*
X356Y3277D01*
X352Y3277D01*
X352Y3279D01*
X350Y3279D01*
X350Y3281D01*
X346Y3281D01*
X346Y3283D01*
X344Y3283D01*
X344Y3285D01*
X342Y3285D01*
X342Y3287D01*
X340Y3287D01*
X340Y3289D01*
X338Y3289D01*
X338Y3291D01*
X336Y3291D01*
X336Y3293D01*
X334Y3293D01*
X334Y3295D01*
X332Y3295D01*
X332Y3299D01*
X330Y3299D01*
X330Y3301D01*
X328Y3301D01*
X328Y3305D01*
X326Y3305D01*
X326Y3309D01*
X324Y3309D01*
X324Y3313D01*
X322Y3313D01*
X322Y3319D01*
X320Y3319D01*
X320Y3357D01*
X322Y3357D01*
X322Y3363D01*
X324Y3363D01*
X324Y3369D01*
X326Y3369D01*
X326Y3373D01*
X328Y3373D01*
X328Y3375D01*
X330Y3375D01*
X330Y3379D01*
X332Y3379D01*
X332Y3381D01*
X334Y3381D01*
X334Y3383D01*
X336Y3383D01*
X336Y3385D01*
X338Y3385D01*
X338Y3389D01*
X340Y3389D01*
X340Y3391D01*
X344Y3391D01*
X344Y3393D01*
X346Y3393D01*
X346Y3395D01*
X348Y3395D01*
X348Y3397D01*
X350Y3397D01*
X350Y3399D01*
X354Y3399D01*
X354Y3401D01*
X358Y3401D01*
X358Y3403D01*
X360Y3403D01*
X360Y3405D01*
X366Y3405D01*
X366Y3407D01*
X372Y3407D01*
X372Y3409D01*
X102Y3409D01*
G37*
D02*
G36*
X408Y3409D02*
X408Y3407D01*
X416Y3407D01*
X416Y3405D01*
X420Y3405D01*
X420Y3403D01*
X424Y3403D01*
X424Y3401D01*
X428Y3401D01*
X428Y3399D01*
X430Y3399D01*
X430Y3397D01*
X450Y3397D01*
X450Y3399D01*
X454Y3399D01*
X454Y3401D01*
X458Y3401D01*
X458Y3403D01*
X460Y3403D01*
X460Y3405D01*
X466Y3405D01*
X466Y3407D01*
X472Y3407D01*
X472Y3409D01*
X408Y3409D01*
G37*
D02*
G36*
X428Y3279D02*
X428Y3277D01*
X426Y3277D01*
X426Y3275D01*
X422Y3275D01*
X422Y3273D01*
X418Y3273D01*
X418Y3271D01*
X412Y3271D01*
X412Y3269D01*
X404Y3269D01*
X404Y3267D01*
X476Y3267D01*
X476Y3269D01*
X468Y3269D01*
X468Y3271D01*
X464Y3271D01*
X464Y3273D01*
X458Y3273D01*
X458Y3275D01*
X456Y3275D01*
X456Y3277D01*
X452Y3277D01*
X452Y3279D01*
X428Y3279D01*
G37*
D02*
G36*
X102Y3267D02*
X102Y3265D01*
X648Y3265D01*
X648Y3267D01*
X102Y3267D01*
G37*
D02*
G36*
X102Y3267D02*
X102Y3265D01*
X648Y3265D01*
X648Y3267D01*
X102Y3267D01*
G37*
D02*
G36*
X102Y3267D02*
X102Y3265D01*
X648Y3265D01*
X648Y3267D01*
X102Y3267D01*
G37*
D02*
G36*
X102Y3265D02*
X102Y3209D01*
X508Y3209D01*
X508Y3207D01*
X516Y3207D01*
X516Y3205D01*
X520Y3205D01*
X520Y3203D01*
X524Y3203D01*
X524Y3201D01*
X528Y3201D01*
X528Y3199D01*
X530Y3199D01*
X530Y3197D01*
X532Y3197D01*
X532Y3195D01*
X536Y3195D01*
X536Y3193D01*
X538Y3193D01*
X538Y3191D01*
X540Y3191D01*
X540Y3189D01*
X542Y3189D01*
X542Y3187D01*
X544Y3187D01*
X544Y3185D01*
X546Y3185D01*
X546Y3183D01*
X548Y3183D01*
X548Y3179D01*
X550Y3179D01*
X550Y3177D01*
X552Y3177D01*
X552Y3173D01*
X554Y3173D01*
X554Y3169D01*
X556Y3169D01*
X556Y3165D01*
X558Y3165D01*
X558Y3161D01*
X560Y3161D01*
X560Y3151D01*
X562Y3151D01*
X562Y3125D01*
X560Y3125D01*
X560Y3117D01*
X558Y3117D01*
X558Y3111D01*
X556Y3111D01*
X556Y3107D01*
X554Y3107D01*
X554Y3103D01*
X552Y3103D01*
X552Y3101D01*
X550Y3101D01*
X550Y3097D01*
X548Y3097D01*
X548Y3095D01*
X546Y3095D01*
X546Y3093D01*
X544Y3093D01*
X544Y3091D01*
X542Y3091D01*
X542Y3089D01*
X540Y3089D01*
X540Y3087D01*
X538Y3087D01*
X538Y3085D01*
X536Y3085D01*
X536Y3083D01*
X534Y3083D01*
X534Y3081D01*
X532Y3081D01*
X532Y3079D01*
X528Y3079D01*
X528Y3077D01*
X526Y3077D01*
X526Y3075D01*
X522Y3075D01*
X522Y3073D01*
X518Y3073D01*
X518Y3071D01*
X512Y3071D01*
X512Y3069D01*
X504Y3069D01*
X504Y3067D01*
X652Y3067D01*
X652Y3117D01*
X650Y3117D01*
X650Y3231D01*
X648Y3231D01*
X648Y3265D01*
X102Y3265D01*
G37*
D02*
G36*
X102Y3209D02*
X102Y3191D01*
X164Y3191D01*
X164Y3189D01*
X226Y3189D01*
X226Y3187D01*
X288Y3187D01*
X288Y3185D01*
X338Y3185D01*
X338Y3189D01*
X340Y3189D01*
X340Y3191D01*
X344Y3191D01*
X344Y3193D01*
X346Y3193D01*
X346Y3195D01*
X348Y3195D01*
X348Y3197D01*
X350Y3197D01*
X350Y3199D01*
X354Y3199D01*
X354Y3201D01*
X358Y3201D01*
X358Y3203D01*
X360Y3203D01*
X360Y3205D01*
X366Y3205D01*
X366Y3207D01*
X372Y3207D01*
X372Y3209D01*
X102Y3209D01*
G37*
D02*
G36*
X408Y3209D02*
X408Y3207D01*
X416Y3207D01*
X416Y3205D01*
X420Y3205D01*
X420Y3203D01*
X424Y3203D01*
X424Y3201D01*
X428Y3201D01*
X428Y3199D01*
X430Y3199D01*
X430Y3197D01*
X450Y3197D01*
X450Y3199D01*
X454Y3199D01*
X454Y3201D01*
X458Y3201D01*
X458Y3203D01*
X460Y3203D01*
X460Y3205D01*
X466Y3205D01*
X466Y3207D01*
X472Y3207D01*
X472Y3209D01*
X408Y3209D01*
G37*
D02*
G36*
X1852Y3193D02*
X1852Y3191D01*
X1932Y3191D01*
X1932Y3193D01*
X1852Y3193D01*
G37*
D02*
G36*
X1852Y3191D02*
X1852Y3189D01*
X3640Y3189D01*
X3640Y3191D01*
X1852Y3191D01*
G37*
D02*
G36*
X1852Y3191D02*
X1852Y3189D01*
X3640Y3189D01*
X3640Y3191D01*
X1852Y3191D01*
G37*
D02*
G36*
X1852Y3189D02*
X1852Y3171D01*
X1854Y3171D01*
X1854Y3169D01*
X3672Y3169D01*
X3672Y3171D01*
X3666Y3171D01*
X3666Y3173D01*
X3662Y3173D01*
X3662Y3175D01*
X3658Y3175D01*
X3658Y3177D01*
X3654Y3177D01*
X3654Y3179D01*
X3652Y3179D01*
X3652Y3181D01*
X3648Y3181D01*
X3648Y3183D01*
X3646Y3183D01*
X3646Y3185D01*
X3644Y3185D01*
X3644Y3187D01*
X3642Y3187D01*
X3642Y3189D01*
X1852Y3189D01*
G37*
D02*
G36*
X1854Y3169D02*
X1854Y3167D01*
X3792Y3167D01*
X3792Y3169D01*
X1854Y3169D01*
G37*
D02*
G36*
X1854Y3169D02*
X1854Y3167D01*
X3792Y3167D01*
X3792Y3169D01*
X1854Y3169D01*
G37*
D02*
G36*
X1856Y3167D02*
X1856Y3163D01*
X1858Y3163D01*
X1858Y3155D01*
X1860Y3155D01*
X1860Y3121D01*
X1858Y3121D01*
X1858Y3115D01*
X1856Y3115D01*
X1856Y3109D01*
X3704Y3109D01*
X3704Y3107D01*
X3712Y3107D01*
X3712Y3105D01*
X3718Y3105D01*
X3718Y3103D01*
X3722Y3103D01*
X3722Y3101D01*
X3724Y3101D01*
X3724Y3099D01*
X3728Y3099D01*
X3728Y3097D01*
X3730Y3097D01*
X3730Y3095D01*
X3734Y3095D01*
X3734Y3093D01*
X3736Y3093D01*
X3736Y3091D01*
X3738Y3091D01*
X3738Y3089D01*
X3740Y3089D01*
X3740Y3087D01*
X3742Y3087D01*
X3742Y3085D01*
X3744Y3085D01*
X3744Y3083D01*
X3746Y3083D01*
X3746Y3081D01*
X3748Y3081D01*
X3748Y3077D01*
X3750Y3077D01*
X3750Y3075D01*
X3752Y3075D01*
X3752Y3071D01*
X3754Y3071D01*
X3754Y3067D01*
X3756Y3067D01*
X3756Y3063D01*
X3758Y3063D01*
X3758Y3055D01*
X3760Y3055D01*
X3760Y3021D01*
X3758Y3021D01*
X3758Y3015D01*
X3756Y3015D01*
X3756Y3009D01*
X3754Y3009D01*
X3754Y3005D01*
X3752Y3005D01*
X3752Y3003D01*
X3750Y3003D01*
X3750Y2999D01*
X3748Y2999D01*
X3748Y2977D01*
X3750Y2977D01*
X3750Y2975D01*
X3752Y2975D01*
X3752Y2971D01*
X3754Y2971D01*
X3754Y2967D01*
X3756Y2967D01*
X3756Y2963D01*
X3758Y2963D01*
X3758Y2955D01*
X3760Y2955D01*
X3760Y2921D01*
X3758Y2921D01*
X3758Y2915D01*
X3756Y2915D01*
X3756Y2909D01*
X3754Y2909D01*
X3754Y2905D01*
X3752Y2905D01*
X3752Y2903D01*
X3750Y2903D01*
X3750Y2899D01*
X3748Y2899D01*
X3748Y2877D01*
X3750Y2877D01*
X3750Y2875D01*
X3752Y2875D01*
X3752Y2871D01*
X3754Y2871D01*
X3754Y2867D01*
X3756Y2867D01*
X3756Y2863D01*
X3758Y2863D01*
X3758Y2855D01*
X3760Y2855D01*
X3760Y2821D01*
X3758Y2821D01*
X3758Y2815D01*
X3756Y2815D01*
X3756Y2809D01*
X3754Y2809D01*
X3754Y2805D01*
X3752Y2805D01*
X3752Y2803D01*
X3750Y2803D01*
X3750Y2799D01*
X3748Y2799D01*
X3748Y2777D01*
X3750Y2777D01*
X3750Y2775D01*
X3752Y2775D01*
X3752Y2771D01*
X3754Y2771D01*
X3754Y2767D01*
X3756Y2767D01*
X3756Y2763D01*
X3758Y2763D01*
X3758Y2755D01*
X3760Y2755D01*
X3760Y2721D01*
X3758Y2721D01*
X3758Y2715D01*
X3756Y2715D01*
X3756Y2709D01*
X3754Y2709D01*
X3754Y2705D01*
X3752Y2705D01*
X3752Y2703D01*
X3750Y2703D01*
X3750Y2681D01*
X3788Y2681D01*
X3788Y2709D01*
X3790Y2709D01*
X3790Y2959D01*
X3792Y2959D01*
X3792Y3167D01*
X1856Y3167D01*
G37*
D02*
G36*
X1854Y3109D02*
X1854Y3105D01*
X1852Y3105D01*
X1852Y3103D01*
X1850Y3103D01*
X1850Y3099D01*
X3570Y3099D01*
X3570Y3097D01*
X3652Y3097D01*
X3652Y3099D01*
X3656Y3099D01*
X3656Y3101D01*
X3660Y3101D01*
X3660Y3103D01*
X3664Y3103D01*
X3664Y3105D01*
X3668Y3105D01*
X3668Y3107D01*
X3678Y3107D01*
X3678Y3109D01*
X1854Y3109D01*
G37*
D02*
G36*
X44Y3105D02*
X44Y3067D01*
X376Y3067D01*
X376Y3069D01*
X368Y3069D01*
X368Y3071D01*
X364Y3071D01*
X364Y3073D01*
X358Y3073D01*
X358Y3075D01*
X356Y3075D01*
X356Y3077D01*
X352Y3077D01*
X352Y3079D01*
X350Y3079D01*
X350Y3081D01*
X346Y3081D01*
X346Y3083D01*
X344Y3083D01*
X344Y3085D01*
X342Y3085D01*
X342Y3087D01*
X340Y3087D01*
X340Y3089D01*
X338Y3089D01*
X338Y3091D01*
X336Y3091D01*
X336Y3093D01*
X334Y3093D01*
X334Y3095D01*
X332Y3095D01*
X332Y3097D01*
X274Y3097D01*
X274Y3099D01*
X212Y3099D01*
X212Y3101D01*
X148Y3101D01*
X148Y3103D01*
X86Y3103D01*
X86Y3105D01*
X44Y3105D01*
G37*
D02*
G36*
X1848Y3099D02*
X1848Y3077D01*
X1850Y3077D01*
X1850Y3075D01*
X1852Y3075D01*
X1852Y3071D01*
X1854Y3071D01*
X1854Y3067D01*
X1856Y3067D01*
X1856Y3063D01*
X1858Y3063D01*
X1858Y3055D01*
X1860Y3055D01*
X1860Y3021D01*
X1858Y3021D01*
X1858Y3015D01*
X1856Y3015D01*
X1856Y3009D01*
X1854Y3009D01*
X1854Y3005D01*
X1852Y3005D01*
X1852Y3003D01*
X1850Y3003D01*
X1850Y2999D01*
X1848Y2999D01*
X1848Y2997D01*
X1846Y2997D01*
X1846Y2995D01*
X1844Y2995D01*
X1844Y2993D01*
X1842Y2993D01*
X1842Y2989D01*
X1840Y2989D01*
X1840Y2987D01*
X1836Y2987D01*
X1836Y2985D01*
X1834Y2985D01*
X1834Y2983D01*
X1832Y2983D01*
X1832Y2981D01*
X1830Y2981D01*
X1830Y2979D01*
X1826Y2979D01*
X1826Y2977D01*
X1824Y2977D01*
X1824Y2975D01*
X1820Y2975D01*
X1820Y2973D01*
X1814Y2973D01*
X1814Y2971D01*
X1808Y2971D01*
X1808Y2969D01*
X1790Y2969D01*
X1790Y2949D01*
X1792Y2949D01*
X1792Y2947D01*
X1794Y2947D01*
X1794Y2943D01*
X1796Y2943D01*
X1796Y2941D01*
X1798Y2941D01*
X1798Y2939D01*
X1804Y2939D01*
X1804Y2937D01*
X1812Y2937D01*
X1812Y2935D01*
X1818Y2935D01*
X1818Y2933D01*
X1822Y2933D01*
X1822Y2931D01*
X1824Y2931D01*
X1824Y2929D01*
X1828Y2929D01*
X1828Y2927D01*
X1830Y2927D01*
X1830Y2925D01*
X1834Y2925D01*
X1834Y2923D01*
X1836Y2923D01*
X1836Y2921D01*
X1838Y2921D01*
X1838Y2919D01*
X1840Y2919D01*
X1840Y2917D01*
X1842Y2917D01*
X1842Y2915D01*
X1844Y2915D01*
X1844Y2913D01*
X1846Y2913D01*
X1846Y2911D01*
X1848Y2911D01*
X1848Y2907D01*
X1850Y2907D01*
X1850Y2905D01*
X1852Y2905D01*
X1852Y2901D01*
X1854Y2901D01*
X1854Y2897D01*
X1856Y2897D01*
X1856Y2893D01*
X1858Y2893D01*
X1858Y2885D01*
X1860Y2885D01*
X1860Y2851D01*
X1858Y2851D01*
X1858Y2845D01*
X1856Y2845D01*
X1856Y2839D01*
X1854Y2839D01*
X1854Y2835D01*
X1852Y2835D01*
X1852Y2833D01*
X1850Y2833D01*
X1850Y2829D01*
X1848Y2829D01*
X1848Y2807D01*
X1850Y2807D01*
X1850Y2805D01*
X1852Y2805D01*
X1852Y2801D01*
X1854Y2801D01*
X1854Y2797D01*
X1856Y2797D01*
X1856Y2793D01*
X1858Y2793D01*
X1858Y2785D01*
X1860Y2785D01*
X1860Y2751D01*
X1858Y2751D01*
X1858Y2745D01*
X1856Y2745D01*
X1856Y2739D01*
X1854Y2739D01*
X1854Y2735D01*
X1852Y2735D01*
X1852Y2733D01*
X1850Y2733D01*
X1850Y2729D01*
X1848Y2729D01*
X1848Y2707D01*
X1850Y2707D01*
X1850Y2705D01*
X1852Y2705D01*
X1852Y2701D01*
X1854Y2701D01*
X1854Y2697D01*
X1856Y2697D01*
X1856Y2693D01*
X1858Y2693D01*
X1858Y2685D01*
X1860Y2685D01*
X1860Y2651D01*
X1858Y2651D01*
X1858Y2645D01*
X1856Y2645D01*
X1856Y2639D01*
X1854Y2639D01*
X1854Y2635D01*
X1852Y2635D01*
X1852Y2633D01*
X1850Y2633D01*
X1850Y2629D01*
X1848Y2629D01*
X1848Y2607D01*
X1850Y2607D01*
X1850Y2605D01*
X1852Y2605D01*
X1852Y2601D01*
X1854Y2601D01*
X1854Y2597D01*
X1856Y2597D01*
X1856Y2593D01*
X1858Y2593D01*
X1858Y2585D01*
X1860Y2585D01*
X1860Y2551D01*
X1858Y2551D01*
X1858Y2545D01*
X1856Y2545D01*
X1856Y2539D01*
X1854Y2539D01*
X1854Y2535D01*
X1852Y2535D01*
X1852Y2533D01*
X1850Y2533D01*
X1850Y2529D01*
X1848Y2529D01*
X1848Y2507D01*
X1850Y2507D01*
X1850Y2505D01*
X1852Y2505D01*
X1852Y2501D01*
X1854Y2501D01*
X1854Y2497D01*
X1856Y2497D01*
X1856Y2493D01*
X1858Y2493D01*
X1858Y2485D01*
X1860Y2485D01*
X1860Y2451D01*
X1858Y2451D01*
X1858Y2445D01*
X1856Y2445D01*
X1856Y2439D01*
X1854Y2439D01*
X1854Y2435D01*
X1852Y2435D01*
X1852Y2433D01*
X1850Y2433D01*
X1850Y2429D01*
X1848Y2429D01*
X1848Y2407D01*
X1850Y2407D01*
X1850Y2405D01*
X1852Y2405D01*
X1852Y2401D01*
X1854Y2401D01*
X1854Y2397D01*
X1856Y2397D01*
X1856Y2393D01*
X1858Y2393D01*
X1858Y2385D01*
X1860Y2385D01*
X1860Y2351D01*
X1858Y2351D01*
X1858Y2345D01*
X1856Y2345D01*
X1856Y2339D01*
X1854Y2339D01*
X1854Y2335D01*
X1852Y2335D01*
X1852Y2333D01*
X1850Y2333D01*
X1850Y2329D01*
X1848Y2329D01*
X1848Y2307D01*
X1850Y2307D01*
X1850Y2305D01*
X1852Y2305D01*
X1852Y2301D01*
X1854Y2301D01*
X1854Y2297D01*
X1856Y2297D01*
X1856Y2293D01*
X1858Y2293D01*
X1858Y2285D01*
X1860Y2285D01*
X1860Y2251D01*
X1858Y2251D01*
X1858Y2245D01*
X1856Y2245D01*
X1856Y2239D01*
X1854Y2239D01*
X1854Y2235D01*
X1852Y2235D01*
X1852Y2233D01*
X1850Y2233D01*
X1850Y2229D01*
X1848Y2229D01*
X1848Y2207D01*
X1850Y2207D01*
X1850Y2205D01*
X1852Y2205D01*
X1852Y2201D01*
X1854Y2201D01*
X1854Y2197D01*
X1856Y2197D01*
X1856Y2193D01*
X1858Y2193D01*
X1858Y2185D01*
X1860Y2185D01*
X1860Y2151D01*
X1858Y2151D01*
X1858Y2145D01*
X1856Y2145D01*
X1856Y2139D01*
X1854Y2139D01*
X1854Y2135D01*
X1852Y2135D01*
X1852Y2133D01*
X1850Y2133D01*
X1850Y2129D01*
X1848Y2129D01*
X1848Y2127D01*
X1846Y2127D01*
X1846Y2125D01*
X1844Y2125D01*
X1844Y2105D01*
X1846Y2105D01*
X1846Y2103D01*
X1848Y2103D01*
X1848Y2101D01*
X1850Y2101D01*
X1850Y2097D01*
X1852Y2097D01*
X1852Y2095D01*
X1854Y2095D01*
X1854Y2091D01*
X1856Y2091D01*
X1856Y2085D01*
X1858Y2085D01*
X1858Y2079D01*
X1860Y2079D01*
X1860Y2045D01*
X1858Y2045D01*
X1858Y2037D01*
X1856Y2037D01*
X1856Y2033D01*
X1854Y2033D01*
X1854Y2029D01*
X1852Y2029D01*
X1852Y2025D01*
X1850Y2025D01*
X1850Y2023D01*
X1848Y2023D01*
X1848Y2001D01*
X1850Y2001D01*
X1850Y1997D01*
X1852Y1997D01*
X1852Y1995D01*
X1854Y1995D01*
X1854Y1991D01*
X1856Y1991D01*
X1856Y1985D01*
X1858Y1985D01*
X1858Y1979D01*
X1860Y1979D01*
X1860Y1945D01*
X1858Y1945D01*
X1858Y1937D01*
X1856Y1937D01*
X1856Y1933D01*
X1854Y1933D01*
X1854Y1929D01*
X1852Y1929D01*
X1852Y1925D01*
X1850Y1925D01*
X1850Y1923D01*
X1848Y1923D01*
X1848Y1919D01*
X1846Y1919D01*
X1846Y1917D01*
X1844Y1917D01*
X1844Y1915D01*
X1842Y1915D01*
X1842Y1913D01*
X1840Y1913D01*
X1840Y1911D01*
X1838Y1911D01*
X1838Y1909D01*
X1836Y1909D01*
X1836Y1907D01*
X1834Y1907D01*
X1834Y1905D01*
X1830Y1905D01*
X1830Y1903D01*
X1828Y1903D01*
X1828Y1901D01*
X1824Y1901D01*
X1824Y1899D01*
X1822Y1899D01*
X1822Y1897D01*
X1818Y1897D01*
X1818Y1895D01*
X1812Y1895D01*
X1812Y1893D01*
X1804Y1893D01*
X1804Y1891D01*
X3460Y1891D01*
X3460Y1909D01*
X3458Y1909D01*
X3458Y2305D01*
X3456Y2305D01*
X3456Y2701D01*
X3454Y2701D01*
X3454Y3063D01*
X3456Y3063D01*
X3456Y3069D01*
X3458Y3069D01*
X3458Y3073D01*
X3460Y3073D01*
X3460Y3077D01*
X3462Y3077D01*
X3462Y3079D01*
X3464Y3079D01*
X3464Y3083D01*
X3466Y3083D01*
X3466Y3085D01*
X3468Y3085D01*
X3468Y3087D01*
X3470Y3087D01*
X3470Y3089D01*
X3474Y3089D01*
X3474Y3091D01*
X3476Y3091D01*
X3476Y3093D01*
X3480Y3093D01*
X3480Y3095D01*
X3484Y3095D01*
X3484Y3097D01*
X3490Y3097D01*
X3490Y3099D01*
X1848Y3099D01*
G37*
D02*
G36*
X428Y3079D02*
X428Y3077D01*
X426Y3077D01*
X426Y3075D01*
X422Y3075D01*
X422Y3073D01*
X418Y3073D01*
X418Y3071D01*
X412Y3071D01*
X412Y3069D01*
X404Y3069D01*
X404Y3067D01*
X476Y3067D01*
X476Y3069D01*
X468Y3069D01*
X468Y3071D01*
X464Y3071D01*
X464Y3073D01*
X458Y3073D01*
X458Y3075D01*
X456Y3075D01*
X456Y3077D01*
X452Y3077D01*
X452Y3079D01*
X428Y3079D01*
G37*
D02*
G36*
X44Y3067D02*
X44Y3065D01*
X652Y3065D01*
X652Y3067D01*
X44Y3067D01*
G37*
D02*
G36*
X44Y3067D02*
X44Y3065D01*
X652Y3065D01*
X652Y3067D01*
X44Y3067D01*
G37*
D02*
G36*
X44Y3067D02*
X44Y3065D01*
X652Y3065D01*
X652Y3067D01*
X44Y3067D01*
G37*
D02*
G36*
X44Y3065D02*
X44Y2811D01*
X210Y2811D01*
X210Y2809D01*
X216Y2809D01*
X216Y2807D01*
X610Y2807D01*
X610Y2805D01*
X616Y2805D01*
X616Y2803D01*
X620Y2803D01*
X620Y2801D01*
X624Y2801D01*
X624Y2799D01*
X628Y2799D01*
X628Y2797D01*
X630Y2797D01*
X630Y2795D01*
X632Y2795D01*
X632Y2793D01*
X636Y2793D01*
X636Y2791D01*
X638Y2791D01*
X638Y2789D01*
X640Y2789D01*
X640Y2787D01*
X642Y2787D01*
X642Y2785D01*
X644Y2785D01*
X644Y2783D01*
X646Y2783D01*
X646Y2779D01*
X648Y2779D01*
X648Y2777D01*
X650Y2777D01*
X650Y2773D01*
X652Y2773D01*
X652Y2771D01*
X654Y2771D01*
X654Y2767D01*
X656Y2767D01*
X656Y2761D01*
X658Y2761D01*
X658Y2753D01*
X660Y2753D01*
X660Y2587D01*
X682Y2587D01*
X682Y2589D01*
X686Y2589D01*
X686Y2593D01*
X688Y2593D01*
X688Y2597D01*
X690Y2597D01*
X690Y2599D01*
X692Y2599D01*
X692Y2603D01*
X694Y2603D01*
X694Y2607D01*
X696Y2607D01*
X696Y2609D01*
X698Y2609D01*
X698Y2613D01*
X700Y2613D01*
X700Y2617D01*
X702Y2617D01*
X702Y2621D01*
X704Y2621D01*
X704Y2623D01*
X706Y2623D01*
X706Y2627D01*
X708Y2627D01*
X708Y2631D01*
X710Y2631D01*
X710Y2633D01*
X712Y2633D01*
X712Y2637D01*
X714Y2637D01*
X714Y2641D01*
X716Y2641D01*
X716Y2645D01*
X718Y2645D01*
X718Y2647D01*
X720Y2647D01*
X720Y2651D01*
X722Y2651D01*
X722Y2655D01*
X724Y2655D01*
X724Y2657D01*
X726Y2657D01*
X726Y2661D01*
X728Y2661D01*
X728Y2665D01*
X730Y2665D01*
X730Y2667D01*
X732Y2667D01*
X732Y2671D01*
X734Y2671D01*
X734Y2675D01*
X736Y2675D01*
X736Y2679D01*
X738Y2679D01*
X738Y2681D01*
X740Y2681D01*
X740Y2685D01*
X742Y2685D01*
X742Y2689D01*
X744Y2689D01*
X744Y2691D01*
X746Y2691D01*
X746Y2695D01*
X748Y2695D01*
X748Y2699D01*
X750Y2699D01*
X750Y2703D01*
X752Y2703D01*
X752Y2705D01*
X754Y2705D01*
X754Y2709D01*
X756Y2709D01*
X756Y2713D01*
X758Y2713D01*
X758Y2715D01*
X760Y2715D01*
X760Y2719D01*
X762Y2719D01*
X762Y2723D01*
X764Y2723D01*
X764Y2725D01*
X766Y2725D01*
X766Y2729D01*
X768Y2729D01*
X768Y2733D01*
X770Y2733D01*
X770Y2737D01*
X772Y2737D01*
X772Y2739D01*
X774Y2739D01*
X774Y2743D01*
X776Y2743D01*
X776Y2747D01*
X778Y2747D01*
X778Y2749D01*
X780Y2749D01*
X780Y2753D01*
X782Y2753D01*
X782Y2757D01*
X784Y2757D01*
X784Y2761D01*
X786Y2761D01*
X786Y2763D01*
X788Y2763D01*
X788Y2767D01*
X790Y2767D01*
X790Y2769D01*
X792Y2769D01*
X792Y2771D01*
X794Y2771D01*
X794Y2773D01*
X796Y2773D01*
X796Y2775D01*
X800Y2775D01*
X800Y2777D01*
X804Y2777D01*
X804Y2779D01*
X808Y2779D01*
X808Y2781D01*
X816Y2781D01*
X816Y2783D01*
X1042Y2783D01*
X1042Y2785D01*
X1314Y2785D01*
X1314Y2787D01*
X1318Y2787D01*
X1318Y2821D01*
X1266Y2821D01*
X1266Y2823D01*
X1192Y2823D01*
X1192Y2825D01*
X1118Y2825D01*
X1118Y2827D01*
X1044Y2827D01*
X1044Y2829D01*
X970Y2829D01*
X970Y2831D01*
X896Y2831D01*
X896Y2833D01*
X822Y2833D01*
X822Y2835D01*
X748Y2835D01*
X748Y2837D01*
X686Y2837D01*
X686Y2839D01*
X680Y2839D01*
X680Y2841D01*
X674Y2841D01*
X674Y2843D01*
X672Y2843D01*
X672Y2845D01*
X668Y2845D01*
X668Y2847D01*
X666Y2847D01*
X666Y2849D01*
X664Y2849D01*
X664Y2851D01*
X662Y2851D01*
X662Y2855D01*
X660Y2855D01*
X660Y2859D01*
X658Y2859D01*
X658Y2863D01*
X656Y2863D01*
X656Y2893D01*
X654Y2893D01*
X654Y3005D01*
X652Y3005D01*
X652Y3065D01*
X44Y3065D01*
G37*
D02*
G36*
X3566Y2985D02*
X3566Y2717D01*
X3568Y2717D01*
X3568Y2321D01*
X3570Y2321D01*
X3570Y2269D01*
X3672Y2269D01*
X3672Y2271D01*
X3666Y2271D01*
X3666Y2273D01*
X3662Y2273D01*
X3662Y2275D01*
X3658Y2275D01*
X3658Y2277D01*
X3654Y2277D01*
X3654Y2279D01*
X3652Y2279D01*
X3652Y2281D01*
X3648Y2281D01*
X3648Y2283D01*
X3646Y2283D01*
X3646Y2285D01*
X3644Y2285D01*
X3644Y2287D01*
X3642Y2287D01*
X3642Y2289D01*
X3640Y2289D01*
X3640Y2291D01*
X3638Y2291D01*
X3638Y2293D01*
X3636Y2293D01*
X3636Y2295D01*
X3634Y2295D01*
X3634Y2297D01*
X3632Y2297D01*
X3632Y2301D01*
X3630Y2301D01*
X3630Y2303D01*
X3628Y2303D01*
X3628Y2307D01*
X3626Y2307D01*
X3626Y2311D01*
X3624Y2311D01*
X3624Y2317D01*
X3622Y2317D01*
X3622Y2325D01*
X3620Y2325D01*
X3620Y2353D01*
X3622Y2353D01*
X3622Y2361D01*
X3624Y2361D01*
X3624Y2365D01*
X3626Y2365D01*
X3626Y2369D01*
X3628Y2369D01*
X3628Y2373D01*
X3630Y2373D01*
X3630Y2377D01*
X3632Y2377D01*
X3632Y2401D01*
X3630Y2401D01*
X3630Y2403D01*
X3628Y2403D01*
X3628Y2407D01*
X3626Y2407D01*
X3626Y2411D01*
X3624Y2411D01*
X3624Y2417D01*
X3622Y2417D01*
X3622Y2425D01*
X3620Y2425D01*
X3620Y2453D01*
X3622Y2453D01*
X3622Y2461D01*
X3624Y2461D01*
X3624Y2465D01*
X3626Y2465D01*
X3626Y2469D01*
X3628Y2469D01*
X3628Y2473D01*
X3630Y2473D01*
X3630Y2477D01*
X3632Y2477D01*
X3632Y2501D01*
X3630Y2501D01*
X3630Y2503D01*
X3628Y2503D01*
X3628Y2507D01*
X3626Y2507D01*
X3626Y2511D01*
X3624Y2511D01*
X3624Y2517D01*
X3622Y2517D01*
X3622Y2525D01*
X3620Y2525D01*
X3620Y2553D01*
X3622Y2553D01*
X3622Y2561D01*
X3624Y2561D01*
X3624Y2565D01*
X3626Y2565D01*
X3626Y2569D01*
X3628Y2569D01*
X3628Y2573D01*
X3630Y2573D01*
X3630Y2577D01*
X3632Y2577D01*
X3632Y2601D01*
X3630Y2601D01*
X3630Y2603D01*
X3628Y2603D01*
X3628Y2607D01*
X3626Y2607D01*
X3626Y2611D01*
X3624Y2611D01*
X3624Y2617D01*
X3622Y2617D01*
X3622Y2625D01*
X3620Y2625D01*
X3620Y2653D01*
X3622Y2653D01*
X3622Y2661D01*
X3624Y2661D01*
X3624Y2665D01*
X3626Y2665D01*
X3626Y2669D01*
X3628Y2669D01*
X3628Y2673D01*
X3630Y2673D01*
X3630Y2677D01*
X3632Y2677D01*
X3632Y2701D01*
X3630Y2701D01*
X3630Y2703D01*
X3628Y2703D01*
X3628Y2707D01*
X3626Y2707D01*
X3626Y2711D01*
X3624Y2711D01*
X3624Y2717D01*
X3622Y2717D01*
X3622Y2725D01*
X3620Y2725D01*
X3620Y2753D01*
X3622Y2753D01*
X3622Y2761D01*
X3624Y2761D01*
X3624Y2765D01*
X3626Y2765D01*
X3626Y2769D01*
X3628Y2769D01*
X3628Y2773D01*
X3630Y2773D01*
X3630Y2777D01*
X3632Y2777D01*
X3632Y2801D01*
X3630Y2801D01*
X3630Y2803D01*
X3628Y2803D01*
X3628Y2807D01*
X3626Y2807D01*
X3626Y2811D01*
X3624Y2811D01*
X3624Y2817D01*
X3622Y2817D01*
X3622Y2825D01*
X3620Y2825D01*
X3620Y2853D01*
X3622Y2853D01*
X3622Y2861D01*
X3624Y2861D01*
X3624Y2865D01*
X3626Y2865D01*
X3626Y2869D01*
X3628Y2869D01*
X3628Y2873D01*
X3630Y2873D01*
X3630Y2877D01*
X3632Y2877D01*
X3632Y2901D01*
X3630Y2901D01*
X3630Y2903D01*
X3628Y2903D01*
X3628Y2907D01*
X3626Y2907D01*
X3626Y2911D01*
X3624Y2911D01*
X3624Y2917D01*
X3622Y2917D01*
X3622Y2925D01*
X3620Y2925D01*
X3620Y2953D01*
X3622Y2953D01*
X3622Y2961D01*
X3624Y2961D01*
X3624Y2965D01*
X3626Y2965D01*
X3626Y2985D01*
X3566Y2985D01*
G37*
D02*
G36*
X44Y2811D02*
X44Y2465D01*
X118Y2465D01*
X118Y2657D01*
X120Y2657D01*
X120Y2665D01*
X122Y2665D01*
X122Y2669D01*
X124Y2669D01*
X124Y2673D01*
X126Y2673D01*
X126Y2675D01*
X128Y2675D01*
X128Y2679D01*
X130Y2679D01*
X130Y2699D01*
X128Y2699D01*
X128Y2701D01*
X126Y2701D01*
X126Y2705D01*
X124Y2705D01*
X124Y2709D01*
X122Y2709D01*
X122Y2713D01*
X120Y2713D01*
X120Y2719D01*
X118Y2719D01*
X118Y2757D01*
X120Y2757D01*
X120Y2765D01*
X122Y2765D01*
X122Y2769D01*
X124Y2769D01*
X124Y2773D01*
X126Y2773D01*
X126Y2775D01*
X128Y2775D01*
X128Y2779D01*
X130Y2779D01*
X130Y2781D01*
X132Y2781D01*
X132Y2785D01*
X134Y2785D01*
X134Y2787D01*
X136Y2787D01*
X136Y2789D01*
X138Y2789D01*
X138Y2791D01*
X140Y2791D01*
X140Y2793D01*
X142Y2793D01*
X142Y2795D01*
X144Y2795D01*
X144Y2797D01*
X148Y2797D01*
X148Y2799D01*
X150Y2799D01*
X150Y2801D01*
X154Y2801D01*
X154Y2803D01*
X156Y2803D01*
X156Y2805D01*
X160Y2805D01*
X160Y2807D01*
X166Y2807D01*
X166Y2809D01*
X172Y2809D01*
X172Y2811D01*
X44Y2811D01*
G37*
D02*
G36*
X220Y2807D02*
X220Y2805D01*
X408Y2805D01*
X408Y2803D01*
X414Y2803D01*
X414Y2801D01*
X418Y2801D01*
X418Y2799D01*
X422Y2799D01*
X422Y2797D01*
X426Y2797D01*
X426Y2795D01*
X428Y2795D01*
X428Y2793D01*
X432Y2793D01*
X432Y2791D01*
X434Y2791D01*
X434Y2789D01*
X436Y2789D01*
X436Y2787D01*
X438Y2787D01*
X438Y2785D01*
X440Y2785D01*
X440Y2783D01*
X442Y2783D01*
X442Y2781D01*
X444Y2781D01*
X444Y2779D01*
X446Y2779D01*
X446Y2775D01*
X448Y2775D01*
X448Y2773D01*
X450Y2773D01*
X450Y2769D01*
X452Y2769D01*
X452Y2765D01*
X454Y2765D01*
X454Y2759D01*
X456Y2759D01*
X456Y2751D01*
X458Y2751D01*
X458Y2727D01*
X456Y2727D01*
X456Y2717D01*
X454Y2717D01*
X454Y2713D01*
X452Y2713D01*
X452Y2709D01*
X450Y2709D01*
X450Y2705D01*
X448Y2705D01*
X448Y2701D01*
X446Y2701D01*
X446Y2699D01*
X444Y2699D01*
X444Y2677D01*
X446Y2677D01*
X446Y2675D01*
X448Y2675D01*
X448Y2673D01*
X450Y2673D01*
X450Y2669D01*
X452Y2669D01*
X452Y2665D01*
X454Y2665D01*
X454Y2659D01*
X456Y2659D01*
X456Y2651D01*
X458Y2651D01*
X458Y2627D01*
X456Y2627D01*
X456Y2617D01*
X454Y2617D01*
X454Y2613D01*
X452Y2613D01*
X452Y2609D01*
X450Y2609D01*
X450Y2587D01*
X520Y2587D01*
X520Y2707D01*
X522Y2707D01*
X522Y2729D01*
X520Y2729D01*
X520Y2749D01*
X522Y2749D01*
X522Y2759D01*
X524Y2759D01*
X524Y2765D01*
X526Y2765D01*
X526Y2769D01*
X528Y2769D01*
X528Y2773D01*
X530Y2773D01*
X530Y2775D01*
X532Y2775D01*
X532Y2779D01*
X534Y2779D01*
X534Y2781D01*
X536Y2781D01*
X536Y2783D01*
X538Y2783D01*
X538Y2785D01*
X540Y2785D01*
X540Y2787D01*
X542Y2787D01*
X542Y2789D01*
X544Y2789D01*
X544Y2791D01*
X546Y2791D01*
X546Y2793D01*
X548Y2793D01*
X548Y2795D01*
X550Y2795D01*
X550Y2797D01*
X554Y2797D01*
X554Y2799D01*
X556Y2799D01*
X556Y2801D01*
X560Y2801D01*
X560Y2803D01*
X564Y2803D01*
X564Y2805D01*
X570Y2805D01*
X570Y2807D01*
X220Y2807D01*
G37*
D02*
G36*
X224Y2805D02*
X224Y2803D01*
X228Y2803D01*
X228Y2801D01*
X230Y2801D01*
X230Y2799D01*
X234Y2799D01*
X234Y2797D01*
X236Y2797D01*
X236Y2795D01*
X238Y2795D01*
X238Y2793D01*
X240Y2793D01*
X240Y2791D01*
X242Y2791D01*
X242Y2789D01*
X244Y2789D01*
X244Y2787D01*
X246Y2787D01*
X246Y2785D01*
X248Y2785D01*
X248Y2783D01*
X250Y2783D01*
X250Y2781D01*
X252Y2781D01*
X252Y2777D01*
X254Y2777D01*
X254Y2773D01*
X256Y2773D01*
X256Y2771D01*
X258Y2771D01*
X258Y2765D01*
X260Y2765D01*
X260Y2761D01*
X262Y2761D01*
X262Y2751D01*
X264Y2751D01*
X264Y2725D01*
X262Y2725D01*
X262Y2717D01*
X260Y2717D01*
X260Y2711D01*
X258Y2711D01*
X258Y2707D01*
X256Y2707D01*
X256Y2703D01*
X254Y2703D01*
X254Y2699D01*
X252Y2699D01*
X252Y2677D01*
X254Y2677D01*
X254Y2673D01*
X256Y2673D01*
X256Y2671D01*
X258Y2671D01*
X258Y2665D01*
X260Y2665D01*
X260Y2661D01*
X262Y2661D01*
X262Y2651D01*
X264Y2651D01*
X264Y2587D01*
X330Y2587D01*
X330Y2609D01*
X328Y2609D01*
X328Y2613D01*
X326Y2613D01*
X326Y2619D01*
X324Y2619D01*
X324Y2657D01*
X326Y2657D01*
X326Y2663D01*
X328Y2663D01*
X328Y2667D01*
X330Y2667D01*
X330Y2671D01*
X332Y2671D01*
X332Y2675D01*
X334Y2675D01*
X334Y2677D01*
X336Y2677D01*
X336Y2699D01*
X334Y2699D01*
X334Y2703D01*
X332Y2703D01*
X332Y2707D01*
X330Y2707D01*
X330Y2709D01*
X328Y2709D01*
X328Y2715D01*
X326Y2715D01*
X326Y2721D01*
X324Y2721D01*
X324Y2757D01*
X326Y2757D01*
X326Y2763D01*
X328Y2763D01*
X328Y2767D01*
X330Y2767D01*
X330Y2771D01*
X332Y2771D01*
X332Y2775D01*
X334Y2775D01*
X334Y2777D01*
X336Y2777D01*
X336Y2779D01*
X338Y2779D01*
X338Y2783D01*
X340Y2783D01*
X340Y2785D01*
X342Y2785D01*
X342Y2787D01*
X344Y2787D01*
X344Y2789D01*
X346Y2789D01*
X346Y2791D01*
X350Y2791D01*
X350Y2793D01*
X352Y2793D01*
X352Y2795D01*
X354Y2795D01*
X354Y2797D01*
X358Y2797D01*
X358Y2799D01*
X362Y2799D01*
X362Y2801D01*
X366Y2801D01*
X366Y2803D01*
X372Y2803D01*
X372Y2805D01*
X224Y2805D01*
G37*
D02*
G36*
X1464Y2801D02*
X1464Y2625D01*
X1462Y2625D01*
X1462Y2617D01*
X1460Y2617D01*
X1460Y2611D01*
X1458Y2611D01*
X1458Y2607D01*
X1456Y2607D01*
X1456Y2603D01*
X1454Y2603D01*
X1454Y2599D01*
X1452Y2599D01*
X1452Y2577D01*
X1454Y2577D01*
X1454Y2573D01*
X1456Y2573D01*
X1456Y2571D01*
X1458Y2571D01*
X1458Y2565D01*
X1460Y2565D01*
X1460Y2561D01*
X1462Y2561D01*
X1462Y2551D01*
X1464Y2551D01*
X1464Y2525D01*
X1462Y2525D01*
X1462Y2517D01*
X1460Y2517D01*
X1460Y2511D01*
X1458Y2511D01*
X1458Y2507D01*
X1456Y2507D01*
X1456Y2503D01*
X1454Y2503D01*
X1454Y2499D01*
X1452Y2499D01*
X1452Y2497D01*
X1450Y2497D01*
X1450Y2495D01*
X1448Y2495D01*
X1448Y2491D01*
X1446Y2491D01*
X1446Y2489D01*
X1444Y2489D01*
X1444Y2487D01*
X1442Y2487D01*
X1442Y2485D01*
X1440Y2485D01*
X1440Y2483D01*
X1438Y2483D01*
X1438Y2481D01*
X1434Y2481D01*
X1434Y2479D01*
X1432Y2479D01*
X1432Y2477D01*
X1430Y2477D01*
X1430Y2475D01*
X1426Y2475D01*
X1426Y2473D01*
X1422Y2473D01*
X1422Y2471D01*
X1418Y2471D01*
X1418Y2469D01*
X1412Y2469D01*
X1412Y2467D01*
X1404Y2467D01*
X1404Y2465D01*
X1564Y2465D01*
X1564Y2471D01*
X1562Y2471D01*
X1562Y2479D01*
X1560Y2479D01*
X1560Y2487D01*
X1558Y2487D01*
X1558Y2495D01*
X1556Y2495D01*
X1556Y2505D01*
X1554Y2505D01*
X1554Y2513D01*
X1552Y2513D01*
X1552Y2521D01*
X1550Y2521D01*
X1550Y2529D01*
X1548Y2529D01*
X1548Y2537D01*
X1546Y2537D01*
X1546Y2545D01*
X1544Y2545D01*
X1544Y2553D01*
X1542Y2553D01*
X1542Y2561D01*
X1540Y2561D01*
X1540Y2571D01*
X1538Y2571D01*
X1538Y2579D01*
X1536Y2579D01*
X1536Y2587D01*
X1534Y2587D01*
X1534Y2595D01*
X1532Y2595D01*
X1532Y2603D01*
X1530Y2603D01*
X1530Y2611D01*
X1528Y2611D01*
X1528Y2619D01*
X1526Y2619D01*
X1526Y2627D01*
X1524Y2627D01*
X1524Y2637D01*
X1522Y2637D01*
X1522Y2645D01*
X1520Y2645D01*
X1520Y2653D01*
X1518Y2653D01*
X1518Y2661D01*
X1516Y2661D01*
X1516Y2669D01*
X1514Y2669D01*
X1514Y2677D01*
X1512Y2677D01*
X1512Y2685D01*
X1510Y2685D01*
X1510Y2695D01*
X1508Y2695D01*
X1508Y2703D01*
X1506Y2703D01*
X1506Y2711D01*
X1504Y2711D01*
X1504Y2719D01*
X1502Y2719D01*
X1502Y2727D01*
X1500Y2727D01*
X1500Y2735D01*
X1498Y2735D01*
X1498Y2743D01*
X1496Y2743D01*
X1496Y2751D01*
X1494Y2751D01*
X1494Y2761D01*
X1492Y2761D01*
X1492Y2769D01*
X1490Y2769D01*
X1490Y2777D01*
X1488Y2777D01*
X1488Y2785D01*
X1486Y2785D01*
X1486Y2793D01*
X1484Y2793D01*
X1484Y2801D01*
X1464Y2801D01*
G37*
D02*
G36*
X3876Y2693D02*
X3876Y2617D01*
X3874Y2617D01*
X3874Y2611D01*
X3872Y2611D01*
X3872Y2607D01*
X3870Y2607D01*
X3870Y2605D01*
X3868Y2605D01*
X3868Y2603D01*
X3866Y2603D01*
X3866Y2601D01*
X3864Y2601D01*
X3864Y2599D01*
X3862Y2599D01*
X3862Y2597D01*
X3860Y2597D01*
X3860Y2595D01*
X3856Y2595D01*
X3856Y2593D01*
X3852Y2593D01*
X3852Y2591D01*
X3752Y2591D01*
X3752Y2571D01*
X3754Y2571D01*
X3754Y2567D01*
X3756Y2567D01*
X3756Y2563D01*
X3758Y2563D01*
X3758Y2555D01*
X3760Y2555D01*
X3760Y2521D01*
X3758Y2521D01*
X3758Y2515D01*
X3756Y2515D01*
X3756Y2509D01*
X3754Y2509D01*
X3754Y2505D01*
X3752Y2505D01*
X3752Y2503D01*
X3750Y2503D01*
X3750Y2499D01*
X3748Y2499D01*
X3748Y2477D01*
X3750Y2477D01*
X3750Y2475D01*
X3752Y2475D01*
X3752Y2471D01*
X3754Y2471D01*
X3754Y2467D01*
X3756Y2467D01*
X3756Y2463D01*
X3758Y2463D01*
X3758Y2455D01*
X3760Y2455D01*
X3760Y2421D01*
X3758Y2421D01*
X3758Y2415D01*
X3756Y2415D01*
X3756Y2409D01*
X3754Y2409D01*
X3754Y2405D01*
X3752Y2405D01*
X3752Y2403D01*
X3750Y2403D01*
X3750Y2399D01*
X3748Y2399D01*
X3748Y2377D01*
X3750Y2377D01*
X3750Y2375D01*
X3752Y2375D01*
X3752Y2371D01*
X3754Y2371D01*
X3754Y2367D01*
X3756Y2367D01*
X3756Y2363D01*
X3758Y2363D01*
X3758Y2355D01*
X3760Y2355D01*
X3760Y2321D01*
X3758Y2321D01*
X3758Y2315D01*
X3756Y2315D01*
X3756Y2309D01*
X3754Y2309D01*
X3754Y2305D01*
X3752Y2305D01*
X3752Y2303D01*
X3750Y2303D01*
X3750Y2299D01*
X3748Y2299D01*
X3748Y2297D01*
X3746Y2297D01*
X3746Y2295D01*
X3744Y2295D01*
X3744Y2293D01*
X3742Y2293D01*
X3742Y2289D01*
X3740Y2289D01*
X3740Y2287D01*
X3736Y2287D01*
X3736Y2285D01*
X3734Y2285D01*
X3734Y2283D01*
X3732Y2283D01*
X3732Y2281D01*
X3730Y2281D01*
X3730Y2279D01*
X3726Y2279D01*
X3726Y2277D01*
X3724Y2277D01*
X3724Y2275D01*
X3720Y2275D01*
X3720Y2273D01*
X3714Y2273D01*
X3714Y2271D01*
X3708Y2271D01*
X3708Y2269D01*
X3896Y2269D01*
X3896Y2693D01*
X3876Y2693D01*
G37*
D02*
G36*
X1058Y2689D02*
X1058Y2687D01*
X1054Y2687D01*
X1054Y2667D01*
X1056Y2667D01*
X1056Y2661D01*
X1058Y2661D01*
X1058Y2653D01*
X1060Y2653D01*
X1060Y2471D01*
X1176Y2471D01*
X1176Y2473D01*
X1168Y2473D01*
X1168Y2475D01*
X1164Y2475D01*
X1164Y2477D01*
X1160Y2477D01*
X1160Y2479D01*
X1156Y2479D01*
X1156Y2481D01*
X1154Y2481D01*
X1154Y2483D01*
X1150Y2483D01*
X1150Y2485D01*
X1148Y2485D01*
X1148Y2487D01*
X1146Y2487D01*
X1146Y2489D01*
X1144Y2489D01*
X1144Y2491D01*
X1142Y2491D01*
X1142Y2493D01*
X1140Y2493D01*
X1140Y2495D01*
X1138Y2495D01*
X1138Y2497D01*
X1136Y2497D01*
X1136Y2499D01*
X1134Y2499D01*
X1134Y2503D01*
X1132Y2503D01*
X1132Y2505D01*
X1130Y2505D01*
X1130Y2509D01*
X1128Y2509D01*
X1128Y2513D01*
X1126Y2513D01*
X1126Y2519D01*
X1124Y2519D01*
X1124Y2557D01*
X1126Y2557D01*
X1126Y2563D01*
X1128Y2563D01*
X1128Y2567D01*
X1130Y2567D01*
X1130Y2571D01*
X1132Y2571D01*
X1132Y2575D01*
X1134Y2575D01*
X1134Y2577D01*
X1136Y2577D01*
X1136Y2599D01*
X1134Y2599D01*
X1134Y2603D01*
X1132Y2603D01*
X1132Y2607D01*
X1130Y2607D01*
X1130Y2609D01*
X1128Y2609D01*
X1128Y2615D01*
X1126Y2615D01*
X1126Y2621D01*
X1124Y2621D01*
X1124Y2657D01*
X1126Y2657D01*
X1126Y2663D01*
X1128Y2663D01*
X1128Y2667D01*
X1130Y2667D01*
X1130Y2689D01*
X1058Y2689D01*
G37*
D02*
G36*
X1250Y2689D02*
X1250Y2669D01*
X1252Y2669D01*
X1252Y2665D01*
X1254Y2665D01*
X1254Y2659D01*
X1256Y2659D01*
X1256Y2651D01*
X1258Y2651D01*
X1258Y2627D01*
X1256Y2627D01*
X1256Y2617D01*
X1254Y2617D01*
X1254Y2613D01*
X1252Y2613D01*
X1252Y2609D01*
X1250Y2609D01*
X1250Y2605D01*
X1248Y2605D01*
X1248Y2601D01*
X1246Y2601D01*
X1246Y2599D01*
X1244Y2599D01*
X1244Y2577D01*
X1246Y2577D01*
X1246Y2575D01*
X1248Y2575D01*
X1248Y2573D01*
X1250Y2573D01*
X1250Y2569D01*
X1252Y2569D01*
X1252Y2565D01*
X1254Y2565D01*
X1254Y2559D01*
X1256Y2559D01*
X1256Y2551D01*
X1258Y2551D01*
X1258Y2527D01*
X1256Y2527D01*
X1256Y2517D01*
X1254Y2517D01*
X1254Y2513D01*
X1252Y2513D01*
X1252Y2509D01*
X1250Y2509D01*
X1250Y2505D01*
X1248Y2505D01*
X1248Y2501D01*
X1246Y2501D01*
X1246Y2499D01*
X1244Y2499D01*
X1244Y2497D01*
X1242Y2497D01*
X1242Y2493D01*
X1240Y2493D01*
X1240Y2491D01*
X1238Y2491D01*
X1238Y2489D01*
X1236Y2489D01*
X1236Y2487D01*
X1232Y2487D01*
X1232Y2485D01*
X1230Y2485D01*
X1230Y2483D01*
X1228Y2483D01*
X1228Y2481D01*
X1224Y2481D01*
X1224Y2479D01*
X1222Y2479D01*
X1222Y2477D01*
X1218Y2477D01*
X1218Y2475D01*
X1212Y2475D01*
X1212Y2473D01*
X1204Y2473D01*
X1204Y2471D01*
X1358Y2471D01*
X1358Y2473D01*
X1354Y2473D01*
X1354Y2475D01*
X1352Y2475D01*
X1352Y2477D01*
X1348Y2477D01*
X1348Y2479D01*
X1346Y2479D01*
X1346Y2481D01*
X1344Y2481D01*
X1344Y2483D01*
X1342Y2483D01*
X1342Y2485D01*
X1340Y2485D01*
X1340Y2487D01*
X1338Y2487D01*
X1338Y2489D01*
X1336Y2489D01*
X1336Y2491D01*
X1334Y2491D01*
X1334Y2493D01*
X1332Y2493D01*
X1332Y2495D01*
X1330Y2495D01*
X1330Y2499D01*
X1328Y2499D01*
X1328Y2501D01*
X1326Y2501D01*
X1326Y2505D01*
X1324Y2505D01*
X1324Y2509D01*
X1322Y2509D01*
X1322Y2513D01*
X1320Y2513D01*
X1320Y2519D01*
X1318Y2519D01*
X1318Y2557D01*
X1320Y2557D01*
X1320Y2565D01*
X1322Y2565D01*
X1322Y2569D01*
X1324Y2569D01*
X1324Y2573D01*
X1326Y2573D01*
X1326Y2575D01*
X1328Y2575D01*
X1328Y2579D01*
X1330Y2579D01*
X1330Y2599D01*
X1328Y2599D01*
X1328Y2601D01*
X1326Y2601D01*
X1326Y2605D01*
X1324Y2605D01*
X1324Y2609D01*
X1322Y2609D01*
X1322Y2613D01*
X1320Y2613D01*
X1320Y2619D01*
X1318Y2619D01*
X1318Y2689D01*
X1250Y2689D01*
G37*
D02*
G36*
X858Y2687D02*
X858Y2683D01*
X856Y2683D01*
X856Y2679D01*
X854Y2679D01*
X854Y2675D01*
X852Y2675D01*
X852Y2673D01*
X850Y2673D01*
X850Y2669D01*
X848Y2669D01*
X848Y2665D01*
X846Y2665D01*
X846Y2663D01*
X844Y2663D01*
X844Y2659D01*
X842Y2659D01*
X842Y2655D01*
X840Y2655D01*
X840Y2653D01*
X838Y2653D01*
X838Y2649D01*
X836Y2649D01*
X836Y2645D01*
X834Y2645D01*
X834Y2641D01*
X832Y2641D01*
X832Y2639D01*
X830Y2639D01*
X830Y2635D01*
X828Y2635D01*
X828Y2631D01*
X826Y2631D01*
X826Y2629D01*
X824Y2629D01*
X824Y2625D01*
X822Y2625D01*
X822Y2621D01*
X820Y2621D01*
X820Y2617D01*
X818Y2617D01*
X818Y2615D01*
X816Y2615D01*
X816Y2611D01*
X814Y2611D01*
X814Y2607D01*
X812Y2607D01*
X812Y2605D01*
X810Y2605D01*
X810Y2601D01*
X808Y2601D01*
X808Y2597D01*
X806Y2597D01*
X806Y2595D01*
X804Y2595D01*
X804Y2591D01*
X802Y2591D01*
X802Y2587D01*
X800Y2587D01*
X800Y2583D01*
X798Y2583D01*
X798Y2581D01*
X796Y2581D01*
X796Y2577D01*
X794Y2577D01*
X794Y2573D01*
X792Y2573D01*
X792Y2571D01*
X790Y2571D01*
X790Y2567D01*
X788Y2567D01*
X788Y2563D01*
X786Y2563D01*
X786Y2559D01*
X784Y2559D01*
X784Y2557D01*
X782Y2557D01*
X782Y2553D01*
X780Y2553D01*
X780Y2549D01*
X778Y2549D01*
X778Y2547D01*
X776Y2547D01*
X776Y2543D01*
X774Y2543D01*
X774Y2539D01*
X772Y2539D01*
X772Y2537D01*
X770Y2537D01*
X770Y2533D01*
X768Y2533D01*
X768Y2529D01*
X766Y2529D01*
X766Y2525D01*
X764Y2525D01*
X764Y2523D01*
X762Y2523D01*
X762Y2519D01*
X760Y2519D01*
X760Y2515D01*
X758Y2515D01*
X758Y2513D01*
X756Y2513D01*
X756Y2509D01*
X754Y2509D01*
X754Y2507D01*
X752Y2507D01*
X752Y2505D01*
X750Y2505D01*
X750Y2503D01*
X748Y2503D01*
X748Y2501D01*
X746Y2501D01*
X746Y2499D01*
X742Y2499D01*
X742Y2497D01*
X740Y2497D01*
X740Y2495D01*
X734Y2495D01*
X734Y2493D01*
X702Y2493D01*
X702Y2491D01*
X264Y2491D01*
X264Y2469D01*
X920Y2469D01*
X920Y2607D01*
X922Y2607D01*
X922Y2629D01*
X920Y2629D01*
X920Y2649D01*
X922Y2649D01*
X922Y2659D01*
X924Y2659D01*
X924Y2665D01*
X926Y2665D01*
X926Y2687D01*
X858Y2687D01*
G37*
D02*
G36*
X1060Y2471D02*
X1060Y2469D01*
X1362Y2469D01*
X1362Y2471D01*
X1060Y2471D01*
G37*
D02*
G36*
X1060Y2471D02*
X1060Y2469D01*
X1362Y2469D01*
X1362Y2471D01*
X1060Y2471D01*
G37*
D02*
G36*
X264Y2469D02*
X264Y2467D01*
X1368Y2467D01*
X1368Y2469D01*
X264Y2469D01*
G37*
D02*
G36*
X264Y2469D02*
X264Y2467D01*
X1368Y2467D01*
X1368Y2469D01*
X264Y2469D01*
G37*
D02*
G36*
X264Y2467D02*
X264Y2465D01*
X1376Y2465D01*
X1376Y2467D01*
X264Y2467D01*
G37*
D02*
G36*
X44Y2465D02*
X44Y2463D01*
X1564Y2463D01*
X1564Y2465D01*
X44Y2465D01*
G37*
D02*
G36*
X44Y2465D02*
X44Y2463D01*
X1564Y2463D01*
X1564Y2465D01*
X44Y2465D01*
G37*
D02*
G36*
X44Y2465D02*
X44Y2463D01*
X1564Y2463D01*
X1564Y2465D01*
X44Y2465D01*
G37*
D02*
G36*
X44Y2463D02*
X44Y2321D01*
X1618Y2321D01*
X1618Y2323D01*
X1614Y2323D01*
X1614Y2325D01*
X1610Y2325D01*
X1610Y2327D01*
X1606Y2327D01*
X1606Y2329D01*
X1604Y2329D01*
X1604Y2331D01*
X1602Y2331D01*
X1602Y2333D01*
X1600Y2333D01*
X1600Y2335D01*
X1598Y2335D01*
X1598Y2339D01*
X1596Y2339D01*
X1596Y2341D01*
X1594Y2341D01*
X1594Y2347D01*
X1592Y2347D01*
X1592Y2355D01*
X1590Y2355D01*
X1590Y2363D01*
X1588Y2363D01*
X1588Y2371D01*
X1586Y2371D01*
X1586Y2381D01*
X1584Y2381D01*
X1584Y2389D01*
X1582Y2389D01*
X1582Y2397D01*
X1580Y2397D01*
X1580Y2405D01*
X1578Y2405D01*
X1578Y2413D01*
X1576Y2413D01*
X1576Y2421D01*
X1574Y2421D01*
X1574Y2429D01*
X1572Y2429D01*
X1572Y2437D01*
X1570Y2437D01*
X1570Y2447D01*
X1568Y2447D01*
X1568Y2455D01*
X1566Y2455D01*
X1566Y2463D01*
X44Y2463D01*
G37*
D02*
G36*
X1698Y2323D02*
X1698Y2321D01*
X1730Y2321D01*
X1730Y2323D01*
X1698Y2323D01*
G37*
D02*
G36*
X44Y2321D02*
X44Y2319D01*
X1730Y2319D01*
X1730Y2321D01*
X44Y2321D01*
G37*
D02*
G36*
X44Y2321D02*
X44Y2319D01*
X1730Y2319D01*
X1730Y2321D01*
X44Y2321D01*
G37*
D02*
G36*
X44Y2319D02*
X44Y2109D01*
X1008Y2109D01*
X1008Y2107D01*
X1016Y2107D01*
X1016Y2105D01*
X1020Y2105D01*
X1020Y2103D01*
X1024Y2103D01*
X1024Y2101D01*
X1028Y2101D01*
X1028Y2099D01*
X1340Y2099D01*
X1340Y2097D01*
X1348Y2097D01*
X1348Y2095D01*
X1354Y2095D01*
X1354Y2093D01*
X1358Y2093D01*
X1358Y2091D01*
X1360Y2091D01*
X1360Y2089D01*
X1364Y2089D01*
X1364Y2087D01*
X1366Y2087D01*
X1366Y2085D01*
X1368Y2085D01*
X1368Y2083D01*
X1370Y2083D01*
X1370Y2081D01*
X1372Y2081D01*
X1372Y2077D01*
X1374Y2077D01*
X1374Y2075D01*
X1376Y2075D01*
X1376Y2071D01*
X1378Y2071D01*
X1378Y2067D01*
X1380Y2067D01*
X1380Y2059D01*
X1382Y2059D01*
X1382Y1891D01*
X1778Y1891D01*
X1778Y1893D01*
X1768Y1893D01*
X1768Y1895D01*
X1764Y1895D01*
X1764Y1897D01*
X1760Y1897D01*
X1760Y1899D01*
X1756Y1899D01*
X1756Y1901D01*
X1752Y1901D01*
X1752Y1903D01*
X1750Y1903D01*
X1750Y1905D01*
X1748Y1905D01*
X1748Y1907D01*
X1744Y1907D01*
X1744Y1909D01*
X1742Y1909D01*
X1742Y1911D01*
X1740Y1911D01*
X1740Y1913D01*
X1738Y1913D01*
X1738Y1915D01*
X1736Y1915D01*
X1736Y1919D01*
X1734Y1919D01*
X1734Y1921D01*
X1732Y1921D01*
X1732Y1923D01*
X1730Y1923D01*
X1730Y1927D01*
X1728Y1927D01*
X1728Y1931D01*
X1726Y1931D01*
X1726Y1935D01*
X1724Y1935D01*
X1724Y1939D01*
X1722Y1939D01*
X1722Y1947D01*
X1720Y1947D01*
X1720Y1975D01*
X1722Y1975D01*
X1722Y1983D01*
X1724Y1983D01*
X1724Y1989D01*
X1726Y1989D01*
X1726Y1993D01*
X1728Y1993D01*
X1728Y1997D01*
X1730Y1997D01*
X1730Y1999D01*
X1732Y1999D01*
X1732Y2023D01*
X1730Y2023D01*
X1730Y2027D01*
X1728Y2027D01*
X1728Y2031D01*
X1726Y2031D01*
X1726Y2035D01*
X1724Y2035D01*
X1724Y2039D01*
X1722Y2039D01*
X1722Y2047D01*
X1720Y2047D01*
X1720Y2075D01*
X1722Y2075D01*
X1722Y2083D01*
X1724Y2083D01*
X1724Y2089D01*
X1726Y2089D01*
X1726Y2093D01*
X1728Y2093D01*
X1728Y2097D01*
X1730Y2097D01*
X1730Y2099D01*
X1732Y2099D01*
X1732Y2103D01*
X1734Y2103D01*
X1734Y2105D01*
X1736Y2105D01*
X1736Y2125D01*
X1734Y2125D01*
X1734Y2127D01*
X1732Y2127D01*
X1732Y2131D01*
X1730Y2131D01*
X1730Y2133D01*
X1728Y2133D01*
X1728Y2137D01*
X1726Y2137D01*
X1726Y2141D01*
X1724Y2141D01*
X1724Y2147D01*
X1722Y2147D01*
X1722Y2155D01*
X1720Y2155D01*
X1720Y2183D01*
X1722Y2183D01*
X1722Y2191D01*
X1724Y2191D01*
X1724Y2195D01*
X1726Y2195D01*
X1726Y2199D01*
X1728Y2199D01*
X1728Y2203D01*
X1730Y2203D01*
X1730Y2207D01*
X1732Y2207D01*
X1732Y2231D01*
X1730Y2231D01*
X1730Y2233D01*
X1728Y2233D01*
X1728Y2237D01*
X1726Y2237D01*
X1726Y2241D01*
X1724Y2241D01*
X1724Y2247D01*
X1722Y2247D01*
X1722Y2255D01*
X1720Y2255D01*
X1720Y2283D01*
X1722Y2283D01*
X1722Y2291D01*
X1724Y2291D01*
X1724Y2295D01*
X1726Y2295D01*
X1726Y2299D01*
X1728Y2299D01*
X1728Y2303D01*
X1730Y2303D01*
X1730Y2319D01*
X44Y2319D01*
G37*
D02*
G36*
X3570Y2269D02*
X3570Y2267D01*
X3896Y2267D01*
X3896Y2269D01*
X3570Y2269D01*
G37*
D02*
G36*
X3570Y2269D02*
X3570Y2267D01*
X3896Y2267D01*
X3896Y2269D01*
X3570Y2269D01*
G37*
D02*
G36*
X3570Y2267D02*
X3570Y1927D01*
X3572Y1927D01*
X3572Y1697D01*
X3574Y1697D01*
X3574Y1689D01*
X3576Y1689D01*
X3576Y1679D01*
X3578Y1679D01*
X3578Y1669D01*
X3580Y1669D01*
X3580Y1659D01*
X3582Y1659D01*
X3582Y1651D01*
X3584Y1651D01*
X3584Y1641D01*
X3586Y1641D01*
X3586Y1631D01*
X3588Y1631D01*
X3588Y1621D01*
X3590Y1621D01*
X3590Y1613D01*
X3592Y1613D01*
X3592Y1603D01*
X3594Y1603D01*
X3594Y1593D01*
X3596Y1593D01*
X3596Y1585D01*
X3598Y1585D01*
X3598Y1575D01*
X3600Y1575D01*
X3600Y1565D01*
X3602Y1565D01*
X3602Y1555D01*
X3604Y1555D01*
X3604Y1547D01*
X3606Y1547D01*
X3606Y1537D01*
X3608Y1537D01*
X3608Y1527D01*
X3610Y1527D01*
X3610Y1517D01*
X3612Y1517D01*
X3612Y1509D01*
X3614Y1509D01*
X3614Y1499D01*
X3616Y1499D01*
X3616Y1489D01*
X3618Y1489D01*
X3618Y1481D01*
X3620Y1481D01*
X3620Y1471D01*
X3622Y1471D01*
X3622Y1461D01*
X3624Y1461D01*
X3624Y1451D01*
X3626Y1451D01*
X3626Y1443D01*
X3628Y1443D01*
X3628Y1433D01*
X3630Y1433D01*
X3630Y1423D01*
X3632Y1423D01*
X3632Y1413D01*
X3634Y1413D01*
X3634Y1411D01*
X3664Y1411D01*
X3664Y1265D01*
X3896Y1265D01*
X3896Y2267D01*
X3570Y2267D01*
G37*
D02*
G36*
X44Y2109D02*
X44Y2107D01*
X610Y2107D01*
X610Y2105D01*
X616Y2105D01*
X616Y2103D01*
X620Y2103D01*
X620Y2101D01*
X624Y2101D01*
X624Y2099D01*
X628Y2099D01*
X628Y2097D01*
X630Y2097D01*
X630Y2095D01*
X632Y2095D01*
X632Y2093D01*
X636Y2093D01*
X636Y2091D01*
X638Y2091D01*
X638Y2089D01*
X640Y2089D01*
X640Y2087D01*
X642Y2087D01*
X642Y2085D01*
X644Y2085D01*
X644Y2083D01*
X646Y2083D01*
X646Y2079D01*
X648Y2079D01*
X648Y2077D01*
X650Y2077D01*
X650Y2073D01*
X652Y2073D01*
X652Y2071D01*
X654Y2071D01*
X654Y2067D01*
X656Y2067D01*
X656Y2061D01*
X658Y2061D01*
X658Y2053D01*
X660Y2053D01*
X660Y1869D01*
X920Y1869D01*
X920Y2057D01*
X922Y2057D01*
X922Y2063D01*
X924Y2063D01*
X924Y2069D01*
X926Y2069D01*
X926Y2073D01*
X928Y2073D01*
X928Y2075D01*
X930Y2075D01*
X930Y2079D01*
X932Y2079D01*
X932Y2081D01*
X934Y2081D01*
X934Y2083D01*
X936Y2083D01*
X936Y2085D01*
X938Y2085D01*
X938Y2089D01*
X940Y2089D01*
X940Y2091D01*
X944Y2091D01*
X944Y2093D01*
X946Y2093D01*
X946Y2095D01*
X948Y2095D01*
X948Y2097D01*
X950Y2097D01*
X950Y2099D01*
X954Y2099D01*
X954Y2101D01*
X958Y2101D01*
X958Y2103D01*
X960Y2103D01*
X960Y2105D01*
X966Y2105D01*
X966Y2107D01*
X972Y2107D01*
X972Y2109D01*
X44Y2109D01*
G37*
D02*
G36*
X44Y2107D02*
X44Y1869D01*
X120Y1869D01*
X120Y2007D01*
X122Y2007D01*
X122Y2029D01*
X120Y2029D01*
X120Y2049D01*
X122Y2049D01*
X122Y2059D01*
X124Y2059D01*
X124Y2065D01*
X126Y2065D01*
X126Y2069D01*
X128Y2069D01*
X128Y2073D01*
X130Y2073D01*
X130Y2075D01*
X132Y2075D01*
X132Y2079D01*
X134Y2079D01*
X134Y2081D01*
X136Y2081D01*
X136Y2083D01*
X138Y2083D01*
X138Y2085D01*
X140Y2085D01*
X140Y2087D01*
X142Y2087D01*
X142Y2089D01*
X144Y2089D01*
X144Y2091D01*
X146Y2091D01*
X146Y2093D01*
X148Y2093D01*
X148Y2095D01*
X150Y2095D01*
X150Y2097D01*
X154Y2097D01*
X154Y2099D01*
X156Y2099D01*
X156Y2101D01*
X160Y2101D01*
X160Y2103D01*
X164Y2103D01*
X164Y2105D01*
X170Y2105D01*
X170Y2107D01*
X44Y2107D01*
G37*
D02*
G36*
X210Y2107D02*
X210Y2105D01*
X216Y2105D01*
X216Y2103D01*
X220Y2103D01*
X220Y2101D01*
X224Y2101D01*
X224Y2099D01*
X228Y2099D01*
X228Y2097D01*
X230Y2097D01*
X230Y2095D01*
X232Y2095D01*
X232Y2093D01*
X236Y2093D01*
X236Y2091D01*
X238Y2091D01*
X238Y2089D01*
X240Y2089D01*
X240Y2087D01*
X242Y2087D01*
X242Y2085D01*
X244Y2085D01*
X244Y2083D01*
X246Y2083D01*
X246Y2079D01*
X414Y2079D01*
X414Y2077D01*
X418Y2077D01*
X418Y2075D01*
X422Y2075D01*
X422Y2073D01*
X426Y2073D01*
X426Y2071D01*
X428Y2071D01*
X428Y2069D01*
X430Y2069D01*
X430Y2067D01*
X432Y2067D01*
X432Y2065D01*
X434Y2065D01*
X434Y2063D01*
X436Y2063D01*
X436Y2061D01*
X438Y2061D01*
X438Y2059D01*
X440Y2059D01*
X440Y2055D01*
X442Y2055D01*
X442Y2053D01*
X444Y2053D01*
X444Y2049D01*
X446Y2049D01*
X446Y2043D01*
X448Y2043D01*
X448Y2013D01*
X446Y2013D01*
X446Y2007D01*
X444Y2007D01*
X444Y1869D01*
X520Y1869D01*
X520Y2007D01*
X522Y2007D01*
X522Y2029D01*
X520Y2029D01*
X520Y2049D01*
X522Y2049D01*
X522Y2059D01*
X524Y2059D01*
X524Y2065D01*
X526Y2065D01*
X526Y2069D01*
X528Y2069D01*
X528Y2073D01*
X530Y2073D01*
X530Y2075D01*
X532Y2075D01*
X532Y2079D01*
X534Y2079D01*
X534Y2081D01*
X536Y2081D01*
X536Y2083D01*
X538Y2083D01*
X538Y2085D01*
X540Y2085D01*
X540Y2087D01*
X542Y2087D01*
X542Y2089D01*
X544Y2089D01*
X544Y2091D01*
X546Y2091D01*
X546Y2093D01*
X548Y2093D01*
X548Y2095D01*
X550Y2095D01*
X550Y2097D01*
X554Y2097D01*
X554Y2099D01*
X556Y2099D01*
X556Y2101D01*
X560Y2101D01*
X560Y2103D01*
X564Y2103D01*
X564Y2105D01*
X570Y2105D01*
X570Y2107D01*
X210Y2107D01*
G37*
D02*
G36*
X1030Y2099D02*
X1030Y2097D01*
X1032Y2097D01*
X1032Y2095D01*
X1106Y2095D01*
X1106Y2097D01*
X1270Y2097D01*
X1270Y2099D01*
X1030Y2099D01*
G37*
D02*
G36*
X248Y2079D02*
X248Y2077D01*
X250Y2077D01*
X250Y2073D01*
X252Y2073D01*
X252Y2071D01*
X254Y2071D01*
X254Y2067D01*
X256Y2067D01*
X256Y2061D01*
X258Y2061D01*
X258Y2053D01*
X260Y2053D01*
X260Y1869D01*
X346Y1869D01*
X346Y1873D01*
X348Y1873D01*
X348Y2009D01*
X346Y2009D01*
X346Y2017D01*
X344Y2017D01*
X344Y2039D01*
X346Y2039D01*
X346Y2047D01*
X348Y2047D01*
X348Y2051D01*
X350Y2051D01*
X350Y2055D01*
X352Y2055D01*
X352Y2057D01*
X354Y2057D01*
X354Y2061D01*
X356Y2061D01*
X356Y2063D01*
X358Y2063D01*
X358Y2065D01*
X360Y2065D01*
X360Y2067D01*
X362Y2067D01*
X362Y2069D01*
X364Y2069D01*
X364Y2071D01*
X368Y2071D01*
X368Y2073D01*
X370Y2073D01*
X370Y2075D01*
X374Y2075D01*
X374Y2077D01*
X378Y2077D01*
X378Y2079D01*
X248Y2079D01*
G37*
D02*
G36*
X1120Y1985D02*
X1120Y1983D01*
X1062Y1983D01*
X1062Y1867D01*
X1270Y1867D01*
X1270Y1985D01*
X1120Y1985D01*
G37*
D02*
G36*
X1382Y1891D02*
X1382Y1889D01*
X3460Y1889D01*
X3460Y1891D01*
X1382Y1891D01*
G37*
D02*
G36*
X1382Y1891D02*
X1382Y1889D01*
X3460Y1889D01*
X3460Y1891D01*
X1382Y1891D01*
G37*
D02*
G36*
X1382Y1889D02*
X1382Y1705D01*
X1402Y1705D01*
X1402Y1707D01*
X1508Y1707D01*
X1508Y1709D01*
X1616Y1709D01*
X1616Y1711D01*
X1722Y1711D01*
X1722Y1713D01*
X1828Y1713D01*
X1828Y1715D01*
X1934Y1715D01*
X1934Y1717D01*
X2042Y1717D01*
X2042Y1719D01*
X2148Y1719D01*
X2148Y1721D01*
X2254Y1721D01*
X2254Y1723D01*
X2360Y1723D01*
X2360Y1725D01*
X2468Y1725D01*
X2468Y1727D01*
X2574Y1727D01*
X2574Y1729D01*
X2680Y1729D01*
X2680Y1731D01*
X2788Y1731D01*
X2788Y1733D01*
X2894Y1733D01*
X2894Y1735D01*
X3000Y1735D01*
X3000Y1737D01*
X3106Y1737D01*
X3106Y1739D01*
X3214Y1739D01*
X3214Y1741D01*
X3320Y1741D01*
X3320Y1743D01*
X3426Y1743D01*
X3426Y1745D01*
X3460Y1745D01*
X3460Y1889D01*
X1382Y1889D01*
G37*
D02*
G36*
X44Y1869D02*
X44Y1867D01*
X346Y1867D01*
X346Y1869D01*
X44Y1869D01*
G37*
D02*
G36*
X44Y1869D02*
X44Y1867D01*
X346Y1867D01*
X346Y1869D01*
X44Y1869D01*
G37*
D02*
G36*
X444Y1869D02*
X444Y1867D01*
X920Y1867D01*
X920Y1869D01*
X444Y1869D01*
G37*
D02*
G36*
X444Y1869D02*
X444Y1867D01*
X920Y1867D01*
X920Y1869D01*
X444Y1869D01*
G37*
D02*
G36*
X44Y1867D02*
X44Y1265D01*
X318Y1265D01*
X318Y1411D01*
X342Y1411D01*
X342Y1417D01*
X344Y1417D01*
X344Y1645D01*
X346Y1645D01*
X346Y1867D01*
X44Y1867D01*
G37*
D02*
G36*
X444Y1867D02*
X444Y1865D01*
X1270Y1865D01*
X1270Y1867D01*
X444Y1867D01*
G37*
D02*
G36*
X444Y1867D02*
X444Y1865D01*
X1270Y1865D01*
X1270Y1867D01*
X444Y1867D01*
G37*
D02*
G36*
X444Y1865D02*
X444Y1857D01*
X442Y1857D01*
X442Y1629D01*
X440Y1629D01*
X440Y1593D01*
X1306Y1593D01*
X1306Y1595D01*
X1300Y1595D01*
X1300Y1597D01*
X1296Y1597D01*
X1296Y1599D01*
X1292Y1599D01*
X1292Y1601D01*
X1290Y1601D01*
X1290Y1603D01*
X1288Y1603D01*
X1288Y1605D01*
X1286Y1605D01*
X1286Y1607D01*
X1284Y1607D01*
X1284Y1609D01*
X1282Y1609D01*
X1282Y1611D01*
X1280Y1611D01*
X1280Y1613D01*
X1278Y1613D01*
X1278Y1617D01*
X1276Y1617D01*
X1276Y1619D01*
X1274Y1619D01*
X1274Y1625D01*
X1272Y1625D01*
X1272Y1631D01*
X1270Y1631D01*
X1270Y1865D01*
X444Y1865D01*
G37*
D02*
G36*
X3442Y1633D02*
X3442Y1631D01*
X3336Y1631D01*
X3336Y1629D01*
X3230Y1629D01*
X3230Y1627D01*
X3124Y1627D01*
X3124Y1625D01*
X3016Y1625D01*
X3016Y1623D01*
X2910Y1623D01*
X2910Y1621D01*
X2804Y1621D01*
X2804Y1619D01*
X2698Y1619D01*
X2698Y1617D01*
X2590Y1617D01*
X2590Y1615D01*
X2484Y1615D01*
X2484Y1613D01*
X2378Y1613D01*
X2378Y1611D01*
X2272Y1611D01*
X2272Y1609D01*
X2164Y1609D01*
X2164Y1607D01*
X2058Y1607D01*
X2058Y1605D01*
X1952Y1605D01*
X1952Y1603D01*
X1844Y1603D01*
X1844Y1601D01*
X1738Y1601D01*
X1738Y1599D01*
X1632Y1599D01*
X1632Y1597D01*
X1526Y1597D01*
X1526Y1595D01*
X1418Y1595D01*
X1418Y1593D01*
X3478Y1593D01*
X3478Y1597D01*
X3476Y1597D01*
X3476Y1607D01*
X3474Y1607D01*
X3474Y1617D01*
X3472Y1617D01*
X3472Y1627D01*
X3470Y1627D01*
X3470Y1633D01*
X3442Y1633D01*
G37*
D02*
G36*
X440Y1593D02*
X440Y1591D01*
X3478Y1591D01*
X3478Y1593D01*
X440Y1593D01*
G37*
D02*
G36*
X440Y1593D02*
X440Y1591D01*
X3478Y1591D01*
X3478Y1593D01*
X440Y1593D01*
G37*
D02*
G36*
X440Y1591D02*
X440Y1411D01*
X3410Y1411D01*
X3410Y1409D01*
X3416Y1409D01*
X3416Y1407D01*
X3420Y1407D01*
X3420Y1405D01*
X3424Y1405D01*
X3424Y1403D01*
X3428Y1403D01*
X3428Y1401D01*
X3430Y1401D01*
X3430Y1399D01*
X3450Y1399D01*
X3450Y1401D01*
X3454Y1401D01*
X3454Y1403D01*
X3456Y1403D01*
X3456Y1405D01*
X3460Y1405D01*
X3460Y1407D01*
X3466Y1407D01*
X3466Y1409D01*
X3472Y1409D01*
X3472Y1411D01*
X3512Y1411D01*
X3512Y1437D01*
X3510Y1437D01*
X3510Y1447D01*
X3508Y1447D01*
X3508Y1455D01*
X3506Y1455D01*
X3506Y1465D01*
X3504Y1465D01*
X3504Y1475D01*
X3502Y1475D01*
X3502Y1485D01*
X3500Y1485D01*
X3500Y1493D01*
X3498Y1493D01*
X3498Y1503D01*
X3496Y1503D01*
X3496Y1513D01*
X3494Y1513D01*
X3494Y1521D01*
X3492Y1521D01*
X3492Y1531D01*
X3490Y1531D01*
X3490Y1541D01*
X3488Y1541D01*
X3488Y1551D01*
X3486Y1551D01*
X3486Y1559D01*
X3484Y1559D01*
X3484Y1569D01*
X3482Y1569D01*
X3482Y1579D01*
X3480Y1579D01*
X3480Y1589D01*
X3478Y1589D01*
X3478Y1591D01*
X440Y1591D01*
G37*
D02*
G36*
X510Y1411D02*
X510Y1409D01*
X516Y1409D01*
X516Y1407D01*
X520Y1407D01*
X520Y1405D01*
X524Y1405D01*
X524Y1403D01*
X528Y1403D01*
X528Y1401D01*
X530Y1401D01*
X530Y1399D01*
X550Y1399D01*
X550Y1401D01*
X554Y1401D01*
X554Y1403D01*
X556Y1403D01*
X556Y1405D01*
X560Y1405D01*
X560Y1407D01*
X566Y1407D01*
X566Y1409D01*
X572Y1409D01*
X572Y1411D01*
X510Y1411D01*
G37*
D02*
G36*
X610Y1411D02*
X610Y1409D01*
X616Y1409D01*
X616Y1407D01*
X620Y1407D01*
X620Y1405D01*
X624Y1405D01*
X624Y1403D01*
X628Y1403D01*
X628Y1401D01*
X630Y1401D01*
X630Y1399D01*
X634Y1399D01*
X634Y1397D01*
X636Y1397D01*
X636Y1395D01*
X638Y1395D01*
X638Y1393D01*
X640Y1393D01*
X640Y1391D01*
X642Y1391D01*
X642Y1389D01*
X644Y1389D01*
X644Y1387D01*
X646Y1387D01*
X646Y1385D01*
X648Y1385D01*
X648Y1383D01*
X650Y1383D01*
X650Y1381D01*
X652Y1381D01*
X652Y1377D01*
X654Y1377D01*
X654Y1373D01*
X2206Y1373D01*
X2206Y1371D01*
X2212Y1371D01*
X2212Y1369D01*
X2216Y1369D01*
X2216Y1367D01*
X2218Y1367D01*
X2218Y1365D01*
X2222Y1365D01*
X2222Y1363D01*
X2224Y1363D01*
X2224Y1361D01*
X2226Y1361D01*
X2226Y1359D01*
X2228Y1359D01*
X2228Y1357D01*
X2230Y1357D01*
X2230Y1355D01*
X2232Y1355D01*
X2232Y1353D01*
X2234Y1353D01*
X2234Y1349D01*
X2236Y1349D01*
X2236Y1347D01*
X2238Y1347D01*
X2238Y1341D01*
X2240Y1341D01*
X2240Y1337D01*
X2242Y1337D01*
X2242Y1309D01*
X2908Y1309D01*
X2908Y1307D01*
X2916Y1307D01*
X2916Y1305D01*
X2920Y1305D01*
X2920Y1303D01*
X2924Y1303D01*
X2924Y1301D01*
X2928Y1301D01*
X2928Y1299D01*
X2930Y1299D01*
X2930Y1297D01*
X2932Y1297D01*
X2932Y1295D01*
X2936Y1295D01*
X2936Y1293D01*
X2938Y1293D01*
X2938Y1291D01*
X2940Y1291D01*
X2940Y1289D01*
X2942Y1289D01*
X2942Y1287D01*
X2944Y1287D01*
X2944Y1285D01*
X2946Y1285D01*
X2946Y1283D01*
X2948Y1283D01*
X2948Y1279D01*
X2950Y1279D01*
X2950Y1277D01*
X2952Y1277D01*
X2952Y1273D01*
X2954Y1273D01*
X2954Y1269D01*
X2956Y1269D01*
X2956Y1265D01*
X3376Y1265D01*
X3376Y1267D01*
X3368Y1267D01*
X3368Y1269D01*
X3362Y1269D01*
X3362Y1271D01*
X3358Y1271D01*
X3358Y1273D01*
X3354Y1273D01*
X3354Y1275D01*
X3352Y1275D01*
X3352Y1277D01*
X3348Y1277D01*
X3348Y1279D01*
X3346Y1279D01*
X3346Y1281D01*
X3344Y1281D01*
X3344Y1283D01*
X3342Y1283D01*
X3342Y1285D01*
X3340Y1285D01*
X3340Y1287D01*
X3338Y1287D01*
X3338Y1289D01*
X3336Y1289D01*
X3336Y1291D01*
X3334Y1291D01*
X3334Y1293D01*
X3332Y1293D01*
X3332Y1295D01*
X3330Y1295D01*
X3330Y1299D01*
X3328Y1299D01*
X3328Y1301D01*
X3326Y1301D01*
X3326Y1305D01*
X3324Y1305D01*
X3324Y1309D01*
X3322Y1309D01*
X3322Y1313D01*
X3320Y1313D01*
X3320Y1319D01*
X3318Y1319D01*
X3318Y1357D01*
X3320Y1357D01*
X3320Y1365D01*
X3322Y1365D01*
X3322Y1369D01*
X3324Y1369D01*
X3324Y1373D01*
X3326Y1373D01*
X3326Y1375D01*
X3328Y1375D01*
X3328Y1379D01*
X3330Y1379D01*
X3330Y1381D01*
X3332Y1381D01*
X3332Y1385D01*
X3334Y1385D01*
X3334Y1387D01*
X3336Y1387D01*
X3336Y1389D01*
X3338Y1389D01*
X3338Y1391D01*
X3340Y1391D01*
X3340Y1393D01*
X3342Y1393D01*
X3342Y1395D01*
X3344Y1395D01*
X3344Y1397D01*
X3348Y1397D01*
X3348Y1399D01*
X3350Y1399D01*
X3350Y1401D01*
X3354Y1401D01*
X3354Y1403D01*
X3356Y1403D01*
X3356Y1405D01*
X3360Y1405D01*
X3360Y1407D01*
X3366Y1407D01*
X3366Y1409D01*
X3372Y1409D01*
X3372Y1411D01*
X610Y1411D01*
G37*
D02*
G36*
X656Y1373D02*
X656Y1371D01*
X658Y1371D01*
X658Y1365D01*
X660Y1365D01*
X660Y1361D01*
X662Y1361D01*
X662Y1351D01*
X664Y1351D01*
X664Y1325D01*
X662Y1325D01*
X662Y1317D01*
X660Y1317D01*
X660Y1311D01*
X658Y1311D01*
X658Y1309D01*
X1308Y1309D01*
X1308Y1307D01*
X1316Y1307D01*
X1316Y1305D01*
X1320Y1305D01*
X1320Y1303D01*
X1324Y1303D01*
X1324Y1301D01*
X1328Y1301D01*
X1328Y1299D01*
X1330Y1299D01*
X1330Y1297D01*
X1332Y1297D01*
X1332Y1295D01*
X1336Y1295D01*
X1336Y1293D01*
X1338Y1293D01*
X1338Y1291D01*
X1340Y1291D01*
X1340Y1289D01*
X1362Y1289D01*
X1362Y1291D01*
X1384Y1291D01*
X1384Y1293D01*
X1406Y1293D01*
X1406Y1295D01*
X1428Y1295D01*
X1428Y1297D01*
X1448Y1297D01*
X1448Y1299D01*
X1470Y1299D01*
X1470Y1301D01*
X1492Y1301D01*
X1492Y1303D01*
X1514Y1303D01*
X1514Y1305D01*
X1536Y1305D01*
X1536Y1307D01*
X1558Y1307D01*
X1558Y1309D01*
X1578Y1309D01*
X1578Y1311D01*
X1600Y1311D01*
X1600Y1313D01*
X1622Y1313D01*
X1622Y1315D01*
X1644Y1315D01*
X1644Y1317D01*
X1666Y1317D01*
X1666Y1319D01*
X1686Y1319D01*
X1686Y1321D01*
X1708Y1321D01*
X1708Y1323D01*
X1730Y1323D01*
X1730Y1325D01*
X1752Y1325D01*
X1752Y1327D01*
X1774Y1327D01*
X1774Y1329D01*
X1794Y1329D01*
X1794Y1331D01*
X1816Y1331D01*
X1816Y1333D01*
X1838Y1333D01*
X1838Y1335D01*
X1860Y1335D01*
X1860Y1337D01*
X1882Y1337D01*
X1882Y1339D01*
X1902Y1339D01*
X1902Y1341D01*
X1924Y1341D01*
X1924Y1343D01*
X1946Y1343D01*
X1946Y1345D01*
X1968Y1345D01*
X1968Y1347D01*
X1990Y1347D01*
X1990Y1349D01*
X2010Y1349D01*
X2010Y1351D01*
X2032Y1351D01*
X2032Y1353D01*
X2054Y1353D01*
X2054Y1355D01*
X2076Y1355D01*
X2076Y1357D01*
X2098Y1357D01*
X2098Y1359D01*
X2118Y1359D01*
X2118Y1361D01*
X2140Y1361D01*
X2140Y1363D01*
X2160Y1363D01*
X2160Y1365D01*
X2162Y1365D01*
X2162Y1367D01*
X2166Y1367D01*
X2166Y1369D01*
X2168Y1369D01*
X2168Y1371D01*
X2174Y1371D01*
X2174Y1373D01*
X656Y1373D01*
G37*
D02*
G36*
X658Y1309D02*
X658Y1307D01*
X656Y1307D01*
X656Y1303D01*
X654Y1303D01*
X654Y1299D01*
X652Y1299D01*
X652Y1297D01*
X650Y1297D01*
X650Y1295D01*
X648Y1295D01*
X648Y1291D01*
X646Y1291D01*
X646Y1289D01*
X644Y1289D01*
X644Y1287D01*
X642Y1287D01*
X642Y1285D01*
X640Y1285D01*
X640Y1283D01*
X638Y1283D01*
X638Y1281D01*
X634Y1281D01*
X634Y1279D01*
X632Y1279D01*
X632Y1277D01*
X630Y1277D01*
X630Y1275D01*
X626Y1275D01*
X626Y1273D01*
X622Y1273D01*
X622Y1271D01*
X618Y1271D01*
X618Y1269D01*
X612Y1269D01*
X612Y1267D01*
X604Y1267D01*
X604Y1265D01*
X1224Y1265D01*
X1224Y1269D01*
X1226Y1269D01*
X1226Y1273D01*
X1228Y1273D01*
X1228Y1275D01*
X1230Y1275D01*
X1230Y1279D01*
X1232Y1279D01*
X1232Y1281D01*
X1234Y1281D01*
X1234Y1283D01*
X1236Y1283D01*
X1236Y1285D01*
X1238Y1285D01*
X1238Y1289D01*
X1240Y1289D01*
X1240Y1291D01*
X1244Y1291D01*
X1244Y1293D01*
X1246Y1293D01*
X1246Y1295D01*
X1248Y1295D01*
X1248Y1297D01*
X1250Y1297D01*
X1250Y1299D01*
X1254Y1299D01*
X1254Y1301D01*
X1258Y1301D01*
X1258Y1303D01*
X1260Y1303D01*
X1260Y1305D01*
X1266Y1305D01*
X1266Y1307D01*
X1272Y1307D01*
X1272Y1309D01*
X658Y1309D01*
G37*
D02*
G36*
X2242Y1309D02*
X2242Y1307D01*
X2240Y1307D01*
X2240Y1301D01*
X2238Y1301D01*
X2238Y1297D01*
X2236Y1297D01*
X2236Y1295D01*
X2234Y1295D01*
X2234Y1291D01*
X2232Y1291D01*
X2232Y1289D01*
X2230Y1289D01*
X2230Y1287D01*
X2228Y1287D01*
X2228Y1285D01*
X2226Y1285D01*
X2226Y1283D01*
X2224Y1283D01*
X2224Y1281D01*
X2222Y1281D01*
X2222Y1279D01*
X2220Y1279D01*
X2220Y1277D01*
X2216Y1277D01*
X2216Y1275D01*
X2212Y1275D01*
X2212Y1273D01*
X2208Y1273D01*
X2208Y1271D01*
X2826Y1271D01*
X2826Y1273D01*
X2828Y1273D01*
X2828Y1275D01*
X2830Y1275D01*
X2830Y1279D01*
X2832Y1279D01*
X2832Y1281D01*
X2834Y1281D01*
X2834Y1283D01*
X2836Y1283D01*
X2836Y1285D01*
X2838Y1285D01*
X2838Y1289D01*
X2840Y1289D01*
X2840Y1291D01*
X2844Y1291D01*
X2844Y1293D01*
X2846Y1293D01*
X2846Y1295D01*
X2848Y1295D01*
X2848Y1297D01*
X2850Y1297D01*
X2850Y1299D01*
X2854Y1299D01*
X2854Y1301D01*
X2858Y1301D01*
X2858Y1303D01*
X2860Y1303D01*
X2860Y1305D01*
X2866Y1305D01*
X2866Y1307D01*
X2872Y1307D01*
X2872Y1309D01*
X2242Y1309D01*
G37*
D02*
G36*
X530Y1277D02*
X530Y1275D01*
X526Y1275D01*
X526Y1273D01*
X522Y1273D01*
X522Y1271D01*
X518Y1271D01*
X518Y1269D01*
X512Y1269D01*
X512Y1267D01*
X504Y1267D01*
X504Y1265D01*
X576Y1265D01*
X576Y1267D01*
X568Y1267D01*
X568Y1269D01*
X562Y1269D01*
X562Y1271D01*
X558Y1271D01*
X558Y1273D01*
X554Y1273D01*
X554Y1275D01*
X552Y1275D01*
X552Y1277D01*
X530Y1277D01*
G37*
D02*
G36*
X3430Y1277D02*
X3430Y1275D01*
X3426Y1275D01*
X3426Y1273D01*
X3422Y1273D01*
X3422Y1271D01*
X3418Y1271D01*
X3418Y1269D01*
X3412Y1269D01*
X3412Y1267D01*
X3404Y1267D01*
X3404Y1265D01*
X3476Y1265D01*
X3476Y1267D01*
X3468Y1267D01*
X3468Y1269D01*
X3462Y1269D01*
X3462Y1271D01*
X3458Y1271D01*
X3458Y1273D01*
X3454Y1273D01*
X3454Y1275D01*
X3452Y1275D01*
X3452Y1277D01*
X3430Y1277D01*
G37*
D02*
G36*
X2136Y1273D02*
X2136Y1271D01*
X2172Y1271D01*
X2172Y1273D01*
X2136Y1273D01*
G37*
D02*
G36*
X2114Y1271D02*
X2114Y1269D01*
X2826Y1269D01*
X2826Y1271D01*
X2114Y1271D01*
G37*
D02*
G36*
X2114Y1271D02*
X2114Y1269D01*
X2826Y1269D01*
X2826Y1271D01*
X2114Y1271D01*
G37*
D02*
G36*
X2094Y1269D02*
X2094Y1267D01*
X2072Y1267D01*
X2072Y1265D01*
X2050Y1265D01*
X2050Y1263D01*
X2028Y1263D01*
X2028Y1261D01*
X2006Y1261D01*
X2006Y1259D01*
X1986Y1259D01*
X1986Y1257D01*
X1964Y1257D01*
X1964Y1255D01*
X1942Y1255D01*
X1942Y1253D01*
X1920Y1253D01*
X1920Y1251D01*
X1898Y1251D01*
X1898Y1249D01*
X1878Y1249D01*
X1878Y1247D01*
X1856Y1247D01*
X1856Y1245D01*
X1834Y1245D01*
X1834Y1243D01*
X1812Y1243D01*
X1812Y1241D01*
X1790Y1241D01*
X1790Y1239D01*
X1770Y1239D01*
X1770Y1237D01*
X1748Y1237D01*
X1748Y1235D01*
X1726Y1235D01*
X1726Y1233D01*
X1704Y1233D01*
X1704Y1231D01*
X1682Y1231D01*
X1682Y1229D01*
X1662Y1229D01*
X1662Y1227D01*
X1640Y1227D01*
X1640Y1225D01*
X1618Y1225D01*
X1618Y1223D01*
X1596Y1223D01*
X1596Y1221D01*
X1574Y1221D01*
X1574Y1219D01*
X1552Y1219D01*
X1552Y1217D01*
X1532Y1217D01*
X1532Y1215D01*
X1526Y1215D01*
X1526Y1209D01*
X2398Y1209D01*
X2398Y1207D01*
X2410Y1207D01*
X2410Y1205D01*
X2708Y1205D01*
X2708Y1203D01*
X2714Y1203D01*
X2714Y1201D01*
X2718Y1201D01*
X2718Y1199D01*
X2722Y1199D01*
X2722Y1197D01*
X2726Y1197D01*
X2726Y1195D01*
X2728Y1195D01*
X2728Y1193D01*
X2732Y1193D01*
X2732Y1191D01*
X2734Y1191D01*
X2734Y1189D01*
X2736Y1189D01*
X2736Y1187D01*
X2738Y1187D01*
X2738Y1185D01*
X2740Y1185D01*
X2740Y1183D01*
X2742Y1183D01*
X2742Y1181D01*
X2744Y1181D01*
X2744Y1179D01*
X2746Y1179D01*
X2746Y1175D01*
X2748Y1175D01*
X2748Y1173D01*
X2750Y1173D01*
X2750Y1169D01*
X2752Y1169D01*
X2752Y1165D01*
X2754Y1165D01*
X2754Y1159D01*
X2756Y1159D01*
X2756Y1151D01*
X2758Y1151D01*
X2758Y1127D01*
X2756Y1127D01*
X2756Y1117D01*
X2754Y1117D01*
X2754Y1113D01*
X2752Y1113D01*
X2752Y1109D01*
X2750Y1109D01*
X2750Y1105D01*
X2748Y1105D01*
X2748Y1101D01*
X2746Y1101D01*
X2746Y1099D01*
X2744Y1099D01*
X2744Y1077D01*
X2746Y1077D01*
X2746Y1075D01*
X2748Y1075D01*
X2748Y1073D01*
X2750Y1073D01*
X2750Y1069D01*
X2752Y1069D01*
X2752Y1065D01*
X2754Y1065D01*
X2754Y1059D01*
X2756Y1059D01*
X2756Y1051D01*
X2758Y1051D01*
X2758Y1025D01*
X2756Y1025D01*
X2756Y1017D01*
X2754Y1017D01*
X2754Y1013D01*
X2752Y1013D01*
X2752Y1009D01*
X2750Y1009D01*
X2750Y1005D01*
X2748Y1005D01*
X2748Y1001D01*
X2746Y1001D01*
X2746Y999D01*
X2744Y999D01*
X2744Y997D01*
X2742Y997D01*
X2742Y993D01*
X2740Y993D01*
X2740Y991D01*
X2738Y991D01*
X2738Y989D01*
X2736Y989D01*
X2736Y987D01*
X2732Y987D01*
X2732Y985D01*
X2730Y985D01*
X2730Y983D01*
X2728Y983D01*
X2728Y981D01*
X2724Y981D01*
X2724Y979D01*
X2722Y979D01*
X2722Y977D01*
X2718Y977D01*
X2718Y975D01*
X2712Y975D01*
X2712Y973D01*
X2704Y973D01*
X2704Y971D01*
X2820Y971D01*
X2820Y1157D01*
X2822Y1157D01*
X2822Y1163D01*
X2824Y1163D01*
X2824Y1169D01*
X2826Y1169D01*
X2826Y1173D01*
X2828Y1173D01*
X2828Y1175D01*
X2830Y1175D01*
X2830Y1179D01*
X2832Y1179D01*
X2832Y1199D01*
X2830Y1199D01*
X2830Y1201D01*
X2828Y1201D01*
X2828Y1205D01*
X2826Y1205D01*
X2826Y1209D01*
X2824Y1209D01*
X2824Y1213D01*
X2822Y1213D01*
X2822Y1219D01*
X2820Y1219D01*
X2820Y1257D01*
X2822Y1257D01*
X2822Y1263D01*
X2824Y1263D01*
X2824Y1269D01*
X2094Y1269D01*
G37*
D02*
G36*
X44Y1265D02*
X44Y1263D01*
X1224Y1263D01*
X1224Y1265D01*
X44Y1265D01*
G37*
D02*
G36*
X44Y1265D02*
X44Y1263D01*
X1224Y1263D01*
X1224Y1265D01*
X44Y1265D01*
G37*
D02*
G36*
X44Y1265D02*
X44Y1263D01*
X1224Y1263D01*
X1224Y1265D01*
X44Y1265D01*
G37*
D02*
G36*
X2958Y1265D02*
X2958Y1263D01*
X3896Y1263D01*
X3896Y1265D01*
X2958Y1265D01*
G37*
D02*
G36*
X2958Y1265D02*
X2958Y1263D01*
X3896Y1263D01*
X3896Y1265D01*
X2958Y1265D01*
G37*
D02*
G36*
X2958Y1265D02*
X2958Y1263D01*
X3896Y1263D01*
X3896Y1265D01*
X2958Y1265D01*
G37*
D02*
G36*
X44Y1263D02*
X44Y1009D01*
X598Y1009D01*
X598Y1007D01*
X610Y1007D01*
X610Y1005D01*
X616Y1005D01*
X616Y1003D01*
X620Y1003D01*
X620Y1001D01*
X624Y1001D01*
X624Y999D01*
X628Y999D01*
X628Y997D01*
X630Y997D01*
X630Y995D01*
X632Y995D01*
X632Y993D01*
X636Y993D01*
X636Y991D01*
X638Y991D01*
X638Y989D01*
X640Y989D01*
X640Y987D01*
X642Y987D01*
X642Y985D01*
X644Y985D01*
X644Y983D01*
X646Y983D01*
X646Y979D01*
X648Y979D01*
X648Y977D01*
X650Y977D01*
X650Y973D01*
X652Y973D01*
X652Y971D01*
X654Y971D01*
X654Y967D01*
X1220Y967D01*
X1220Y1157D01*
X1222Y1157D01*
X1222Y1163D01*
X1224Y1163D01*
X1224Y1169D01*
X1226Y1169D01*
X1226Y1173D01*
X1228Y1173D01*
X1228Y1175D01*
X1230Y1175D01*
X1230Y1179D01*
X1232Y1179D01*
X1232Y1199D01*
X1230Y1199D01*
X1230Y1201D01*
X1228Y1201D01*
X1228Y1205D01*
X1226Y1205D01*
X1226Y1209D01*
X1224Y1209D01*
X1224Y1213D01*
X1222Y1213D01*
X1222Y1219D01*
X1220Y1219D01*
X1220Y1257D01*
X1222Y1257D01*
X1222Y1263D01*
X44Y1263D01*
G37*
D02*
G36*
X2958Y1263D02*
X2958Y1261D01*
X2960Y1261D01*
X2960Y1251D01*
X2962Y1251D01*
X2962Y1225D01*
X2960Y1225D01*
X2960Y1217D01*
X2958Y1217D01*
X2958Y1211D01*
X2956Y1211D01*
X2956Y1207D01*
X2954Y1207D01*
X2954Y1203D01*
X2952Y1203D01*
X2952Y1201D01*
X2950Y1201D01*
X2950Y1177D01*
X2952Y1177D01*
X2952Y1173D01*
X2954Y1173D01*
X2954Y1169D01*
X2956Y1169D01*
X2956Y1165D01*
X2958Y1165D01*
X2958Y1161D01*
X2960Y1161D01*
X2960Y1151D01*
X2962Y1151D01*
X2962Y1009D01*
X3558Y1009D01*
X3558Y1007D01*
X3560Y1007D01*
X3560Y869D01*
X3378Y869D01*
X3378Y867D01*
X3374Y867D01*
X3374Y865D01*
X3372Y865D01*
X3372Y863D01*
X3370Y863D01*
X3370Y861D01*
X3368Y861D01*
X3368Y859D01*
X3364Y859D01*
X3364Y857D01*
X3362Y857D01*
X3362Y855D01*
X3360Y855D01*
X3360Y853D01*
X3358Y853D01*
X3358Y851D01*
X3354Y851D01*
X3354Y849D01*
X3352Y849D01*
X3352Y847D01*
X3350Y847D01*
X3350Y845D01*
X3348Y845D01*
X3348Y843D01*
X3344Y843D01*
X3344Y841D01*
X3342Y841D01*
X3342Y839D01*
X3340Y839D01*
X3340Y837D01*
X3338Y837D01*
X3338Y835D01*
X3334Y835D01*
X3334Y833D01*
X3332Y833D01*
X3332Y831D01*
X3330Y831D01*
X3330Y829D01*
X3328Y829D01*
X3328Y827D01*
X3324Y827D01*
X3324Y825D01*
X3504Y825D01*
X3504Y823D01*
X3510Y823D01*
X3510Y821D01*
X3514Y821D01*
X3514Y819D01*
X3518Y819D01*
X3518Y817D01*
X3520Y817D01*
X3520Y815D01*
X3522Y815D01*
X3522Y813D01*
X3524Y813D01*
X3524Y811D01*
X3526Y811D01*
X3526Y809D01*
X3528Y809D01*
X3528Y807D01*
X3530Y807D01*
X3530Y805D01*
X3532Y805D01*
X3532Y803D01*
X3534Y803D01*
X3534Y799D01*
X3536Y799D01*
X3536Y795D01*
X3538Y795D01*
X3538Y791D01*
X3540Y791D01*
X3540Y757D01*
X3538Y757D01*
X3538Y751D01*
X3536Y751D01*
X3536Y747D01*
X3534Y747D01*
X3534Y745D01*
X3532Y745D01*
X3532Y743D01*
X3530Y743D01*
X3530Y739D01*
X3528Y739D01*
X3528Y737D01*
X3526Y737D01*
X3526Y735D01*
X3524Y735D01*
X3524Y733D01*
X3520Y733D01*
X3520Y731D01*
X3518Y731D01*
X3518Y729D01*
X3516Y729D01*
X3516Y727D01*
X3512Y727D01*
X3512Y725D01*
X3506Y725D01*
X3506Y723D01*
X3498Y723D01*
X3498Y721D01*
X3896Y721D01*
X3896Y1263D01*
X2958Y1263D01*
G37*
D02*
G36*
X1526Y1209D02*
X1526Y1195D01*
X1528Y1195D01*
X1528Y1193D01*
X1532Y1193D01*
X1532Y1191D01*
X1534Y1191D01*
X1534Y1189D01*
X1536Y1189D01*
X1536Y1187D01*
X1538Y1187D01*
X1538Y1185D01*
X1540Y1185D01*
X1540Y1183D01*
X1542Y1183D01*
X1542Y1181D01*
X1544Y1181D01*
X1544Y1179D01*
X1546Y1179D01*
X1546Y1175D01*
X1548Y1175D01*
X1548Y1173D01*
X1550Y1173D01*
X1550Y1169D01*
X1552Y1169D01*
X1552Y1165D01*
X1554Y1165D01*
X1554Y1159D01*
X1556Y1159D01*
X1556Y1151D01*
X1558Y1151D01*
X1558Y1127D01*
X1556Y1127D01*
X1556Y1117D01*
X1554Y1117D01*
X1554Y1113D01*
X1552Y1113D01*
X1552Y1109D01*
X1550Y1109D01*
X1550Y1105D01*
X1548Y1105D01*
X1548Y1101D01*
X1546Y1101D01*
X1546Y1099D01*
X1544Y1099D01*
X1544Y1077D01*
X1546Y1077D01*
X1546Y1075D01*
X1548Y1075D01*
X1548Y1073D01*
X1550Y1073D01*
X1550Y1069D01*
X1552Y1069D01*
X1552Y1065D01*
X1554Y1065D01*
X1554Y1059D01*
X1556Y1059D01*
X1556Y1051D01*
X1558Y1051D01*
X1558Y1025D01*
X1556Y1025D01*
X1556Y1017D01*
X1554Y1017D01*
X1554Y1013D01*
X1552Y1013D01*
X1552Y1009D01*
X1550Y1009D01*
X1550Y1005D01*
X1548Y1005D01*
X1548Y1001D01*
X1546Y1001D01*
X1546Y999D01*
X1544Y999D01*
X1544Y997D01*
X1542Y997D01*
X1542Y993D01*
X1540Y993D01*
X1540Y991D01*
X1538Y991D01*
X1538Y989D01*
X1536Y989D01*
X1536Y987D01*
X1532Y987D01*
X1532Y985D01*
X1530Y985D01*
X1530Y983D01*
X1528Y983D01*
X1528Y981D01*
X1524Y981D01*
X1524Y979D01*
X1522Y979D01*
X1522Y977D01*
X1518Y977D01*
X1518Y975D01*
X1512Y975D01*
X1512Y973D01*
X1504Y973D01*
X1504Y971D01*
X1620Y971D01*
X1620Y1107D01*
X1622Y1107D01*
X1622Y1129D01*
X1620Y1129D01*
X1620Y1149D01*
X1622Y1149D01*
X1622Y1159D01*
X1624Y1159D01*
X1624Y1165D01*
X1626Y1165D01*
X1626Y1169D01*
X1628Y1169D01*
X1628Y1173D01*
X1630Y1173D01*
X1630Y1175D01*
X1632Y1175D01*
X1632Y1179D01*
X1634Y1179D01*
X1634Y1181D01*
X1636Y1181D01*
X1636Y1183D01*
X1638Y1183D01*
X1638Y1185D01*
X1640Y1185D01*
X1640Y1187D01*
X1642Y1187D01*
X1642Y1189D01*
X1644Y1189D01*
X1644Y1191D01*
X1646Y1191D01*
X1646Y1193D01*
X1648Y1193D01*
X1648Y1195D01*
X1650Y1195D01*
X1650Y1197D01*
X1654Y1197D01*
X1654Y1199D01*
X1656Y1199D01*
X1656Y1201D01*
X1660Y1201D01*
X1660Y1203D01*
X1664Y1203D01*
X1664Y1205D01*
X1670Y1205D01*
X1670Y1207D01*
X1682Y1207D01*
X1682Y1209D01*
X1526Y1209D01*
G37*
D02*
G36*
X1698Y1209D02*
X1698Y1207D01*
X1710Y1207D01*
X1710Y1205D01*
X1716Y1205D01*
X1716Y1203D01*
X1720Y1203D01*
X1720Y1201D01*
X1724Y1201D01*
X1724Y1199D01*
X1728Y1199D01*
X1728Y1197D01*
X1730Y1197D01*
X1730Y1195D01*
X1732Y1195D01*
X1732Y1193D01*
X1736Y1193D01*
X1736Y1191D01*
X1738Y1191D01*
X1738Y1189D01*
X1740Y1189D01*
X1740Y1187D01*
X1742Y1187D01*
X1742Y1185D01*
X1744Y1185D01*
X1744Y1183D01*
X1746Y1183D01*
X1746Y1179D01*
X1748Y1179D01*
X1748Y1177D01*
X1750Y1177D01*
X1750Y1173D01*
X1752Y1173D01*
X1752Y1171D01*
X1754Y1171D01*
X1754Y1167D01*
X1756Y1167D01*
X1756Y1161D01*
X1758Y1161D01*
X1758Y1155D01*
X1760Y1155D01*
X1760Y969D01*
X2320Y969D01*
X2320Y1107D01*
X2322Y1107D01*
X2322Y1129D01*
X2320Y1129D01*
X2320Y1149D01*
X2322Y1149D01*
X2322Y1159D01*
X2324Y1159D01*
X2324Y1165D01*
X2326Y1165D01*
X2326Y1169D01*
X2328Y1169D01*
X2328Y1173D01*
X2330Y1173D01*
X2330Y1175D01*
X2332Y1175D01*
X2332Y1179D01*
X2334Y1179D01*
X2334Y1181D01*
X2336Y1181D01*
X2336Y1183D01*
X2338Y1183D01*
X2338Y1185D01*
X2340Y1185D01*
X2340Y1187D01*
X2342Y1187D01*
X2342Y1189D01*
X2344Y1189D01*
X2344Y1191D01*
X2346Y1191D01*
X2346Y1193D01*
X2348Y1193D01*
X2348Y1195D01*
X2350Y1195D01*
X2350Y1197D01*
X2354Y1197D01*
X2354Y1199D01*
X2356Y1199D01*
X2356Y1201D01*
X2360Y1201D01*
X2360Y1203D01*
X2364Y1203D01*
X2364Y1205D01*
X2370Y1205D01*
X2370Y1207D01*
X2382Y1207D01*
X2382Y1209D01*
X1698Y1209D01*
G37*
D02*
G36*
X1424Y1207D02*
X1424Y1205D01*
X1402Y1205D01*
X1402Y1203D01*
X1380Y1203D01*
X1380Y1201D01*
X1358Y1201D01*
X1358Y1199D01*
X1350Y1199D01*
X1350Y1177D01*
X1352Y1177D01*
X1352Y1173D01*
X1354Y1173D01*
X1354Y1169D01*
X1356Y1169D01*
X1356Y1165D01*
X1358Y1165D01*
X1358Y1161D01*
X1360Y1161D01*
X1360Y1151D01*
X1362Y1151D01*
X1362Y971D01*
X1476Y971D01*
X1476Y973D01*
X1468Y973D01*
X1468Y975D01*
X1464Y975D01*
X1464Y977D01*
X1460Y977D01*
X1460Y979D01*
X1456Y979D01*
X1456Y981D01*
X1454Y981D01*
X1454Y983D01*
X1450Y983D01*
X1450Y985D01*
X1448Y985D01*
X1448Y987D01*
X1446Y987D01*
X1446Y989D01*
X1444Y989D01*
X1444Y991D01*
X1442Y991D01*
X1442Y993D01*
X1440Y993D01*
X1440Y995D01*
X1438Y995D01*
X1438Y997D01*
X1436Y997D01*
X1436Y999D01*
X1434Y999D01*
X1434Y1003D01*
X1432Y1003D01*
X1432Y1005D01*
X1430Y1005D01*
X1430Y1009D01*
X1428Y1009D01*
X1428Y1013D01*
X1426Y1013D01*
X1426Y1019D01*
X1424Y1019D01*
X1424Y1057D01*
X1426Y1057D01*
X1426Y1063D01*
X1428Y1063D01*
X1428Y1067D01*
X1430Y1067D01*
X1430Y1071D01*
X1432Y1071D01*
X1432Y1075D01*
X1434Y1075D01*
X1434Y1077D01*
X1436Y1077D01*
X1436Y1099D01*
X1434Y1099D01*
X1434Y1103D01*
X1432Y1103D01*
X1432Y1107D01*
X1430Y1107D01*
X1430Y1109D01*
X1428Y1109D01*
X1428Y1115D01*
X1426Y1115D01*
X1426Y1119D01*
X1424Y1119D01*
X1424Y1157D01*
X1426Y1157D01*
X1426Y1163D01*
X1428Y1163D01*
X1428Y1167D01*
X1430Y1167D01*
X1430Y1171D01*
X1432Y1171D01*
X1432Y1175D01*
X1434Y1175D01*
X1434Y1177D01*
X1436Y1177D01*
X1436Y1179D01*
X1438Y1179D01*
X1438Y1183D01*
X1440Y1183D01*
X1440Y1185D01*
X1442Y1185D01*
X1442Y1187D01*
X1444Y1187D01*
X1444Y1189D01*
X1446Y1189D01*
X1446Y1207D01*
X1424Y1207D01*
G37*
D02*
G36*
X2416Y1205D02*
X2416Y1203D01*
X2420Y1203D01*
X2420Y1201D01*
X2424Y1201D01*
X2424Y1199D01*
X2428Y1199D01*
X2428Y1197D01*
X2430Y1197D01*
X2430Y1195D01*
X2432Y1195D01*
X2432Y1193D01*
X2436Y1193D01*
X2436Y1191D01*
X2438Y1191D01*
X2438Y1189D01*
X2440Y1189D01*
X2440Y1187D01*
X2442Y1187D01*
X2442Y1185D01*
X2444Y1185D01*
X2444Y1183D01*
X2446Y1183D01*
X2446Y1179D01*
X2448Y1179D01*
X2448Y1177D01*
X2450Y1177D01*
X2450Y1173D01*
X2452Y1173D01*
X2452Y1171D01*
X2454Y1171D01*
X2454Y1167D01*
X2456Y1167D01*
X2456Y1161D01*
X2458Y1161D01*
X2458Y1155D01*
X2460Y1155D01*
X2460Y971D01*
X2676Y971D01*
X2676Y973D01*
X2668Y973D01*
X2668Y975D01*
X2664Y975D01*
X2664Y977D01*
X2660Y977D01*
X2660Y979D01*
X2656Y979D01*
X2656Y981D01*
X2654Y981D01*
X2654Y983D01*
X2650Y983D01*
X2650Y985D01*
X2648Y985D01*
X2648Y987D01*
X2646Y987D01*
X2646Y989D01*
X2644Y989D01*
X2644Y991D01*
X2642Y991D01*
X2642Y993D01*
X2640Y993D01*
X2640Y995D01*
X2638Y995D01*
X2638Y997D01*
X2636Y997D01*
X2636Y999D01*
X2634Y999D01*
X2634Y1003D01*
X2632Y1003D01*
X2632Y1005D01*
X2630Y1005D01*
X2630Y1009D01*
X2628Y1009D01*
X2628Y1013D01*
X2626Y1013D01*
X2626Y1019D01*
X2624Y1019D01*
X2624Y1057D01*
X2626Y1057D01*
X2626Y1063D01*
X2628Y1063D01*
X2628Y1067D01*
X2630Y1067D01*
X2630Y1071D01*
X2632Y1071D01*
X2632Y1075D01*
X2634Y1075D01*
X2634Y1077D01*
X2636Y1077D01*
X2636Y1099D01*
X2634Y1099D01*
X2634Y1103D01*
X2632Y1103D01*
X2632Y1107D01*
X2630Y1107D01*
X2630Y1109D01*
X2628Y1109D01*
X2628Y1115D01*
X2626Y1115D01*
X2626Y1119D01*
X2624Y1119D01*
X2624Y1157D01*
X2626Y1157D01*
X2626Y1163D01*
X2628Y1163D01*
X2628Y1167D01*
X2630Y1167D01*
X2630Y1171D01*
X2632Y1171D01*
X2632Y1175D01*
X2634Y1175D01*
X2634Y1177D01*
X2636Y1177D01*
X2636Y1179D01*
X2638Y1179D01*
X2638Y1183D01*
X2640Y1183D01*
X2640Y1185D01*
X2642Y1185D01*
X2642Y1187D01*
X2644Y1187D01*
X2644Y1189D01*
X2646Y1189D01*
X2646Y1191D01*
X2650Y1191D01*
X2650Y1193D01*
X2652Y1193D01*
X2652Y1195D01*
X2654Y1195D01*
X2654Y1197D01*
X2658Y1197D01*
X2658Y1199D01*
X2662Y1199D01*
X2662Y1201D01*
X2666Y1201D01*
X2666Y1203D01*
X2672Y1203D01*
X2672Y1205D01*
X2416Y1205D01*
G37*
D02*
G36*
X44Y1009D02*
X44Y869D01*
X420Y869D01*
X420Y1007D01*
X422Y1007D01*
X422Y1009D01*
X44Y1009D01*
G37*
D02*
G36*
X558Y1009D02*
X558Y1007D01*
X582Y1007D01*
X582Y1009D01*
X558Y1009D01*
G37*
D02*
G36*
X2962Y1009D02*
X2962Y967D01*
X3326Y967D01*
X3326Y969D01*
X3328Y969D01*
X3328Y973D01*
X3330Y973D01*
X3330Y975D01*
X3332Y975D01*
X3332Y979D01*
X3334Y979D01*
X3334Y981D01*
X3336Y981D01*
X3336Y983D01*
X3338Y983D01*
X3338Y985D01*
X3340Y985D01*
X3340Y987D01*
X3342Y987D01*
X3342Y989D01*
X3344Y989D01*
X3344Y991D01*
X3346Y991D01*
X3346Y993D01*
X3348Y993D01*
X3348Y995D01*
X3350Y995D01*
X3350Y997D01*
X3354Y997D01*
X3354Y999D01*
X3356Y999D01*
X3356Y1001D01*
X3360Y1001D01*
X3360Y1003D01*
X3364Y1003D01*
X3364Y1005D01*
X3370Y1005D01*
X3370Y1007D01*
X3382Y1007D01*
X3382Y1009D01*
X2962Y1009D01*
G37*
D02*
G36*
X3398Y1009D02*
X3398Y1007D01*
X3422Y1007D01*
X3422Y1009D01*
X3398Y1009D01*
G37*
D02*
G36*
X1362Y971D02*
X1362Y969D01*
X1620Y969D01*
X1620Y971D01*
X1362Y971D01*
G37*
D02*
G36*
X1362Y971D02*
X1362Y969D01*
X1620Y969D01*
X1620Y971D01*
X1362Y971D01*
G37*
D02*
G36*
X2460Y971D02*
X2460Y969D01*
X2820Y969D01*
X2820Y971D01*
X2460Y971D01*
G37*
D02*
G36*
X2460Y971D02*
X2460Y969D01*
X2820Y969D01*
X2820Y971D01*
X2460Y971D01*
G37*
D02*
G36*
X1362Y969D02*
X1362Y967D01*
X2820Y967D01*
X2820Y969D01*
X1362Y969D01*
G37*
D02*
G36*
X1362Y969D02*
X1362Y967D01*
X2820Y967D01*
X2820Y969D01*
X1362Y969D01*
G37*
D02*
G36*
X1362Y969D02*
X1362Y967D01*
X2820Y967D01*
X2820Y969D01*
X1362Y969D01*
G37*
D02*
G36*
X656Y967D02*
X656Y965D01*
X3326Y965D01*
X3326Y967D01*
X656Y967D01*
G37*
D02*
G36*
X656Y967D02*
X656Y965D01*
X3326Y965D01*
X3326Y967D01*
X656Y967D01*
G37*
D02*
G36*
X656Y967D02*
X656Y965D01*
X3326Y965D01*
X3326Y967D01*
X656Y967D01*
G37*
D02*
G36*
X656Y965D02*
X656Y961D01*
X658Y961D01*
X658Y955D01*
X660Y955D01*
X660Y923D01*
X658Y923D01*
X658Y915D01*
X656Y915D01*
X656Y911D01*
X654Y911D01*
X654Y907D01*
X652Y907D01*
X652Y903D01*
X650Y903D01*
X650Y901D01*
X648Y901D01*
X648Y897D01*
X646Y897D01*
X646Y895D01*
X644Y895D01*
X644Y893D01*
X642Y893D01*
X642Y891D01*
X640Y891D01*
X640Y889D01*
X638Y889D01*
X638Y887D01*
X636Y887D01*
X636Y885D01*
X634Y885D01*
X634Y883D01*
X632Y883D01*
X632Y881D01*
X628Y881D01*
X628Y879D01*
X626Y879D01*
X626Y877D01*
X622Y877D01*
X622Y875D01*
X618Y875D01*
X618Y873D01*
X614Y873D01*
X614Y871D01*
X606Y871D01*
X606Y869D01*
X3230Y869D01*
X3230Y871D01*
X3232Y871D01*
X3232Y873D01*
X3234Y873D01*
X3234Y875D01*
X3238Y875D01*
X3238Y877D01*
X3240Y877D01*
X3240Y879D01*
X3242Y879D01*
X3242Y881D01*
X3244Y881D01*
X3244Y883D01*
X3248Y883D01*
X3248Y885D01*
X3250Y885D01*
X3250Y887D01*
X3252Y887D01*
X3252Y889D01*
X3254Y889D01*
X3254Y891D01*
X3258Y891D01*
X3258Y893D01*
X3260Y893D01*
X3260Y895D01*
X3262Y895D01*
X3262Y897D01*
X3264Y897D01*
X3264Y899D01*
X3268Y899D01*
X3268Y901D01*
X3270Y901D01*
X3270Y903D01*
X3272Y903D01*
X3272Y905D01*
X3274Y905D01*
X3274Y907D01*
X3278Y907D01*
X3278Y909D01*
X3280Y909D01*
X3280Y911D01*
X3282Y911D01*
X3282Y913D01*
X3284Y913D01*
X3284Y915D01*
X3288Y915D01*
X3288Y917D01*
X3290Y917D01*
X3290Y919D01*
X3292Y919D01*
X3292Y921D01*
X3294Y921D01*
X3294Y923D01*
X3298Y923D01*
X3298Y925D01*
X3300Y925D01*
X3300Y927D01*
X3302Y927D01*
X3302Y929D01*
X3304Y929D01*
X3304Y931D01*
X3308Y931D01*
X3308Y933D01*
X3310Y933D01*
X3310Y935D01*
X3312Y935D01*
X3312Y937D01*
X3314Y937D01*
X3314Y939D01*
X3318Y939D01*
X3318Y941D01*
X3320Y941D01*
X3320Y949D01*
X3322Y949D01*
X3322Y959D01*
X3324Y959D01*
X3324Y965D01*
X656Y965D01*
G37*
D02*
G36*
X44Y869D02*
X44Y867D01*
X3228Y867D01*
X3228Y869D01*
X44Y869D01*
G37*
D02*
G36*
X44Y869D02*
X44Y867D01*
X3228Y867D01*
X3228Y869D01*
X44Y869D01*
G37*
D02*
G36*
X44Y867D02*
X44Y709D01*
X2908Y709D01*
X2908Y707D01*
X2916Y707D01*
X2916Y705D01*
X2920Y705D01*
X2920Y703D01*
X2924Y703D01*
X2924Y701D01*
X2928Y701D01*
X2928Y699D01*
X2930Y699D01*
X2930Y697D01*
X2932Y697D01*
X2932Y695D01*
X2936Y695D01*
X2936Y693D01*
X2938Y693D01*
X2938Y691D01*
X2940Y691D01*
X2940Y689D01*
X2942Y689D01*
X2942Y687D01*
X2944Y687D01*
X2944Y685D01*
X2946Y685D01*
X2946Y683D01*
X2948Y683D01*
X2948Y679D01*
X2950Y679D01*
X2950Y677D01*
X2952Y677D01*
X2952Y673D01*
X2954Y673D01*
X2954Y669D01*
X2956Y669D01*
X2956Y667D01*
X2978Y667D01*
X2978Y669D01*
X2980Y669D01*
X2980Y671D01*
X2982Y671D01*
X2982Y673D01*
X2984Y673D01*
X2984Y675D01*
X2988Y675D01*
X2988Y677D01*
X2990Y677D01*
X2990Y679D01*
X2992Y679D01*
X2992Y681D01*
X2994Y681D01*
X2994Y683D01*
X2998Y683D01*
X2998Y685D01*
X3000Y685D01*
X3000Y687D01*
X3002Y687D01*
X3002Y689D01*
X3004Y689D01*
X3004Y691D01*
X3008Y691D01*
X3008Y693D01*
X3010Y693D01*
X3010Y695D01*
X3012Y695D01*
X3012Y697D01*
X3014Y697D01*
X3014Y699D01*
X3018Y699D01*
X3018Y701D01*
X3020Y701D01*
X3020Y703D01*
X3022Y703D01*
X3022Y705D01*
X3024Y705D01*
X3024Y707D01*
X3028Y707D01*
X3028Y709D01*
X3030Y709D01*
X3030Y711D01*
X3032Y711D01*
X3032Y713D01*
X3034Y713D01*
X3034Y715D01*
X3038Y715D01*
X3038Y717D01*
X3040Y717D01*
X3040Y719D01*
X3042Y719D01*
X3042Y721D01*
X3044Y721D01*
X3044Y723D01*
X3048Y723D01*
X3048Y725D01*
X3050Y725D01*
X3050Y727D01*
X3052Y727D01*
X3052Y729D01*
X3054Y729D01*
X3054Y731D01*
X3058Y731D01*
X3058Y733D01*
X3060Y733D01*
X3060Y735D01*
X3062Y735D01*
X3062Y737D01*
X3064Y737D01*
X3064Y739D01*
X3068Y739D01*
X3068Y741D01*
X3070Y741D01*
X3070Y743D01*
X3072Y743D01*
X3072Y745D01*
X3074Y745D01*
X3074Y747D01*
X3078Y747D01*
X3078Y749D01*
X3080Y749D01*
X3080Y751D01*
X3082Y751D01*
X3082Y753D01*
X3084Y753D01*
X3084Y755D01*
X3088Y755D01*
X3088Y757D01*
X3090Y757D01*
X3090Y759D01*
X3092Y759D01*
X3092Y761D01*
X3094Y761D01*
X3094Y763D01*
X3098Y763D01*
X3098Y765D01*
X3100Y765D01*
X3100Y767D01*
X3102Y767D01*
X3102Y769D01*
X3104Y769D01*
X3104Y771D01*
X3108Y771D01*
X3108Y773D01*
X3110Y773D01*
X3110Y775D01*
X3112Y775D01*
X3112Y777D01*
X3114Y777D01*
X3114Y779D01*
X3118Y779D01*
X3118Y781D01*
X3120Y781D01*
X3120Y783D01*
X3122Y783D01*
X3122Y785D01*
X3124Y785D01*
X3124Y787D01*
X3128Y787D01*
X3128Y789D01*
X3130Y789D01*
X3130Y791D01*
X3132Y791D01*
X3132Y793D01*
X3134Y793D01*
X3134Y795D01*
X3138Y795D01*
X3138Y797D01*
X3140Y797D01*
X3140Y799D01*
X3142Y799D01*
X3142Y801D01*
X3144Y801D01*
X3144Y803D01*
X3148Y803D01*
X3148Y805D01*
X3150Y805D01*
X3150Y807D01*
X3152Y807D01*
X3152Y809D01*
X3154Y809D01*
X3154Y811D01*
X3158Y811D01*
X3158Y813D01*
X3160Y813D01*
X3160Y815D01*
X3162Y815D01*
X3162Y817D01*
X3164Y817D01*
X3164Y819D01*
X3168Y819D01*
X3168Y821D01*
X3170Y821D01*
X3170Y823D01*
X3172Y823D01*
X3172Y825D01*
X3174Y825D01*
X3174Y827D01*
X3178Y827D01*
X3178Y829D01*
X3180Y829D01*
X3180Y831D01*
X3182Y831D01*
X3182Y833D01*
X3184Y833D01*
X3184Y835D01*
X3188Y835D01*
X3188Y837D01*
X3190Y837D01*
X3190Y839D01*
X3192Y839D01*
X3192Y841D01*
X3194Y841D01*
X3194Y843D01*
X3198Y843D01*
X3198Y845D01*
X3200Y845D01*
X3200Y847D01*
X3202Y847D01*
X3202Y849D01*
X3204Y849D01*
X3204Y851D01*
X3208Y851D01*
X3208Y853D01*
X3210Y853D01*
X3210Y855D01*
X3212Y855D01*
X3212Y857D01*
X3214Y857D01*
X3214Y859D01*
X3218Y859D01*
X3218Y861D01*
X3220Y861D01*
X3220Y863D01*
X3222Y863D01*
X3222Y865D01*
X3224Y865D01*
X3224Y867D01*
X44Y867D01*
G37*
D02*
G36*
X3322Y825D02*
X3322Y823D01*
X3320Y823D01*
X3320Y821D01*
X3318Y821D01*
X3318Y819D01*
X3314Y819D01*
X3314Y817D01*
X3312Y817D01*
X3312Y815D01*
X3310Y815D01*
X3310Y813D01*
X3308Y813D01*
X3308Y811D01*
X3304Y811D01*
X3304Y809D01*
X3302Y809D01*
X3302Y807D01*
X3300Y807D01*
X3300Y805D01*
X3298Y805D01*
X3298Y803D01*
X3294Y803D01*
X3294Y801D01*
X3292Y801D01*
X3292Y799D01*
X3290Y799D01*
X3290Y797D01*
X3288Y797D01*
X3288Y795D01*
X3284Y795D01*
X3284Y793D01*
X3282Y793D01*
X3282Y791D01*
X3280Y791D01*
X3280Y789D01*
X3278Y789D01*
X3278Y787D01*
X3274Y787D01*
X3274Y785D01*
X3272Y785D01*
X3272Y783D01*
X3270Y783D01*
X3270Y781D01*
X3268Y781D01*
X3268Y779D01*
X3264Y779D01*
X3264Y777D01*
X3262Y777D01*
X3262Y775D01*
X3260Y775D01*
X3260Y773D01*
X3258Y773D01*
X3258Y771D01*
X3254Y771D01*
X3254Y769D01*
X3252Y769D01*
X3252Y767D01*
X3250Y767D01*
X3250Y765D01*
X3248Y765D01*
X3248Y763D01*
X3244Y763D01*
X3244Y761D01*
X3242Y761D01*
X3242Y759D01*
X3240Y759D01*
X3240Y757D01*
X3238Y757D01*
X3238Y755D01*
X3234Y755D01*
X3234Y753D01*
X3232Y753D01*
X3232Y751D01*
X3230Y751D01*
X3230Y749D01*
X3228Y749D01*
X3228Y747D01*
X3224Y747D01*
X3224Y745D01*
X3222Y745D01*
X3222Y743D01*
X3220Y743D01*
X3220Y741D01*
X3218Y741D01*
X3218Y739D01*
X3214Y739D01*
X3214Y737D01*
X3212Y737D01*
X3212Y735D01*
X3210Y735D01*
X3210Y733D01*
X3208Y733D01*
X3208Y731D01*
X3204Y731D01*
X3204Y729D01*
X3202Y729D01*
X3202Y727D01*
X3200Y727D01*
X3200Y725D01*
X3198Y725D01*
X3198Y723D01*
X3194Y723D01*
X3194Y721D01*
X3482Y721D01*
X3482Y723D01*
X3472Y723D01*
X3472Y725D01*
X3466Y725D01*
X3466Y727D01*
X3464Y727D01*
X3464Y729D01*
X3460Y729D01*
X3460Y731D01*
X3458Y731D01*
X3458Y733D01*
X3454Y733D01*
X3454Y735D01*
X3452Y735D01*
X3452Y737D01*
X3450Y737D01*
X3450Y741D01*
X3448Y741D01*
X3448Y743D01*
X3446Y743D01*
X3446Y745D01*
X3444Y745D01*
X3444Y749D01*
X3442Y749D01*
X3442Y753D01*
X3440Y753D01*
X3440Y757D01*
X3438Y757D01*
X3438Y791D01*
X3440Y791D01*
X3440Y795D01*
X3442Y795D01*
X3442Y799D01*
X3444Y799D01*
X3444Y803D01*
X3446Y803D01*
X3446Y805D01*
X3448Y805D01*
X3448Y807D01*
X3450Y807D01*
X3450Y809D01*
X3452Y809D01*
X3452Y811D01*
X3454Y811D01*
X3454Y813D01*
X3456Y813D01*
X3456Y815D01*
X3458Y815D01*
X3458Y817D01*
X3462Y817D01*
X3462Y819D01*
X3464Y819D01*
X3464Y821D01*
X3468Y821D01*
X3468Y823D01*
X3474Y823D01*
X3474Y825D01*
X3322Y825D01*
G37*
D02*
G36*
X3192Y721D02*
X3192Y719D01*
X3896Y719D01*
X3896Y721D01*
X3192Y721D01*
G37*
D02*
G36*
X3192Y721D02*
X3192Y719D01*
X3896Y719D01*
X3896Y721D01*
X3192Y721D01*
G37*
D02*
G36*
X3190Y719D02*
X3190Y717D01*
X3188Y717D01*
X3188Y715D01*
X3184Y715D01*
X3184Y713D01*
X3182Y713D01*
X3182Y711D01*
X3180Y711D01*
X3180Y709D01*
X3178Y709D01*
X3178Y707D01*
X3174Y707D01*
X3174Y705D01*
X3172Y705D01*
X3172Y703D01*
X3170Y703D01*
X3170Y701D01*
X3168Y701D01*
X3168Y699D01*
X3164Y699D01*
X3164Y697D01*
X3162Y697D01*
X3162Y695D01*
X3160Y695D01*
X3160Y693D01*
X3158Y693D01*
X3158Y691D01*
X3154Y691D01*
X3154Y689D01*
X3152Y689D01*
X3152Y687D01*
X3150Y687D01*
X3150Y685D01*
X3148Y685D01*
X3148Y683D01*
X3144Y683D01*
X3144Y681D01*
X3142Y681D01*
X3142Y679D01*
X3140Y679D01*
X3140Y677D01*
X3138Y677D01*
X3138Y675D01*
X3134Y675D01*
X3134Y673D01*
X3132Y673D01*
X3132Y671D01*
X3130Y671D01*
X3130Y669D01*
X3128Y669D01*
X3128Y667D01*
X3124Y667D01*
X3124Y665D01*
X3122Y665D01*
X3122Y663D01*
X3120Y663D01*
X3120Y661D01*
X3118Y661D01*
X3118Y659D01*
X3114Y659D01*
X3114Y657D01*
X3112Y657D01*
X3112Y655D01*
X3110Y655D01*
X3110Y653D01*
X3108Y653D01*
X3108Y651D01*
X3104Y651D01*
X3104Y649D01*
X3102Y649D01*
X3102Y647D01*
X3100Y647D01*
X3100Y645D01*
X3098Y645D01*
X3098Y643D01*
X3094Y643D01*
X3094Y641D01*
X3092Y641D01*
X3092Y639D01*
X3090Y639D01*
X3090Y637D01*
X3088Y637D01*
X3088Y635D01*
X3084Y635D01*
X3084Y633D01*
X3082Y633D01*
X3082Y631D01*
X3080Y631D01*
X3080Y629D01*
X3078Y629D01*
X3078Y627D01*
X3074Y627D01*
X3074Y625D01*
X3072Y625D01*
X3072Y623D01*
X3070Y623D01*
X3070Y621D01*
X3068Y621D01*
X3068Y619D01*
X3064Y619D01*
X3064Y617D01*
X3062Y617D01*
X3062Y615D01*
X3060Y615D01*
X3060Y613D01*
X3058Y613D01*
X3058Y611D01*
X3054Y611D01*
X3054Y609D01*
X3052Y609D01*
X3052Y607D01*
X3050Y607D01*
X3050Y605D01*
X3048Y605D01*
X3048Y603D01*
X3044Y603D01*
X3044Y601D01*
X3042Y601D01*
X3042Y599D01*
X3040Y599D01*
X3040Y597D01*
X3038Y597D01*
X3038Y595D01*
X3034Y595D01*
X3034Y593D01*
X3032Y593D01*
X3032Y591D01*
X3030Y591D01*
X3030Y589D01*
X3028Y589D01*
X3028Y587D01*
X3024Y587D01*
X3024Y585D01*
X3022Y585D01*
X3022Y583D01*
X3020Y583D01*
X3020Y581D01*
X3018Y581D01*
X3018Y579D01*
X3014Y579D01*
X3014Y577D01*
X3012Y577D01*
X3012Y575D01*
X3010Y575D01*
X3010Y573D01*
X3008Y573D01*
X3008Y571D01*
X3004Y571D01*
X3004Y569D01*
X3002Y569D01*
X3002Y567D01*
X3000Y567D01*
X3000Y565D01*
X2998Y565D01*
X2998Y563D01*
X2994Y563D01*
X2994Y561D01*
X2992Y561D01*
X2992Y559D01*
X2990Y559D01*
X2990Y557D01*
X2988Y557D01*
X2988Y555D01*
X2984Y555D01*
X2984Y553D01*
X2982Y553D01*
X2982Y551D01*
X2980Y551D01*
X2980Y549D01*
X2978Y549D01*
X2978Y547D01*
X2974Y547D01*
X2974Y545D01*
X2972Y545D01*
X2972Y543D01*
X2970Y543D01*
X2970Y541D01*
X2968Y541D01*
X2968Y539D01*
X2964Y539D01*
X2964Y537D01*
X2962Y537D01*
X2962Y367D01*
X3896Y367D01*
X3896Y719D01*
X3190Y719D01*
G37*
D02*
G36*
X44Y709D02*
X44Y479D01*
X1054Y479D01*
X1054Y477D01*
X1060Y477D01*
X1060Y475D01*
X1064Y475D01*
X1064Y473D01*
X1068Y473D01*
X1068Y471D01*
X1070Y471D01*
X1070Y469D01*
X1074Y469D01*
X1074Y467D01*
X1076Y467D01*
X1076Y465D01*
X1078Y465D01*
X1078Y463D01*
X1080Y463D01*
X1080Y461D01*
X1082Y461D01*
X1082Y459D01*
X1084Y459D01*
X1084Y455D01*
X1086Y455D01*
X1086Y453D01*
X1088Y453D01*
X1088Y449D01*
X1090Y449D01*
X1090Y443D01*
X1092Y443D01*
X1092Y411D01*
X1090Y411D01*
X1090Y405D01*
X1088Y405D01*
X1088Y403D01*
X1086Y403D01*
X1086Y399D01*
X1084Y399D01*
X1084Y397D01*
X1082Y397D01*
X1082Y393D01*
X1080Y393D01*
X1080Y391D01*
X1078Y391D01*
X1078Y389D01*
X1076Y389D01*
X1076Y387D01*
X1074Y387D01*
X1074Y385D01*
X1070Y385D01*
X1070Y383D01*
X1068Y383D01*
X1068Y381D01*
X1064Y381D01*
X1064Y379D01*
X1060Y379D01*
X1060Y377D01*
X1054Y377D01*
X1054Y375D01*
X1220Y375D01*
X1220Y557D01*
X1222Y557D01*
X1222Y563D01*
X1224Y563D01*
X1224Y569D01*
X1226Y569D01*
X1226Y573D01*
X1228Y573D01*
X1228Y575D01*
X1230Y575D01*
X1230Y579D01*
X1232Y579D01*
X1232Y599D01*
X1230Y599D01*
X1230Y601D01*
X1228Y601D01*
X1228Y605D01*
X1226Y605D01*
X1226Y609D01*
X1224Y609D01*
X1224Y613D01*
X1222Y613D01*
X1222Y619D01*
X1220Y619D01*
X1220Y657D01*
X1222Y657D01*
X1222Y663D01*
X1224Y663D01*
X1224Y669D01*
X1226Y669D01*
X1226Y673D01*
X1228Y673D01*
X1228Y675D01*
X1230Y675D01*
X1230Y679D01*
X1232Y679D01*
X1232Y681D01*
X1234Y681D01*
X1234Y683D01*
X1236Y683D01*
X1236Y685D01*
X1238Y685D01*
X1238Y689D01*
X1240Y689D01*
X1240Y691D01*
X1244Y691D01*
X1244Y693D01*
X1246Y693D01*
X1246Y695D01*
X1248Y695D01*
X1248Y697D01*
X1250Y697D01*
X1250Y699D01*
X1254Y699D01*
X1254Y701D01*
X1258Y701D01*
X1258Y703D01*
X1260Y703D01*
X1260Y705D01*
X1266Y705D01*
X1266Y707D01*
X1272Y707D01*
X1272Y709D01*
X44Y709D01*
G37*
D02*
G36*
X1308Y709D02*
X1308Y707D01*
X1316Y707D01*
X1316Y705D01*
X1320Y705D01*
X1320Y703D01*
X1324Y703D01*
X1324Y701D01*
X1328Y701D01*
X1328Y699D01*
X1330Y699D01*
X1330Y697D01*
X1332Y697D01*
X1332Y695D01*
X1336Y695D01*
X1336Y693D01*
X1338Y693D01*
X1338Y691D01*
X1340Y691D01*
X1340Y689D01*
X1342Y689D01*
X1342Y687D01*
X1344Y687D01*
X1344Y685D01*
X1346Y685D01*
X1346Y683D01*
X1348Y683D01*
X1348Y679D01*
X1350Y679D01*
X1350Y677D01*
X1352Y677D01*
X1352Y673D01*
X1354Y673D01*
X1354Y669D01*
X1356Y669D01*
X1356Y665D01*
X1358Y665D01*
X1358Y661D01*
X1360Y661D01*
X1360Y651D01*
X1362Y651D01*
X1362Y625D01*
X1360Y625D01*
X1360Y617D01*
X1358Y617D01*
X1358Y611D01*
X1356Y611D01*
X1356Y609D01*
X2398Y609D01*
X2398Y607D01*
X2410Y607D01*
X2410Y605D01*
X2708Y605D01*
X2708Y603D01*
X2714Y603D01*
X2714Y601D01*
X2718Y601D01*
X2718Y599D01*
X2722Y599D01*
X2722Y597D01*
X2726Y597D01*
X2726Y595D01*
X2728Y595D01*
X2728Y593D01*
X2732Y593D01*
X2732Y591D01*
X2734Y591D01*
X2734Y589D01*
X2736Y589D01*
X2736Y587D01*
X2738Y587D01*
X2738Y585D01*
X2740Y585D01*
X2740Y583D01*
X2742Y583D01*
X2742Y581D01*
X2744Y581D01*
X2744Y579D01*
X2746Y579D01*
X2746Y575D01*
X2748Y575D01*
X2748Y573D01*
X2750Y573D01*
X2750Y569D01*
X2752Y569D01*
X2752Y565D01*
X2754Y565D01*
X2754Y559D01*
X2756Y559D01*
X2756Y551D01*
X2758Y551D01*
X2758Y527D01*
X2756Y527D01*
X2756Y517D01*
X2754Y517D01*
X2754Y513D01*
X2752Y513D01*
X2752Y509D01*
X2750Y509D01*
X2750Y505D01*
X2748Y505D01*
X2748Y501D01*
X2746Y501D01*
X2746Y499D01*
X2744Y499D01*
X2744Y477D01*
X2746Y477D01*
X2746Y475D01*
X2748Y475D01*
X2748Y473D01*
X2750Y473D01*
X2750Y469D01*
X2752Y469D01*
X2752Y465D01*
X2754Y465D01*
X2754Y459D01*
X2756Y459D01*
X2756Y451D01*
X2758Y451D01*
X2758Y425D01*
X2756Y425D01*
X2756Y417D01*
X2754Y417D01*
X2754Y413D01*
X2752Y413D01*
X2752Y409D01*
X2750Y409D01*
X2750Y405D01*
X2748Y405D01*
X2748Y401D01*
X2746Y401D01*
X2746Y399D01*
X2744Y399D01*
X2744Y397D01*
X2742Y397D01*
X2742Y393D01*
X2740Y393D01*
X2740Y391D01*
X2738Y391D01*
X2738Y389D01*
X2736Y389D01*
X2736Y387D01*
X2732Y387D01*
X2732Y385D01*
X2730Y385D01*
X2730Y383D01*
X2728Y383D01*
X2728Y381D01*
X2724Y381D01*
X2724Y379D01*
X2722Y379D01*
X2722Y377D01*
X2718Y377D01*
X2718Y375D01*
X2712Y375D01*
X2712Y373D01*
X2704Y373D01*
X2704Y371D01*
X2820Y371D01*
X2820Y557D01*
X2822Y557D01*
X2822Y563D01*
X2824Y563D01*
X2824Y569D01*
X2826Y569D01*
X2826Y573D01*
X2828Y573D01*
X2828Y575D01*
X2830Y575D01*
X2830Y579D01*
X2832Y579D01*
X2832Y599D01*
X2830Y599D01*
X2830Y601D01*
X2828Y601D01*
X2828Y605D01*
X2826Y605D01*
X2826Y609D01*
X2824Y609D01*
X2824Y613D01*
X2822Y613D01*
X2822Y619D01*
X2820Y619D01*
X2820Y657D01*
X2822Y657D01*
X2822Y663D01*
X2824Y663D01*
X2824Y669D01*
X2826Y669D01*
X2826Y673D01*
X2828Y673D01*
X2828Y675D01*
X2830Y675D01*
X2830Y679D01*
X2832Y679D01*
X2832Y681D01*
X2834Y681D01*
X2834Y683D01*
X2836Y683D01*
X2836Y685D01*
X2838Y685D01*
X2838Y689D01*
X2840Y689D01*
X2840Y691D01*
X2844Y691D01*
X2844Y693D01*
X2846Y693D01*
X2846Y695D01*
X2848Y695D01*
X2848Y697D01*
X2850Y697D01*
X2850Y699D01*
X2854Y699D01*
X2854Y701D01*
X2858Y701D01*
X2858Y703D01*
X2860Y703D01*
X2860Y705D01*
X2866Y705D01*
X2866Y707D01*
X2872Y707D01*
X2872Y709D01*
X1308Y709D01*
G37*
D02*
G36*
X1356Y609D02*
X1356Y607D01*
X1354Y607D01*
X1354Y605D01*
X1508Y605D01*
X1508Y603D01*
X1514Y603D01*
X1514Y601D01*
X1518Y601D01*
X1518Y599D01*
X1522Y599D01*
X1522Y597D01*
X1526Y597D01*
X1526Y595D01*
X1528Y595D01*
X1528Y593D01*
X1532Y593D01*
X1532Y591D01*
X1534Y591D01*
X1534Y589D01*
X1536Y589D01*
X1536Y587D01*
X1538Y587D01*
X1538Y585D01*
X1540Y585D01*
X1540Y583D01*
X1542Y583D01*
X1542Y581D01*
X1544Y581D01*
X1544Y579D01*
X1546Y579D01*
X1546Y575D01*
X1548Y575D01*
X1548Y573D01*
X1550Y573D01*
X1550Y569D01*
X1552Y569D01*
X1552Y565D01*
X1554Y565D01*
X1554Y559D01*
X1556Y559D01*
X1556Y551D01*
X1558Y551D01*
X1558Y527D01*
X1556Y527D01*
X1556Y517D01*
X1554Y517D01*
X1554Y513D01*
X1552Y513D01*
X1552Y509D01*
X1550Y509D01*
X1550Y505D01*
X1548Y505D01*
X1548Y501D01*
X1546Y501D01*
X1546Y499D01*
X1544Y499D01*
X1544Y477D01*
X1546Y477D01*
X1546Y475D01*
X1548Y475D01*
X1548Y473D01*
X1550Y473D01*
X1550Y469D01*
X1552Y469D01*
X1552Y465D01*
X1554Y465D01*
X1554Y459D01*
X1556Y459D01*
X1556Y451D01*
X1558Y451D01*
X1558Y425D01*
X1556Y425D01*
X1556Y417D01*
X1554Y417D01*
X1554Y413D01*
X1552Y413D01*
X1552Y409D01*
X1550Y409D01*
X1550Y405D01*
X1548Y405D01*
X1548Y401D01*
X1546Y401D01*
X1546Y399D01*
X1544Y399D01*
X1544Y397D01*
X1542Y397D01*
X1542Y393D01*
X1540Y393D01*
X1540Y391D01*
X1538Y391D01*
X1538Y389D01*
X1536Y389D01*
X1536Y387D01*
X1532Y387D01*
X1532Y385D01*
X1530Y385D01*
X1530Y383D01*
X1528Y383D01*
X1528Y381D01*
X1524Y381D01*
X1524Y379D01*
X1522Y379D01*
X1522Y377D01*
X1518Y377D01*
X1518Y375D01*
X1512Y375D01*
X1512Y373D01*
X1504Y373D01*
X1504Y371D01*
X1620Y371D01*
X1620Y507D01*
X1622Y507D01*
X1622Y529D01*
X1620Y529D01*
X1620Y549D01*
X1622Y549D01*
X1622Y559D01*
X1624Y559D01*
X1624Y565D01*
X1626Y565D01*
X1626Y569D01*
X1628Y569D01*
X1628Y573D01*
X1630Y573D01*
X1630Y575D01*
X1632Y575D01*
X1632Y579D01*
X1634Y579D01*
X1634Y581D01*
X1636Y581D01*
X1636Y583D01*
X1638Y583D01*
X1638Y585D01*
X1640Y585D01*
X1640Y587D01*
X1642Y587D01*
X1642Y589D01*
X1644Y589D01*
X1644Y591D01*
X1646Y591D01*
X1646Y593D01*
X1648Y593D01*
X1648Y595D01*
X1650Y595D01*
X1650Y597D01*
X1654Y597D01*
X1654Y599D01*
X1656Y599D01*
X1656Y601D01*
X1660Y601D01*
X1660Y603D01*
X1664Y603D01*
X1664Y605D01*
X1670Y605D01*
X1670Y607D01*
X1682Y607D01*
X1682Y609D01*
X1356Y609D01*
G37*
D02*
G36*
X1698Y609D02*
X1698Y607D01*
X1710Y607D01*
X1710Y605D01*
X1716Y605D01*
X1716Y603D01*
X1720Y603D01*
X1720Y601D01*
X1724Y601D01*
X1724Y599D01*
X1728Y599D01*
X1728Y597D01*
X1730Y597D01*
X1730Y595D01*
X1732Y595D01*
X1732Y593D01*
X1736Y593D01*
X1736Y591D01*
X1738Y591D01*
X1738Y589D01*
X1740Y589D01*
X1740Y587D01*
X1742Y587D01*
X1742Y585D01*
X1744Y585D01*
X1744Y583D01*
X1746Y583D01*
X1746Y579D01*
X1748Y579D01*
X1748Y577D01*
X1750Y577D01*
X1750Y573D01*
X1752Y573D01*
X1752Y571D01*
X1754Y571D01*
X1754Y567D01*
X1756Y567D01*
X1756Y561D01*
X1758Y561D01*
X1758Y555D01*
X1760Y555D01*
X1760Y369D01*
X2320Y369D01*
X2320Y507D01*
X2322Y507D01*
X2322Y529D01*
X2320Y529D01*
X2320Y549D01*
X2322Y549D01*
X2322Y559D01*
X2324Y559D01*
X2324Y565D01*
X2326Y565D01*
X2326Y569D01*
X2328Y569D01*
X2328Y573D01*
X2330Y573D01*
X2330Y575D01*
X2332Y575D01*
X2332Y579D01*
X2334Y579D01*
X2334Y581D01*
X2336Y581D01*
X2336Y583D01*
X2338Y583D01*
X2338Y585D01*
X2340Y585D01*
X2340Y587D01*
X2342Y587D01*
X2342Y589D01*
X2344Y589D01*
X2344Y591D01*
X2346Y591D01*
X2346Y593D01*
X2348Y593D01*
X2348Y595D01*
X2350Y595D01*
X2350Y597D01*
X2354Y597D01*
X2354Y599D01*
X2356Y599D01*
X2356Y601D01*
X2360Y601D01*
X2360Y603D01*
X2364Y603D01*
X2364Y605D01*
X2370Y605D01*
X2370Y607D01*
X2382Y607D01*
X2382Y609D01*
X1698Y609D01*
G37*
D02*
G36*
X1354Y605D02*
X1354Y603D01*
X1352Y603D01*
X1352Y601D01*
X1350Y601D01*
X1350Y577D01*
X1352Y577D01*
X1352Y573D01*
X1354Y573D01*
X1354Y569D01*
X1356Y569D01*
X1356Y565D01*
X1358Y565D01*
X1358Y561D01*
X1360Y561D01*
X1360Y551D01*
X1362Y551D01*
X1362Y371D01*
X1476Y371D01*
X1476Y373D01*
X1468Y373D01*
X1468Y375D01*
X1464Y375D01*
X1464Y377D01*
X1460Y377D01*
X1460Y379D01*
X1456Y379D01*
X1456Y381D01*
X1454Y381D01*
X1454Y383D01*
X1450Y383D01*
X1450Y385D01*
X1448Y385D01*
X1448Y387D01*
X1446Y387D01*
X1446Y389D01*
X1444Y389D01*
X1444Y391D01*
X1442Y391D01*
X1442Y393D01*
X1440Y393D01*
X1440Y395D01*
X1438Y395D01*
X1438Y397D01*
X1436Y397D01*
X1436Y399D01*
X1434Y399D01*
X1434Y403D01*
X1432Y403D01*
X1432Y405D01*
X1430Y405D01*
X1430Y409D01*
X1428Y409D01*
X1428Y413D01*
X1426Y413D01*
X1426Y419D01*
X1424Y419D01*
X1424Y457D01*
X1426Y457D01*
X1426Y463D01*
X1428Y463D01*
X1428Y467D01*
X1430Y467D01*
X1430Y471D01*
X1432Y471D01*
X1432Y475D01*
X1434Y475D01*
X1434Y477D01*
X1436Y477D01*
X1436Y499D01*
X1434Y499D01*
X1434Y503D01*
X1432Y503D01*
X1432Y507D01*
X1430Y507D01*
X1430Y509D01*
X1428Y509D01*
X1428Y515D01*
X1426Y515D01*
X1426Y519D01*
X1424Y519D01*
X1424Y557D01*
X1426Y557D01*
X1426Y563D01*
X1428Y563D01*
X1428Y567D01*
X1430Y567D01*
X1430Y571D01*
X1432Y571D01*
X1432Y575D01*
X1434Y575D01*
X1434Y577D01*
X1436Y577D01*
X1436Y579D01*
X1438Y579D01*
X1438Y583D01*
X1440Y583D01*
X1440Y585D01*
X1442Y585D01*
X1442Y587D01*
X1444Y587D01*
X1444Y589D01*
X1446Y589D01*
X1446Y591D01*
X1450Y591D01*
X1450Y593D01*
X1452Y593D01*
X1452Y595D01*
X1454Y595D01*
X1454Y597D01*
X1458Y597D01*
X1458Y599D01*
X1462Y599D01*
X1462Y601D01*
X1466Y601D01*
X1466Y603D01*
X1472Y603D01*
X1472Y605D01*
X1354Y605D01*
G37*
D02*
G36*
X2416Y605D02*
X2416Y603D01*
X2420Y603D01*
X2420Y601D01*
X2424Y601D01*
X2424Y599D01*
X2428Y599D01*
X2428Y597D01*
X2430Y597D01*
X2430Y595D01*
X2432Y595D01*
X2432Y593D01*
X2436Y593D01*
X2436Y591D01*
X2438Y591D01*
X2438Y589D01*
X2440Y589D01*
X2440Y587D01*
X2442Y587D01*
X2442Y585D01*
X2444Y585D01*
X2444Y583D01*
X2446Y583D01*
X2446Y579D01*
X2448Y579D01*
X2448Y577D01*
X2450Y577D01*
X2450Y573D01*
X2452Y573D01*
X2452Y571D01*
X2454Y571D01*
X2454Y567D01*
X2456Y567D01*
X2456Y561D01*
X2458Y561D01*
X2458Y555D01*
X2460Y555D01*
X2460Y371D01*
X2676Y371D01*
X2676Y373D01*
X2668Y373D01*
X2668Y375D01*
X2664Y375D01*
X2664Y377D01*
X2660Y377D01*
X2660Y379D01*
X2656Y379D01*
X2656Y381D01*
X2654Y381D01*
X2654Y383D01*
X2650Y383D01*
X2650Y385D01*
X2648Y385D01*
X2648Y387D01*
X2646Y387D01*
X2646Y389D01*
X2644Y389D01*
X2644Y391D01*
X2642Y391D01*
X2642Y393D01*
X2640Y393D01*
X2640Y395D01*
X2638Y395D01*
X2638Y397D01*
X2636Y397D01*
X2636Y399D01*
X2634Y399D01*
X2634Y403D01*
X2632Y403D01*
X2632Y405D01*
X2630Y405D01*
X2630Y409D01*
X2628Y409D01*
X2628Y413D01*
X2626Y413D01*
X2626Y419D01*
X2624Y419D01*
X2624Y457D01*
X2626Y457D01*
X2626Y463D01*
X2628Y463D01*
X2628Y467D01*
X2630Y467D01*
X2630Y471D01*
X2632Y471D01*
X2632Y475D01*
X2634Y475D01*
X2634Y477D01*
X2636Y477D01*
X2636Y499D01*
X2634Y499D01*
X2634Y503D01*
X2632Y503D01*
X2632Y507D01*
X2630Y507D01*
X2630Y509D01*
X2628Y509D01*
X2628Y515D01*
X2626Y515D01*
X2626Y519D01*
X2624Y519D01*
X2624Y557D01*
X2626Y557D01*
X2626Y563D01*
X2628Y563D01*
X2628Y567D01*
X2630Y567D01*
X2630Y571D01*
X2632Y571D01*
X2632Y575D01*
X2634Y575D01*
X2634Y577D01*
X2636Y577D01*
X2636Y579D01*
X2638Y579D01*
X2638Y583D01*
X2640Y583D01*
X2640Y585D01*
X2642Y585D01*
X2642Y587D01*
X2644Y587D01*
X2644Y589D01*
X2646Y589D01*
X2646Y591D01*
X2650Y591D01*
X2650Y593D01*
X2652Y593D01*
X2652Y595D01*
X2654Y595D01*
X2654Y597D01*
X2658Y597D01*
X2658Y599D01*
X2662Y599D01*
X2662Y601D01*
X2666Y601D01*
X2666Y603D01*
X2672Y603D01*
X2672Y605D01*
X2416Y605D01*
G37*
D02*
G36*
X44Y479D02*
X44Y375D01*
X1028Y375D01*
X1028Y377D01*
X1022Y377D01*
X1022Y379D01*
X1018Y379D01*
X1018Y381D01*
X1014Y381D01*
X1014Y383D01*
X1010Y383D01*
X1010Y385D01*
X1008Y385D01*
X1008Y387D01*
X1006Y387D01*
X1006Y389D01*
X1004Y389D01*
X1004Y391D01*
X1002Y391D01*
X1002Y393D01*
X1000Y393D01*
X1000Y395D01*
X998Y395D01*
X998Y399D01*
X996Y399D01*
X996Y401D01*
X994Y401D01*
X994Y405D01*
X992Y405D01*
X992Y409D01*
X990Y409D01*
X990Y445D01*
X992Y445D01*
X992Y449D01*
X994Y449D01*
X994Y453D01*
X996Y453D01*
X996Y457D01*
X998Y457D01*
X998Y459D01*
X1000Y459D01*
X1000Y461D01*
X1002Y461D01*
X1002Y463D01*
X1004Y463D01*
X1004Y465D01*
X1006Y465D01*
X1006Y467D01*
X1008Y467D01*
X1008Y469D01*
X1010Y469D01*
X1010Y471D01*
X1014Y471D01*
X1014Y473D01*
X1016Y473D01*
X1016Y475D01*
X1020Y475D01*
X1020Y477D01*
X1028Y477D01*
X1028Y479D01*
X44Y479D01*
G37*
D02*
G36*
X44Y375D02*
X44Y373D01*
X1220Y373D01*
X1220Y375D01*
X44Y375D01*
G37*
D02*
G36*
X44Y375D02*
X44Y373D01*
X1220Y373D01*
X1220Y375D01*
X44Y375D01*
G37*
D02*
G36*
X44Y373D02*
X44Y367D01*
X1220Y367D01*
X1220Y373D01*
X44Y373D01*
G37*
D02*
G36*
X1362Y371D02*
X1362Y369D01*
X1620Y369D01*
X1620Y371D01*
X1362Y371D01*
G37*
D02*
G36*
X1362Y371D02*
X1362Y369D01*
X1620Y369D01*
X1620Y371D01*
X1362Y371D01*
G37*
D02*
G36*
X2460Y371D02*
X2460Y369D01*
X2820Y369D01*
X2820Y371D01*
X2460Y371D01*
G37*
D02*
G36*
X2460Y371D02*
X2460Y369D01*
X2820Y369D01*
X2820Y371D01*
X2460Y371D01*
G37*
D02*
G36*
X1362Y369D02*
X1362Y367D01*
X2820Y367D01*
X2820Y369D01*
X1362Y369D01*
G37*
D02*
G36*
X1362Y369D02*
X1362Y367D01*
X2820Y367D01*
X2820Y369D01*
X1362Y369D01*
G37*
D02*
G36*
X1362Y369D02*
X1362Y367D01*
X2820Y367D01*
X2820Y369D01*
X1362Y369D01*
G37*
D02*
G36*
X44Y367D02*
X44Y365D01*
X3896Y365D01*
X3896Y367D01*
X44Y367D01*
G37*
D02*
G36*
X44Y367D02*
X44Y365D01*
X3896Y365D01*
X3896Y367D01*
X44Y367D01*
G37*
D02*
G36*
X44Y367D02*
X44Y365D01*
X3896Y365D01*
X3896Y367D01*
X44Y367D01*
G37*
D02*
G36*
X44Y365D02*
X44Y43D01*
X3896Y43D01*
X3896Y365D01*
X44Y365D01*
G37*
D02*
G36*
X1270Y1023D02*
X1309Y1023D01*
X1309Y967D01*
X1270Y967D01*
X1270Y1023D01*
G37*
D02*
G36*
X1308Y1061D02*
X1362Y1061D01*
X1362Y1022D01*
X1308Y1022D01*
X1308Y1061D01*
G37*
D02*
G36*
X1470Y1027D02*
X1505Y1027D01*
X1505Y971D01*
X1470Y971D01*
X1470Y1027D01*
G37*
D02*
G36*
X1420Y1059D02*
X1472Y1059D01*
X1472Y1024D01*
X1420Y1024D01*
X1420Y1059D01*
G37*
D02*
G36*
X1502Y1059D02*
X1558Y1059D01*
X1558Y1024D01*
X1502Y1024D01*
X1502Y1059D01*
G37*
D02*
G36*
X1669Y1025D02*
X1706Y1025D01*
X1706Y969D01*
X1669Y969D01*
X1669Y1025D01*
G37*
D02*
G36*
X1616Y1060D02*
X1670Y1060D01*
X1670Y1023D01*
X1616Y1023D01*
X1616Y1060D01*
G37*
D02*
G36*
X1704Y1060D02*
X1760Y1060D01*
X1760Y1023D01*
X1704Y1023D01*
X1704Y1060D01*
G37*
D02*
G36*
X1030Y423D02*
X1049Y423D01*
X1049Y375D01*
X1030Y375D01*
X1030Y423D01*
G37*
D02*
G36*
X986Y439D02*
X1032Y439D01*
X1032Y420D01*
X986Y420D01*
X986Y439D01*
G37*
D02*
G36*
X1046Y439D02*
X1092Y439D01*
X1092Y420D01*
X1046Y420D01*
X1046Y439D01*
G37*
D02*
G36*
X1270Y423D02*
X1309Y423D01*
X1309Y367D01*
X1270Y367D01*
X1270Y423D01*
G37*
D02*
G36*
X1216Y461D02*
X1270Y461D01*
X1270Y422D01*
X1216Y422D01*
X1216Y461D01*
G37*
D02*
G36*
X1308Y461D02*
X1362Y461D01*
X1362Y422D01*
X1308Y422D01*
X1308Y461D01*
G37*
D02*
G36*
X1470Y427D02*
X1505Y427D01*
X1505Y371D01*
X1470Y371D01*
X1470Y427D01*
G37*
D02*
G36*
X1420Y459D02*
X1472Y459D01*
X1472Y424D01*
X1420Y424D01*
X1420Y459D01*
G37*
D02*
G36*
X1502Y459D02*
X1558Y459D01*
X1558Y424D01*
X1502Y424D01*
X1502Y459D01*
G37*
D02*
G36*
X471Y1013D02*
X508Y1013D01*
X508Y959D01*
X471Y959D01*
X471Y1013D01*
G37*
D02*
G36*
X471Y925D02*
X508Y925D01*
X508Y869D01*
X471Y869D01*
X471Y925D01*
G37*
D02*
G36*
X416Y960D02*
X472Y960D01*
X472Y923D01*
X416Y923D01*
X416Y960D01*
G37*
D02*
G36*
X112Y3813D02*
X151Y3813D01*
X151Y3759D01*
X112Y3759D01*
X112Y3813D01*
G37*
D02*
G36*
X112Y3721D02*
X151Y3721D01*
X151Y3667D01*
X112Y3667D01*
X112Y3721D01*
G37*
D02*
G36*
X970Y1921D02*
X1009Y1921D01*
X1009Y1867D01*
X970Y1867D01*
X970Y1921D01*
G37*
D02*
G36*
X916Y1959D02*
X970Y1959D01*
X970Y1920D01*
X916Y1920D01*
X916Y1959D01*
G37*
D02*
G36*
X1008Y1959D02*
X1062Y1959D01*
X1062Y1920D01*
X1008Y1920D01*
X1008Y1959D01*
G37*
D02*
G36*
X469Y1415D02*
X510Y1415D01*
X510Y1363D01*
X469Y1363D01*
X469Y1415D01*
G37*
D02*
G36*
X469Y1321D02*
X510Y1321D01*
X510Y1265D01*
X469Y1265D01*
X469Y1321D01*
G37*
D02*
G36*
X1669Y425D02*
X1706Y425D01*
X1706Y369D01*
X1669Y369D01*
X1669Y425D01*
G37*
D02*
G36*
X1616Y460D02*
X1670Y460D01*
X1670Y423D01*
X1616Y423D01*
X1616Y460D01*
G37*
D02*
G36*
X1704Y460D02*
X1760Y460D01*
X1760Y423D01*
X1704Y423D01*
X1704Y460D01*
G37*
D02*
G36*
X571Y1923D02*
X608Y1923D01*
X608Y1869D01*
X571Y1869D01*
X571Y1923D01*
G37*
D02*
G36*
X516Y1958D02*
X572Y1958D01*
X572Y1921D01*
X516Y1921D01*
X516Y1958D01*
G37*
D02*
G36*
X606Y1958D02*
X660Y1958D01*
X660Y1921D01*
X606Y1921D01*
X606Y1958D01*
G37*
D02*
G36*
X114Y2660D02*
X168Y2660D01*
X168Y2619D01*
X114Y2619D01*
X114Y2660D01*
G37*
D02*
G36*
X210Y2660D02*
X264Y2660D01*
X264Y2619D01*
X210Y2619D01*
X210Y2660D01*
G37*
D02*
G36*
X516Y2658D02*
X572Y2658D01*
X572Y2621D01*
X516Y2621D01*
X516Y2658D01*
G37*
D02*
G36*
X606Y2658D02*
X660Y2658D01*
X660Y2621D01*
X606Y2621D01*
X606Y2658D01*
G37*
D02*
G36*
X320Y2657D02*
X374Y2657D01*
X374Y2622D01*
X320Y2622D01*
X320Y2657D01*
G37*
D02*
G36*
X404Y2657D02*
X458Y2657D01*
X458Y2622D01*
X404Y2622D01*
X404Y2657D01*
G37*
D02*
G36*
X1468Y3721D02*
X1507Y3721D01*
X1507Y3667D01*
X1468Y3667D01*
X1468Y3721D01*
G37*
D02*
G36*
X1506Y3759D02*
X1562Y3759D01*
X1562Y3720D01*
X1506Y3720D01*
X1506Y3759D01*
G37*
D02*
G36*
X171Y1923D02*
X208Y1923D01*
X208Y1869D01*
X171Y1869D01*
X171Y1923D01*
G37*
D02*
G36*
X116Y1958D02*
X172Y1958D01*
X172Y1921D01*
X116Y1921D01*
X116Y1958D01*
G37*
D02*
G36*
X206Y1958D02*
X260Y1958D01*
X260Y1921D01*
X206Y1921D01*
X206Y1958D01*
G37*
D02*
G36*
X2369Y1025D02*
X2406Y1025D01*
X2406Y969D01*
X2369Y969D01*
X2369Y1025D01*
G37*
D02*
G36*
X2316Y1060D02*
X2370Y1060D01*
X2370Y1023D01*
X2316Y1023D01*
X2316Y1060D01*
G37*
D02*
G36*
X2404Y1060D02*
X2460Y1060D01*
X2460Y1023D01*
X2404Y1023D01*
X2404Y1060D01*
G37*
D02*
G36*
X2670Y1027D02*
X2705Y1027D01*
X2705Y971D01*
X2670Y971D01*
X2670Y1027D01*
G37*
D02*
G36*
X2620Y1059D02*
X2672Y1059D01*
X2672Y1024D01*
X2620Y1024D01*
X2620Y1059D01*
G37*
D02*
G36*
X2702Y1059D02*
X2758Y1059D01*
X2758Y1024D01*
X2702Y1024D01*
X2702Y1059D01*
G37*
D02*
G36*
X2868Y1023D02*
X2907Y1023D01*
X2907Y967D01*
X2868Y967D01*
X2868Y1023D01*
G37*
D02*
G36*
X2816Y1061D02*
X2868Y1061D01*
X2868Y1022D01*
X2816Y1022D01*
X2816Y1061D01*
G37*
D02*
G36*
X2906Y1061D02*
X2962Y1061D01*
X2962Y1022D01*
X2906Y1022D01*
X2906Y1061D01*
G37*
D02*
G36*
X3469Y1013D02*
X3506Y1013D01*
X3506Y959D01*
X3469Y959D01*
X3469Y1013D01*
G37*
D02*
G36*
X3469Y925D02*
X3506Y925D01*
X3506Y869D01*
X3469Y869D01*
X3469Y925D01*
G37*
D02*
G36*
X3504Y960D02*
X3560Y960D01*
X3560Y923D01*
X3504Y923D01*
X3504Y960D01*
G37*
D02*
G36*
X3467Y1415D02*
X3508Y1415D01*
X3508Y1363D01*
X3467Y1363D01*
X3467Y1415D01*
G37*
D02*
G36*
X3467Y1321D02*
X3508Y1321D01*
X3508Y1265D01*
X3467Y1265D01*
X3467Y1321D01*
G37*
D02*
G36*
X2369Y425D02*
X2406Y425D01*
X2406Y369D01*
X2369Y369D01*
X2369Y425D01*
G37*
D02*
G36*
X2316Y460D02*
X2370Y460D01*
X2370Y423D01*
X2316Y423D01*
X2316Y460D01*
G37*
D02*
G36*
X2404Y460D02*
X2460Y460D01*
X2460Y423D01*
X2404Y423D01*
X2404Y460D01*
G37*
D02*
G36*
X2670Y427D02*
X2705Y427D01*
X2705Y371D01*
X2670Y371D01*
X2670Y427D01*
G37*
D02*
G36*
X2620Y459D02*
X2672Y459D01*
X2672Y424D01*
X2620Y424D01*
X2620Y459D01*
G37*
D02*
G36*
X2702Y459D02*
X2758Y459D01*
X2758Y424D01*
X2702Y424D01*
X2702Y459D01*
G37*
D02*
G36*
X2868Y423D02*
X2907Y423D01*
X2907Y367D01*
X2868Y367D01*
X2868Y423D01*
G37*
D02*
G36*
X2816Y461D02*
X2868Y461D01*
X2868Y422D01*
X2816Y422D01*
X2816Y461D01*
G37*
D02*
G36*
X2906Y461D02*
X2962Y461D01*
X2962Y422D01*
X2906Y422D01*
X2906Y461D01*
G37*
D02*
G36*
X3478Y829D02*
X3497Y829D01*
X3497Y783D01*
X3478Y783D01*
X3478Y829D01*
G37*
D02*
G36*
X3478Y769D02*
X3497Y769D01*
X3497Y721D01*
X3478Y721D01*
X3478Y769D01*
G37*
D02*
G36*
X3434Y785D02*
X3480Y785D01*
X3480Y766D01*
X3434Y766D01*
X3434Y785D01*
G37*
D02*
G36*
X3494Y785D02*
X3540Y785D01*
X3540Y766D01*
X3494Y766D01*
X3494Y785D01*
G37*
D02*
G36*
X916Y2658D02*
X972Y2658D01*
X972Y2621D01*
X916Y2621D01*
X916Y2658D01*
G37*
D02*
G36*
X1006Y2658D02*
X1060Y2658D01*
X1060Y2621D01*
X1006Y2621D01*
X1006Y2658D01*
G37*
D02*
G36*
X1120Y2657D02*
X1174Y2657D01*
X1174Y2622D01*
X1120Y2622D01*
X1120Y2657D01*
G37*
D02*
G36*
X1204Y2657D02*
X1258Y2657D01*
X1258Y2622D01*
X1204Y2622D01*
X1204Y2657D01*
G37*
D02*
G36*
X1314Y2660D02*
X1368Y2660D01*
X1368Y2619D01*
X1314Y2619D01*
X1314Y2660D01*
G37*
D02*
G36*
X1410Y2660D02*
X1464Y2660D01*
X1464Y2619D01*
X1410Y2619D01*
X1410Y2660D01*
G37*
D02*
G36*
X3616Y2958D02*
X3670Y2958D01*
X3670Y2921D01*
X3616Y2921D01*
X3616Y2958D01*
G37*
D02*
G36*
X3704Y2958D02*
X3760Y2958D01*
X3760Y2921D01*
X3704Y2921D01*
X3704Y2958D01*
G37*
D02*
G36*
X3616Y2858D02*
X3670Y2858D01*
X3670Y2821D01*
X3616Y2821D01*
X3616Y2858D01*
G37*
D02*
G36*
X3704Y2858D02*
X3760Y2858D01*
X3760Y2821D01*
X3704Y2821D01*
X3704Y2858D01*
G37*
D02*
G36*
X1716Y2288D02*
X1770Y2288D01*
X1770Y2251D01*
X1716Y2251D01*
X1716Y2288D01*
G37*
D02*
G36*
X1804Y2288D02*
X1860Y2288D01*
X1860Y2251D01*
X1804Y2251D01*
X1804Y2288D01*
G37*
D02*
G54D22*
X963Y2566D02*
X1018Y2566D01*
X1018Y2511D01*
X963Y2511D01*
X963Y2566D01*
D02*
G04 End of Copper1*
M02*