M48
INCH
T10C0.034167
T11C0.038000
T12C0.042000
T13C0.030000
T14C0.035000
T15C0.015748
%
T10
X036903Y037385
X036903Y036385
X036903Y035385
X036903Y034385
X036903Y033385
X036903Y032385
X036903Y030385
X036903Y029385
X036903Y028385
X036903Y027385
X036903Y026385
X036903Y025385
X036903Y024385
X036903Y023385
X017903Y037385
X017903Y036385
X017903Y035385
X017903Y034385
X017903Y033385
X017903Y032385
X017903Y031385
X017903Y030385
X017903Y028685
X017903Y027685
X017903Y026685
X017903Y025685
X017903Y024685
X017903Y023685
X017903Y022685
X017903Y021685
X017903Y020615
X017903Y019614
T11
X012903Y012384
X012903Y011384
X012903Y010384
X012903Y006384
X012903Y005384
X012903Y004384
X028903Y012384
X028903Y011384
X028903Y010384
X028903Y006384
X028903Y005384
X028903Y004384
X004903Y037384
X003903Y037384
X003903Y035384
X004903Y035384
X003903Y033384
X004903Y033384
X008903Y031384
X009903Y031384
X008903Y037384
X009903Y037384
X008903Y035384
X009903Y035384
X008903Y033384
X009903Y033384
X003903Y031384
X004903Y031384
X014903Y037384
X013903Y037384
X001338Y037383
X002338Y037383
X009903Y020384
X009903Y019384
T12
X001903Y027385
X001903Y026385
X001903Y025385
X013903Y025385
X013903Y026385
X013903Y027385
X033903Y013384
X034903Y013384
X035903Y013384
X005903Y013384
X004903Y013384
X003903Y013384
T13
X003903Y026383
X003903Y027385
X011903Y025383
X011903Y026385
X026903Y010383
X026903Y011384
X026903Y004383
X026903Y005384
X014903Y010383
X014903Y011384
X014903Y004383
X014903Y005384
T14
X033903Y009384
X034903Y009384
X005903Y020384
X005903Y019384
X001903Y020384
X001903Y019384
X005903Y009384
X004903Y009384
X016903Y011384
X016903Y010384
X016903Y005384
X016903Y004384
X023903Y005384
X023903Y004384
X023903Y011384
X023903Y010384
X009903Y026385
X009903Y025385
X005903Y027385
X005903Y026385
T15
X012919Y032156
X011312Y033953
X008695Y030296
X021903Y013217
X034891Y007736
X010407Y004271
X003964Y020282
T00
M30
